<svg xmlns="http://www.w3.org/2000/svg" width="16" height="16" class="icon" p-id="4883" t="1625294255567" version="1.1" viewBox="0 0 1024 1024"><defs><style type="text/css"/></defs><path fill="#8a8a8a" d="M62.659316 898.116869 155.237045 329.102536c1.693495-9.590827 10.725469-16.93495 19.757442-16.93495l713.52591 0 0-84.674752c0-9.590827-7.338479-16.93495-16.93495-16.93495l-429.018743 0L366.923925 120.238148 22.579934 120.238148c-9.596472 0-16.93495 7.344123-16.93495 16.93495L5.644983 881.181918c0 9.590827 7.338479 16.93495 16.93495 16.93495L62.659316 898.116869z" p-id="4884"/><path fill="#8a8a8a" d="M998.597574 382.16538 228.057332 382.16538c-9.037619 0-18.063947 7.338479-19.192944 16.370452L121.367144 882.310915c-1.693495 9.037619 4.515987 16.370452 13.54796 16.370452l770.540243 0c9.031974 0 18.063947-7.338479 19.187299-16.370452L1012.145535 398.535832C1013.83903 390.068357 1007.629548 382.16538 998.597574 382.16538z" p-id="4885"/></svg>