<svg height="90" viewBox="0 0 241 57" width="120" xmlns="http://www.w3.org/2000/svg">
    <g fill="none" fill-rule="evenodd" transform="translate(1 1)">
        <path d="m27.0488702 37.7884213c-5.6986076.0387177-10.3433631-3.6781762-10.6556156-10.6086347-.3122524-6.4658466 5.3863551-10.8022229 10.8117418-10.9183758 6.2450494-.1548706 9.992079 6.9691761 9.992079 6.9691761l16.1200337-5.9237997s-6.6353649-17.15191662-24.5898819-17.15191662c-16.7835702 0-28.37594317 11.61529342-28.37594317 27.37337482 0 14.0157875 10.92883647 27.9928572 27.98562757 27.3733749 18.7351482-.6969176 25.1363238-17.1519166 25.1363238-17.1519166l-16.5493809-5.4591879c.0390316-.0774353-3.356714 5.4979055-9.8749843 5.4979055"
              fill="#3dab53"/>
        <path d="m27.0488702 37.7884213c-5.6986076.0387177-10.3433631-3.6781762-10.6556156-10.6086347-.3122524-6.4658466 5.3863551-10.8022229 10.8117418-10.9183758 6.2450494-.1548706 9.992079 6.9691761 9.992079 6.9691761l16.1200337-5.9237997s-6.6353649-17.15191662-24.5898819-17.15191662c-16.7835702 0-28.37594317 11.61529342-28.37594317 27.37337482 0 14.0157875 10.92883647 27.9928572 27.98562757 27.3733749 18.7351482-.6969176 25.1363238-17.1519166 25.1363238-17.1519166l-16.5493809-5.4591879c.0390316-.0774353-3.356714 5.4979055-9.8749843 5.4979055"
              stroke="#006838" stroke-width="1.943599"/>
        <path d="m80.3223529 36.9769231c5.3788236 0 7.962353-4.5692308 7.962353-9.7307693 0-5.1192307-2.6682353-9.7307692-7.962353-9.7307692-5.2941176 0-7.9623529 4.6115385-7.9623529 9.7307692 0 5.1615385 2.5835294 9.7307693 7.9623529 9.7307693zm0 5.8384615c-8.597647 0-14.5694117-6.8115384-14.5694117-15.5692308 0-8.8 5.9294117-15.5692307 14.5694117-15.5692307 8.5129412 0 14.5694118 6.9807692 14.5694118 15.5692307 0 8.7576924-5.8870588 15.5692308-14.5694118 15.5692308zm26.7247061-31.1384615c2.371765 0 8.301176.8884615 8.301176 4.2307692 0 1.65-1.101176 3.1307692-2.837647 3.1307692-1.73647 0-3.091764-1.2692307-5.632941-1.2692307-1.821176 0-3.472941.9730769-3.472941 2.75 0 4.3576923 14.145882 1.5653846 14.145882 12.4807692 0 6.05-4.997647 9.8153846-10.842353 9.8153846-3.261176 0-10.2917644-.7615384-10.2917644-4.7384615 0-1.65 1.1011765-3.0038462 2.837647-3.0038462 1.9905884 0 4.3623534 1.65 7.1152944 1.65 2.795294 0 4.32-1.5653846 4.32-3.6384615 0-4.9923077-14.1458826-1.9884616-14.1458826-11.8038462 0-5.9230769 4.8705886-9.6038461 10.5035296-9.6038461zm12.028235 15.5692307c0-8.8 5.929412-15.5692307 14.569412-15.5692307 3.091765 0 9.105882 1.0153846 9.105882 4.7384615 0 1.5230769-1.058823 2.8346154-2.625882 2.8346154-1.736471 0-2.922353-1.4807692-6.48-1.4807692-5.251765 0-7.962353 4.4423077-7.962353 9.6038461 0 5.0346154 2.752941 9.35 7.962353 9.35 3.557647 0 4.997647-1.7769231 6.734118-1.7769231 1.905882 0 2.795294 1.9038462 2.795294 2.8769231 0 4.0615385-6.395294 4.9923077-9.529412 4.9923077-8.597647 0-14.569412-6.8115384-14.569412-15.5692308zm27.06353 12.0153847v-24.0307693c0-2.1153846 1.355294-3.3 3.17647-3.3 1.821177 0 3.176471 1.1846154 3.176471 3.3v8.9692308h13.298823v-8.9692308c0-2.1153846 1.355294-3.3 3.176471-3.3 1.821176 0 3.17647 1.1846154 3.17647 3.3v24.0307693c0 2.1153846-1.355294 3.3-3.17647 3.3-1.821177 0-3.176471-1.1846154-3.176471-3.3v-9.223077h-13.298823v9.223077c0 2.1153846-1.355294 3.3-3.176471 3.3-1.821176 0-3.17647-1.1846154-3.17647-3.3zm29.81647 0v-24.0307693c0-2.1153846 1.355294-3.3 3.176471-3.3 1.821176 0 3.17647 1.1846154 3.17647 3.3v24.0307693c0 2.1153846-1.355294 3.3-3.17647 3.3-1.821177 0-3.176471-1.1846154-3.176471-3.3zm9.910588 0v-24.0307693c0-2.1153846 1.355294-3.3 3.176471-3.3.804706 0 2.117647.6346154 2.668235 1.3961539l13.425883 17.8961538h.084705v-15.9923077c0-2.1153846 1.355295-3.3 3.176471-3.3 1.821177 0 3.176471 1.1846154 3.176471 3.3v24.0307693c0 2.1153846-1.355294 3.3-3.176471 3.3-.804706 0-2.075294-.6346154-2.668235-1.3961539l-13.425883-17.6846154h-.084705v15.7807693c0 2.1153846-1.355295 3.3-3.176471 3.3-1.821177 0-3.176471-1.1846154-3.176471-3.3zm27.741177-1.0576923 8.512941-23.0153847c.72-1.9461538 2.371765-3.5115384 4.531765-3.5115384 2.244706 0 3.811764 1.4807692 4.531764 3.5115384l8.301177 23.0153847c.254118.676923.338823 1.2692307.338823 1.5653846 0 1.65-1.355294 2.7923077-2.922353 2.7923077-1.778823 0-2.668235-.9307693-3.091764-2.2l-1.270588-3.9769231h-11.774118l-1.270588 3.9346154c-.42353 1.3115384-1.312942 2.2423077-3.049412 2.2423077-1.694118 0-3.134118-1.2692308-3.134118-2.9615385 0-.6769231.211765-1.1846154.296471-1.3961538zm13.002353-19.9269231-4.02353 12.2692307h8.047059l-3.938823-12.2692307z"
              fill="#111" fill-rule="nonzero"/>
    </g>
</svg>