<svg xmlns="http://www.w3.org/2000/svg" width="16.016" height="16" class="icon" p-id="12633" t="1623201400729" version="1.1" viewBox="0 0 1025 1024"><defs><style type="text/css"/></defs><path fill="#8a8a8a" d="M12.98964 96.615106c0 52.883721 31.765403 95.759822 70.956589 95.759821 39.183193 0 70.956589-42.8761 70.956589-95.759821 0-52.883721-31.773397-95.759822-70.956589-95.759822-39.191186 0-70.956589 42.8761-70.956589 95.759822zM1006.357907 0.855284H284.985901c-10.135514 0-16.897852 11.398456-16.897851 22.796912v145.917826c0 13.684542 8.448926 22.804906 16.897851 22.804905h721.372006c10.135514 0 16.897852-11.398456 16.897852-22.804905V23.66019c0-13.676549-8.448926-22.796912-16.897852-22.796913zM1.167538 502.459298c0 52.875728 31.765403 95.751828 70.948596 95.751829 39.191186 0 70.956589-42.8761 70.956589-95.759822 0-52.883721-31.765403-95.759822-70.956589-95.759822-39.183193 0-70.948596 42.8761-70.948596 95.759822zM992.849218 406.699477H271.461225c-10.135514 0-16.897852 11.390463-16.897851 22.788919v145.925818c0 13.676549 8.448926 22.796912 16.897851 22.796913h721.372006c10.135514 0 16.897852-11.398456 16.897852-22.796913V429.480402c0-11.398456-6.762338-22.796912-16.897852-22.796912zM1.167538 926.528232c0 52.883721 31.765403 95.759822 70.948596 95.759822 39.191186 0 70.956589-42.8761 70.956589-95.759822 0-52.883721-31.765403-95.759822-70.956589-95.759822-39.183193 0-70.948596 42.8761-70.948596 95.759822z m991.68168-95.759822H271.461225c-10.135514 0-16.897852 11.398456-16.897851 22.804906v145.917825c0 13.676549 8.448926 22.796912 16.897851 22.796913h721.372006c10.135514 0 16.897852-11.398456 16.897852-22.796913v-145.917825c0-11.40645-6.762338-22.804906-16.897852-22.804906z" p-id="12634"/></svg>