<?xml version="1.0" standalone="no"?><!DOCTYPE svg PUBLIC "-//W3C//DTD SVG 1.1//EN"
        "http://www.w3.org/Graphics/SVG/1.1/DTD/svg11.dtd">
<svg t="1627985964343" class="icon" viewBox="0 0 1024 1024" version="1.1" xmlns="http://www.w3.org/2000/svg"
     p-id="11260"
     width="16" height="16">
    <defs>
        <style type="text/css"></style>
    </defs>
    <path d="M512 512m-512 0a512 512 0 1 0 1024 0 512 512 0 1 0-1024 0Z" fill="#dbdbdb" p-id="11261"
          data-spm-anchor-id="a313x.7781069.0.i5" class=""></path>
    <path d="M881.4592 344.7552c0-27.2384-7.6288-32-33.8432-32h-48.2048c-15.3088 0-31.488 3.328-31.488 22.8608 0 20.096 18.0992 22.9632 31.488 22.9632h36.3008v260.096h-36.3008c-15.3088 0-31.488 3.328-31.488 22.9376 0 20.0192 18.0992 22.8864 31.488 22.8864h116.4032c13.4144 0 31.5136-2.8672 31.5136-22.8864 0-19.6096-16.1792-22.9376-31.488-22.9376h-34.3808v-273.92z"
          fill="#515151" p-id="11262" data-spm-anchor-id="a313x.7781069.0.i7" class="selected"></path>
    <path d="M573.184 632.9856c0 15.7696 3.328 31.488 22.8608 31.488 19.6096 0 22.9632-15.7184 22.9632-31.488v-115.968l63.9232-52.9664c8.1408-6.6816 14.336-10.9568 22.8864-10.9568h13.3888c11.008 0 21.9648 0 27.648 8.1152 4.7872 6.656 4.7872 12.3904 4.7872 20.0192 0 14.7712 6.7072 28.16 23.3984 28.16 19.584 0 22.4512-16.2304 22.4512-32 0-20.9664-5.2736-36.7104-20.5312-52.0192-12.416-12.416-27.1616-18.1248-44.8512-18.1248h-36.7616c-14.336 0-27.648 9.0624-40.5504 19.5584l-35.7888 29.6192V437.76c0-15.2576-4.7872-30.5152-22.9632-30.5152-20.9408 0-22.8608 17.1776-22.8608 33.8688v191.872zM549.2992 438.784c0-15.7696-3.328-31.5392-22.8864-31.5392-19.6096 0-22.9376 15.7696-22.9376 31.5136v133.1456L436.1728 614.4a25.2672 25.2672 0 0 1-14.336 4.2752h-15.232c-10.9824 0-22.8864-2.8672-26.7264-9.5488-3.84-6.656-4.2752-19.1232-4.7872-29.5936l-4.7616-140.7744c-0.512-14.8224-2.8672-31.488-22.4512-31.488-20.992 0-23.3984 17.664-22.8864 34.3296l4.7616 144.128c0.9472 24.832 0.512 44.416 21.0432 62.08 15.232 12.8512 29.568 16.6912 42.4704 16.6912h33.8688c12.3904 0 24.8064-5.7088 39.6288-15.2576l37.1968-24.3712v7.6288c0 15.744 3.328 32 22.8864 32 24.3712 0 22.4512-23.3728 22.4512-33.8688V438.784zM76.8 558.08c0 28.16 5.2736 41.984 27.2128 60.0832l33.8688 28.2368c21.4528 17.6128 32.4352 18.0992 59.1616 18.0992h72.5504c15.2576 0 31.5136-3.328 31.5136-22.8864 0-20.096-18.0992-22.9376-31.488-22.9376h-80.64c-9.1136 0-18.176-4.7872-26.2912-11.4688l-27.648-23.3984c-7.1936-5.7088-12.416-10.496-12.416-19.5328v-56.8064c0-9.0624 5.2224-13.824 12.416-19.584l27.648-23.3984c8.1152-6.6304 17.1776-11.392 26.2912-11.392h80.64c13.3888 0 31.488-2.9184 31.488-22.9632 0-19.5328-16.256-22.8864-31.488-22.8864H197.0176c-26.7264 0-37.7088 0.512-59.136 18.1248l-33.8944 28.16c-21.9392 18.176-27.2128 32-27.2128 60.16V558.08z"
          fill="#515151" p-id="11263" data-spm-anchor-id="a313x.7781069.0.i6" class="selected"></path>
</svg>