<svg xmlns="http://www.w3.org/2000/svg" width="16" height="16" class="icon" p-id="819" t="1623202010128" version="1.1" viewBox="0 0 1024 1024"><defs><style type="text/css"/></defs><path fill="#8a8a8a" d="M960 1024H64a64 64 0 0 1-64-64V64a64 64 0 0 1 64-64h896a64 64 0 0 1 64 64v896a64 64 0 0 1-64 64z m0-896a64 64 0 0 0-64-64H128a64 64 0 0 0-64 64v768a64 64 0 0 0 64 64h768a64 64 0 0 0 64-64V128z m-128 640h-128a64 64 0 0 1 0-128h64V576h-64a64 64 0 0 1 0-128h64V384h-64a64 64 0 0 1 0-128h128a64 64 0 0 1 64 64v384a64 64 0 0 1-64 64z m-320-128a64 64 0 0 1 0 128H384a64 64 0 0 1-64-64V512a64 64 0 0 1 64-64h64V384H384a64 64 0 0 1 0-128h128a64 64 0 0 1 64 64v192a64 64 0 0 1-64 64H448v64h64z m-320 128a64 64 0 0 1-64-64V320a64 64 0 0 1 128 0v384a64 64 0 0 1-64 64z" p-id="820"/></svg>