<?xml version="1.0" standalone="no"?><!DOCTYPE svg PUBLIC "-//W3C//DTD SVG 1.1//EN"
        "http://www.w3.org/Graphics/SVG/1.1/DTD/svg11.dtd">
<svg t="1623202010128" class="icon" viewBox="0 0 1024 1024" version="1.1" xmlns="http://www.w3.org/2000/svg" p-id="819"
     width="16" height="16">
    <defs>
        <style type="text/css"></style>
    </defs>
    <path d="M960 1024H64a64 64 0 0 1-64-64V64a64 64 0 0 1 64-64h896a64 64 0 0 1 64 64v896a64 64 0 0 1-64 64z m0-896a64 64 0 0 0-64-64H128a64 64 0 0 0-64 64v768a64 64 0 0 0 64 64h768a64 64 0 0 0 64-64V128z m-128 640h-128a64 64 0 0 1 0-128h64V576h-64a64 64 0 0 1 0-128h64V384h-64a64 64 0 0 1 0-128h128a64 64 0 0 1 64 64v384a64 64 0 0 1-64 64z m-320-128a64 64 0 0 1 0 128H384a64 64 0 0 1-64-64V512a64 64 0 0 1 64-64h64V384H384a64 64 0 0 1 0-128h128a64 64 0 0 1 64 64v192a64 64 0 0 1-64 64H448v64h64z m-320 128a64 64 0 0 1-64-64V320a64 64 0 0 1 128 0v384a64 64 0 0 1-64 64z"
          fill="#8a8a8a" p-id="820"></path>
</svg>