<?xml version="1.0" standalone="no"?><!DOCTYPE svg PUBLIC "-//W3C//DTD SVG 1.1//EN"
        "http://www.w3.org/Graphics/SVG/1.1/DTD/svg11.dtd">
<svg t="1623217280264" class="icon" viewBox="0 0 1024 1024" version="1.1" xmlns="http://www.w3.org/2000/svg" p-id="9289"
     width="16" height="16">
    <defs>
        <style type="text/css"></style>
    </defs>
    <path d="M320 64 192 64C121.6 64 64 121.6 64 192l0 128c0 70.4 57.6 128 128 128l128 0c70.4 0 128-57.6 128-128L448 192C448 121.6 390.4 64 320 64zM768 64l-128 0C569.6 64 512 121.6 512 192l0 128c0 70.4 57.6 128 128 128l128 0c70.4 0 128-57.6 128-128L896 192C896 121.6 838.4 64 768 64zM320 512 192 512c-70.4 0-128 57.6-128 128l0 128c0 70.4 57.6 128 128 128l128 0c70.4 0 128-57.6 128-128l0-128C448 569.6 390.4 512 320 512zM768 512l-128 0c-70.4 0-128 57.6-128 128l0 128c0 70.4 57.6 128 128 128l128 0c70.4 0 128-57.6 128-128l0-128C896 569.6 838.4 512 768 512z"
          p-id="9290" fill="#8a8a8a"></path>
</svg>