<svg t="1744164546345" class="icon" viewBox="0 0 1024 1024" version="1.1" xmlns="http://www.w3.org/2000/svg" p-id="6384" width="32" height="32"><path d="M576.29375 136.98125C789.3125 136.98125 962 304.8875 962 512s-172.6875 375.01875-385.70625 375.01875H447.70625C234.6875 887.01875 62 719.1125 62 512s172.6875-375.01875 385.70625-375.01875h128.5875z m91.35 214.875H356.35625C265.4 351.85625 191.65625 423.575 191.65625 512c0 87.58125 72.28125 158.7375 162 160.14375h313.9875c90.95625 0 164.7-71.71875 164.7-160.14375s-73.6875-160.14375-164.7-160.14375zM367.325 429.9875c32.68125 0 59.175 25.7625 59.175 57.6v49.78125c0 31.8375-26.4375 57.65625-59.175 57.65625-32.68125 0-59.175-25.81875-59.175-57.65625v-49.78125c0-31.8375 26.4375-57.6 59.175-57.6z m365.11875 7.9875a31.33125 31.33125 0 0 1-9.7875 43.59375l-0.45 0.28125-46.51875 28.51875 44.83125 23.9625a31.3875 31.3875 0 0 1 13.1625 42.75l-0.225 0.45a33.13125 33.13125 0 0 1-43.875 12.825l-0.50625-0.28125L595.64375 540.125a31.3875 31.3875 0 0 1-2.30625-54.39375l0.61875-0.39375 93.43125-57.31875a33.1875 33.1875 0 0 1 45.05625 9.95625z" fill="#cdcdcd" p-id="6385"></path></svg>