<svg xmlns="http://www.w3.org/2000/svg" xml:space="preserve" viewBox="0 0 4252 5550.6"><linearGradient id="a" x1="11530.766" x2="9054.932" y1="7900.008" y2="7876.994" gradientTransform="rotate(-140.246 5979.858 6737.796)" gradientUnits="userSpaceOnUse"><stop offset="0" style="stop-color:#fc801d"/><stop offset=".502" style="stop-color:#fb7924"/><stop offset="1" style="stop-color:#ee197d"/></linearGradient><path fill="url(#a)" d="m2780.6 2301.7 2095.9 1683.7-150.4 150.4-2085.5-1322.1z"/><linearGradient id="b" x1="14187.951" x2="12088.12" y1="13490.134" y2="13082.954" gradientTransform="rotate(-89.892 3053.308 13589.249)" gradientUnits="userSpaceOnUse"><stop offset="0" style="stop-color:#fc801d"/><stop offset=".369" style="stop-color:#fdb60d"/><stop offset=".772" style="stop-color:#fcf84a"/></linearGradient><path fill="url(#b)" d="m2981.5 2496.6-95.6 2752.3-759.9-797.8 552.2-1941.9z"/><linearGradient id="c" x1="2272.571" x2="4487.097" y1="3745.959" y2="2889.877" gradientTransform="rotate(-1.68 3457.128 8352.027) scale(1.00003)" gradientUnits="userSpaceOnUse"><stop offset="0" style="stop-color:#fcf84a"/><stop offset=".547" style="stop-color:#3dea62"/><stop offset="1" style="stop-color:#07c3f2"/></linearGradient><path fill="url(#c)" d="M3900.8 1260.3 2126 4451.1l759.9 797.8 1191.3-3617z"/><linearGradient id="d" x1="359.426" x2="1857.932" y1="282.459" y2="3209.383" gradientUnits="userSpaceOnUse"><stop offset="0" style="stop-color:#b640ff"/><stop offset=".142" style="stop-color:#8752fd"/><stop offset=".327" style="stop-color:#4f67fc"/><stop offset=".486" style="stop-color:#2777fa"/><stop offset=".612" style="stop-color:#0e80f9"/><stop offset=".689" style="stop-color:#0584f9"/></linearGradient><path fill="url(#d)" d="M1859.1 2667.9 734.4-336.7H569.2l547.3 3449.5 520.1 445.3 425.6-346.4z"/><linearGradient id="e" x1="1116.499" x2="4077.186" y1="2409.213" y2="2409.213" gradientUnits="userSpaceOnUse"><stop offset="0" style="stop-color:#087cfa"/><stop offset=".049" style="stop-color:#0881f9"/><stop offset=".456" style="stop-color:#07a5f5"/><stop offset=".787" style="stop-color:#07bbf3"/><stop offset="1" style="stop-color:#07c3f2"/></linearGradient><path fill="url(#e)" d="M3900.8 1260.3 1116.5 3112.8l520.1 445.3 2440.6-1926.2z"/></svg>