<svg xmlns="http://www.w3.org/2000/svg" id="图层_1" x="0" y="0" enable-background="new 0 0 4252 5550.6" version="1.1" viewBox="0 0 4252 5550.6" xml:space="preserve"><style>.cls-1{fill:none}.cls-2{fill:#1ba784}</style><g><path d="M 165 580 L 270 580 Q275 578 270 570 L 223 483 Q220 480 217 483 L 165 570 Q160 578 165 580" stroke="#FE2857" fill="#FE2857"><animateTransform attributeType="XML" attributeName="transform" begin="0s" dur="35s" type="rotate" from="0 210 530" to="360 210 530" repeatCount="indefinite"/></path><path transform="rotate(90 1500,600) " stroke="null" id="svg_5" fill="#21D789" d="m1279.396944,-1815.214185l0,0.021444c11.798175,-8.170237 25.494084,-12.855792 40.103054,-12.855792s28.304879,4.674834 40.103054,12.855792l0,-0.021444c0,-35.554469 -16.130737,-66.605657 -40.103054,-83.214183c-23.972317,16.608526 -40.103054,47.648992 -40.103054,83.214183z"><animate attributeName="opacity" from="1" to="0" begin="0s" dur="10s" repeatCount="indefinite"/></path><g stroke="null" style="transform-box:fill-box; transform-origin:center;"><path stroke="null" fill="#f07c82" d="m3154.02734,491.05593l-69.56257,-38.93605l0,-77.76335l69.56257,-38.93605l69.56257,38.93605l0,77.76335l-69.56257,38.93605zm-47.12303,-51.44345l47.12303,26.3199l47.12303,-26.3199l0,-52.74856l-47.12303,-26.3199l-47.12303,26.3199l0,52.74856z"/><path stroke="null" fill="#f07c82" d="m3154.02734,413.18382m-22.43954,0a22.43954,21.75198 0 1 0 44.87908,0a22.43954,21.75198 0 1 0 -44.87908,0z"/><animateTransform attributeName="transform" type="rotate" from="360" to="0" dur="25s" repeatCount="indefinite"/><animate attributeName="opacity" from="1" to="0" begin="0s" dur="25s" repeatCount="indefinite"/></g><g stroke="null" id="svg_35" style="transform-box:fill-box; transform-origin:center;"><path stroke="null" id="svg_29" d="m577.3694,996.31205a26.55694,26.22962 0 0 0 -26.55864,26.2313c0,8.14723 3.83974,15.33587 9.74129,20.14564l26.09461,-44.63938a26.33088,26.00634 0 0 0 -9.27725,-1.73756z" class="cls-1"/><path stroke="null" id="svg_30" d="m603.92805,1022.54335a26.41926,26.09364 0 0 0 -4.58933,-14.72982l-23.83394,40.77478c0.62721,0.04365 1.22552,0.18635 1.86973,0.18635a26.41246,26.08693 0 0 0 18.26725,-7.26586l7.46702,-12.77402a26.38697,26.06174 0 0 0 0.81928,-6.19143z" class="cls-1"></path><path stroke="null" id="svg_31" d="m603.92805,1022.54335a26.38697,26.06174 0 0 1 -0.82438,6.19143l22.58122,-38.6343a58.65508,57.93215 0 0 0 -9.68859,-10.7796l-16.65758,28.49265a26.41926,26.09364 0 0 1 4.58933,14.72982z" class="cls-2"><animate attributeName="opacity" from="1" to="0" begin="0s" dur="1s" repeatCount="indefinite"/></path><polygon stroke="null" id="svg_32" points="616.2477416992188,1111.72900390625 646.4210205078125,1111.72900390625 646.4210205078125,1101.236572265625 632.6234741210938,1083.7139892578125 616.2477416992188,1111.72900390625 " class="cls-2"><animate attributeName="opacity" from="1" to="0" begin="1s" dur="1.3s" repeatCount="indefinite"/></polygon><path stroke="null" id="svg_33" d="m635.79842,1022.54335a58.36782,57.64843 0 0 0 -2.01591,-14.81544l-27.65838,47.31875l-13.53853,23.15909l-1.88843,3.2317l14.26603,18.121l17.09952,-29.24979l-4.60803,-5.85399c11.27276,-10.52106 18.34374,-25.38519 18.34374,-41.91133z" class="cls-2"><animate attributeName="opacity" from="1" to="0" begin="1.5s" dur="1.8s" repeatCount="indefinite"/></path><path stroke="null" id="svg_34" d="m575.50478,1048.58831a26.26629,25.94255 0 0 1 -14.95783,-5.89764c-5.90154,-4.81145 -9.74129,-12.00009 -9.74129,-20.14564a26.36487,26.03992 0 0 1 35.8359,-24.49374l16.04737,-27.45179a58.06697,57.35128 0 0 0 -25.32632,-5.76333c-32.26301,-0.00168 -58.42222,25.83511 -58.42222,57.70719l0,89.18643l31.87037,0l0,-37.82848a57.68452,56.97355 0 0 0 22.30246,6.13938l7.01828,-12.01352l3.20233,-5.47961l12.29771,-21.03876a26.41246,26.08693 0 0 1 -18.26215,7.26586c-0.63741,0 -1.23742,-0.1427 -1.86463,-0.18635z" fill="#087CFA"><animate attributeName="opacity" from="1" to="0.2" dur="10s" repeatCount="indefinite"/></path><!-- <animateTransform attributeName="transform" type="rotate" from="360" to="0" dur="20s"--><!-- repeatCount="indefinite"/>--></g><linearGradient id="SVGID_1_" x1="11530.766" x2="9054.932" y1="7900.008" y2="7876.994" gradientTransform="matrix(-0.7688 -0.6395 0.6395 -0.7688 6268.3525 15741.9326)" gradientUnits="userSpaceOnUse"><stop offset="0" style="stop-color:#fc801d"/><stop offset=".502" style="stop-color:#fb7924"/><stop offset="1" style="stop-color:#ee197d"/></linearGradient><polygon fill="url(#SVGID_1_)" points="2780.6 2301.7 4876.5 3985.4 4726.1 4135.8 2640.6 2813.7"/><linearGradient id="SVGID_00000126295844069109487260000001263970558483856791_" x1="14187.951" x2="12088.12" y1="13490.134" y2="13082.954" gradientTransform="matrix(1.883528e-03 -1 1 1.883528e-03 -10541.6924 16616.9609)" gradientUnits="userSpaceOnUse"><stop offset="0" style="stop-color:#fc801d"/><stop offset=".369" style="stop-color:#fdb60d"/><stop offset=".772" style="stop-color:#fcf84a"/></linearGradient><polygon fill="url(#SVGID_00000126295844069109487260000001263970558483856791_)" points="2981.5 2496.6 2885.9 5248.9 2126 4451.1 2678.2 2509.2"/><linearGradient id="SVGID_00000028294411931750535310000012592738066408570525_" x1="2272.571" x2="4487.097" y1="3745.959" y2="2889.877" gradientTransform="matrix(0.9996 -2.930845e-02 2.930845e-02 0.9996 -243.2911 104.9113)" gradientUnits="userSpaceOnUse"><stop offset="0" style="stop-color:#fcf84a"/><stop offset=".547" style="stop-color:#3dea62"/><stop offset="1" style="stop-color:#07c3f2"/></linearGradient><polygon fill="url(#SVGID_00000028294411931750535310000012592738066408570525_)" points="3900.8 1260.3 2126 4451.1 2885.9 5248.9 4077.2 1631.9"/><linearGradient id="SVGID_00000011752290702248551610000016354066440030124423_" x1="359.426" x2="1857.932" y1="282.459" y2="3209.383" gradientUnits="userSpaceOnUse"><stop offset="0" style="stop-color:#b640ff"/><stop offset=".142" style="stop-color:#8752fd"/><stop offset=".327" style="stop-color:#4f67fc"/><stop offset=".486" style="stop-color:#2777fa"/><stop offset=".612" style="stop-color:#0e80f9"/><stop offset=".689" style="stop-color:#0584f9"/></linearGradient><polygon fill="url(#SVGID_00000011752290702248551610000016354066440030124423_)" points="1859.1 2667.9 734.4 -336.7 569.2 -336.7 1116.5 3112.8 1636.6 3558.1 2062.2 3211.7"/><linearGradient id="SVGID_00000152982055828520814990000000835302115969007496_" x1="1116.499" x2="4077.186" y1="2409.213" y2="2409.213" gradientUnits="userSpaceOnUse"><stop offset="0" style="stop-color:#087cfa"/><stop offset=".049" style="stop-color:#0881f9"/><stop offset=".456" style="stop-color:#07a5f5"/><stop offset=".787" style="stop-color:#07bbf3"/><stop offset="1" style="stop-color:#07c3f2"/></linearGradient><polygon fill="url(#SVGID_00000152982055828520814990000000835302115969007496_)" points="3900.8 1260.3 1116.5 3112.8 1636.6 3558.1 4077.2 1631.9"/></g><g transform="rotate(30 141.05926513672,2544.9150390624995) " stroke="null" id="svg_12"><path stroke="null" id="svg_10" fill="#707070" d="m672.63395,2422.03876c-0.74278,27.08347 -6.0165,53.11577 -14.83904,78.34371c-10.53918,30.18212 -25.9642,56.72629 -47.58727,78.67276c-1.75791,1.79155 -2.30261,3.68365 -2.07152,6.1973c0.75928,8.1351 1.3535,16.27019 2.10453,24.36872c1.75791,18.93923 -4.22558,34.45076 -18.00822,45.42856c-14.78952,11.80046 -30.14851,22.696 -45.41671,33.73779c-9.61484,6.94682 -21.425,0.62156 -22.50615,-12.00155a1698.20355,1880.81566 0 0 1 -3.10316,-43.57303c-0.45392,-7.26674 -0.27235,-7.33987 -6.63548,-8.26306c-16.87755,-2.46795 -30.09899,-11.34343 -39.16087,-27.43995c-4.67124,-8.29049 -6.98211,-17.45846 -7.79091,-27.11089c-0.24759,-2.87928 -1.29574,-3.61052 -3.75515,-3.75677c-13.6671,-0.84093 -27.3177,-1.72757 -40.95179,-2.86099c-11.34799,-0.95062 -17.10039,-14.21357 -11.01786,-25.2645c4.2751,-7.76947 8.81429,-15.36527 13.22969,-23.04334c4.74552,-8.26306 9.46629,-16.56269 14.22831,-24.81661c8.72351,-15.11848 21.29295,-23.281 37.36995,-23.43638c9.21869,-0.07312 18.43738,1.71842 27.64782,2.81529c1.7414,0.20109 2.97936,-0.05485 4.1678,-1.54475c21.37548,-26.45277 47.83486,-44.30428 77.77704,-56.25098a219.55672,243.16621 0 0 1 52.20074,-13.2081c9.01237,-1.02374 18.07425,-1.40765 27.07836,0.43875c4.89408,1.00546 5.15818,1.23397 5.90921,6.5355c0.76753,5.30152 1.37001,10.63047 1.13067,16.03254zm-51.557,66.76262c0.18157,-17.85151 -13.16366,-33.20764 -29.03434,-33.50014c-16.47315,-0.30164 -30.75923,12.97045 -31.14713,33.70123c-0.32187,17.28479 13.80741,32.93342 29.57904,33.06139a30.28881,33.54584 0 0 0 30.60243,-33.26248zm0,0"><animateMotion rotate="auto" from="-1000,-1000" to="2800,-3700" begin="0s" dur="40s" repeatCount="indefinite"/><animate attributeName="opacity" from="1" to="0" begin="0s" dur="40s" repeatCount="indefinite"/></path></g></svg>