<svg xmlns="http://www.w3.org/2000/svg" width="1401" height="1121" fill="none" viewBox="0 0 1401 1121"><path fill="url(#paint0_linear_1238_17673)" d="M614.582 136.263L396.642 583.106C359.937 658.362 391.189 749.125 466.445 785.83L913.288 1003.77C988.544 1040.47 1079.31 1009.22 1116.01 933.966L1333.95 487.123C1370.66 411.867 1339.4 321.105 1264.15 284.4L817.305 66.4603C742.049 29.7554 651.286 61.007 614.582 136.263Z"/><path fill="url(#paint1_linear_1238_17673)" d="M601.18 264.21L345.455 603.569C302.387 660.722 313.806 741.967 370.959 785.034L710.317 1040.76C767.47 1083.83 848.715 1072.41 891.783 1015.26L1147.51 675.898C1190.58 618.745 1179.16 537.5 1122 494.432L782.646 238.707C725.493 195.639 644.248 207.057 601.18 264.21Z"/><path fill="url(#paint2_linear_1238_17673)" d="M569.068 369.375L299.172 612.39C253.717 653.318 250.047 723.345 290.975 768.8L533.991 1038.7C574.919 1084.15 644.946 1087.82 690.401 1046.89L960.296 803.878C1005.75 762.95 1009.42 692.923 968.494 647.468L725.478 377.572C684.55 332.117 614.523 328.447 569.068 369.375Z"/><path fill="url(#paint3_linear_1238_17673)" d="M524.988 452.37L258.909 612.247C214.099 639.172 199.6 697.324 226.524 742.134L386.401 1008.21C413.326 1053.02 471.478 1067.52 516.288 1040.6L782.368 880.722C827.178 853.797 841.677 795.645 814.752 750.835L654.875 484.755C627.951 439.945 569.798 425.446 524.988 452.37Z"/><path fill="url(#paint4_linear_1238_17673)" d="M474.45 514.815L225.149 605.554C183.16 620.836 161.51 667.264 176.793 709.253L267.531 958.555C282.814 1000.54 329.242 1022.19 371.231 1006.91L620.532 916.172C662.521 900.889 684.171 854.462 668.888 812.473L578.15 563.171C562.867 521.182 516.439 499.533 474.45 514.815Z"/><path fill="url(#paint5_linear_1238_17673)" d="M421.884 558.961L197.914 594.435C160.194 600.409 134.46 635.829 140.434 673.548L175.908 897.518C181.882 935.237 217.302 960.972 255.021 954.998L478.992 919.525C516.711 913.55 542.445 878.13 536.471 840.41L500.998 616.441C495.023 578.721 459.603 552.987 421.884 558.961Z"/><path fill="url(#paint6_linear_1238_17673)" d="M370.568 587.43L176.872 580.666C144.251 579.527 116.883 605.048 115.744 637.669L108.98 831.364C107.841 863.985 133.362 891.353 165.983 892.492L359.679 899.256C392.3 900.396 419.668 874.874 420.807 842.253L427.571 648.558C428.71 615.937 403.189 588.569 370.568 587.43Z"/><path fill="url(#paint7_linear_1238_17673)" d="M326.697 606.874L166.683 563.998C139.737 556.778 112.039 572.769 104.819 599.715L61.9437 759.729C54.7234 786.675 70.7144 814.373 97.6608 821.593L257.674 864.469C284.621 871.689 312.319 855.698 319.539 828.752L362.414 668.738C369.635 641.791 353.643 614.094 326.697 606.874Z"/><path fill="url(#paint8_linear_1238_17673)" d="M280.33 608.191L150.987 550.604C129.205 540.906 103.686 550.702 93.9876 572.484L36.4003 701.827C26.7023 723.609 36.4983 749.129 58.2804 758.827L187.624 816.414C209.406 826.112 234.925 816.316 244.623 794.534L302.211 665.191C311.909 643.409 302.113 617.889 280.33 608.191Z"/><path fill="url(#paint9_linear_1238_17673)" d="M243.784 605.651L144.653 536.239C127.96 524.55 104.952 528.607 93.2628 545.3L23.8505 644.431C12.1617 661.125 16.2187 684.133 32.912 695.822L132.043 765.234C148.736 776.923 171.745 772.866 183.434 756.173L252.846 657.041C264.535 640.348 260.478 617.34 243.784 605.651Z"/><path fill="url(#paint10_linear_1238_17673)" d="M213.529 597.559L141.682 523.158C129.582 510.629 109.617 510.28 97.0871 522.38L22.6863 594.228C10.1568 606.327 9.80877 626.293 21.9083 638.822L93.756 713.223C105.856 725.752 125.821 726.101 138.351 714.001L212.751 642.153C225.281 630.054 225.629 610.088 213.529 597.559Z"/><path fill="url(#paint11_linear_1238_17673)" d="M189.471 585.83L141.327 511.696C133.218 499.209 116.522 495.66 104.035 503.769L29.9012 551.912C17.4142 560.021 13.8648 576.718 21.974 589.205L70.1172 663.339C78.2264 675.826 94.9232 679.375 107.41 671.266L181.544 623.123C194.031 615.014 197.58 598.317 189.471 585.83Z"/><path fill="url(#paint12_linear_1238_17673)" d="M171.202 572.075L142.895 502.014C138.129 490.217 124.702 484.518 112.905 489.284L42.8437 517.59C31.0469 522.357 25.3476 535.783 30.1138 547.58L58.4205 617.642C63.1868 629.439 76.6135 635.138 88.4103 630.372L158.472 602.065C170.269 597.299 175.968 583.872 171.202 572.075Z"/><path fill="url(#paint13_linear_1238_17673)" d="M158.11 557.548L145.788 494.154C143.713 483.479 133.377 476.508 122.702 478.583L59.3071 490.905C48.6321 492.98 41.6608 503.316 43.7358 513.991L56.0585 577.385C58.1335 588.06 68.469 595.032 79.144 592.957L142.539 580.635C153.214 578.56 160.186 568.223 158.11 557.548Z"/><path fill="url(#paint14_linear_1238_17673)" d="M149.5 543.228V488.031C149.5 478.736 141.965 471.201 132.67 471.201H77.4725C68.1778 471.201 60.6435 478.736 60.6435 488.031V543.228C60.6435 552.523 68.1778 560.058 77.4725 560.058H132.67C141.965 560.058 149.5 552.523 149.5 543.228Z"/><defs><linearGradient id="paint0_linear_1238_17673" x1="511.125" x2="1230.43" y1="348.684" y2="699.513" gradientUnits="userSpaceOnUse"><stop stop-color="#FD470D"/><stop offset=".396" stop-color="#FE2857" stop-opacity=".9"/><stop offset="1" stop-color="#0047FD" stop-opacity=".7"/></linearGradient><linearGradient id="paint1_linear_1238_17673" x1="479.737" x2="1026.02" y1="425.559" y2="837.21" gradientUnits="userSpaceOnUse"><stop stop-color="#FD470D"/><stop offset=".396" stop-color="#FE2857" stop-opacity=".9"/><stop offset="1" stop-color="#0047FD" stop-opacity=".7"/></linearGradient><linearGradient id="paint2_linear_1238_17673" x1="440.865" x2="832.058" y1="484.94" y2="919.405" gradientUnits="userSpaceOnUse"><stop stop-color="#FD470D"/><stop offset=".396" stop-color="#FE2857" stop-opacity=".9"/><stop offset="1" stop-color="#0047FD" stop-opacity=".7"/></linearGradient><linearGradient id="paint3_linear_1238_17673" x1="398.576" x2="655.933" y1="528.423" y2="956.737" gradientUnits="userSpaceOnUse"><stop stop-color="#FD470D"/><stop offset=".396" stop-color="#FE2857" stop-opacity=".9"/><stop offset="1" stop-color="#0047FD" stop-opacity=".7"/></linearGradient><linearGradient id="paint4_linear_1238_17673" x1="355.994" x2="502.063" y1="558.006" y2="959.327" gradientUnits="userSpaceOnUse"><stop stop-color="#FD470D"/><stop offset=".396" stop-color="#FE2857" stop-opacity=".9"/><stop offset="1" stop-color="#0047FD" stop-opacity=".7"/></linearGradient><linearGradient id="paint5_linear_1238_17673" x1="315.451" x2="372.554" y1="575.88" y2="936.411" gradientUnits="userSpaceOnUse"><stop stop-color="#FD470D"/><stop offset=".396" stop-color="#FE2857" stop-opacity=".9"/><stop offset="1" stop-color="#0047FD" stop-opacity=".7"/></linearGradient><linearGradient id="paint6_linear_1238_17673" x1="278.512" x2="267.624" y1="584.267" y2="896.066" gradientUnits="userSpaceOnUse"><stop stop-color="#FD470D"/><stop offset=".396" stop-color="#FE2857" stop-opacity=".9"/><stop offset="1" stop-color="#0047FD" stop-opacity=".7"/></linearGradient><linearGradient id="paint7_linear_1238_17673" x1="250.639" x2="181.622" y1="586.54" y2="844.112" gradientUnits="userSpaceOnUse"><stop stop-color="#FD470D"/><stop offset=".396" stop-color="#FE2857" stop-opacity=".9"/><stop offset="1" stop-color="#0047FD" stop-opacity=".7"/></linearGradient><linearGradient id="paint8_linear_1238_17673" x1="218.844" x2="126.146" y1="580.858" y2="789.062" gradientUnits="userSpaceOnUse"><stop stop-color="#FD470D"/><stop offset=".396" stop-color="#FE2857" stop-opacity=".9"/><stop offset="1" stop-color="#0047FD" stop-opacity=".7"/></linearGradient><linearGradient id="paint9_linear_1238_17673" x1="196.653" x2="84.922" y1="572.689" y2="732.258" gradientUnits="userSpaceOnUse"><stop stop-color="#FD470D"/><stop offset=".396" stop-color="#FE2857" stop-opacity=".9"/><stop offset="1" stop-color="#0047FD" stop-opacity=".7"/></linearGradient><linearGradient id="paint10_linear_1238_17673" x1="179.364" x2="59.601" y1="562.219" y2="677.873" gradientUnits="userSpaceOnUse"><stop stop-color="#FD470D"/><stop offset=".396" stop-color="#FE2857" stop-opacity=".9"/><stop offset="1" stop-color="#0047FD" stop-opacity=".7"/></linearGradient><linearGradient id="paint11_linear_1238_17673" x1="166.571" x2="47.228" y1="550.611" y2="628.113" gradientUnits="userSpaceOnUse"><stop stop-color="#FD470D"/><stop offset=".396" stop-color="#FE2857" stop-opacity=".9"/><stop offset="1" stop-color="#0047FD" stop-opacity=".7"/></linearGradient><linearGradient id="paint12_linear_1238_17673" x1="157.73" x2="44.959" y1="538.786" y2="584.348" gradientUnits="userSpaceOnUse"><stop stop-color="#FD470D"/><stop offset=".396" stop-color="#FE2857" stop-opacity=".9"/><stop offset="1" stop-color="#0047FD" stop-opacity=".7"/></linearGradient><linearGradient id="paint13_linear_1238_17673" x1="152.237" x2="50.194" y1="527.424" y2="547.259" gradientUnits="userSpaceOnUse"><stop stop-color="#FD470D"/><stop offset=".396" stop-color="#FE2857" stop-opacity=".9"/><stop offset="1" stop-color="#0047FD" stop-opacity=".7"/></linearGradient><linearGradient id="paint14_linear_1238_17673" x1="149.485" x2="60.637" y1="516.995" y2="516.995" gradientUnits="userSpaceOnUse"><stop stop-color="#FD470D"/><stop offset=".396" stop-color="#FE2857" stop-opacity=".9"/><stop offset="1" stop-color="#0047FD" stop-opacity=".7"/></linearGradient></defs></svg>