<svg xmlns="http://www.w3.org/2000/svg" xml:space="preserve" baseProfile="tiny" overflow="visible" version="1.2" viewBox="0 0 1024 1024"><linearGradient id="a" x1="505.297" x2="505.297" y1="1004.98" y2="874.278" gradientUnits="userSpaceOnUse"><stop offset="0" style="stop-color:#ee197d"/><stop offset=".069" style="stop-color:#ef247b"/><stop offset=".713" style="stop-color:#f38a68"/><stop offset="1" style="stop-color:#f5b361"/></linearGradient><path fill="url(#a)" d="m375.5 903 173-69 86.5 51.7-77.8 122.6c-5.4 9.6-15.6 15.6-26.6 15.6h-67.1c-11.5 0-22.1-6.5-27.2-16.8L375.5 903z"/><linearGradient id="b" x1="107.155" x2="293.386" y1="794.504" y2="668.393" gradientUnits="userSpaceOnUse"><stop offset=".075" style="stop-color:#6b57ff"/><stop offset=".119" style="stop-color:#715af5"/><stop offset=".195" style="stop-color:#8063d9"/><stop offset=".292" style="stop-color:#9971ac"/><stop offset=".409" style="stop-color:#bc846e"/><stop offset=".54" style="stop-color:#e89d20"/><stop offset=".572" style="stop-color:#f3a30b"/><stop offset=".739" style="stop-color:#f9a600"/></linearGradient><path fill="url(#b)" d="m100.5 762.2 102-135.8 103.8 121.1-155.7 121.1z"/><linearGradient id="c" x1="409.522" x2="863.504" y1="67.892" y2="513.789" gradientUnits="userSpaceOnUse"><stop offset="0" style="stop-color:#3dea62"/><stop offset=".813" style="stop-color:#21d789"/><stop offset=".832" style="stop-color:#1fcf93"/><stop offset=".863" style="stop-color:#19b9af"/><stop offset=".903" style="stop-color:#0f95db"/><stop offset=".928" style="stop-color:#087cfa"/></linearGradient><path fill="url(#c)" d="M916.8 424.9 704.3 176.6l-307.6-.1 304.2 334.9 198.3 218.3 118.5-152.5c9-11.5 8.5-27.8-1.2-38.8l-99.7-113.5z"/><linearGradient id="d" x1="46.819" x2="1004.313" y1="691.124" y2="691.124" gradientUnits="userSpaceOnUse"><stop offset=".414" style="stop-color:#fff84a"/><stop offset=".52" style="stop-color:#feee41"/><stop offset=".703" style="stop-color:#fcd228"/><stop offset=".936" style="stop-color:#f9a600"/></linearGradient><path fill="url(#d)" d="M1000.7 810 908 982.1c-7.6 14.1-24.7 19.9-39.3 13.3L46.8 605.9l155.7-221.7 784.7 384c15.6 7.6 21.7 26.6 13.5 41.8z"/><linearGradient id="e" x1="162.408" x2="1032.902" y1="884.718" y2="527.381" gradientUnits="userSpaceOnUse"><stop offset="0" style="stop-color:#5e5cfe"/><stop offset=".317" style="stop-color:#087cfa"/><stop offset=".724" style="stop-color:#087cfa"/><stop offset=".772" style="stop-color:#0886f9"/><stop offset=".854" style="stop-color:#07a2f6"/><stop offset=".936" style="stop-color:#07c3f2"/></linearGradient><path fill="url(#e)" d="m916.8 424.9-216 86.4-587 240.2c-17.1 7-24.1 27.6-14.8 43.5l91 155.9c7.3 12.5 22.4 18.2 36.2 13.5L912 730.2l107.4-153.4c8.1-11.5 7.2-27-2.1-37.6L916.8 424.9z"/><linearGradient id="f" x1="68.504" x2="608.575" y1="573.443" y2="83.516" gradientUnits="userSpaceOnUse"><stop offset="0" style="stop-color:#fcf84a"/><stop offset=".432" style="stop-color:#3dea62"/><stop offset=".759" style="stop-color:#3dea62"/><stop offset="1" style="stop-color:#21d789"/></linearGradient><path fill="url(#f)" d="M33.2 590 1.9 506.7c-4.3-11.4-1.4-24.2 7.4-32.6L477.1 23C508.7-7.5 559.6-4.2 587 30.1l117.2 146.5L78.9 604.4c-16.3 11.2-38.8 4.1-45.7-14.4z"/><path fill="#2B2B2B" d="M844.3 228.8c0-40.8-33.1-73.8-73.8-73.8H253.6c-40.8 0-73.8 33.1-73.8 73.8v516.8c0 40.8 33.1 73.8 73.8 73.8h516.9c40.8 0 73.8-33.1 73.8-73.8V228.8z"/><path fill="#FFF" d="M686.1 617.5c-12.9-20.6-28.7-50.5-63-78-18.4-14.7-18.9-42.2-1.1-57.7.1-.1.3-.2.4-.4 78.1-68.2 70.8-189.7-47.8-223.1C454.1 224.6 352.9 289 330 388.2c-17.3 75.2-14.9 122.2-11.3 169 12.4 159.5 31.8 175.4 93.4 165.5 61.6-9.9 27.3-64.7 16.8-98.1-14.2-45.1-14.4-69.2 15-71.2 38.2-2.5 110.5 23.9 133.7 101.8 24.5 82.3 64.2 72.6 101.2 65 37.1-7.5 37.6-54.2 7.3-102.7zm-237-148.3c-19.4-4.1-28.9-22.9-26.7-72.8 1.8-39.4 33.7-66.2 77.4-63 45 3.3 79.9 17.6 80 55.4.1 33.8-46.3 65.7-85.4 75.4-18.4 4.6-33.6 7.5-45.3 5"/><g fill="#2B2B2B"><path d="m610.103 239.77 14.849 14.85L458.43 421.142l-14.85-14.849zM636.07 265.696l14.849 14.849-149.34 149.34-14.849-14.85zM662.039 291.678l14.849 14.85L555.55 427.864l-14.85-14.849zM688.042 317.722l14.85 14.85-263.82 263.818-14.849-14.849zM714.023 343.73l14.85 14.849-263.82 263.819-14.849-14.85zM740.004 369.596l14.849 14.85-263.82 263.818-14.848-14.849zM765.955 395.613l14.849 14.849-290.972 290.971-14.849-14.849zM791.935 421.62l14.85 14.85L515.813 727.44l-14.85-14.849zM817.916 447.628l14.85 14.85-290.972 290.97-14.85-14.848zM776.276 541.281l14.85 14.85L587.48 759.775l-14.85-14.849zM802.186 567.218l14.85 14.85L613.39 785.712l-14.849-14.849z"/></g></svg>