<svg xmlns="http://www.w3.org/2000/svg" x="0" y="0" baseProfile="tiny" overflow="visible" version="1.2" viewBox="0 0 1024 1024" xml:space="preserve"><g id="图层_4"><g><g><linearGradient id="SVGID_1_" x1="505.297" x2="505.297" y1="1004.98" y2="874.278" gradientUnits="userSpaceOnUse"><stop offset="0" style="stop-color:#ee197d"/><stop offset=".069" style="stop-color:#ef247b"/><stop offset=".713" style="stop-color:#f38a68"/><stop offset="1" style="stop-color:#f5b361"/></linearGradient><path fill="url(#SVGID_1_)" d="M375.5,903l173-69l86.5,51.7l-77.8,122.6c-5.4,9.6-15.6,15.6-26.6,15.6h-67.1 c-11.5,0-22.1-6.5-27.2-16.8L375.5,903z"/><linearGradient id="SVGID_00000033359230032281216440000014570733090228195208_" x1="107.155" x2="293.386" y1="794.504" y2="668.393" gradientUnits="userSpaceOnUse"><stop offset=".075" style="stop-color:#6b57ff"/><stop offset=".119" style="stop-color:#715af5"/><stop offset=".195" style="stop-color:#8063d9"/><stop offset=".292" style="stop-color:#9971ac"/><stop offset=".409" style="stop-color:#bc846e"/><stop offset=".54" style="stop-color:#e89d20"/><stop offset=".572" style="stop-color:#f3a30b"/><stop offset=".739" style="stop-color:#f9a600"/></linearGradient><polygon fill="url(#SVGID_00000033359230032281216440000014570733090228195208_)" points="100.5 762.2 202.5 626.4 306.3 747.5 150.6 868.6"/><linearGradient id="SVGID_00000106121786184657051550000003479405391494403726_" x1="409.522" x2="863.504" y1="67.892" y2="513.789" gradientUnits="userSpaceOnUse"><stop offset="0" style="stop-color:#3dea62"/><stop offset=".813" style="stop-color:#21d789"/><stop offset=".832" style="stop-color:#1fcf93"/><stop offset=".863" style="stop-color:#19b9af"/><stop offset=".903" style="stop-color:#0f95db"/><stop offset=".928" style="stop-color:#087cfa"/></linearGradient><path fill="url(#SVGID_00000106121786184657051550000003479405391494403726_)" d="M916.8,424.9L704.3,176.6l-307.6-0.1 l304.2,334.9l198.3,218.3l118.5-152.5c9-11.5,8.5-27.8-1.2-38.8L916.8,424.9z"/><linearGradient id="SVGID_00000135691914470532993030000002356135812531560371_" x1="46.819" x2="1004.313" y1="691.124" y2="691.124" gradientUnits="userSpaceOnUse"><stop offset=".414" style="stop-color:#fff84a"/><stop offset=".52" style="stop-color:#feee41"/><stop offset=".703" style="stop-color:#fcd228"/><stop offset=".936" style="stop-color:#f9a600"/></linearGradient><path fill="url(#SVGID_00000135691914470532993030000002356135812531560371_)" d="M1000.7,810L908,982.1 c-7.6,14.1-24.7,19.9-39.3,13.3L46.8,605.9l155.7-221.7l784.7,384C1002.8,775.8,1008.9,794.8,1000.7,810z"/><linearGradient id="SVGID_00000080182352515621670730000004021064119219253911_" x1="162.408" x2="1032.902" y1="884.718" y2="527.381" gradientUnits="userSpaceOnUse"><stop offset="0" style="stop-color:#5e5cfe"/><stop offset=".317" style="stop-color:#087cfa"/><stop offset=".724" style="stop-color:#087cfa"/><stop offset=".772" style="stop-color:#0886f9"/><stop offset=".854" style="stop-color:#07a2f6"/><stop offset=".936" style="stop-color:#07c3f2"/></linearGradient><path fill="url(#SVGID_00000080182352515621670730000004021064119219253911_)" d="M916.8,424.9l-216,86.4l-587,240.2 c-17.1,7-24.1,27.6-14.8,43.5L190,950.9c7.3,12.5,22.4,18.2,36.2,13.5l685.8-234.2l107.4-153.4c8.1-11.5,7.2-27-2.1-37.6 L916.8,424.9z"/><linearGradient id="SVGID_00000176005445387292519190000008479925132691250868_" x1="68.504" x2="608.575" y1="573.443" y2="83.516" gradientUnits="userSpaceOnUse"><stop offset="0" style="stop-color:#fcf84a"/><stop offset=".432" style="stop-color:#3dea62"/><stop offset=".759" style="stop-color:#3dea62"/><stop offset="1" style="stop-color:#21d789"/></linearGradient><path fill="url(#SVGID_00000176005445387292519190000008479925132691250868_)" d="M33.2,590L1.9,506.7 c-4.3-11.4-1.4-24.2,7.4-32.6L477.1,23C508.7-7.5,559.6-4.2,587,30.1l117.2,146.5L78.9,604.4C62.6,615.6,40.1,608.5,33.2,590z"/></g><g><path fill="#2B2B2B" d="M844.3,228.8c0-40.8-33.1-73.8-73.8-73.8h0H253.6h0c-40.8,0-73.8,33.1-73.8,73.8v0v258.4v258.4v0 c0,40.8,33.1,73.8,73.8,73.8h0h516.9h0c40.8,0,73.8-33.1,73.8-73.8v0V487.2V228.8L844.3,228.8z"/><polygon fill="#2B2B2B" points="807.4 191.9 770.4 155 253.6 155 216.6 191.9 179.7 228.8 179.7 487.2 179.7 745.7 216.6 782.6 253.6 819.5 770.4 819.5 807.4 782.6 844.3 745.7 844.3 487.2 844.3 228.8" display="none"/><g><path fill="#FFF" d="M686.1,617.5c-12.9-20.6-28.7-50.5-63-78c-18.4-14.7-18.9-42.2-1.1-57.7c0.1-0.1,0.3-0.2,0.4-0.4 c78.1-68.2,70.8-189.7-47.8-223.1l0,0C454.1,224.6,352.9,289,330,388.2c-17.3,75.2-14.9,122.2-11.3,169 c12.4,159.5,31.8,175.4,93.4,165.5c61.6-9.9,27.3-64.7,16.8-98.1c-14.2-45.1-14.4-69.2,15-71.2c38.2-2.5,110.5,23.9,133.7,101.8 c24.5,82.3,64.2,72.6,101.2,65C715.9,712.7,716.4,666,686.1,617.5z M449.1,469.2c-19.4-4.1-28.9-22.9-26.7-72.8 c1.8-39.4,33.7-66.2,77.4-63c45,3.3,79.9,17.6,80,55.4c0.1,33.8-46.3,65.7-85.4,75.4C476,468.8,460.8,471.7,449.1,469.2"/><g><rect width="21" height="235.5" x="523.8" y="212.7" fill="#2B2B2B" transform="matrix(0.7071 0.7071 -0.7071 0.7071 390.1241 -281.0082)"/><rect width="21" height="211.2" x="558.3" y="242.2" fill="#2B2B2B" transform="matrix(0.7071 0.7071 -0.7071 0.7071 412.5555 -300.338)"/><rect width="21" height="171.6" x="598.3" y="274" fill="#2B2B2B" transform="matrix(0.7071 0.7071 -0.7071 0.7071 432.7264 -325.1253)"/><rect width="21" height="373.1" x="553.1" y="270.5" fill="#2B2B2B" transform="matrix(0.7071 0.7071 -0.7071 0.7071 488.2159 -264.6454)"/><rect width="21" height="373.1" x="579.1" y="296.5" fill="#2B2B2B" transform="matrix(0.7071 0.7071 -0.7071 0.7071 514.1967 -275.407)"/><rect width="21" height="373.1" x="605" y="322.4" fill="#2B2B2B" transform="matrix(0.7071 0.7071 -0.7071 0.7071 540.1773 -286.1685)"/><rect width="21" height="411.5" x="617.4" y="342.8" fill="#2B2B2B" transform="matrix(0.7071 0.7071 -0.7071 0.7071 571.7852 -283.3448)"/><rect width="21" height="411.5" x="643.4" y="368.8" fill="#2B2B2B" transform="matrix(0.7071 0.7071 -0.7071 0.7071 597.7658 -294.1063)"/><rect width="21" height="411.5" x="669.4" y="394.8" fill="#2B2B2B" transform="matrix(0.7071 0.7071 -0.7071 0.7071 623.7464 -304.8678)"/><rect width="21" height="288" x="671.4" y="506.5" fill="#2B2B2B" transform="matrix(0.7071 0.7071 -0.7071 0.7071 659.6755 -291.6116)"/><rect width="21" height="288" x="697.3" y="532.5" fill="#2B2B2B" transform="matrix(0.7071 0.7071 -0.7071 0.7071 685.6561 -302.3731)"/></g></g></g></g></g></svg>