<svg version="1.1" xmlns="http://www.w3.org/2000/svg" viewBox="0 0 740 250" width="740" height="250">
  <rect x="0" y="0" width="740" height="250" fill="#2a2a2a"></rect><g stroke-linecap="round" transform="translate(10 10) rotate(0 100 20)"><path d="M2.66 2.31 C2.66 2.31, 2.66 2.31, 2.66 2.31 M2.66 2.31 C2.66 2.31, 2.66 2.31, 2.66 2.31 M0.43 10.98 C1.92 9.02, 5.27 4.93, 10.27 -0.34 M0.43 10.98 C2.26 8, 5.12 6.24, 10.27 -0.34 M0.83 16.62 C3.44 11.53, 9.69 6.47, 13.29 2.28 M0.83 16.62 C5.71 10.74, 9.96 5.99, 13.29 2.28 M1.22 22.26 C8.6 12.67, 15.09 5.02, 18.28 2.64 M1.22 22.26 C5.77 18.77, 8.75 14.03, 18.28 2.64 M0.96 28.66 C5.99 24.7, 8.63 15.89, 23.27 3 M0.96 28.66 C8.98 18.9, 17.84 8.34, 23.27 3 M0.7 35.06 C10.79 22.67, 22.16 10.97, 28.91 2.6 M0.7 35.06 C7.83 27.24, 15.03 18.48, 28.91 2.6 M3.72 37.68 C13.81 25.75, 24.76 13.95, 33.9 2.97 M3.72 37.68 C14.75 26.96, 22.82 15.94, 33.9 2.97 M6.74 40.31 C18.79 24.17, 33.93 11.82, 39.54 2.57 M6.74 40.31 C17.1 27.61, 27.5 17.14, 39.54 2.57 M11.72 40.67 C21.19 29.18, 32.51 18.57, 44.53 2.93 M11.72 40.67 C21.47 28.99, 31.11 18.14, 44.53 2.93 M17.37 40.27 C28.18 25.69, 41.83 10.38, 50.17 2.54 M17.37 40.27 C26.7 30.41, 35.64 19.86, 50.17 2.54 M22.35 40.63 C30.19 31.66, 37.55 19.09, 55.16 2.9 M22.35 40.63 C31.4 30.76, 39.86 18.88, 55.16 2.9 M28 40.24 C38.49 26.88, 51.81 12.76, 60.8 2.5 M28 40.24 C36.38 30.1, 46.26 18.55, 60.8 2.5 M32.98 40.6 C42.65 27.37, 53.05 19.57, 65.79 2.86 M32.98 40.6 C43.68 26.27, 56.45 12.65, 65.79 2.86 M38.63 40.2 C47.81 30.55, 56.23 17.36, 71.43 2.47 M38.63 40.2 C45.79 32.73, 52.98 22.98, 71.43 2.47 M43.61 40.56 C51.26 34.04, 56.15 23.8, 76.42 2.83 M43.61 40.56 C54.55 28.12, 65.35 16.16, 76.42 2.83 M49.26 40.17 C58.79 26.63, 70.23 14.14, 81.4 3.19 M49.26 40.17 C55.32 32.25, 63.29 24.8, 81.4 3.19 M54.24 40.53 C65.64 26.55, 77.28 13.62, 87.05 2.79 M54.24 40.53 C61.04 32.18, 70.34 23.43, 87.05 2.79 M59.89 40.13 C70.98 26.49, 85.35 12.67, 92.03 3.15 M59.89 40.13 C70.78 27.5, 81.14 15.5, 92.03 3.15 M64.87 40.49 C78.73 27.67, 91.21 12.93, 97.68 2.76 M64.87 40.49 C74.14 29.87, 81.16 21.62, 97.68 2.76 M69.86 40.85 C81.09 29.74, 89.91 18.86, 102.66 3.12 M69.86 40.85 C77.5 31.81, 85.57 23.51, 102.66 3.12 M75.5 40.46 C84.09 31.79, 88.51 21.25, 108.31 2.72 M75.5 40.46 C82.42 31.18, 89.97 23.13, 108.31 2.72 M80.49 40.82 C91.26 29.28, 103.53 16.82, 113.29 3.08 M80.49 40.82 C88.57 33, 95.08 25.26, 113.29 3.08 M86.13 40.42 C95.43 30.51, 104.28 16.18, 118.94 2.69 M86.13 40.42 C95.77 30.77, 104.78 19.08, 118.94 2.69 M91.12 40.78 C99.39 30.21, 109.24 20.86, 123.92 3.05 M91.12 40.78 C102.59 27.23, 114.46 15.62, 123.92 3.05 M96.76 40.39 C109.82 26.61, 121.95 12.68, 129.57 2.65 M96.76 40.39 C105.64 29.89, 114.01 21.82, 129.57 2.65 M101.75 40.75 C112.87 24.51, 128.33 13.09, 134.55 3.01 M101.75 40.75 C109.03 32.49, 116.77 23.98, 134.55 3.01 M107.39 40.36 C119.89 25.44, 131.48 12.59, 139.54 3.37 M107.39 40.36 C115.1 31.32, 124.08 21.49, 139.54 3.37 M112.38 40.72 C122.02 30.08, 130.75 23.49, 145.18 2.98 M112.38 40.72 C124.18 27.92, 134.81 14.05, 145.18 2.98 M117.37 41.08 C127.17 31.15, 137.44 18.84, 150.17 3.34 M117.37 41.08 C127.68 28.17, 137.93 16.88, 150.17 3.34 M123.01 40.68 C133.82 31.73, 141.29 18.55, 155.81 2.95 M123.01 40.68 C133.12 28.08, 144.63 16.49, 155.81 2.95 M128 41.04 C135.98 30.15, 147.43 18.89, 160.8 3.31 M128 41.04 C138.96 28.89, 148.97 16.45, 160.8 3.31 M133.64 40.65 C143.22 25.97, 156.99 14.82, 166.44 2.91 M133.64 40.65 C144.97 26.9, 156.69 14.06, 166.44 2.91 M138.63 41.01 C148.36 33.53, 155.33 22.3, 171.43 3.27 M138.63 41.01 C149.01 29.59, 157.75 19.09, 171.43 3.27 M144.27 40.61 C155.38 27.74, 169.04 11.07, 177.07 2.88 M144.27 40.61 C153 30.67, 163.17 20.31, 177.07 2.88 M149.26 40.97 C158.88 28.05, 173.1 15.04, 182.06 3.24 M149.26 40.97 C157.31 31.33, 166.02 20.43, 182.06 3.24 M154.9 40.58 C166.59 25.74, 179.69 15.56, 187.7 2.84 M154.9 40.58 C164.45 30.56, 174.02 19.93, 187.7 2.84 M159.89 40.94 C173.16 25.94, 183.96 14.42, 194.66 0.94 M159.89 40.94 C168.51 31.7, 176.59 23.23, 194.66 0.94 M165.53 40.54 C177.36 28.65, 187.2 16.57, 197.68 3.56 M165.53 40.54 C178.29 25.5, 188.84 12.58, 197.68 3.56 M170.52 40.9 C180.08 32.19, 188.75 18.85, 200.7 6.19 M170.52 40.9 C179.32 31.44, 187.72 21.88, 200.7 6.19 M175.51 41.26 C185.99 31.64, 193.22 19.22, 200.44 12.58 M175.51 41.26 C182.57 31.9, 190.84 22.06, 200.44 12.58 M181.15 40.87 C186.83 35.59, 194.28 26.67, 200.17 18.98 M181.15 40.87 C187.21 34.15, 193.13 27.39, 200.17 18.98 M186.14 41.23 C190.53 36.5, 194.92 28.49, 200.57 24.63 M186.14 41.23 C190.13 36.53, 194.82 31.42, 200.57 24.63 M191.12 41.59 C194.01 36.5, 197.71 34.18, 200.31 31.02 M191.12 41.59 C193.32 39.61, 195.56 37.13, 200.31 31.02" stroke="#228be6" stroke-width="0.5" fill="none"></path><path d="M10 0 M10 0 C79.53 -1.66, 149.87 1.54, 190 0 M10 0 C64.77 0.96, 120.5 0.91, 190 0 M190 0 C196.15 1.06, 200.3 2.05, 200 10 M190 0 C195.43 -0.03, 202.02 3.89, 200 10 M200 10 C200.51 13.2, 199.31 18.36, 200 30 M200 10 C199.17 17.23, 199.47 22.66, 200 30 M200 30 C200.79 36.79, 196.04 39.21, 190 40 M200 30 C200.38 38.49, 198.37 38.91, 190 40 M190 40 C152.7 41.02, 110.9 43.43, 10 40 M190 40 C136.27 39.82, 82.51 39.53, 10 40 M10 40 C2.09 39.94, -0.12 37.18, 0 30 M10 40 C4.39 40.33, -0.28 37.32, 0 30 M0 30 C-0.49 23.36, -2.01 16.19, 0 10 M0 30 C-0.55 22.9, -0.03 15.99, 0 10 M0 10 C-1.05 2.81, 3.89 -0.51, 10 0 M0 10 C-0.61 5.6, 1.33 -1.08, 10 0" stroke="#FFFFFF" stroke-width="1" fill="none"></path></g><g transform="translate(87.32001495361328 20) rotate(0 22.67998504638672 10)"><text x="22.67998504638672" y="0" font-family="Virgil, Segoe UI Emoji" font-size="16px" fill="#FFFFFF" text-anchor="middle" style="white-space: pre;" direction="ltr" dominant-baseline="text-before-edge">Start</text></g><g stroke-linecap="round" transform="translate(10 110) rotate(0 100 20)"><path d="M2.66 2.31 C2.66 2.31, 2.66 2.31, 2.66 2.31 M2.66 2.31 C2.66 2.31, 2.66 2.31, 2.66 2.31 M0.43 10.98 C3.25 6.65, 7.44 1.29, 10.27 -0.34 M0.43 10.98 C3.96 6.62, 7.97 2.52, 10.27 -0.34 M0.83 16.62 C3.83 14.17, 6.75 9.91, 13.29 2.28 M0.83 16.62 C4.92 11.75, 9.44 6.93, 13.29 2.28 M1.22 22.26 C8.7 16.74, 10.64 11.02, 18.28 2.64 M1.22 22.26 C7.5 13.9, 15.33 7.42, 18.28 2.64 M0.96 28.66 C8.04 18.96, 15.54 13.34, 23.27 3 M0.96 28.66 C7.47 21, 14.85 13.72, 23.27 3 M0.7 35.06 C9.66 24.28, 17.99 15.17, 28.91 2.6 M0.7 35.06 C10.51 22.69, 21.81 9.88, 28.91 2.6 M3.72 37.68 C12.7 29.07, 20.85 19.19, 33.9 2.97 M3.72 37.68 C11.27 29.05, 18.54 18.64, 33.9 2.97 M6.74 40.31 C16.13 31.12, 24 17.79, 39.54 2.57 M6.74 40.31 C17.87 26.78, 30.46 12.9, 39.54 2.57 M11.72 40.67 C19.66 30.92, 30.25 18.35, 44.53 2.93 M11.72 40.67 C21.58 28.39, 31.79 18.73, 44.53 2.93 M17.37 40.27 C27.16 25.03, 40.82 11.46, 50.17 2.54 M17.37 40.27 C26.51 30.1, 35.34 18.19, 50.17 2.54 M22.35 40.63 C29.36 34.13, 36.32 23.15, 55.16 2.9 M22.35 40.63 C29.66 33.15, 35.64 23.96, 55.16 2.9 M28 40.24 C38.99 27.96, 49.82 16.4, 60.8 2.5 M28 40.24 C38.27 27.02, 49.59 14.33, 60.8 2.5 M32.98 40.6 C38.27 32.52, 47.55 25.27, 65.79 2.86 M32.98 40.6 C44.35 27.3, 55.77 14.4, 65.79 2.86 M38.63 40.2 C44.51 32.27, 55.26 23.78, 71.43 2.47 M38.63 40.2 C50.27 26.2, 63.74 12.06, 71.43 2.47 M43.61 40.56 C55.41 26.87, 65.97 14.54, 76.42 2.83 M43.61 40.56 C56.89 26.86, 69.55 12.11, 76.42 2.83 M49.26 40.17 C59.03 29, 64.6 22.25, 81.4 3.19 M49.26 40.17 C59.7 29, 69.11 17.81, 81.4 3.19 M54.24 40.53 C61.59 31.61, 69.98 23.92, 87.05 2.79 M54.24 40.53 C62.18 31.87, 68.23 22.19, 87.05 2.79 M59.89 40.13 C66.59 30.04, 74.37 22.37, 92.03 3.15 M59.89 40.13 C70.4 28.4, 81.8 16.13, 92.03 3.15 M64.87 40.49 C73.71 33.03, 79.43 25.93, 97.68 2.76 M64.87 40.49 C74.41 30, 83.71 17.23, 97.68 2.76 M69.86 40.85 C79.99 32.13, 89.02 19.09, 102.66 3.12 M69.86 40.85 C78.35 30.78, 87.5 21.25, 102.66 3.12 M75.5 40.46 C87.02 26.22, 99.66 15.76, 108.31 2.72 M75.5 40.46 C88.2 26.5, 100.31 12.58, 108.31 2.72 M80.49 40.82 C89.99 29.45, 98.61 22.66, 113.29 3.08 M80.49 40.82 C92.16 25.51, 106.11 12.65, 113.29 3.08 M86.13 40.42 C92.81 32.51, 100.61 24.32, 118.94 2.69 M86.13 40.42 C99.06 25.31, 111.46 11.28, 118.94 2.69 M91.12 40.78 C98.2 32.19, 107.96 21.95, 123.92 3.05 M91.12 40.78 C100.15 30.85, 108.64 22.81, 123.92 3.05 M96.76 40.39 C108.76 28.28, 118.55 13.73, 129.57 2.65 M96.76 40.39 C106.16 29.99, 115.92 18.52, 129.57 2.65 M101.75 40.75 C111.7 27.28, 121.67 16.82, 134.55 3.01 M101.75 40.75 C111.82 30.85, 120.23 18.88, 134.55 3.01 M107.39 40.36 C116.76 27.48, 129.22 16.46, 139.54 3.37 M107.39 40.36 C115.93 29.48, 126.29 18.51, 139.54 3.37 M112.38 40.72 C123.37 28.91, 132.5 16.56, 145.18 2.98 M112.38 40.72 C122.78 26.65, 135.39 14.49, 145.18 2.98 M117.37 41.08 C128.47 27.13, 140.3 14.81, 150.17 3.34 M117.37 41.08 C126.63 32.6, 134.35 22.11, 150.17 3.34 M123.01 40.68 C134.37 28.41, 142.51 18.15, 155.81 2.95 M123.01 40.68 C134.88 27.25, 147.84 11.85, 155.81 2.95 M128 41.04 C136.06 31.7, 147.33 21.38, 160.8 3.31 M128 41.04 C138.61 27.77, 151.57 14.53, 160.8 3.31 M133.64 40.65 C141.41 31.51, 150.27 19.55, 166.44 2.91 M133.64 40.65 C145.25 26.79, 157.51 15.14, 166.44 2.91 M138.63 41.01 C148.06 31.73, 157.87 21.2, 171.43 3.27 M138.63 41.01 C150.48 27.43, 161.02 15.75, 171.43 3.27 M144.27 40.61 C152.5 31.88, 160.05 24.82, 177.07 2.88 M144.27 40.61 C155.53 28.58, 165.78 16.4, 177.07 2.88 M149.26 40.97 C163.09 24.66, 172.45 12.3, 182.06 3.24 M149.26 40.97 C159.03 30.7, 168.54 18.07, 182.06 3.24 M154.9 40.58 C164.92 30.35, 174.36 19.72, 187.7 2.84 M154.9 40.58 C168.11 26.41, 179.77 10.95, 187.7 2.84 M159.89 40.94 C169.22 27.93, 180.85 13.88, 194.66 0.94 M159.89 40.94 C170.3 29.59, 181.45 16.59, 194.66 0.94 M165.53 40.54 C175.76 29.23, 185.75 17.86, 197.68 3.56 M165.53 40.54 C176.32 28.56, 187.08 14.69, 197.68 3.56 M170.52 40.9 C178.94 31.02, 188.72 20.34, 200.7 6.19 M170.52 40.9 C180.85 27.51, 192.02 16.05, 200.7 6.19 M175.51 41.26 C181.48 35.95, 187.6 29.2, 200.44 12.58 M175.51 41.26 C184.62 29.34, 194.39 19.75, 200.44 12.58 M181.15 40.87 C186.24 36.05, 193.19 29.25, 200.17 18.98 M181.15 40.87 C185.61 34.3, 191.45 29.72, 200.17 18.98 M186.14 41.23 C189.12 36.57, 193.81 29.99, 200.57 24.63 M186.14 41.23 C190.13 36.64, 193.15 33.28, 200.57 24.63 M191.12 41.59 C193.01 38.3, 196.05 37.24, 200.31 31.02 M191.12 41.59 C194.04 38.32, 198.64 33.57, 200.31 31.02" stroke="#fa5252" stroke-width="0.5" fill="none"></path><path d="M10 0 M10 0 C53.88 -0.55, 99.53 0.59, 190 0 M10 0 C78.46 1.06, 147.23 1.58, 190 0 M190 0 C196.96 -0.24, 200.56 5.18, 200 10 M190 0 C198.66 2.11, 199.63 4.71, 200 10 M200 10 C200.06 15.44, 199.06 18.44, 200 30 M200 10 C199.8 16.18, 199.81 21.55, 200 30 M200 30 C201.97 34.93, 195.72 40.95, 190 40 M200 30 C197.88 35.1, 194.67 38.98, 190 40 M190 40 C151.38 42.54, 110.89 42.18, 10 40 M190 40 C132.81 40.97, 77.23 42.09, 10 40 M10 40 C1.4 40.42, 0.51 37.17, 0 30 M10 40 C2.49 41.47, 2.14 38.37, 0 30 M0 30 C1.73 23.72, -1.25 18.67, 0 10 M0 30 C-0.16 24.49, -0.01 17.25, 0 10 M0 10 C-0.28 2.64, 4.26 -1.4, 10 0 M0 10 C1.3 3.06, 5.27 1.27, 10 0" stroke="#FFFFFF" stroke-width="1" fill="none"></path></g><g transform="translate(37.624061584472656 120) rotate(0 72.37593841552734 10)"><text x="72.37593841552734" y="0" font-family="Virgil, Segoe UI Emoji" font-size="16px" fill="#FFFFFF" text-anchor="middle" style="white-space: pre;" direction="ltr" dominant-baseline="text-before-edge">Pre-request script</text></g><g stroke-linecap="round" transform="translate(270 110) rotate(0 100 20)"><path d="M2.66 2.31 C2.66 2.31, 2.66 2.31, 2.66 2.31 M2.66 2.31 C2.66 2.31, 2.66 2.31, 2.66 2.31 M0.43 10.98 C4.11 8.77, 3.81 4.29, 10.27 -0.34 M0.43 10.98 C4.74 7.44, 8.61 1.59, 10.27 -0.34 M0.83 16.62 C5.44 12.89, 6.29 10.64, 13.29 2.28 M0.83 16.62 C5.03 12.14, 7.61 6.97, 13.29 2.28 M1.22 22.26 C5.59 16.54, 12.73 11.03, 18.28 2.64 M1.22 22.26 C6.88 16.08, 13.85 7.82, 18.28 2.64 M0.96 28.66 C4.65 22.3, 11.56 16.38, 23.27 3 M0.96 28.66 C8.62 19.57, 15.6 11.42, 23.27 3 M0.7 35.06 C6.03 26.44, 17.08 19.41, 28.91 2.6 M0.7 35.06 C9.16 24.86, 19.6 13.51, 28.91 2.6 M3.72 37.68 C10.62 29.06, 19.66 21.21, 33.9 2.97 M3.72 37.68 C10.67 28.79, 18.9 19.26, 33.9 2.97 M6.74 40.31 C18.13 30.95, 27.03 17.62, 39.54 2.57 M6.74 40.31 C13.11 32.2, 21.26 24.61, 39.54 2.57 M11.72 40.67 C19.99 27.81, 31.98 17.37, 44.53 2.93 M11.72 40.67 C20.43 29.22, 30.32 20.23, 44.53 2.93 M17.37 40.27 C27.78 28.45, 38.17 16.73, 50.17 2.54 M17.37 40.27 C27.87 29.09, 37.83 17.2, 50.17 2.54 M22.35 40.63 C29.45 29.56, 37.74 22.67, 55.16 2.9 M22.35 40.63 C29.53 33.12, 35.58 24.08, 55.16 2.9 M28 40.24 C36.75 27.51, 48.74 15.77, 60.8 2.5 M28 40.24 C35.34 32.96, 42.47 24.05, 60.8 2.5 M32.98 40.6 C41.99 30.65, 51.37 19.43, 65.79 2.86 M32.98 40.6 C44.48 27.37, 57.83 12.01, 65.79 2.86 M38.63 40.2 C51.82 25.63, 60.34 15.01, 71.43 2.47 M38.63 40.2 C51.56 26.68, 64.04 11.69, 71.43 2.47 M43.61 40.56 C56.96 25.81, 66.13 15, 76.42 2.83 M43.61 40.56 C53.18 29.68, 62.31 19.59, 76.42 2.83 M49.26 40.17 C59.23 25.39, 73.68 13.84, 81.4 3.19 M49.26 40.17 C58.27 29.58, 69.16 17.84, 81.4 3.19 M54.24 40.53 C65.06 27.27, 73.8 16.11, 87.05 2.79 M54.24 40.53 C67.42 26.35, 78.65 11.75, 87.05 2.79 M59.89 40.13 C66.58 29.64, 76.52 21.55, 92.03 3.15 M59.89 40.13 C70.33 26.64, 81.21 13.8, 92.03 3.15 M64.87 40.49 C73.52 30.63, 81.48 20.11, 97.68 2.76 M64.87 40.49 C75.59 29.42, 84.52 17.88, 97.68 2.76 M69.86 40.85 C81.18 26.97, 91.2 17.03, 102.66 3.12 M69.86 40.85 C82.48 27.69, 94.53 13.41, 102.66 3.12 M75.5 40.46 C84.9 29.6, 90.75 20.36, 108.31 2.72 M75.5 40.46 C83.89 32.56, 90.71 22.89, 108.31 2.72 M80.49 40.82 C91.37 29.56, 98.22 20.16, 113.29 3.08 M80.49 40.82 C87.86 32.13, 94.19 23.52, 113.29 3.08 M86.13 40.42 C99.74 27.52, 109.42 14.69, 118.94 2.69 M86.13 40.42 C96.39 28.37, 107.57 17.18, 118.94 2.69 M91.12 40.78 C101.4 28.04, 112.58 16.15, 123.92 3.05 M91.12 40.78 C100.27 30.86, 108.7 21.35, 123.92 3.05 M96.76 40.39 C108.12 26.69, 119.38 13.31, 129.57 2.65 M96.76 40.39 C104.87 30.83, 113.7 22.13, 129.57 2.65 M101.75 40.75 C109.37 32.79, 116.27 23.45, 134.55 3.01 M101.75 40.75 C111.98 30.1, 122.1 19.05, 134.55 3.01 M107.39 40.36 C115.44 33.25, 122 25.25, 139.54 3.37 M107.39 40.36 C116.72 29.7, 124.5 19, 139.54 3.37 M112.38 40.72 C123.91 27.4, 134.39 13.59, 145.18 2.98 M112.38 40.72 C125.12 26.34, 137.77 10.29, 145.18 2.98 M117.37 41.08 C123.05 32.18, 129.95 24.96, 150.17 3.34 M117.37 41.08 C125.42 32.72, 132.69 23.85, 150.17 3.34 M123.01 40.68 C130.63 32.23, 137.28 27.23, 155.81 2.95 M123.01 40.68 C131.19 30.94, 140.32 19.45, 155.81 2.95 M128 41.04 C139.43 28.83, 146.77 17.73, 160.8 3.31 M128 41.04 C138.03 30.45, 146.3 20.22, 160.8 3.31 M133.64 40.65 C146.77 25.01, 156.61 11.25, 166.44 2.91 M133.64 40.65 C144.66 29.17, 153.91 16.96, 166.44 2.91 M138.63 41.01 C150.59 27.99, 163.75 13.97, 171.43 3.27 M138.63 41.01 C151.42 26.68, 165 12.13, 171.43 3.27 M144.27 40.61 C153.75 26.52, 165.89 15.42, 177.07 2.88 M144.27 40.61 C155.54 28.07, 167.58 14.38, 177.07 2.88 M149.26 40.97 C160.7 29.08, 171.94 17.23, 182.06 3.24 M149.26 40.97 C155.74 33.13, 162.65 25.83, 182.06 3.24 M154.9 40.58 C163.27 29.3, 173.53 17.21, 187.7 2.84 M154.9 40.58 C164.9 29.82, 174.3 17.2, 187.7 2.84 M159.89 40.94 C167.68 30.57, 176.9 20.32, 194.66 0.94 M159.89 40.94 C168.44 32.41, 176.79 22.29, 194.66 0.94 M165.53 40.54 C175.06 28.75, 182.23 19.31, 197.68 3.56 M165.53 40.54 C175.66 29.81, 186.25 17.56, 197.68 3.56 M170.52 40.9 C180.54 31.98, 186.14 22.69, 200.7 6.19 M170.52 40.9 C178.94 31.57, 186.42 22.95, 200.7 6.19 M175.51 41.26 C183.3 34.98, 186.4 26.51, 200.44 12.58 M175.51 41.26 C180.39 34.64, 186.21 29.63, 200.44 12.58 M181.15 40.87 C187.5 31.47, 196.77 24.02, 200.17 18.98 M181.15 40.87 C187.14 35.7, 190.98 28.26, 200.17 18.98 M186.14 41.23 C188.61 36.39, 194.19 33.85, 200.57 24.63 M186.14 41.23 C190.48 37.37, 194.2 31.35, 200.57 24.63 M191.12 41.59 C194.5 38.63, 196.42 35.68, 200.31 31.02 M191.12 41.59 C194.52 37.78, 197.59 33.88, 200.31 31.02" stroke="#12b886" stroke-width="0.5" fill="none"></path><path d="M10 0 M10 0 C73.32 -1.04, 138.8 -0.54, 190 0 M10 0 C54.32 -0.77, 100.13 -1.37, 190 0 M190 0 C195.72 0.95, 198.15 1.97, 200 10 M190 0 C194.67 -1.02, 198.14 3.9, 200 10 M200 10 C199.92 18.37, 200.36 25.28, 200 30 M200 10 C199.95 18.27, 198.88 25.88, 200 30 M200 30 C200.51 37.17, 195.93 41.28, 190 40 M200 30 C202.14 38.37, 196.56 40.05, 190 40 M190 40 C121.2 40.15, 55.28 39.56, 10 40 M190 40 C148.47 41.59, 106.84 41.22, 10 40 M10 40 C4.26 38.6, 1.13 36.43, 0 30 M10 40 C5.27 41.27, 0.23 35.5, 0 30 M0 30 C-2.12 24.25, 0.78 19.75, 0 10 M0 30 C-0.09 25.74, 0.04 20.48, 0 10 M0 10 C0.53 1.82, 1.67 0.88, 10 0 M0 10 C2.12 2.37, 3.39 -0.24, 10 0" stroke="#FFFFFF" stroke-width="1" fill="none"></path></g><g transform="translate(325.36002349853516 120) rotate(0 44.639976501464844 10)"><text x="44.639976501464844" y="0" font-family="Virgil, Segoe UI Emoji" font-size="16px" fill="#FFFFFF" text-anchor="middle" style="white-space: pre;" direction="ltr" dominant-baseline="text-before-edge">Do request</text></g><g stroke-linecap="round" transform="translate(530 110) rotate(0 100 20)"><path d="M2.66 2.31 C2.66 2.31, 2.66 2.31, 2.66 2.31 M2.66 2.31 C2.66 2.31, 2.66 2.31, 2.66 2.31 M0.43 10.98 C1.95 9.67, 4.26 6.21, 10.27 -0.34 M0.43 10.98 C3.85 6.85, 7.9 2.55, 10.27 -0.34 M0.83 16.62 C4.87 11.44, 8.32 6.08, 13.29 2.28 M0.83 16.62 C5.2 12.33, 8.97 7.16, 13.29 2.28 M1.22 22.26 C6.76 14.97, 8.7 11.11, 18.28 2.64 M1.22 22.26 C8.55 14.22, 13.82 7.33, 18.28 2.64 M0.96 28.66 C8.43 20.73, 15.13 11.88, 23.27 3 M0.96 28.66 C10.03 19.05, 17.7 8.86, 23.27 3 M0.7 35.06 C7.18 25.69, 19.09 17.52, 28.91 2.6 M0.7 35.06 C10.63 23.11, 21.28 10.75, 28.91 2.6 M3.72 37.68 C14.95 25.13, 22.65 12.59, 33.9 2.97 M3.72 37.68 C14.54 26.12, 23.07 14.42, 33.9 2.97 M6.74 40.31 C19.15 26.22, 27.89 15.8, 39.54 2.57 M6.74 40.31 C15.19 30.53, 24.15 20.94, 39.54 2.57 M11.72 40.67 C22.16 27.13, 33.65 12.41, 44.53 2.93 M11.72 40.67 C19.65 31.96, 28.07 22.85, 44.53 2.93 M17.37 40.27 C24.82 30.96, 33.29 19.42, 50.17 2.54 M17.37 40.27 C28.95 28.6, 40.1 16.3, 50.17 2.54 M22.35 40.63 C35.64 27.42, 48.74 11.23, 55.16 2.9 M22.35 40.63 C32.83 28.24, 43.91 15.61, 55.16 2.9 M28 40.24 C40.91 28.26, 51.89 13.9, 60.8 2.5 M28 40.24 C34.37 30.8, 43.15 22.98, 60.8 2.5 M32.98 40.6 C46.94 24.99, 61.07 9.15, 65.79 2.86 M32.98 40.6 C41.15 31.15, 50.09 20.89, 65.79 2.86 M38.63 40.2 C51.9 22.97, 63.28 8.24, 71.43 2.47 M38.63 40.2 C49.07 27.33, 60.75 14.17, 71.43 2.47 M43.61 40.56 C56.87 27.96, 69.17 11.01, 76.42 2.83 M43.61 40.56 C53.7 29.37, 63.83 18.45, 76.42 2.83 M49.26 40.17 C59.98 28.04, 66.27 18.1, 81.4 3.19 M49.26 40.17 C58.13 31.06, 65 20.66, 81.4 3.19 M54.24 40.53 C60.77 33.08, 68.49 24.4, 87.05 2.79 M54.24 40.53 C60.36 33.36, 68.45 25.25, 87.05 2.79 M59.89 40.13 C67.75 31.86, 75.49 21.14, 92.03 3.15 M59.89 40.13 C67.22 31, 77.02 21.12, 92.03 3.15 M64.87 40.49 C74.66 29.11, 89.26 12.4, 97.68 2.76 M64.87 40.49 C73.44 30.98, 81.73 23.31, 97.68 2.76 M69.86 40.85 C78.19 29.51, 88.59 20.21, 102.66 3.12 M69.86 40.85 C78.79 31.3, 86.94 21.37, 102.66 3.12 M75.5 40.46 C82.82 32.27, 94.14 21.89, 108.31 2.72 M75.5 40.46 C84.6 29.7, 92.67 20.09, 108.31 2.72 M80.49 40.82 C93.27 28.61, 103.69 13.27, 113.29 3.08 M80.49 40.82 C88.31 30.35, 97.78 20.89, 113.29 3.08 M86.13 40.42 C97.82 28.39, 105.29 17.72, 118.94 2.69 M86.13 40.42 C92.78 32.75, 100.47 23.62, 118.94 2.69 M91.12 40.78 C103.01 27.89, 114.55 14.78, 123.92 3.05 M91.12 40.78 C100.91 29.1, 110.4 19.63, 123.92 3.05 M96.76 40.39 C107.13 27.64, 121.06 14.34, 129.57 2.65 M96.76 40.39 C106.76 28.37, 117.69 16.09, 129.57 2.65 M101.75 40.75 C111.14 31.89, 116.73 24.01, 134.55 3.01 M101.75 40.75 C110.3 30.22, 119.74 19.99, 134.55 3.01 M107.39 40.36 C115.09 33.05, 118.96 25.29, 139.54 3.37 M107.39 40.36 C114.49 33.37, 121.19 25.86, 139.54 3.37 M112.38 40.72 C123.67 29.19, 134.89 15.49, 145.18 2.98 M112.38 40.72 C124.38 27.06, 135.16 14.06, 145.18 2.98 M117.37 41.08 C124.39 32.89, 136.03 20.73, 150.17 3.34 M117.37 41.08 C125.03 33.24, 132.08 25.46, 150.17 3.34 M123.01 40.68 C130.03 31.15, 140.55 19.13, 155.81 2.95 M123.01 40.68 C129.78 33.06, 137.28 25.62, 155.81 2.95 M128 41.04 C137.73 30.66, 147.25 19.69, 160.8 3.31 M128 41.04 C136.95 28.36, 148.06 17.08, 160.8 3.31 M133.64 40.65 C147.81 26.74, 157.33 10.56, 166.44 2.91 M133.64 40.65 C141.21 32.34, 148.75 23.48, 166.44 2.91 M138.63 41.01 C151.23 26.4, 161.08 16.2, 171.43 3.27 M138.63 41.01 C149.89 27.46, 160.77 14.96, 171.43 3.27 M144.27 40.61 C153.48 33.04, 159.19 22.1, 177.07 2.88 M144.27 40.61 C153.11 30.61, 161.87 21.24, 177.07 2.88 M149.26 40.97 C160.05 28.88, 167.33 19.28, 182.06 3.24 M149.26 40.97 C156.75 32.52, 163.95 25.5, 182.06 3.24 M154.9 40.58 C166.02 25.89, 181.07 9.43, 187.7 2.84 M154.9 40.58 C163.03 32.31, 170.35 24.19, 187.7 2.84 M159.89 40.94 C171.98 24.86, 188.7 10.09, 194.66 0.94 M159.89 40.94 C170.37 30.27, 179.85 18.89, 194.66 0.94 M165.53 40.54 C175.75 27.67, 189.92 15.14, 197.68 3.56 M165.53 40.54 C174.06 30.75, 181.45 21.66, 197.68 3.56 M170.52 40.9 C178.54 30.67, 189.01 17.1, 200.7 6.19 M170.52 40.9 C180.34 29.38, 191.77 18.18, 200.7 6.19 M175.51 41.26 C183.78 35.93, 187.8 25.9, 200.44 12.58 M175.51 41.26 C185.05 30.45, 195.44 19.54, 200.44 12.58 M181.15 40.87 C186.91 34.78, 193.69 27.95, 200.17 18.98 M181.15 40.87 C187.43 35.31, 191.88 28.69, 200.17 18.98 M186.14 41.23 C188.85 38.97, 190.85 34.35, 200.57 24.63 M186.14 41.23 C190.08 36.68, 194.36 31.23, 200.57 24.63 M191.12 41.59 C195.54 36.13, 197.58 32, 200.31 31.02 M191.12 41.59 C194.21 39.16, 196.2 36.11, 200.31 31.02" stroke="#fa5252" stroke-width="0.5" fill="none"></path><path d="M10 0 M10 0 C70.24 -1.08, 125.45 0.63, 190 0 M10 0 C72.09 -0.13, 133.32 0.26, 190 0 M190 0 C198.53 1.48, 199.91 3.38, 200 10 M190 0 C198.4 1.99, 199.57 1.9, 200 10 M200 10 C198.65 16.15, 201.78 22.94, 200 30 M200 10 C200.44 15.33, 200.54 21.95, 200 30 M200 30 C201.68 37.77, 196.87 38.99, 190 40 M200 30 C198.76 38.38, 197.87 37.73, 190 40 M190 40 C142.64 38.39, 96.77 39.2, 10 40 M190 40 C120.5 40.6, 49.64 41.79, 10 40 M10 40 C5.18 39.17, 0.05 36.46, 0 30 M10 40 C1.81 38.59, 0.64 35.9, 0 30 M0 30 C-0.38 24.65, 0.56 23.29, 0 10 M0 30 C0.98 23.63, -0.84 16.85, 0 10 M0 10 C1.53 4.45, 5 0.82, 10 0 M0 10 C1.31 3.01, 3.1 -0.62, 10 0" stroke="#FFFFFF" stroke-width="1" fill="none"></path></g><g transform="translate(552.1440658569336 120) rotate(0 77.8559341430664 10)"><text x="77.8559341430664" y="0" font-family="Virgil, Segoe UI Emoji" font-size="16px" fill="#FFFFFF" text-anchor="middle" style="white-space: pre;" direction="ltr" dominant-baseline="text-before-edge">Post-request script</text></g><g stroke-linecap="round" transform="translate(530 210) rotate(0 100 15)"><path d="M0.39 4.31 C0.39 4.31, 0.39 4.31, 0.39 4.31 M0.39 4.31 C0.39 4.31, 0.39 4.31, 0.39 4.31 M0.13 10.71 C1.73 8.96, 4.56 6.64, 8.65 0.9 M0.13 10.71 C3.01 7.27, 6.02 3.69, 8.65 0.9 M-0.14 17.11 C3.68 14.39, 7 9.91, 13.64 1.26 M-0.14 17.11 C2.98 12.91, 6.07 10.11, 13.64 1.26 M0.26 22.75 C5.79 15.29, 12.21 10.32, 19.29 0.86 M0.26 22.75 C4.16 17.38, 8.34 12.36, 19.29 0.86 M1.97 26.88 C9.03 14.88, 17.43 6.63, 24.27 1.22 M1.97 26.88 C6.94 21.35, 12.08 15.44, 24.27 1.22 M4.33 30.26 C9.83 23.31, 17.95 16.27, 29.92 0.83 M4.33 30.26 C12.51 22.43, 19.61 13.24, 29.92 0.83 M8.66 31.38 C17.65 22.82, 24.13 14.15, 34.9 1.19 M8.66 31.38 C17.87 19.96, 26.67 9.54, 34.9 1.19 M14.3 30.98 C21.48 22.11, 27.04 17.3, 40.55 0.8 M14.3 30.98 C22.2 20.97, 31.13 11.05, 40.55 0.8 M19.29 31.34 C23.92 22.52, 32.3 18.54, 45.53 1.16 M19.29 31.34 C28.41 19.67, 38.43 9.72, 45.53 1.16 M24.93 30.95 C32.4 22.8, 39.59 13.39, 51.18 0.76 M24.93 30.95 C29.62 25.12, 36.53 18.63, 51.18 0.76 M29.92 31.31 C42.23 21.12, 48.99 6.8, 56.16 1.12 M29.92 31.31 C38.32 20.87, 48.89 9.29, 56.16 1.12 M35.56 30.91 C47.3 18.85, 56.16 7.9, 61.81 0.73 M35.56 30.91 C45.04 20.01, 55.38 7.09, 61.81 0.73 M40.55 31.27 C46.68 24.57, 50.02 18.89, 66.79 1.09 M40.55 31.27 C45.75 24.38, 52.62 18.29, 66.79 1.09 M46.19 30.88 C54.38 21.82, 65.56 9.67, 72.44 0.69 M46.19 30.88 C56.22 18.59, 67.76 6.07, 72.44 0.69 M51.18 31.24 C58.14 26.23, 63.73 20.19, 77.42 1.05 M51.18 31.24 C57.71 23.42, 64.35 16.35, 77.42 1.05 M56.82 30.85 C64.44 23.08, 69.42 16.53, 83.07 0.66 M56.82 30.85 C66.36 20.89, 75 10.43, 83.07 0.66 M61.81 31.21 C72.01 22.98, 76.86 13.91, 88.05 1.02 M61.81 31.21 C70.69 20.22, 78.51 11.46, 88.05 1.02 M67.45 30.81 C75.53 19.15, 86.78 8.67, 93.7 0.62 M67.45 30.81 C77.11 19.66, 86.33 8.03, 93.7 0.62 M72.44 31.17 C82.96 18.27, 93.67 8.12, 98.68 0.98 M72.44 31.17 C80.76 21.56, 89.86 11.45, 98.68 0.98 M77.43 31.53 C89.15 20.42, 98.81 7.14, 104.33 0.59 M77.43 31.53 C86.29 22.44, 94.15 13.63, 104.33 0.59 M83.07 31.14 C91.32 22.57, 95.71 14.05, 109.31 0.95 M83.07 31.14 C91.99 22.02, 101.18 11.24, 109.31 0.95 M88.06 31.5 C96.21 22.37, 101.33 16.42, 114.3 1.31 M88.06 31.5 C96.02 22.11, 103.06 14.5, 114.3 1.31 M93.7 31.1 C101.67 21.72, 110.76 10.5, 119.94 0.91 M93.7 31.1 C103.43 19.74, 110.99 10.52, 119.94 0.91 M98.69 31.46 C108.6 20.71, 115.98 10.66, 124.93 1.27 M98.69 31.46 C106.69 22.14, 117.22 11.38, 124.93 1.27 M104.33 31.07 C111.91 23.23, 119.78 12.2, 130.57 0.88 M104.33 31.07 C110.06 23.36, 117.21 16.84, 130.57 0.88 M109.32 31.43 C116.11 23.44, 122.55 18.78, 135.56 1.24 M109.32 31.43 C119.19 19.36, 128.63 9.61, 135.56 1.24 M114.96 31.03 C126.28 19.51, 134.87 9, 141.2 0.84 M114.96 31.03 C120.5 23.8, 126.7 17.26, 141.2 0.84 M119.95 31.39 C129.35 20.85, 139.81 10.78, 146.19 1.2 M119.95 31.39 C130.93 20.64, 139.38 8.63, 146.19 1.2 M125.59 31 C133.49 21.57, 142.91 11.56, 151.83 0.81 M125.59 31 C135.33 20.11, 145.73 8.22, 151.83 0.81 M130.58 31.36 C139.31 24.66, 142.86 13.48, 156.82 1.17 M130.58 31.36 C137.94 23.01, 146.32 14.29, 156.82 1.17 M136.22 30.96 C143.35 25.83, 147.42 20.18, 162.46 0.78 M136.22 30.96 C143.76 22.81, 151.52 13.06, 162.46 0.78 M141.21 31.32 C151.34 19.24, 159.07 9.4, 167.45 1.14 M141.21 31.32 C148.59 23.74, 155.27 16.95, 167.45 1.14 M146.85 30.93 C152.6 23.74, 159.66 16.34, 173.09 0.74 M146.85 30.93 C154.39 20.75, 164.37 10.55, 173.09 0.74 M151.84 31.29 C158.62 23.32, 164.85 16.78, 178.08 1.1 M151.84 31.29 C161.11 19.71, 170.03 8.88, 178.08 1.1 M157.48 30.9 C165.2 21.81, 175.2 12.88, 183.72 0.71 M157.48 30.9 C166.03 20.33, 173.85 10.41, 183.72 0.71 M162.47 31.26 C172.71 18.7, 184.9 7.99, 188.71 1.07 M162.47 31.26 C172.93 18.7, 182.48 7.56, 188.71 1.07 M168.11 30.86 C176.74 17.8, 188.52 6.4, 193.7 1.43 M168.11 30.86 C175.55 23.65, 181.36 15.49, 193.7 1.43 M173.1 31.22 C179.38 23.55, 184.5 17.57, 198.03 2.54 M173.1 31.22 C181.51 19.65, 192.67 10.43, 198.03 2.54 M178.74 30.83 C184.98 23.15, 190.52 17.45, 201.05 5.17 M178.74 30.83 C185.28 22.32, 193.21 14.12, 201.05 5.17 M183.73 31.19 C190.17 26.26, 197.24 19.46, 200.79 11.56 M183.73 31.19 C189.4 26.35, 193.23 20.84, 200.79 11.56 M189.37 30.79 C192.79 26.55, 194.64 24.68, 201.18 17.21 M189.37 30.79 C191.87 26.52, 196.32 22.38, 201.18 17.21 M194.36 31.15 C195.14 29.68, 198.41 28.11, 200.92 23.6 M194.36 31.15 C196.68 28.43, 199.31 25.59, 200.92 23.6" stroke="#7950f2" stroke-width="0.5" fill="none"></path><path d="M7.5 0 M7.5 0 C48.47 -0.38, 93.81 -0.3, 192.5 0 M7.5 0 C56.97 -1.77, 104.98 -0.97, 192.5 0 M192.5 0 C199.23 -0.37, 198.75 2.99, 200 7.5 M192.5 0 C197.94 -0.12, 198.4 2.11, 200 7.5 M200 7.5 C199.78 12.79, 200.7 18.07, 200 22.5 M200 7.5 C200.4 12.92, 199.6 17.79, 200 22.5 M200 22.5 C201.49 28.55, 195.53 29.17, 192.5 30 M200 22.5 C201.07 27.03, 196.51 28.57, 192.5 30 M192.5 30 C139.03 33.12, 86.45 30.11, 7.5 30 M192.5 30 C152 31.73, 112.23 31.04, 7.5 30 M7.5 30 C1.27 30.56, -0.67 25.52, 0 22.5 M7.5 30 C4.22 31.43, -0.26 25.97, 0 22.5 M0 22.5 C-0.67 16.7, 1.26 12.75, 0 7.5 M0 22.5 C0.42 20, 0.31 16.69, 0 7.5 M0 7.5 C-0.28 2.3, 1.96 -0.92, 7.5 0 M0 7.5 C0.48 0.69, 1.65 -0.42, 7.5 0" stroke="#FFFFFF" stroke-width="1" fill="none"></path></g><g transform="translate(616.3200073242188 215) rotate(0 13.67999267578125 10)"><text x="13.67999267578125" y="0" font-family="Virgil, Segoe UI Emoji" font-size="16px" fill="#FFFFFF" text-anchor="middle" style="white-space: pre;" direction="ltr" dominant-baseline="text-before-edge">End</text></g><g stroke-linecap="round"><g transform="translate(110.00938855897357 51) rotate(0 0.04976851589776743 28.49034956243821)"><path d="M0.6 0.18 C0.85 9.81, 0.41 47.35, 0.46 56.83 M-0.55 -0.77 C-0.37 9.05, -0.68 47.97, -0.53 57.75" stroke="#FFFFFF" stroke-width="1" fill="none"></path></g><g transform="translate(110.00938855897357 51) rotate(0 0.04976851589776743 28.49034956243821)"><path d="M-10.22 30.38 C-10.56 36.87, -8.01 42.75, 0.88 56.61 M-10.01 29.74 C-7.47 38.1, -3.58 47.36, -0.56 58.75" stroke="#FFFFFF" stroke-width="1" fill="none"></path></g><g transform="translate(110.00938855897357 51) rotate(0 0.04976851589776743 28.49034956243821)"><path d="M9.62 30.33 C5.05 36.94, 3.38 42.82, 0.88 56.61 M9.83 29.7 C6.34 38.21, 4.2 47.48, -0.56 58.75" stroke="#FFFFFF" stroke-width="1" fill="none"></path></g></g><mask></mask><g stroke-linecap="round"><g transform="translate(211.06666666666672 129.28718545431332) rotate(0 28.942452987024183 0.1465835264999953)"><path d="M0.52 0.84 C10.4 0.74, 49 -0.35, 58.54 -0.55 M-0.66 0.24 C9.17 0.26, 48.31 0.45, 57.92 0.5" stroke="#FFFFFF" stroke-width="1" fill="none"></path></g><g transform="translate(211.06666666666672 129.28718545431332) rotate(0 28.942452987024183 0.1465835264999953)"><path d="M32.05 11.29 C35.71 7.56, 42.64 6.91, 58.63 0.44 M30.18 10.03 C42.13 5.69, 51.47 2.22, 57.48 1.29" stroke="#FFFFFF" stroke-width="1" fill="none"></path></g><g transform="translate(211.06666666666672 129.28718545431332) rotate(0 28.942452987024183 0.1465835264999953)"><path d="M32.15 -8.53 C35.8 -7.44, 42.7 -3.28, 58.63 0.44 M30.28 -9.79 C42.18 -6.21, 51.49 -1.76, 57.48 1.29" stroke="#FFFFFF" stroke-width="1" fill="none"></path></g></g><mask></mask><g stroke-linecap="round"><g transform="translate(471 130.0000000000001) rotate(0 28.228645229726055 0.6523211726406544)"><path d="M-0.03 1.2 C9.48 1.11, 48.39 0.16, 57.97 -0.09 M-1.51 0.78 C7.76 0.85, 47.36 1.38, 57 1.4" stroke="#FFFFFF" stroke-width="1" fill="none"></path></g><g transform="translate(471 130.0000000000001) rotate(0 28.228645229726055 0.6523211726406544)"><path d="M31.67 11.03 C39.74 6.52, 49.66 4.97, 55.61 -0.56 M30.16 12.02 C37.71 7.8, 44.26 4.81, 56.63 1.17" stroke="#FFFFFF" stroke-width="1" fill="none"></path></g><g transform="translate(471 130.0000000000001) rotate(0 28.228645229726055 0.6523211726406544)"><path d="M31.83 -8.8 C39.91 -5.87, 49.78 0.03, 55.61 -0.56 M30.32 -7.81 C37.75 -6.61, 44.24 -4.16, 56.63 1.17" stroke="#FFFFFF" stroke-width="1" fill="none"></path></g></g><mask></mask><g stroke-linecap="round"><g transform="translate(630 151) rotate(0 -0.6734730975050525 28.712336291507796)"><path d="M-1.18 -0.31 C-1.38 9.65, -0.82 49.04, -0.53 58.95 M0.41 -1.52 C-0.06 8.19, -1.71 47.51, -1.76 57.32" stroke="#FFFFFF" stroke-width="1" fill="none"></path></g><g transform="translate(630 151) rotate(0 -0.6734730975050525 28.712336291507796)"><path d="M-11.48 28.94 C-6.27 40.72, -2.7 50.61, -2.6 56.47 M-11.45 30.3 C-9.31 36.41, -7.81 42.56, -1.71 56.64" stroke="#FFFFFF" stroke-width="1" fill="none"></path></g><g transform="translate(630 151) rotate(0 -0.6734730975050525 28.712336291507796)"><path d="M8.35 29.46 C6.47 40.86, 2.96 50.57, -2.6 56.47 M8.38 30.83 C6.07 36.77, 3.11 42.8, -1.71 56.64" stroke="#FFFFFF" stroke-width="1" fill="none"></path></g></g><mask></mask></svg>