<svg version="1.1" xmlns="http://www.w3.org/2000/svg" viewBox="0 0 500 260" width="500" height="260">
  <rect x="0" y="0" width="500" height="260" fill="#2a2a2a"></rect><g stroke-linecap="round" transform="translate(10 10) rotate(0 60 20)"><path d="M2.66 2.31 C2.66 2.31, 2.66 2.31, 2.66 2.31 M2.66 2.31 C2.66 2.31, 2.66 2.31, 2.66 2.31 M0.43 10.98 C1.92 9.02, 5.27 4.93, 10.27 -0.34 M0.43 10.98 C2.26 8, 5.12 6.24, 10.27 -0.34 M0.83 16.62 C3.44 11.53, 9.69 6.47, 13.29 2.28 M0.83 16.62 C5.71 10.74, 9.96 5.99, 13.29 2.28 M1.22 22.26 C8.6 12.67, 15.09 5.02, 18.28 2.64 M1.22 22.26 C5.77 18.77, 8.75 14.03, 18.28 2.64 M0.96 28.66 C5.99 24.7, 8.63 15.89, 23.27 3 M0.96 28.66 C8.98 18.9, 17.84 8.34, 23.27 3 M0.7 35.06 C10.79 22.67, 22.16 10.97, 28.91 2.6 M0.7 35.06 C7.83 27.24, 15.03 18.48, 28.91 2.6 M3.72 37.68 C13.81 25.75, 24.76 13.95, 33.9 2.97 M3.72 37.68 C14.75 26.96, 22.82 15.94, 33.9 2.97 M6.74 40.31 C18.79 24.17, 33.93 11.82, 39.54 2.57 M6.74 40.31 C17.1 27.61, 27.5 17.14, 39.54 2.57 M11.72 40.67 C21.19 29.18, 32.51 18.57, 44.53 2.93 M11.72 40.67 C21.47 28.99, 31.11 18.14, 44.53 2.93 M17.37 40.27 C28.18 25.69, 41.83 10.38, 50.17 2.54 M17.37 40.27 C26.7 30.41, 35.64 19.86, 50.17 2.54 M22.35 40.63 C30.19 31.66, 37.55 19.09, 55.16 2.9 M22.35 40.63 C31.4 30.76, 39.86 18.88, 55.16 2.9 M28 40.24 C38.25 27.15, 51.34 13.31, 60.14 3.26 M28 40.24 C36.2 30.31, 45.9 18.97, 60.14 3.26 M32.98 40.6 C42.65 27.37, 53.05 19.57, 65.79 2.86 M32.98 40.6 C43.68 26.27, 56.45 12.65, 65.79 2.86 M38.63 40.2 C47.63 30.76, 55.86 17.78, 70.77 3.22 M38.63 40.2 C45.65 32.9, 52.68 23.31, 70.77 3.22 M43.61 40.56 C51.26 34.04, 56.15 23.8, 76.42 2.83 M43.61 40.56 C54.55 28.12, 65.35 16.16, 76.42 2.83 M48.6 40.92 C58.35 27.13, 70.01 14.39, 81.4 3.19 M48.6 40.92 C54.81 32.84, 62.92 25.23, 81.4 3.19 M54.24 40.53 C65.64 26.55, 77.28 13.62, 87.05 2.79 M54.24 40.53 C61.04 32.18, 70.34 23.43, 87.05 2.79 M59.23 40.89 C70.56 26.96, 85.18 12.86, 92.03 3.15 M59.23 40.89 C70.33 28.01, 80.9 15.77, 92.03 3.15 M64.87 40.49 C78.73 27.67, 91.21 12.93, 97.68 2.76 M64.87 40.49 C74.14 29.87, 81.16 21.62, 97.68 2.76 M69.86 40.85 C81.09 29.74, 89.91 18.86, 102.66 3.12 M69.86 40.85 C77.5 31.81, 85.57 23.51, 102.66 3.12 M75.5 40.46 C83.94 31.96, 88.21 21.6, 107.65 3.48 M75.5 40.46 C82.28 31.34, 89.69 23.46, 107.65 3.48 M80.49 40.82 C91.9 28.53, 104.83 15.32, 115.26 0.82 M80.49 40.82 C89.01 32.51, 95.95 24.26, 115.26 0.82 M86.13 40.42 C95.04 30.95, 103.5 17.07, 117.62 4.2 M86.13 40.42 C95.41 31.19, 104.06 19.91, 117.62 4.2 M91.12 40.78 C98.51 31.17, 107.52 22.79, 120.64 6.82 M91.12 40.78 C101.45 28.52, 112.21 18.18, 120.64 6.82 M96.11 41.14 C105.96 31.04, 114.94 20.73, 120.38 13.22 M96.11 41.14 C102.84 33.15, 109.1 27.51, 120.38 13.22 M101.75 40.75 C107.73 30.55, 117.97 25.14, 120.78 18.86 M101.75 40.75 C105.72 36.1, 110.23 31.31, 120.78 18.86 M106.74 41.11 C111.9 34.61, 116.23 30.1, 120.52 25.26 M106.74 41.11 C109.58 37.61, 113.78 33.27, 120.52 25.26 M111.72 41.47 C114.94 37.9, 117.58 37.28, 120.91 30.9 M111.72 41.47 C115.11 38.17, 117.74 34.01, 120.91 30.9" stroke="#228be6" stroke-width="0.5" fill="none"></path><path d="M10 0 M10 0 C39.01 0.24, 68.21 -1.44, 110 0 M10 0 C41.74 -1.27, 73.55 -0.44, 110 0 M110 0 C116.36 0.04, 120.63 4.8, 120 10 M110 0 C118.85 -0.47, 119.39 3.7, 120 10 M120 10 C119.07 15.72, 119.74 18.87, 120 30 M120 10 C120.32 17.28, 120.25 24.57, 120 30 M120 30 C119.73 36.51, 116.72 40.7, 110 40 M120 30 C118.04 37.67, 117.8 41.45, 110 40 M110 40 C72.12 40.19, 33.94 39.74, 10 40 M110 40 C74.16 40.12, 38.12 38.96, 10 40 M10 40 C1.68 40.94, 2 36.1, 0 30 M10 40 C3.93 39.65, -0.45 35.49, 0 30 M0 30 C-1.05 23.53, -1.82 13.47, 0 10 M0 30 C-0.83 25.29, -1.05 21.43, 0 10 M0 10 C-1.35 4.52, 4.21 1.29, 10 0 M0 10 C1.31 3.98, 4.44 -2.28, 10 0" stroke="#FFFFFF" stroke-width="1" fill="none"></path></g><g transform="translate(47.32001495361328 20) rotate(0 22.67998504638672 10)"><text x="22.67998504638672" y="0" font-family="Virgil, Segoe UI Emoji" font-size="16px" fill="#FFFFFF" text-anchor="middle" style="white-space: pre;" direction="ltr" dominant-baseline="text-before-edge">Start</text></g><g stroke-linecap="round" transform="translate(10 110) rotate(0 60 20)"><path d="M2.66 2.31 C2.66 2.31, 2.66 2.31, 2.66 2.31 M2.66 2.31 C2.66 2.31, 2.66 2.31, 2.66 2.31 M0.43 10.98 C3.25 6.65, 7.44 1.29, 10.27 -0.34 M0.43 10.98 C3.96 6.62, 7.97 2.52, 10.27 -0.34 M0.83 16.62 C3.83 14.17, 6.75 9.91, 13.29 2.28 M0.83 16.62 C4.92 11.75, 9.44 6.93, 13.29 2.28 M1.22 22.26 C8.7 16.74, 10.64 11.02, 18.28 2.64 M1.22 22.26 C7.5 13.9, 15.33 7.42, 18.28 2.64 M0.96 28.66 C8.04 18.96, 15.54 13.34, 23.27 3 M0.96 28.66 C7.47 21, 14.85 13.72, 23.27 3 M0.7 35.06 C9.66 24.28, 17.99 15.17, 28.91 2.6 M0.7 35.06 C10.51 22.69, 21.81 9.88, 28.91 2.6 M3.72 37.68 C12.7 29.07, 20.85 19.19, 33.9 2.97 M3.72 37.68 C11.27 29.05, 18.54 18.64, 33.9 2.97 M6.74 40.31 C16.13 31.12, 24 17.79, 39.54 2.57 M6.74 40.31 C17.87 26.78, 30.46 12.9, 39.54 2.57 M11.72 40.67 C19.66 30.92, 30.25 18.35, 44.53 2.93 M11.72 40.67 C21.58 28.39, 31.79 18.73, 44.53 2.93 M17.37 40.27 C27.16 25.03, 40.82 11.46, 50.17 2.54 M17.37 40.27 C26.51 30.1, 35.34 18.19, 50.17 2.54 M22.35 40.63 C29.36 34.13, 36.32 23.15, 55.16 2.9 M22.35 40.63 C29.66 33.15, 35.64 23.96, 55.16 2.9 M28 40.24 C38.77 28.21, 49.39 16.9, 60.14 3.26 M28 40.24 C38.05 27.28, 49.16 14.84, 60.14 3.26 M32.98 40.6 C38.27 32.52, 47.55 25.27, 65.79 2.86 M32.98 40.6 C44.35 27.3, 55.77 14.4, 65.79 2.86 M38.63 40.2 C44.35 32.45, 54.95 24.13, 70.77 3.22 M38.63 40.2 C50.03 26.48, 63.26 12.62, 70.77 3.22 M43.61 40.56 C55.41 26.87, 65.97 14.54, 76.42 2.83 M43.61 40.56 C56.89 26.86, 69.55 12.11, 76.42 2.83 M48.6 40.92 C58.55 29.56, 64.28 22.62, 81.4 3.19 M48.6 40.92 C59.24 29.52, 68.86 18.09, 81.4 3.19 M54.24 40.53 C61.59 31.61, 69.98 23.92, 87.05 2.79 M54.24 40.53 C62.18 31.87, 68.23 22.19, 87.05 2.79 M59.23 40.89 C66.08 30.63, 74 22.8, 92.03 3.15 M59.23 40.89 C69.96 28.91, 81.57 16.38, 92.03 3.15 M64.87 40.49 C73.71 33.03, 79.43 25.93, 97.68 2.76 M64.87 40.49 C74.41 30, 83.71 17.23, 97.68 2.76 M69.86 40.85 C79.99 32.13, 89.02 19.09, 102.66 3.12 M69.86 40.85 C78.35 30.78, 87.5 21.25, 102.66 3.12 M75.5 40.46 C86.79 26.48, 99.21 16.28, 107.65 3.48 M75.5 40.46 C87.95 26.79, 99.82 13.14, 107.65 3.48 M80.49 40.82 C90.49 28.87, 99.6 21.52, 115.26 0.82 M80.49 40.82 C92.89 24.65, 107.59 10.93, 115.26 0.82 M86.13 40.42 C92.5 32.86, 99.99 25.02, 117.62 4.2 M86.13 40.42 C98.54 25.91, 110.42 12.48, 117.62 4.2 M91.12 40.78 C97.33 33.18, 106.24 23.91, 120.64 6.82 M91.12 40.78 C99.31 31.78, 106.97 24.68, 120.64 6.82 M96.11 41.14 C105.09 32.54, 111.9 21.42, 120.38 13.22 M96.11 41.14 C103.17 33.58, 110.52 24.86, 120.38 13.22 M101.75 40.75 C107.23 32.46, 112.77 27.09, 120.78 18.86 M101.75 40.75 C107.9 35.41, 112.38 27.95, 120.78 18.86 M106.74 41.11 C110.14 35, 116.8 30.66, 120.52 25.26 M106.74 41.11 C109.97 36.57, 114.92 31.83, 120.52 25.26 M111.72 41.47 C114.82 38.46, 116.64 35.08, 120.91 30.9 M111.72 41.47 C114.29 37.28, 118.31 34.29, 120.91 30.9" stroke="#fa5252" stroke-width="0.5" fill="none"></path><path d="M10 0 M10 0 C44.96 -0.98, 80.57 0.06, 110 0 M10 0 C36.31 1.83, 61.39 1.09, 110 0 M110 0 C116.36 -0.39, 118.98 5.28, 120 10 M110 0 C114.71 0.87, 118.59 5.03, 120 10 M120 10 C121.07 13.88, 118.5 17.54, 120 30 M120 10 C120.67 14.57, 120.72 18.83, 120 30 M120 30 C120.56 37.63, 114.69 40.7, 110 40 M120 30 C120.61 38, 115.77 41.4, 110 40 M110 40 C70.71 39.4, 32.9 39.81, 10 40 M110 40 C88.34 39.52, 64.68 38.14, 10 40 M10 40 C3.52 39.77, 1.48 36.92, 0 30 M10 40 C5.28 40.78, -0.81 38.95, 0 30 M0 30 C0.67 21.16, -1.84 14.07, 0 10 M0 30 C0.87 24.01, -0.01 17.28, 0 10 M0 10 C1.57 3.13, 4.48 -0.49, 10 0 M0 10 C1.67 3.63, 5.3 1.91, 10 0" stroke="#FFFFFF" stroke-width="1" fill="none"></path></g><g transform="translate(38 120) rotate(0 32 10)"><text x="32" y="0" font-family="Virgil, Segoe UI Emoji" font-size="16px" fill="#FFFFFF" text-anchor="middle" style="white-space: pre;" direction="ltr" dominant-baseline="text-before-edge">前置脚本</text></g><g stroke-linecap="round" transform="translate(190 110) rotate(0 60 20)"><path d="M2.66 2.31 C2.66 2.31, 2.66 2.31, 2.66 2.31 M2.66 2.31 C2.66 2.31, 2.66 2.31, 2.66 2.31 M0.43 10.98 C4.11 8.77, 3.81 4.29, 10.27 -0.34 M0.43 10.98 C4.74 7.44, 8.61 1.59, 10.27 -0.34 M0.83 16.62 C5.44 12.89, 6.29 10.64, 13.29 2.28 M0.83 16.62 C5.03 12.14, 7.61 6.97, 13.29 2.28 M1.22 22.26 C5.59 16.54, 12.73 11.03, 18.28 2.64 M1.22 22.26 C6.88 16.08, 13.85 7.82, 18.28 2.64 M0.96 28.66 C4.65 22.3, 11.56 16.38, 23.27 3 M0.96 28.66 C8.62 19.57, 15.6 11.42, 23.27 3 M0.7 35.06 C6.03 26.44, 17.08 19.41, 28.91 2.6 M0.7 35.06 C9.16 24.86, 19.6 13.51, 28.91 2.6 M3.72 37.68 C10.62 29.06, 19.66 21.21, 33.9 2.97 M3.72 37.68 C10.67 28.79, 18.9 19.26, 33.9 2.97 M6.74 40.31 C18.13 30.95, 27.03 17.62, 39.54 2.57 M6.74 40.31 C13.11 32.2, 21.26 24.61, 39.54 2.57 M11.72 40.67 C19.99 27.81, 31.98 17.37, 44.53 2.93 M11.72 40.67 C20.43 29.22, 30.32 20.23, 44.53 2.93 M17.37 40.27 C27.78 28.45, 38.17 16.73, 50.17 2.54 M17.37 40.27 C27.87 29.09, 37.83 17.2, 50.17 2.54 M22.35 40.63 C29.45 29.56, 37.74 22.67, 55.16 2.9 M22.35 40.63 C29.53 33.12, 35.58 24.08, 55.16 2.9 M28 40.24 C36.55 27.74, 48.34 16.22, 60.14 3.26 M28 40.24 C35.21 33.12, 42.2 24.37, 60.14 3.26 M32.98 40.6 C41.99 30.65, 51.37 19.43, 65.79 2.86 M32.98 40.6 C44.48 27.37, 57.83 12.01, 65.79 2.86 M38.63 40.2 C51.59 25.9, 59.88 15.55, 70.77 3.22 M38.63 40.2 C51.31 26.95, 63.55 12.25, 70.77 3.22 M43.61 40.56 C56.96 25.81, 66.13 15, 76.42 2.83 M43.61 40.56 C53.18 29.68, 62.31 19.59, 76.42 2.83 M48.6 40.92 C58.82 25.87, 73.5 14.05, 81.4 3.19 M48.6 40.92 C57.81 30.11, 68.89 18.15, 81.4 3.19 M54.24 40.53 C65.06 27.27, 73.8 16.11, 87.05 2.79 M54.24 40.53 C67.42 26.35, 78.65 11.75, 87.05 2.79 M59.23 40.89 C66.1 30.19, 76.22 21.89, 92.03 3.15 M59.23 40.89 C69.9 27.13, 81.01 14.03, 92.03 3.15 M64.87 40.49 C73.52 30.63, 81.48 20.11, 97.68 2.76 M64.87 40.49 C75.59 29.42, 84.52 17.88, 97.68 2.76 M69.86 40.85 C81.18 26.97, 91.2 17.03, 102.66 3.12 M69.86 40.85 C82.48 27.69, 94.53 13.41, 102.66 3.12 M75.5 40.46 C84.73 29.79, 90.42 20.74, 107.65 3.48 M75.5 40.46 C83.74 32.73, 90.4 23.25, 107.65 3.48 M80.49 40.82 C91.93 28.94, 99.34 18.89, 115.26 0.82 M80.49 40.82 C88.28 31.63, 95.04 22.53, 115.26 0.82 M86.13 40.42 C99.26 28.07, 108.46 15.79, 117.62 4.2 M86.13 40.42 C95.98 28.85, 106.74 18.14, 117.62 4.2 M91.12 40.78 C100.29 29.35, 110.36 18.76, 120.64 6.82 M91.12 40.78 C99.38 31.84, 106.95 23.32, 120.64 6.82 M96.11 41.14 C104.37 31.09, 112.45 21.37, 120.38 13.22 M96.11 41.14 C102.06 34.05, 108.79 27.78, 120.38 13.22 M101.75 40.75 C106.28 36.4, 110.06 30.65, 120.78 18.86 M101.75 40.75 C107.87 34.78, 113.82 28.53, 120.78 18.86 M106.74 41.11 C110.64 38.68, 113.2 35.29, 120.52 25.26 M106.74 41.11 C110.92 36.3, 113.59 31.49, 120.52 25.26 M111.72 41.47 C115.17 37.61, 117.73 33.44, 120.91 30.9 M111.72 41.47 C115.04 37.75, 118.42 32.82, 120.91 30.9" stroke="#12b886" stroke-width="0.5" fill="none"></path><path d="M10 0 M10 0 C30.92 -0.41, 52.84 0.8, 110 0 M10 0 C33.91 0.13, 56.81 0.04, 110 0 M110 0 C114.69 0.7, 120.53 4.49, 120 10 M110 0 C115.77 1.4, 122.08 2.69, 120 10 M120 10 C120.93 16.31, 118.49 24.16, 120 30 M120 10 C120.03 13.16, 120.28 17.97, 120 30 M120 30 C121.48 36.92, 118.36 40.68, 110 40 M120 30 C119.19 38.95, 118.42 38.51, 110 40 M110 40 C74.47 38.47, 43.05 39.3, 10 40 M110 40 C79.77 39.83, 50.36 40.09, 10 40 M10 40 C4.48 39.51, 1.45 36.92, 0 30 M10 40 C5.3 41.91, -2.27 35.29, 0 30 M0 30 C-0.34 25.32, 1.39 19.45, 0 10 M0 30 C0.84 26.32, 0.13 22.47, 0 10 M0 10 C-0.41 5.24, 4 0.98, 10 0 M0 10 C0.84 5.45, 1.14 0.87, 10 0" stroke="#FFFFFF" stroke-width="1" fill="none"></path></g><g transform="translate(205.36002349853516 120) rotate(0 44.639976501464844 10)"><text x="44.639976501464844" y="0" font-family="Virgil, Segoe UI Emoji" font-size="16px" fill="#FFFFFF" text-anchor="middle" style="white-space: pre;" direction="ltr" dominant-baseline="text-before-edge">Do request</text></g><g stroke-linecap="round" transform="translate(370 110) rotate(0 60 20)"><path d="M2.66 2.31 C2.66 2.31, 2.66 2.31, 2.66 2.31 M2.66 2.31 C2.66 2.31, 2.66 2.31, 2.66 2.31 M0.43 10.98 C1.95 9.67, 4.26 6.21, 10.27 -0.34 M0.43 10.98 C3.85 6.85, 7.9 2.55, 10.27 -0.34 M0.83 16.62 C4.87 11.44, 8.32 6.08, 13.29 2.28 M0.83 16.62 C5.2 12.33, 8.97 7.16, 13.29 2.28 M1.22 22.26 C6.76 14.97, 8.7 11.11, 18.28 2.64 M1.22 22.26 C8.55 14.22, 13.82 7.33, 18.28 2.64 M0.96 28.66 C8.43 20.73, 15.13 11.88, 23.27 3 M0.96 28.66 C10.03 19.05, 17.7 8.86, 23.27 3 M0.7 35.06 C7.18 25.69, 19.09 17.52, 28.91 2.6 M0.7 35.06 C10.63 23.11, 21.28 10.75, 28.91 2.6 M3.72 37.68 C14.95 25.13, 22.65 12.59, 33.9 2.97 M3.72 37.68 C14.54 26.12, 23.07 14.42, 33.9 2.97 M6.74 40.31 C19.15 26.22, 27.89 15.8, 39.54 2.57 M6.74 40.31 C15.19 30.53, 24.15 20.94, 39.54 2.57 M11.72 40.67 C22.16 27.13, 33.65 12.41, 44.53 2.93 M11.72 40.67 C19.65 31.96, 28.07 22.85, 44.53 2.93 M17.37 40.27 C24.82 30.96, 33.29 19.42, 50.17 2.54 M17.37 40.27 C28.95 28.6, 40.1 16.3, 50.17 2.54 M22.35 40.63 C35.64 27.42, 48.74 11.23, 55.16 2.9 M22.35 40.63 C32.83 28.24, 43.91 15.61, 55.16 2.9 M28 40.24 C40.69 28.51, 51.45 14.41, 60.14 3.26 M28 40.24 C34.22 30.98, 42.86 23.33, 60.14 3.26 M32.98 40.6 C46.94 24.99, 61.07 9.15, 65.79 2.86 M32.98 40.6 C41.15 31.15, 50.09 20.89, 65.79 2.86 M38.63 40.2 C51.63 23.27, 62.75 8.85, 70.77 3.22 M38.63 40.2 C48.84 27.59, 60.29 14.7, 70.77 3.22 M43.61 40.56 C56.87 27.96, 69.17 11.01, 76.42 2.83 M43.61 40.56 C53.7 29.37, 63.83 18.45, 76.42 2.83 M48.6 40.92 C59.52 28.58, 66 18.42, 81.4 3.19 M48.6 40.92 C57.63 31.62, 64.67 21.02, 81.4 3.19 M54.24 40.53 C60.77 33.08, 68.49 24.4, 87.05 2.79 M54.24 40.53 C60.36 33.36, 68.45 25.25, 87.05 2.79 M59.23 40.89 C67.24 32.43, 75.14 21.53, 92.03 3.15 M59.23 40.89 C66.73 31.55, 76.7 21.47, 92.03 3.15 M64.87 40.49 C74.66 29.11, 89.26 12.4, 97.68 2.76 M64.87 40.49 C73.44 30.98, 81.73 23.31, 97.68 2.76 M69.86 40.85 C78.19 29.51, 88.59 20.21, 102.66 3.12 M69.86 40.85 C78.79 31.3, 86.94 21.37, 102.66 3.12 M75.5 40.46 C82.64 32.47, 93.8 22.28, 107.65 3.48 M75.5 40.46 C84.43 29.9, 92.32 20.5, 107.65 3.48 M80.49 40.82 C93.98 27.76, 105.13 11.59, 115.26 0.82 M80.49 40.82 C88.81 29.76, 98.8 19.7, 115.26 0.82 M86.13 40.42 C97.43 28.85, 104.5 18.64, 117.62 4.2 M86.13 40.42 C92.5 33.08, 99.89 24.29, 117.62 4.2 M91.12 40.78 C101.86 29.21, 112.23 17.45, 120.64 6.82 M91.12 40.78 C99.96 30.19, 108.51 21.79, 120.64 6.82 M96.11 41.14 C103.46 31.89, 114.3 22.15, 120.38 13.22 M96.11 41.14 C103.45 32.22, 111.67 23.05, 120.38 13.22 M101.75 40.75 C108.03 35.37, 110.66 30.91, 120.78 18.86 M101.75 40.75 C106.35 34.8, 111.93 29.02, 120.78 18.86 M106.74 41.11 C110.68 37.91, 110.87 34.38, 120.52 25.26 M106.74 41.11 C110.12 38.37, 113.02 35.22, 120.52 25.26 M111.72 41.47 C115.18 38.47, 118.51 34.08, 120.91 30.9 M111.72 41.47 C115.29 37.59, 117.87 34.21, 120.91 30.9" stroke="#fa5252" stroke-width="0.5" fill="none"></path><path d="M10 0 M10 0 C34.56 1.77, 64.02 -0.38, 110 0 M10 0 C31.93 0.24, 53.23 0.45, 110 0 M110 0 C115.96 1.99, 121.53 2.04, 120 10 M110 0 C117.49 0.62, 118.49 1.07, 120 10 M120 10 C120.06 16.86, 120.4 20.22, 120 30 M120 10 C120.73 15.04, 120.88 20.7, 120 30 M120 30 C121.71 38.32, 114.69 38.8, 110 40 M120 30 C119.69 36.49, 118.69 39.59, 110 40 M110 40 C72.94 39.8, 38.28 42, 10 40 M110 40 C74.74 41.79, 40.23 41.33, 10 40 M10 40 C4.06 41.84, -1.9 37.43, 0 30 M10 40 C3.89 41.11, 1.53 34.65, 0 30 M0 30 C0.02 22.8, 1.46 17.6, 0 10 M0 30 C-0.03 22.35, -0.43 15.42, 0 10 M0 10 C0.27 3.13, 3.9 0.88, 10 0 M0 10 C-0.18 1.15, 2.67 0.97, 10 0" stroke="#FFFFFF" stroke-width="1" fill="none"></path></g><g transform="translate(398 120) rotate(0 32 10)"><text x="32" y="0" font-family="Virgil, Segoe UI Emoji" font-size="16px" fill="#FFFFFF" text-anchor="middle" style="white-space: pre;" direction="ltr" dominant-baseline="text-before-edge">后置脚本</text></g><g stroke-linecap="round" transform="translate(370 210) rotate(0 60 20)"><path d="M2.66 2.31 C2.66 2.31, 2.66 2.31, 2.66 2.31 M2.66 2.31 C2.66 2.31, 2.66 2.31, 2.66 2.31 M0.43 10.98 C2.29 8.95, 5.54 6.28, 10.27 -0.34 M0.43 10.98 C3.76 7.01, 7.23 2.87, 10.27 -0.34 M0.83 16.62 C4.32 14.19, 7.35 10.09, 13.29 2.28 M0.83 16.62 C3.65 12.79, 6.45 10.29, 13.29 2.28 M1.22 22.26 C6.17 15.48, 12.02 11.17, 18.28 2.64 M1.22 22.26 C4.65 17.42, 8.37 12.95, 18.28 2.64 M0.96 28.66 C8.03 16.66, 16.42 8.4, 23.27 3 M0.96 28.66 C5.93 23.12, 11.07 17.22, 23.27 3 M0.7 35.06 C6.81 27.42, 15.52 19.71, 28.91 2.6 M0.7 35.06 C9.63 26.39, 17.45 16.37, 28.91 2.6 M3.72 37.68 C13.84 27.82, 21.46 17.84, 33.9 2.97 M3.72 37.68 C14.31 24.63, 24.52 12.6, 33.9 2.97 M6.74 40.31 C15.54 29.68, 22.66 23.07, 39.54 2.57 M6.74 40.31 C16.81 27.78, 27.95 15.32, 39.54 2.57 M11.72 40.67 C17.9 30.1, 27.78 24.39, 44.53 2.93 M11.72 40.67 C23.2 26.16, 35.63 13.43, 44.53 2.93 M17.37 40.27 C26.86 29.75, 36.1 17.97, 50.17 2.54 M17.37 40.27 C23.36 32.84, 31.64 24.77, 50.17 2.54 M22.35 40.63 C37.25 27.56, 46.57 10.3, 55.16 2.9 M22.35 40.63 C33.09 27.43, 45.99 13.16, 55.16 2.9 M28 40.24 C42.05 25.59, 53.17 12.03, 60.14 3.26 M28 40.24 C39.72 26.73, 52.27 11.28, 60.14 3.26 M32.98 40.6 C40.58 32.26, 45.31 24.96, 65.79 2.86 M32.98 40.6 C39.62 31.96, 47.97 24.19, 65.79 2.86 M38.63 40.2 C48.94 28.77, 62.19 14.23, 70.77 3.22 M38.63 40.2 C51.02 25.2, 64.91 9.96, 70.77 3.22 M43.61 40.56 C51.92 34.06, 58.84 26.49, 76.42 2.83 M43.61 40.56 C51.86 30.85, 60.2 21.82, 76.42 2.83 M48.6 40.92 C57.95 31.19, 64.69 22.62, 81.4 3.19 M48.6 40.92 C60.36 28.39, 71.28 15.3, 81.4 3.19 M54.24 40.53 C66.57 29.93, 73.49 18.47, 87.05 2.79 M54.24 40.53 C65.29 26.94, 75.35 15.6, 87.05 2.79 M59.23 40.89 C69.67 26.61, 83.22 13.48, 92.03 3.15 M59.23 40.89 C71.22 26.99, 82.85 12.59, 92.03 3.15 M64.87 40.49 C77.9 24.78, 91.09 11.77, 97.68 2.76 M64.87 40.49 C75.47 28.32, 86.82 15.64, 97.68 2.76 M69.86 40.85 C83.76 27.22, 95.64 11.39, 102.66 3.12 M69.86 40.85 C80.52 29.68, 90.15 18.83, 102.66 3.12 M75.5 40.46 C85.3 30.12, 91.24 19.82, 107.65 3.48 M75.5 40.46 C86.36 29.13, 97.47 16.13, 107.65 3.48 M80.49 40.82 C90.96 29.08, 98.41 20.45, 115.26 0.82 M80.49 40.82 C90.86 28.62, 100.3 18.24, 115.26 0.82 M86.13 40.42 C95.73 29.16, 106.46 16.05, 117.62 4.2 M86.13 40.42 C97.64 26.96, 107 15.66, 117.62 4.2 M91.12 40.78 C102.13 28.74, 110.62 17.41, 120.64 6.82 M91.12 40.78 C100.23 30.24, 111.84 18.23, 120.64 6.82 M96.11 41.14 C103.04 34.04, 110.27 23.75, 120.38 13.22 M96.11 41.14 C101.38 33.95, 108.06 27.98, 120.38 13.22 M101.75 40.75 C106.88 34.59, 111.67 31.82, 120.78 18.86 M101.75 40.75 C109.04 31.73, 115.85 25.01, 120.78 18.86 M106.74 41.11 C113.54 34.79, 117.67 29.42, 120.52 25.26 M106.74 41.11 C109.3 37.35, 112.44 34.32, 120.52 25.26 M111.72 41.47 C115.08 37.7, 119.2 34.35, 120.91 30.9 M111.72 41.47 C115.92 37.97, 118.3 33.63, 120.91 30.9" stroke="#7950f2" stroke-width="0.5" fill="none"></path><path d="M10 0 M10 0 C41.82 1.16, 75.35 1.03, 110 0 M10 0 C48.33 0.8, 87.26 0.59, 110 0 M110 0 C116.18 1.45, 120.26 5.05, 120 10 M110 0 C118.57 -2.27, 118.62 3.02, 120 10 M120 10 C121.22 17.22, 121.08 19.87, 120 30 M120 10 C120.38 15.42, 120.71 20.5, 120 30 M120 30 C121.91 37.34, 117.65 40.73, 110 40 M120 30 C122.12 34.48, 117.54 40.56, 110 40 M110 40 C75.38 37.74, 39.48 39, 10 40 M110 40 C85.69 40.91, 59.5 40.14, 10 40 M10 40 C2.58 39.5, -0.05 36.94, 0 30 M10 40 C3.1 40.65, 1.01 36.49, 0 30 M0 30 C-1.1 24.43, 0.33 20.12, 0 10 M0 30 C-0.38 23.81, 0.74 17.19, 0 10 M0 10 C-0.39 2.86, 1.48 0.07, 10 0 M0 10 C0.34 1.55, 1.69 -0.89, 10 0" stroke="#FFFFFF" stroke-width="1" fill="none"></path></g><g transform="translate(416.32000732421875 220) rotate(0 13.67999267578125 10)"><text x="13.67999267578125" y="0" font-family="Virgil, Segoe UI Emoji" font-size="16px" fill="#FFFFFF" text-anchor="middle" style="white-space: pre;" direction="ltr" dominant-baseline="text-before-edge">End</text></g><g stroke-linecap="round"><g transform="translate(70 50) rotate(0 -0.05972282341377877 28.99034956243821)"><path d="M0.6 0.18 C0.81 9.98, 0.23 48.18, 0.25 57.83 M-0.55 -0.77 C-0.41 9.22, -0.86 48.8, -0.75 58.75" stroke="#FFFFFF" stroke-width="1" fill="none"></path></g><g transform="translate(70 50) rotate(0 -0.05972282341377877 28.99034956243821)"><path d="M-10.5 30.88 C-10.84 37.48, -8.27 43.46, 0.67 57.61 M-10.29 30.24 C-7.73 38.75, -3.82 48.16, -0.77 59.75" stroke="#FFFFFF" stroke-width="1" fill="none"></path></g><g transform="translate(70 50) rotate(0 -0.05972282341377877 28.99034956243821)"><path d="M9.68 30.9 C5.05 37.6, 3.32 43.57, 0.67 57.61 M9.89 30.27 C6.32 38.91, 4.1 48.31, -0.77 59.75" stroke="#FFFFFF" stroke-width="1" fill="none"></path></g></g><mask></mask><g stroke-linecap="round"><g transform="translate(131.33333333333337 129.20755799559305) rotate(0 28.809119653690857 0.2298889271913538)"><path d="M0.52 0.84 C10.35 0.77, 48.77 -0.21, 58.28 -0.38 M-0.66 0.24 C9.12 0.28, 48.09 0.58, 57.65 0.67" stroke="#FFFFFF" stroke-width="1" fill="none"></path></g><g transform="translate(131.33333333333337 129.20755799559305) rotate(0 28.809119653690857 0.2298889271913538)"><path d="M31.88 11.33 C35.52 7.63, 42.43 7.01, 58.36 0.61 M30.01 10.07 C41.92 5.78, 51.22 2.36, 57.21 1.46" stroke="#FFFFFF" stroke-width="1" fill="none"></path></g><g transform="translate(131.33333333333337 129.20755799559305) rotate(0 28.809119653690857 0.2298889271913538)"><path d="M32.04 -8.39 C35.65 -7.29, 42.52 -3.13, 58.36 0.61 M30.16 -9.65 C42.01 -6.06, 51.25 -1.6, 57.21 1.46" stroke="#FFFFFF" stroke-width="1" fill="none"></path></g></g><mask></mask><g stroke-linecap="round"><g transform="translate(311.1428571428571 129.99997957602284) rotate(0 28.085788086868945 0.6523310900526553)"><path d="M-0.03 1.2 C9.43 1.11, 48.15 0.16, 57.68 -0.09 M-1.51 0.78 C7.71 0.85, 47.12 1.38, 56.72 1.4" stroke="#FFFFFF" stroke-width="1" fill="none"></path></g><g transform="translate(311.1428571428571 129.99997957602284) rotate(0 28.085788086868945 0.6523310900526553)"><path d="M31.51 10.99 C39.54 6.49, 49.41 4.96, 55.33 -0.56 M30.01 11.97 C37.52 7.76, 44.03 4.79, 56.35 1.17" stroke="#FFFFFF" stroke-width="1" fill="none"></path></g><g transform="translate(311.1428571428571 129.99997957602284) rotate(0 28.085788086868945 0.6523310900526553)"><path d="M31.68 -8.75 C39.71 -5.84, 49.52 0.04, 55.33 -0.56 M30.17 -7.76 C37.56 -6.57, 44.02 -4.14, 56.35 1.17" stroke="#FFFFFF" stroke-width="1" fill="none"></path></g></g><mask></mask><g stroke-linecap="round"><g transform="translate(430 151.30612244897958) rotate(0 -0.6734730975049956 28.406213842528217)"><path d="M-1.18 -0.31 C-1.38 9.55, -0.82 48.53, -0.53 58.34 M0.41 -1.52 C-0.06 8.09, -1.71 47, -1.76 56.71" stroke="#FFFFFF" stroke-width="1" fill="none"></path></g><g transform="translate(430 151.30612244897958) rotate(0 -0.6734730975049956 28.406213842528217)"><path d="M-11.37 28.62 C-6.21 40.29, -2.66 50.08, -2.6 55.86 M-11.35 29.98 C-9.23 36.02, -7.75 42.1, -1.71 56.03" stroke="#FFFFFF" stroke-width="1" fill="none"></path></g><g transform="translate(430 151.30612244897958) rotate(0 -0.6734730975049956 28.406213842528217)"><path d="M8.25 29.14 C6.4 40.44, 2.93 50.04, -2.6 55.86 M8.28 30.5 C5.99 36.38, 3.05 42.35, -1.71 56.03" stroke="#FFFFFF" stroke-width="1" fill="none"></path></g></g><mask></mask></svg>