<svg version="1.1" xmlns="http://www.w3.org/2000/svg" viewBox="0 0 420 700" width="540" height="700" >
  <rect x="0" y="0" width="480" height="630" fill="#2A2A2A"></rect><g stroke-linecap="round" transform="translate(170 10) rotate(0 60 20)"><path d="M2.66 2.31 C2.66 2.31, 2.66 2.31, 2.66 2.31 M2.66 2.31 C2.66 2.31, 2.66 2.31, 2.66 2.31 M0.43 10.98 C1.83 7.81, 4.25 6.57, 10.27 -0.34 M0.43 10.98 C4.03 6.41, 8.42 2.5, 10.27 -0.34 M0.83 16.62 C2.17 12.03, 4.64 10.07, 13.29 2.28 M0.83 16.62 C4.99 11.63, 10.59 4.65, 13.29 2.28 M1.22 22.26 C5.52 14.1, 15.64 8.08, 18.28 2.64 M1.22 22.26 C7.83 15.99, 11.9 9.92, 18.28 2.64 M0.96 28.66 C10.38 20.73, 18.59 11.1, 23.27 3 M0.96 28.66 C8.35 21.51, 14.77 13.1, 23.27 3 M0.7 35.06 C6.84 28.84, 13.17 21.41, 28.91 2.6 M0.7 35.06 C7.46 28.08, 12.23 22.63, 28.91 2.6 M3.72 37.68 C12.4 30.02, 19.66 18.02, 33.9 2.97 M3.72 37.68 C15.09 23.93, 26.76 10.97, 33.9 2.97 M6.74 40.31 C14.85 32.63, 24.39 20.39, 39.54 2.57 M6.74 40.31 C18.21 27.24, 30.47 12.45, 39.54 2.57 M11.72 40.67 C20.31 27.02, 31 18.08, 44.53 2.93 M11.72 40.67 C24.01 27.45, 36.45 12.74, 44.53 2.93 M17.37 40.27 C28.78 25.43, 39.7 14.21, 50.17 2.54 M17.37 40.27 C24.28 33.52, 30.01 24.68, 50.17 2.54 M22.35 40.63 C31.35 29.18, 41.87 17.7, 55.16 2.9 M22.35 40.63 C33.28 29.57, 42.21 17.35, 55.16 2.9 M28 40.24 C36.56 31.45, 45.08 18.44, 60.14 3.26 M28 40.24 C35.78 30.94, 41.98 23.71, 60.14 3.26 M32.98 40.6 C44.98 27.64, 54.52 16.73, 65.79 2.86 M32.98 40.6 C43.94 28.86, 53.28 18.38, 65.79 2.86 M38.63 40.2 C51.03 27.47, 62.83 10.93, 70.77 3.22 M38.63 40.2 C48.24 28.93, 58.1 17.14, 70.77 3.22 M43.61 40.56 C57.58 25.19, 66.74 13.05, 76.42 2.83 M43.61 40.56 C55.11 26.5, 67.82 11.6, 76.42 2.83 M48.6 40.92 C56.61 32.64, 63.97 26.42, 81.4 3.19 M48.6 40.92 C57.34 31.17, 64.35 23.28, 81.4 3.19 M54.24 40.53 C65.22 30.34, 74.54 16.03, 87.05 2.79 M54.24 40.53 C62.43 30.69, 72.45 19.62, 87.05 2.79 M59.23 40.89 C71.32 26.22, 85.44 10.7, 92.03 3.15 M59.23 40.89 C72.84 25.32, 85.32 11.02, 92.03 3.15 M64.87 40.49 C73.64 30.99, 80.09 20.88, 97.68 2.76 M64.87 40.49 C77.99 25.28, 90.32 10.9, 97.68 2.76 M69.86 40.85 C80.82 26.68, 92.76 13.29, 102.66 3.12 M69.86 40.85 C77.87 30.73, 87.52 20.72, 102.66 3.12 M75.5 40.46 C84.83 33.59, 92.24 23.32, 107.65 3.48 M75.5 40.46 C83.31 30.65, 92.1 23.05, 107.65 3.48 M80.49 40.82 C91.11 27.65, 106.73 12, 115.26 0.82 M80.49 40.82 C93.27 27.95, 103.89 14.21, 115.26 0.82 M86.13 40.42 C96.38 30.62, 105.5 18.83, 117.62 4.2 M86.13 40.42 C95.22 30.94, 102.69 19.83, 117.62 4.2 M91.12 40.78 C101.95 29.56, 108.43 19.09, 120.64 6.82 M91.12 40.78 C102.4 27.32, 114.52 14.59, 120.64 6.82 M96.11 41.14 C102.19 34.98, 109.25 26.34, 120.38 13.22 M96.11 41.14 C105.05 29.59, 114.1 18.82, 120.38 13.22 M101.75 40.75 C107.51 36.13, 112.59 29.36, 120.78 18.86 M101.75 40.75 C108.93 31.9, 115.65 24.2, 120.78 18.86 M106.74 41.11 C110.1 35.14, 114.95 29.96, 120.52 25.26 M106.74 41.11 C111.9 34.59, 117.98 27.91, 120.52 25.26 M111.72 41.47 C115.3 38.63, 117.15 35.97, 120.91 30.9 M111.72 41.47 C115.61 37.77, 118.66 33.9, 120.91 30.9" stroke="#228be6" stroke-width="0.5" fill="none"></path><path d="M10 0 M10 0 C48.89 0.11, 87.89 1.02, 110 0 M10 0 C50.07 -1.55, 89.35 0.3, 110 0 M110 0 C117.69 -1.4, 121.51 2.59, 120 10 M110 0 C115.37 -2.29, 118.15 3.31, 120 10 M120 10 C119.73 18.16, 119.7 23.31, 120 30 M120 10 C119.9 17.47, 119.82 24.03, 120 30 M120 30 C118.01 35.78, 116.16 38.98, 110 40 M120 30 C122.1 38.37, 114.46 41.76, 110 40 M110 40 C82.48 38.19, 56.54 38.47, 10 40 M110 40 C87.47 39.93, 65.22 40.31, 10 40 M10 40 C2.28 39.09, -0.17 34.73, 0 30 M10 40 C3.96 41.98, 1.62 34.76, 0 30 M0 30 C-1.93 21.02, -1.46 16.43, 0 10 M0 30 C0.93 23.48, -0.61 17.14, 0 10 M0 10 C-0.66 3.84, 1.6 1.08, 10 0 M0 10 C-1.34 2.29, 1.11 2, 10 0" stroke="#FFFFFF" stroke-width="1" fill="none"></path></g><g transform="translate(207.32001495361328 20) rotate(0 22.67998504638672 10)"><text x="22.67998504638672" y="0" font-family="Virgil, Segoe UI Emoji" font-size="16px" fill="#FFFFFF" text-anchor="middle" style="white-space: pre;" direction="ltr" dominant-baseline="text-before-edge">Start</text></g><g stroke-linecap="round" transform="translate(310 110) rotate(0 60 20)"><path d="M2.66 2.31 C2.66 2.31, 2.66 2.31, 2.66 2.31 M2.66 2.31 C2.66 2.31, 2.66 2.31, 2.66 2.31 M0.43 10.98 C4.46 7.55, 4.35 4.62, 10.27 -0.34 M0.43 10.98 C2.41 8.78, 5.78 4.97, 10.27 -0.34 M0.83 16.62 C4.65 13.14, 9.21 6.87, 13.29 2.28 M0.83 16.62 C3.71 12.38, 7.34 10.04, 13.29 2.28 M1.22 22.26 C4.57 16.08, 7.97 13.31, 18.28 2.64 M1.22 22.26 C6.28 17.44, 12 11.12, 18.28 2.64 M0.96 28.66 C8.76 18.64, 17.95 8.54, 23.27 3 M0.96 28.66 C5.43 22.51, 9.98 17.55, 23.27 3 M0.7 35.06 C10.85 20.51, 22.06 9.23, 28.91 2.6 M0.7 35.06 C11.07 24.64, 20.32 13.34, 28.91 2.6 M3.72 37.68 C12.35 27.07, 20.41 21.36, 33.9 2.97 M3.72 37.68 C10.53 30.52, 17.18 22.54, 33.9 2.97 M6.74 40.31 C14.81 28.31, 25.58 17.91, 39.54 2.57 M6.74 40.31 C18.43 27.84, 27.58 16.37, 39.54 2.57 M11.72 40.67 C24.52 24.17, 38.53 13.04, 44.53 2.93 M11.72 40.67 C21.72 27.79, 33.98 15.58, 44.53 2.93 M17.37 40.27 C28.68 27.3, 40.12 12.05, 50.17 2.54 M17.37 40.27 C27.73 29.48, 38.69 16.92, 50.17 2.54 M22.35 40.63 C30.31 29.85, 41.15 17.8, 55.16 2.9 M22.35 40.63 C32.39 29.95, 41.3 18.02, 55.16 2.9 M28 40.24 C37.89 26.39, 51.33 13.91, 60.14 3.26 M28 40.24 C36.68 32.09, 43.99 22.74, 60.14 3.26 M32.98 40.6 C38.87 33.23, 47.36 25.8, 65.79 2.86 M32.98 40.6 C41.29 29.19, 51.24 19.49, 65.79 2.86 M38.63 40.2 C44.7 33.6, 52.37 24.67, 70.77 3.22 M38.63 40.2 C48.48 27.93, 59.82 15.72, 70.77 3.22 M43.61 40.56 C56.09 25.16, 68.53 13.6, 76.42 2.83 M43.61 40.56 C53.44 29.75, 62.47 20.45, 76.42 2.83 M48.6 40.92 C57.6 29.38, 66.36 21.3, 81.4 3.19 M48.6 40.92 C59.85 27.64, 70.68 15.76, 81.4 3.19 M54.24 40.53 C64.28 30.58, 69.7 22.16, 87.05 2.79 M54.24 40.53 C60.51 33.89, 68.5 25.73, 87.05 2.79 M59.23 40.89 C73.47 25.14, 84.75 9.03, 92.03 3.15 M59.23 40.89 C67.81 30.8, 78.33 19.58, 92.03 3.15 M64.87 40.49 C74.59 28, 89.78 12.17, 97.68 2.76 M64.87 40.49 C76.6 26.31, 87.81 14.03, 97.68 2.76 M69.86 40.85 C76.27 33.49, 87.29 22.93, 102.66 3.12 M69.86 40.85 C79.37 29.98, 89.63 17.01, 102.66 3.12 M75.5 40.46 C85.83 26.33, 100.39 13.26, 107.65 3.48 M75.5 40.46 C85.29 29.26, 96.66 16.84, 107.65 3.48 M80.49 40.82 C92.9 28.39, 104.46 14.95, 115.26 0.82 M80.49 40.82 C89.22 31.17, 97.28 22.74, 115.26 0.82 M86.13 40.42 C96.76 27.55, 104.51 19.79, 117.62 4.2 M86.13 40.42 C96.12 30.03, 104.85 18.08, 117.62 4.2 M91.12 40.78 C101.34 29.81, 113.82 15.44, 120.64 6.82 M91.12 40.78 C96.18 33.27, 102.58 26.64, 120.64 6.82 M96.11 41.14 C102.96 33.17, 109.73 24.78, 120.38 13.22 M96.11 41.14 C105.82 30.04, 114.55 19.57, 120.38 13.22 M101.75 40.75 C104.81 34.22, 112.19 27.88, 120.78 18.86 M101.75 40.75 C106.43 36.02, 110.97 31.01, 120.78 18.86 M106.74 41.11 C110.18 38.13, 114 31.29, 120.52 25.26 M106.74 41.11 C109.99 36.79, 113.88 33.09, 120.52 25.26 M111.72 41.47 C113.68 38.39, 118.93 34.25, 120.91 30.9 M111.72 41.47 C114.79 38.4, 117.08 36.62, 120.91 30.9" stroke="#fa5252" stroke-width="0.5" fill="none"></path><path d="M10 0 M10 0 C49.26 1.75, 86.51 -0.85, 110 0 M10 0 C41.62 -1.12, 72.73 -0.12, 110 0 M110 0 C117.54 -1.11, 121.32 5.15, 120 10 M110 0 C117.34 0.54, 119.01 3.15, 120 10 M120 10 C119.06 13.58, 119.7 19.28, 120 30 M120 10 C119.47 16.1, 119.66 23.55, 120 30 M120 30 C120.78 37.35, 117.1 41.84, 110 40 M120 30 C122.15 35.09, 114.52 37.74, 110 40 M110 40 C76.86 37.65, 42.33 40.2, 10 40 M110 40 C82.98 39.05, 54.8 39.05, 10 40 M10 40 C2.01 39.43, -0.64 36.76, 0 30 M10 40 C1.84 42.16, -0.18 35.86, 0 30 M0 30 C-1.53 25.06, 0.78 20.45, 0 10 M0 30 C-0.01 21.14, -0.12 14.21, 0 10 M0 10 C-0.88 5, 4.52 0.38, 10 0 M0 10 C-1.63 1.58, 3.26 1.79, 10 0" stroke="#FFFFFF" stroke-width="1" fill="none"></path></g><g transform="translate(339.3520202636719 120) rotate(0 30.647979736328125 10)"><text x="30.647979736328125" y="0" font-family="Virgil, Segoe UI Emoji" font-size="16px" fill="#FFFFFF" text-anchor="middle" style="white-space: pre;" direction="ltr" dominant-baseline="text-before-edge">Add env</text></g><g stroke-linecap="round" transform="translate(170 190) rotate(0 60 15)"><path d="M2 1.74 C2 1.74, 2 1.74, 2 1.74 M2 1.74 C2 1.74, 2 1.74, 2 1.74 M1.08 8.89 C4.38 5.16, 6.91 1.4, 8.3 0.59 M1.08 8.89 C3.78 6.38, 5.88 3.37, 8.3 0.59 M1.47 14.53 C3.33 9.94, 8.31 6.32, 13.28 0.95 M1.47 14.53 C6.18 8.55, 10.12 2.84, 13.28 0.95 M1.87 20.17 C10.08 14.46, 12.85 3.96, 18.93 0.55 M1.87 20.17 C7.17 14, 11.74 7.58, 18.93 0.55 M1.61 26.57 C10.69 14.78, 17.96 7.42, 23.91 0.91 M1.61 26.57 C7.33 19.63, 14.79 12.25, 23.91 0.91 M3.97 29.95 C10.83 23.07, 19.92 14.88, 29.56 0.52 M3.97 29.95 C9.14 24.26, 13.72 18.45, 29.56 0.52 M9.61 29.56 C20.06 19.42, 28.19 8.37, 34.54 0.88 M9.61 29.56 C17.73 19.99, 27.78 7.67, 34.54 0.88 M14.6 29.92 C20.3 22.03, 26.16 15.8, 40.19 0.48 M14.6 29.92 C22.12 21.81, 27.18 14.76, 40.19 0.48 M20.24 29.52 C25.95 22.59, 31.82 13.14, 45.17 0.84 M20.24 29.52 C25.84 22.02, 32.71 15.28, 45.17 0.84 M25.23 29.88 C32.88 19.53, 41.46 10.49, 50.16 1.2 M25.23 29.88 C34.13 19.4, 43.21 8.44, 50.16 1.2 M30.87 29.49 C37.87 20.79, 42.83 12.59, 55.8 0.81 M30.87 29.49 C37.96 20.39, 45.61 12.65, 55.8 0.81 M35.86 29.85 C43.43 23.36, 47.76 16.41, 60.79 1.17 M35.86 29.85 C45.59 18.76, 55.39 8.62, 60.79 1.17 M41.5 29.45 C47.48 22.11, 53.31 18.83, 66.43 0.77 M41.5 29.45 C49.57 19.87, 57.16 10.32, 66.43 0.77 M46.49 29.81 C51.5 23.02, 59.9 14.57, 71.42 1.13 M46.49 29.81 C53.02 23.25, 59.22 16.04, 71.42 1.13 M52.13 29.42 C59.77 16.39, 72.12 8.51, 77.06 0.74 M52.13 29.42 C57.39 23.72, 62.91 17.14, 77.06 0.74 M57.12 29.78 C63.46 20.18, 69.92 13.03, 82.05 1.1 M57.12 29.78 C64.72 22.18, 70.11 13.89, 82.05 1.1 M62.11 30.14 C69.3 22.38, 76.9 14.87, 87.69 0.7 M62.11 30.14 C69.98 20.26, 79.57 10.07, 87.69 0.7 M67.75 29.74 C75.72 17.18, 86.63 9.27, 92.68 1.06 M67.75 29.74 C74.68 23.08, 80.54 16.07, 92.68 1.06 M72.74 30.1 C82.75 20.03, 90.23 12.27, 98.32 0.67 M72.74 30.1 C80.43 20.71, 89.48 10.53, 98.32 0.67 M78.38 29.71 C83.94 22.7, 92.29 14.2, 103.31 1.03 M78.38 29.71 C87.11 20.61, 95.15 10.34, 103.31 1.03 M83.37 30.07 C89.31 21.78, 97.51 13.47, 108.3 1.39 M83.37 30.07 C91.79 20.62, 98.5 13.04, 108.3 1.39 M89.01 29.67 C98.48 19.41, 109.54 8.23, 113.94 1 M89.01 29.67 C94.74 23.17, 100.51 16.67, 113.94 1 M94 30.03 C98.36 23.52, 107.14 14.68, 118.27 2.11 M94 30.03 C101.03 23.19, 107.33 15.06, 118.27 2.11 M99.64 29.64 C105.54 22.11, 111.18 17.32, 120.63 5.49 M99.64 29.64 C105.95 23.06, 111.64 15.45, 120.63 5.49 M104.63 30 C111.57 21.72, 115.85 17.12, 121.03 11.13 M104.63 30 C109.53 24.08, 115.66 18.24, 121.03 11.13 M109.61 30.36 C114.33 24.88, 115.62 20.98, 120.77 17.53 M109.61 30.36 C112.77 26.96, 114.98 24.22, 120.77 17.53 M113.95 31.48 C115.67 28.9, 117.78 26.29, 120.51 23.93 M113.95 31.48 C115.94 28.54, 118.27 25.84, 120.51 23.93" stroke="#12b886" stroke-width="0.5" fill="none"></path><path d="M7.5 0 M7.5 0 C36.34 -1.01, 68.01 -2.49, 112.5 0 M7.5 0 C42.72 -0.53, 78.01 0.47, 112.5 0 M112.5 0 C115.62 1.56, 120.89 2.58, 120 7.5 M112.5 0 C117.42 -0.4, 118.06 1.11, 120 7.5 M120 7.5 C121.19 14.24, 120.59 17.64, 120 22.5 M120 7.5 C119.4 10.71, 120.63 14.85, 120 22.5 M120 22.5 C118.57 26.96, 118.72 29.35, 112.5 30 M120 22.5 C119.12 29.04, 116.72 31.44, 112.5 30 M112.5 30 C83.47 32.4, 55.01 29.56, 7.5 30 M112.5 30 C77.32 30.48, 43.91 29.43, 7.5 30 M7.5 30 C0.63 30.22, -1.51 25.73, 0 22.5 M7.5 30 C3.4 28.75, 1 26.15, 0 22.5 M0 22.5 C-0.54 19, 0.55 13.71, 0 7.5 M0 22.5 C-0.3 18.04, 0.87 15.06, 0 7.5 M0 7.5 C0.68 3.27, 0.99 -0.58, 7.5 0 M0 7.5 C-0.64 3.22, 2.63 -0.98, 7.5 0" stroke="#FFFFFF" stroke-width="1" fill="none"></path></g><g transform="translate(187.3680191040039 195) rotate(0 42.631980895996094 10)"><text x="42.631980895996094" y="0" font-family="Virgil, Segoe UI Emoji" font-size="16px" fill="#FFFFFF" text-anchor="middle" style="white-space: pre;" direction="ltr" dominant-baseline="text-before-edge">Set domain</text></g><g stroke-linecap="round" transform="translate(110 270) rotate(0 120 25)"><path d="M3.33 2.89 C3.33 2.89, 3.33 2.89, 3.33 2.89 M3.33 2.89 C3.33 2.89, 3.33 2.89, 3.33 2.89 M0.44 12.31 C4.46 6.85, 7.12 1.84, 10.28 0.99 M0.44 12.31 C4.82 8.73, 7.13 3.33, 10.28 0.99 M0.18 18.71 C5.01 13.15, 8.35 7, 14.61 2.1 M0.18 18.71 C6.02 11.3, 10.94 6.14, 14.61 2.1 M0.57 24.35 C4.9 18.84, 12.41 12.59, 20.26 1.71 M0.57 24.35 C5.89 18.63, 12.38 12.3, 20.26 1.71 M0.31 30.75 C5.44 25.53, 9.34 19.96, 25.24 2.07 M0.31 30.75 C10.13 20.51, 18.7 9.8, 25.24 2.07 M0.71 36.39 C9.8 25.59, 22.59 9.34, 30.89 1.67 M0.71 36.39 C7.92 27.55, 15.13 19.52, 30.89 1.67 M1.1 42.03 C11.88 30.65, 17.69 21.53, 35.87 2.03 M1.1 42.03 C9.74 32.11, 18.31 20.89, 35.87 2.03 M3.47 45.41 C11.69 33.8, 22.4 23.78, 41.52 1.64 M3.47 45.41 C15.59 30.48, 28.29 16.29, 41.52 1.64 M5.83 48.79 C20.19 31.7, 34.95 13.69, 46.5 2 M5.83 48.79 C16.94 35.66, 27.04 22.79, 46.5 2 M10.16 49.91 C21.76 34.72, 34.41 22.32, 51.49 2.36 M10.16 49.91 C20.76 38.28, 30 26.66, 51.49 2.36 M15.15 50.27 C31.57 31.55, 48.12 14.75, 57.13 1.97 M15.15 50.27 C24.18 39.21, 33.48 30.23, 57.13 1.97 M20.79 49.87 C34.13 33.91, 46.52 18.03, 62.12 2.33 M20.79 49.87 C31.12 37.87, 42.82 25.01, 62.12 2.33 M25.78 50.23 C36.85 39.3, 47.33 27.11, 67.76 1.93 M25.78 50.23 C40.84 30.61, 58.59 13.36, 67.76 1.93 M31.42 49.84 C40.07 40.56, 49.19 29.58, 72.75 2.29 M31.42 49.84 C42.69 35.79, 54.17 22.73, 72.75 2.29 M36.41 50.2 C49.5 37.38, 58.17 23.22, 78.39 1.9 M36.41 50.2 C48.57 36.58, 61.03 22.86, 78.39 1.9 M42.05 49.8 C54.44 33.82, 70.33 17.22, 83.38 2.26 M42.05 49.8 C56.9 30.74, 73.41 14.06, 83.38 2.26 M47.04 50.16 C59.02 39.09, 68.82 27.29, 89.02 1.86 M47.04 50.16 C61.59 34.36, 74.92 19.45, 89.02 1.86 M52.02 50.52 C64.46 35.25, 79.52 18.39, 94.01 2.22 M52.02 50.52 C62.39 38.27, 74.31 25.11, 94.01 2.22 M57.67 50.13 C72.44 35.08, 85.79 17.65, 99.65 1.83 M57.67 50.13 C69.21 36.2, 81.68 22.42, 99.65 1.83 M62.65 50.49 C77.05 34.4, 88.07 22.01, 104.64 2.19 M62.65 50.49 C78.91 32.56, 95.69 14.03, 104.64 2.19 M68.3 50.09 C78.07 39.01, 87.92 27.96, 110.28 1.79 M68.3 50.09 C78.2 37.81, 90.24 24.6, 110.28 1.79 M73.28 50.45 C85.5 38.86, 96.24 24.74, 115.27 2.15 M73.28 50.45 C84.25 37.83, 94.8 26.55, 115.27 2.15 M78.93 50.06 C91.54 36.9, 102.93 21.68, 120.91 1.76 M78.93 50.06 C93.61 32.93, 107.25 17.41, 120.91 1.76 M83.91 50.42 C96.49 35.37, 111.62 20.4, 125.9 2.12 M83.91 50.42 C98.02 34.51, 109.79 19.56, 125.9 2.12 M89.56 50.03 C100.38 37.94, 109.09 27.44, 131.54 1.72 M89.56 50.03 C102.7 34.37, 116.38 18.45, 131.54 1.72 M94.54 50.39 C108.11 32.12, 123.14 14.74, 136.53 2.08 M94.54 50.39 C106.43 36.41, 119.32 22.14, 136.53 2.08 M100.19 49.99 C113.92 32.48, 127.69 18.16, 142.17 1.69 M100.19 49.99 C108.49 39.82, 116.93 29.07, 142.17 1.69 M105.17 50.35 C115.2 40.31, 126.15 27.94, 147.16 2.05 M105.17 50.35 C113.94 39.82, 122.48 31.56, 147.16 2.05 M110.82 49.96 C127.64 31.85, 140.93 16.28, 152.15 2.41 M110.82 49.96 C122.21 37.81, 132.22 25.77, 152.15 2.41 M115.8 50.32 C127.11 37.89, 137.66 24.5, 157.79 2.01 M115.8 50.32 C132.58 31.29, 147.8 13.78, 157.79 2.01 M121.45 49.92 C131.94 39.79, 143.15 26.22, 162.78 2.37 M121.45 49.92 C137.03 30, 154.65 11.56, 162.78 2.37 M126.43 50.28 C135.21 41.16, 141.6 29.94, 168.42 1.98 M126.43 50.28 C137.28 36.98, 148.52 24.05, 168.42 1.98 M132.08 49.89 C146.3 32.78, 161.74 14.31, 173.41 2.34 M132.08 49.89 C148.52 31.99, 163.94 13.1, 173.41 2.34 M137.06 50.25 C152.3 33.2, 166.44 18.15, 179.05 1.95 M137.06 50.25 C152.05 33.98, 166.44 16.42, 179.05 1.95 M142.05 50.61 C155.79 35.04, 169.08 20.31, 184.04 2.31 M142.05 50.61 C157.88 31.83, 173.82 12.61, 184.04 2.31 M147.69 50.21 C160.2 35.39, 174.61 16.01, 189.68 1.91 M147.69 50.21 C160.86 35.68, 173.07 20.82, 189.68 1.91 M152.68 50.57 C166.02 32.36, 182.43 13.02, 194.67 2.27 M152.68 50.57 C166.74 33.64, 180.69 18.12, 194.67 2.27 M158.32 50.18 C171.85 38.42, 182.36 22.93, 200.31 1.88 M158.32 50.18 C174.02 33.39, 188.98 14.32, 200.31 1.88 M163.31 50.54 C177.27 34.29, 193.76 15.59, 205.3 2.24 M163.31 50.54 C174.32 37.3, 187.07 23.56, 205.3 2.24 M168.95 50.14 C180.34 40.62, 188.19 27.7, 210.94 1.84 M168.95 50.14 C178.11 39.05, 187.18 28.56, 210.94 1.84 M173.94 50.5 C190.2 31.79, 203.8 14.46, 215.93 2.2 M173.94 50.5 C190.27 32.53, 207.31 12.67, 215.93 2.2 M179.58 50.11 C192.5 33.8, 206.69 17.43, 221.57 1.81 M179.58 50.11 C195.44 33.17, 209.51 15.33, 221.57 1.81 M184.57 50.47 C195.76 35.81, 207.16 21.86, 226.56 2.17 M184.57 50.47 C194.3 38.86, 206.06 26.61, 226.56 2.17 M190.21 50.07 C200.06 40.72, 210.25 28.93, 232.2 1.77 M190.21 50.07 C198.81 40.74, 207.66 30.13, 232.2 1.77 M195.2 50.43 C206.42 38.11, 220.21 20.94, 235.88 3.64 M195.2 50.43 C209.26 33.53, 223.86 15.85, 235.88 3.64 M200.84 50.04 C210.86 39.95, 222 27.7, 239.55 5.51 M200.84 50.04 C210.42 38.95, 219.39 27.49, 239.55 5.51 M205.83 50.4 C218.32 34.81, 230.15 21.49, 241.91 8.89 M205.83 50.4 C218.43 34.95, 233.2 19.65, 241.91 8.89 M211.47 50.01 C224 36.83, 236.53 24.35, 241.65 15.29 M211.47 50.01 C221.97 38.23, 231.45 25.94, 241.65 15.29 M216.46 50.37 C224 42.76, 226.33 36.82, 242.05 20.93 M216.46 50.37 C223.24 42.11, 230.37 34.05, 242.05 20.93 M222.1 49.97 C226.06 41.78, 235.86 35.37, 241.79 27.33 M222.1 49.97 C229.71 41.42, 235.97 34.78, 241.79 27.33 M227.09 50.33 C232.37 45.17, 238.63 39.5, 242.18 32.97 M227.09 50.33 C230.57 46.28, 233.48 43.71, 242.18 32.97 M230.77 52.2 C233.24 48.41, 235.67 45.59, 240.61 40.88 M230.77 52.2 C233.09 49.05, 236.26 45.87, 240.61 40.88" stroke="#fab005" stroke-width="0.5" fill="none"></path><path d="M12.5 0 M12.5 0 C57.06 -1.79, 98.57 0.75, 227.5 0 M12.5 0 C71.38 0.76, 132.54 0.58, 227.5 0 M227.5 0 C235.92 -0.69, 241.32 2.19, 240 12.5 M227.5 0 C236.62 -2.22, 237.92 4.29, 240 12.5 M240 12.5 C239.94 23.38, 242.1 33.15, 240 37.5 M240 12.5 C240.63 20.89, 239.45 30.98, 240 37.5 M240 37.5 C239.31 47.67, 236.13 48.87, 227.5 50 M240 37.5 C240.25 44.74, 236.06 50.57, 227.5 50 M227.5 50 C149.06 48.01, 71.45 49.74, 12.5 50 M227.5 50 C166.08 49.27, 104.04 49.06, 12.5 50 M12.5 50 C3.36 49.87, 1.69 47.64, 0 37.5 M12.5 50 C3.44 50.87, -0.08 48.02, 0 37.5 M0 37.5 C-0.88 29.24, -2.14 19.69, 0 12.5 M0 37.5 C0.58 28.28, -0.91 16.56, 0 12.5 M0 12.5 C-1.74 3.88, 3.25 1.9, 12.5 0 M0 12.5 C0.71 2.14, 4.81 0.59, 12.5 0" stroke="#FFFFFF" stroke-width="1" fill="none"></path></g><g transform="translate(144.63204193115234 285) rotate(0 85.36795806884766 10)"><text x="85.36795806884766" y="0" font-family="Virgil, Segoe UI Emoji" font-size="16px" fill="#FFFFFF" text-anchor="middle" style="white-space: pre;" direction="ltr" dominant-baseline="text-before-edge">Return main interface</text></g><g stroke-linecap="round" transform="translate(10 370) rotate(0 90 20)"><path d="M2.66 2.31 C2.66 2.31, 2.66 2.31, 2.66 2.31 M2.66 2.31 C2.66 2.31, 2.66 2.31, 2.66 2.31 M0.43 10.98 C3.02 7.15, 5.17 5.25, 10.27 -0.34 M0.43 10.98 C2.59 7.26, 6.44 4.44, 10.27 -0.34 M0.83 16.62 C6.81 11.46, 12.11 5.15, 13.29 2.28 M0.83 16.62 C6.07 12.18, 10.7 5.13, 13.29 2.28 M1.22 22.26 C7.08 15.21, 12.57 11.25, 18.28 2.64 M1.22 22.26 C5.5 17.57, 9.31 13.32, 18.28 2.64 M0.96 28.66 C11.15 19.24, 15.9 9.07, 23.27 3 M0.96 28.66 C6.45 21.5, 12.75 15.05, 23.27 3 M0.7 35.06 C9.27 22.36, 20.12 12.16, 28.91 2.6 M0.7 35.06 C7.81 26.61, 13.63 18.78, 28.91 2.6 M3.72 37.68 C13.02 26.26, 23.95 15.98, 33.9 2.97 M3.72 37.68 C13.32 26.06, 23.64 15.14, 33.9 2.97 M6.74 40.31 C16.07 28.84, 24.49 18.94, 39.54 2.57 M6.74 40.31 C16.15 28.11, 25.83 17.58, 39.54 2.57 M11.72 40.67 C24.47 24.65, 40.02 9.53, 44.53 2.93 M11.72 40.67 C24.26 26, 36.77 12.55, 44.53 2.93 M17.37 40.27 C26.51 30.12, 37.6 17.19, 50.17 2.54 M17.37 40.27 C29.8 25.78, 44.3 10.41, 50.17 2.54 M22.35 40.63 C32.64 27.06, 43.04 15.45, 55.16 2.9 M22.35 40.63 C29.37 33.34, 35.54 25.04, 55.16 2.9 M28 40.24 C36.96 31.57, 44.67 23.47, 60.8 2.5 M28 40.24 C40.17 26.06, 54.75 10.09, 60.8 2.5 M32.98 40.6 C44.87 27.94, 55.1 15.96, 65.79 2.86 M32.98 40.6 C43.69 27.15, 55.42 14.6, 65.79 2.86 M38.63 40.2 C48.7 27.7, 57.47 16.85, 71.43 2.47 M38.63 40.2 C50.02 27.78, 61.34 15.94, 71.43 2.47 M43.61 40.56 C50.96 32.64, 57.68 25.3, 76.42 2.83 M43.61 40.56 C54.56 27.21, 67.89 13.13, 76.42 2.83 M49.26 40.17 C61.26 28.41, 72.51 14.56, 81.4 3.19 M49.26 40.17 C59.3 28.73, 70.28 17.13, 81.4 3.19 M54.24 40.53 C66.79 27.18, 77.72 12.59, 87.05 2.79 M54.24 40.53 C65.98 28.1, 76.84 15.01, 87.05 2.79 M59.23 40.89 C71.29 28.07, 80.96 16.44, 92.03 3.15 M59.23 40.89 C66.89 31.96, 74.67 23.04, 92.03 3.15 M64.87 40.49 C71.83 30.29, 82.45 22.91, 97.68 2.76 M64.87 40.49 C72.49 32.95, 79.52 23.19, 97.68 2.76 M69.86 40.85 C78.86 31.16, 87.88 17.4, 102.66 3.12 M69.86 40.85 C79.13 30.98, 87.42 19.99, 102.66 3.12 M75.5 40.46 C88.01 27.61, 98.03 15.32, 108.31 2.72 M75.5 40.46 C81.94 32.6, 89.71 23.52, 108.31 2.72 M80.49 40.82 C87.81 33, 93.05 24.85, 113.29 3.08 M80.49 40.82 C91.94 26.67, 105.03 12.68, 113.29 3.08 M86.13 40.42 C98.65 27.95, 111.27 11.77, 118.94 2.69 M86.13 40.42 C92.45 31.31, 99.7 22.85, 118.94 2.69 M91.12 40.78 C102.02 27.6, 114.49 13.01, 123.92 3.05 M91.12 40.78 C102.33 27.71, 113.29 15.99, 123.92 3.05 M96.76 40.39 C107.78 25.51, 119.7 13.15, 128.91 3.41 M96.76 40.39 C103.24 33.39, 109.41 24.97, 128.91 3.41 M101.75 40.75 C109.77 29.27, 120.98 17.78, 134.55 3.01 M101.75 40.75 C113.94 26.3, 125.53 11.61, 134.55 3.01 M107.39 40.36 C121.32 27.31, 132.91 9.89, 139.54 3.37 M107.39 40.36 C114.08 31.72, 123.05 24.27, 139.54 3.37 M112.38 40.72 C119.33 31.12, 128.82 22.58, 145.18 2.98 M112.38 40.72 C124.77 26.5, 137.28 12.8, 145.18 2.98 M117.37 41.08 C126.39 30.46, 134.44 23.35, 150.17 3.34 M117.37 41.08 C123.79 32.31, 131.76 24.8, 150.17 3.34 M123.01 40.68 C135.81 29.23, 145.19 16.54, 155.81 2.95 M123.01 40.68 C133.13 28.7, 144.7 13.98, 155.81 2.95 M128 41.04 C141.83 24.37, 153.55 10.28, 160.8 3.31 M128 41.04 C138.71 28.07, 149.8 16.88, 160.8 3.31 M133.64 40.65 C144.16 28.36, 153.29 19.53, 166.44 2.91 M133.64 40.65 C141.71 31.67, 148.78 22.11, 166.44 2.91 M138.63 41.01 C147.9 30.63, 159.19 17.72, 171.43 3.27 M138.63 41.01 C149.55 28.89, 159.22 18.62, 171.43 3.27 M144.27 40.61 C152.14 31.03, 160.86 25.22, 177.07 2.88 M144.27 40.61 C156.88 25.58, 169.02 12.86, 177.07 2.88 M149.26 40.97 C161.23 27.7, 168.66 17.77, 179.44 6.26 M149.26 40.97 C156.36 32.72, 163.09 24.53, 179.44 6.26 M154.9 40.58 C164.96 27.97, 173.77 18.53, 179.83 11.9 M154.9 40.58 C161.73 31.79, 169.99 22.67, 179.83 11.9 M159.89 40.94 C167.04 34.44, 170.64 30.64, 179.57 18.3 M159.89 40.94 C165.25 35.24, 168.34 31.47, 179.57 18.3 M164.88 41.3 C170.34 36.97, 173.47 29.12, 179.96 23.94 M164.88 41.3 C167.81 38.45, 170.24 33.49, 179.96 23.94 M170.52 40.9 C174.22 37.95, 175.44 33.74, 179.7 30.34 M170.52 40.9 C173.35 37.05, 176.56 34.8, 179.7 30.34" stroke="#4c6ef5" stroke-width="0.5" fill="none"></path><path d="M10 0 M10 0 C57.29 -0.96, 105.69 0.59, 170 0 M10 0 C58.59 0.75, 105.3 0.24, 170 0 M170 0 C177.44 -0.94, 178.99 3.06, 180 10 M170 0 C175.6 -0.47, 181.41 3.75, 180 10 M180 10 C179.5 17.06, 179.81 21.7, 180 30 M180 10 C179.15 16.37, 179.5 24.82, 180 30 M180 30 C178.5 35.2, 177.95 40.22, 170 40 M180 30 C182.19 35.19, 177.01 38.75, 170 40 M170 40 C123.2 38.41, 73.3 40.6, 10 40 M170 40 C125.35 39.87, 81.04 39.49, 10 40 M10 40 C2.73 41.5, 1.03 34.98, 0 30 M10 40 C4.85 41.94, 1.69 35.69, 0 30 M0 30 C-0.57 21.39, 0.93 15.36, 0 10 M0 30 C-0.48 22.87, -0.77 14.32, 0 10 M0 10 C-0.01 1.52, 3.13 0.86, 10 0 M0 10 C-1.05 3.13, 3.24 -1.59, 10 0" stroke="#FFFFFF" stroke-width="1" fill="none"></path></g><g transform="translate(44.39203643798828 380) rotate(0 55.60796356201172 10)"><text x="55.60796356201172" y="0" font-family="Virgil, Segoe UI Emoji" font-size="16px" fill="#FFFFFF" text-anchor="middle" style="white-space: pre;" direction="ltr" dominant-baseline="text-before-edge">Select project</text></g><g stroke-linecap="round" transform="translate(290 370) rotate(0 90 20)"><path d="M2.66 2.31 C2.66 2.31, 2.66 2.31, 2.66 2.31 M2.66 2.31 C2.66 2.31, 2.66 2.31, 2.66 2.31 M0.43 10.98 C3.85 8.02, 6.01 6.8, 10.27 -0.34 M0.43 10.98 C3.86 6.83, 6.19 4.58, 10.27 -0.34 M0.83 16.62 C5.38 13.43, 7.38 7.53, 13.29 2.28 M0.83 16.62 C5.12 12.06, 10.48 5.88, 13.29 2.28 M1.22 22.26 C3.14 17.15, 7.27 13.87, 18.28 2.64 M1.22 22.26 C5.97 16.8, 10.66 11.11, 18.28 2.64 M0.96 28.66 C10.03 17.94, 17.32 8.71, 23.27 3 M0.96 28.66 C5.83 21.61, 12.87 14.57, 23.27 3 M0.7 35.06 C7.75 28.2, 14.56 20.79, 28.91 2.6 M0.7 35.06 C8.44 26.76, 16.28 16.53, 28.91 2.6 M3.72 37.68 C10.9 28.28, 19.35 20.09, 33.9 2.97 M3.72 37.68 C12.65 27.14, 23.8 15.67, 33.9 2.97 M6.74 40.31 C17.22 29.6, 25.45 22.56, 39.54 2.57 M6.74 40.31 C19.62 26.67, 31.64 10.88, 39.54 2.57 M11.72 40.67 C23.4 27.24, 33.99 17.6, 44.53 2.93 M11.72 40.67 C24.11 27.78, 34.71 14.09, 44.53 2.93 M17.37 40.27 C26.35 28.68, 34.68 18.3, 50.17 2.54 M17.37 40.27 C24.04 31.69, 30.63 23.87, 50.17 2.54 M22.35 40.63 C33.32 30.07, 45.42 14.59, 55.16 2.9 M22.35 40.63 C30.2 31.94, 36.53 24.12, 55.16 2.9 M28 40.24 C37.52 29.54, 46.88 17.72, 60.8 2.5 M28 40.24 C36.77 30.06, 45.85 19.67, 60.8 2.5 M32.98 40.6 C44.55 25.78, 59.38 9.45, 65.79 2.86 M32.98 40.6 C43.15 30.27, 50.74 19.28, 65.79 2.86 M38.63 40.2 C44.79 33.73, 53.87 24.37, 71.43 2.47 M38.63 40.2 C47.22 31, 54.46 23.43, 71.43 2.47 M43.61 40.56 C57.45 25.88, 69.77 8.48, 76.42 2.83 M43.61 40.56 C56.9 26.32, 69.43 12.06, 76.42 2.83 M49.26 40.17 C56.86 30.31, 65.8 20.91, 81.4 3.19 M49.26 40.17 C57.17 30.93, 65.95 21.24, 81.4 3.19 M54.24 40.53 C65.34 28.26, 73.68 17.63, 87.05 2.79 M54.24 40.53 C61.87 31.73, 69.21 23.33, 87.05 2.79 M59.23 40.89 C72.74 28.76, 81.84 12.36, 92.03 3.15 M59.23 40.89 C68.68 28.99, 77.92 19.06, 92.03 3.15 M64.87 40.49 C74.67 26.54, 86.85 16.08, 97.68 2.76 M64.87 40.49 C70.98 32.53, 78.28 24.2, 97.68 2.76 M69.86 40.85 C81.38 27.85, 88.86 16.68, 102.66 3.12 M69.86 40.85 C80.67 28.06, 90.86 16.36, 102.66 3.12 M75.5 40.46 C84.74 28.45, 98.98 13.53, 108.31 2.72 M75.5 40.46 C88.1 26.4, 101.29 11.25, 108.31 2.72 M80.49 40.82 C89.92 29.59, 98.29 18.39, 113.29 3.08 M80.49 40.82 C92.06 26.37, 105.66 13.56, 113.29 3.08 M86.13 40.42 C98.25 26.09, 112.65 9.54, 118.94 2.69 M86.13 40.42 C94.47 31.33, 104 20.51, 118.94 2.69 M91.12 40.78 C98.18 31.89, 104.8 24.55, 123.92 3.05 M91.12 40.78 C99.15 30.63, 108.84 19.93, 123.92 3.05 M96.76 40.39 C106.54 28.59, 116.06 21.29, 128.91 3.41 M96.76 40.39 C105.7 28.6, 117.17 18.06, 128.91 3.41 M101.75 40.75 C112.68 26.62, 120.92 15.87, 134.55 3.01 M101.75 40.75 C112.12 30.96, 119.7 19.42, 134.55 3.01 M107.39 40.36 C120.46 26.46, 131.97 13.21, 139.54 3.37 M107.39 40.36 C120.1 26.5, 130.54 13.49, 139.54 3.37 M112.38 40.72 C122.06 31.6, 129.52 17.02, 145.18 2.98 M112.38 40.72 C123.25 28.74, 133.49 16.96, 145.18 2.98 M117.37 41.08 C127.27 30.34, 139.47 17.48, 150.17 3.34 M117.37 41.08 C125.31 30.44, 135.05 22.05, 150.17 3.34 M123.01 40.68 C133.23 27.77, 145.4 15.85, 155.81 2.95 M123.01 40.68 C131.58 31.89, 139.96 22.42, 155.81 2.95 M128 41.04 C135.98 33.55, 142.71 23.71, 160.8 3.31 M128 41.04 C139.06 27.36, 152.11 13.12, 160.8 3.31 M133.64 40.65 C145.78 27.18, 158.82 9.83, 166.44 2.91 M133.64 40.65 C143.39 30.25, 151.71 18.62, 166.44 2.91 M138.63 41.01 C149.08 32.55, 158.37 21.11, 171.43 3.27 M138.63 41.01 C147.38 31.86, 156.06 21.33, 171.43 3.27 M144.27 40.61 C149.88 32.87, 156.62 26.14, 177.07 2.88 M144.27 40.61 C155.23 27.77, 168.72 14.42, 177.07 2.88 M149.26 40.97 C154.44 34.86, 161.52 26.92, 179.44 6.26 M149.26 40.97 C158.69 29.89, 168.17 18.2, 179.44 6.26 M154.9 40.58 C163.97 31.86, 170.73 19.93, 179.83 11.9 M154.9 40.58 C161.35 33.19, 168.95 24.21, 179.83 11.9 M159.89 40.94 C163.72 33.93, 168.89 28.29, 179.57 18.3 M159.89 40.94 C163.41 35.06, 168.52 31.32, 179.57 18.3 M164.88 41.3 C170.23 33.03, 176.75 28.22, 179.96 23.94 M164.88 41.3 C169.4 37.43, 172.81 32.98, 179.96 23.94 M170.52 40.9 C172.87 38.18, 177.41 33.04, 179.7 30.34 M170.52 40.9 C172.95 37.82, 176.37 33.99, 179.7 30.34" stroke="#4c6ef5" stroke-width="0.5" fill="none"></path><path d="M10 0 M10 0 C49.52 1.96, 90.22 1.32, 170 0 M10 0 C70.59 0.35, 129.98 0.99, 170 0 M170 0 C175.64 -0.82, 178.5 2.22, 180 10 M170 0 C175.75 2.22, 178.28 1.65, 180 10 M180 10 C178.74 17.58, 178.93 24.59, 180 30 M180 10 C179.11 17.65, 180.2 25.41, 180 30 M180 30 C181.55 36.52, 177.05 39.98, 170 40 M180 30 C181.66 35.77, 175.98 41.73, 170 40 M170 40 C115.43 42.53, 56.62 42.09, 10 40 M170 40 C132.46 39.83, 96.21 40.36, 10 40 M10 40 C3.65 41.38, -0.89 38.09, 0 30 M10 40 C1.63 40.02, -0.01 34.58, 0 30 M0 30 C-0.27 24.11, -1.47 17.76, 0 10 M0 30 C-0.27 23.51, 0.06 19.09, 0 10 M0 10 C1.24 5.12, 2.51 0.38, 10 0 M0 10 C0.72 3.8, 4.95 1.66, 10 0" stroke="#FFFFFF" stroke-width="1" fill="none"></path></g><g transform="translate(339.44801330566406 380) rotate(0 40.55198669433594 10)"><text x="40.55198669433594" y="0" font-family="Virgil, Segoe UI Emoji" font-size="16px" fill="#FFFFFF" text-anchor="middle" style="white-space: pre;" direction="ltr" dominant-baseline="text-before-edge">Select env</text></g><g stroke-linecap="round" transform="translate(110 470) rotate(0 120 20)"><path d="M2.66 2.31 C2.66 2.31, 2.66 2.31, 2.66 2.31 M2.66 2.31 C2.66 2.31, 2.66 2.31, 2.66 2.31 M3.06 7.96 C5.71 5.02, 7.21 2.57, 10.27 -0.34 M3.06 7.96 C4.72 5.44, 7.01 3.05, 10.27 -0.34 M2.79 14.35 C5.8 11.31, 7.75 6.64, 13.29 2.28 M2.79 14.35 C4.82 11.14, 7.4 8.26, 13.29 2.28 M2.53 20.75 C10.49 15.17, 15.79 6.26, 18.28 2.64 M2.53 20.75 C7.31 14.68, 12.99 8.68, 18.28 2.64 M2.93 26.4 C11.32 18.01, 17.75 9.41, 23.92 2.24 M2.93 26.4 C10.63 16.83, 19.02 6.78, 23.92 2.24 M2.67 32.79 C9.59 23.28, 17.36 17.19, 28.91 2.6 M2.67 32.79 C9.9 24.66, 18.06 16.21, 28.91 2.6 M3.06 38.44 C11.29 24.87, 20.61 16.04, 33.9 2.97 M3.06 38.44 C13.94 25.04, 26.61 11.89, 33.9 2.97 M7.39 39.55 C16.41 26.58, 27 13.75, 39.54 2.57 M7.39 39.55 C15.59 30.43, 24.89 19.1, 39.54 2.57 M11.07 41.42 C17.27 32.12, 27.31 23.24, 44.53 2.93 M11.07 41.42 C24.37 25.41, 37.64 11.08, 44.53 2.93 M16.71 41.03 C25.34 29.56, 32 21.05, 50.17 2.54 M16.71 41.03 C30.09 27.29, 42.69 12.52, 50.17 2.54 M21.7 41.39 C31.42 29.58, 44.25 15.25, 55.16 2.9 M21.7 41.39 C34.19 26.65, 46.3 13.29, 55.16 2.9 M27.34 40.99 C36.21 28.71, 47.48 19.23, 60.8 2.5 M27.34 40.99 C36.49 30.74, 46.08 19.8, 60.8 2.5 M32.33 41.35 C45.08 26.91, 55.58 14.69, 65.79 2.86 M32.33 41.35 C42.53 31.04, 51.13 18.98, 65.79 2.86 M37.97 40.96 C48.89 26.95, 62.56 14.51, 71.43 2.47 M37.97 40.96 C48.84 29.27, 58.94 17.63, 71.43 2.47 M42.96 41.32 C52.16 30.77, 59.07 24.62, 76.42 2.83 M42.96 41.32 C50.82 31.56, 61.1 21.08, 76.42 2.83 M48.6 40.92 C60.94 27.54, 71.87 13.83, 82.06 2.43 M48.6 40.92 C58.31 30.95, 67.25 20.3, 82.06 2.43 M53.59 41.28 C59.11 34.39, 65.63 24.93, 87.05 2.79 M53.59 41.28 C62.43 29.7, 72.91 19.48, 87.05 2.79 M59.23 40.89 C68.84 31.56, 76.49 18.04, 92.69 2.4 M59.23 40.89 C67.11 33.17, 73.5 24.46, 92.69 2.4 M64.22 41.25 C71.37 30.47, 80.99 20.5, 97.68 2.76 M64.22 41.25 C72.71 29.93, 81.66 19.4, 97.68 2.76 M69.86 40.85 C79.8 30.39, 87.16 22.48, 103.32 2.36 M69.86 40.85 C76.41 32.86, 82.64 24.86, 103.32 2.36 M74.85 41.21 C87.47 27.95, 97.88 14.44, 108.31 2.72 M74.85 41.21 C82.39 32.81, 90.31 24.95, 108.31 2.72 M80.49 40.82 C91.57 27.64, 102.01 14.46, 113.95 2.33 M80.49 40.82 C93 26.66, 105.99 10.66, 113.95 2.33 M85.48 41.18 C97.31 28.22, 110.94 12.11, 118.94 2.69 M85.48 41.18 C99.28 25.85, 112.68 10.1, 118.94 2.69 M91.12 40.78 C99.39 29.27, 110.21 15.24, 124.58 2.29 M91.12 40.78 C102.09 27.86, 114.68 15.33, 124.58 2.29 M96.11 41.14 C106.17 29.58, 112.07 21.8, 129.57 2.65 M96.11 41.14 C104.66 31.81, 113.11 21.37, 129.57 2.65 M101.09 41.5 C110.56 29.91, 119.4 18.93, 135.21 2.26 M101.09 41.5 C112.26 28.87, 122.27 16.84, 135.21 2.26 M106.74 41.11 C117.65 30.71, 127.42 18.58, 140.2 2.62 M106.74 41.11 C113.61 33.6, 120.3 25.56, 140.2 2.62 M111.72 41.47 C118.76 30.8, 131.11 18.94, 145.18 2.98 M111.72 41.47 C122.93 28.01, 135.13 14.27, 145.18 2.98 M117.37 41.08 C130.26 25.93, 142.57 10.53, 150.83 2.59 M117.37 41.08 C128.11 27.32, 140.22 14.56, 150.83 2.59 M122.36 41.44 C131.9 33.04, 139.04 23.06, 155.81 2.95 M122.36 41.44 C130.34 31.59, 137.04 23.37, 155.81 2.95 M128 41.04 C136.21 31.35, 143.3 21.37, 161.46 2.55 M128 41.04 C135.85 31.78, 146.32 20.96, 161.46 2.55 M132.99 41.4 C143.22 28.77, 156.41 15.18, 166.44 2.91 M132.99 41.4 C141.5 30.52, 151.29 20.93, 166.44 2.91 M138.63 41.01 C146.17 31.24, 153.16 25.56, 172.09 2.52 M138.63 41.01 C146.56 33.8, 153.93 24.82, 172.09 2.52 M143.62 41.37 C153.78 29.85, 162.62 18.1, 177.07 2.88 M143.62 41.37 C156.03 28.28, 166.7 13.87, 177.07 2.88 M149.26 40.97 C156.24 32.71, 164.98 25.88, 182.72 2.48 M149.26 40.97 C157.15 30.56, 165.99 20.82, 182.72 2.48 M154.25 41.33 C163.94 32.05, 173.98 19.1, 187.7 2.84 M154.25 41.33 C165.62 28.59, 175.59 15.87, 187.7 2.84 M159.89 40.94 C166.72 29.75, 177.67 22.03, 193.35 2.45 M159.89 40.94 C172.82 25.69, 187.48 10.62, 193.35 2.45 M164.88 41.3 C177.96 26.71, 191.55 12.71, 198.33 2.81 M164.88 41.3 C175.18 28.46, 187 16.99, 198.33 2.81 M170.52 40.9 C178.95 31.47, 185.72 22.62, 203.98 2.41 M170.52 40.9 C180.92 29.52, 191.33 18.6, 203.98 2.41 M175.51 41.26 C186.54 26.83, 200.37 10.8, 208.96 2.77 M175.51 41.26 C184.96 30.21, 194.06 18.77, 208.96 2.77 M181.15 40.87 C189.9 28.22, 199.84 19.79, 214.61 2.38 M181.15 40.87 C193.1 27.39, 205.23 13.85, 214.61 2.38 M186.14 41.23 C200.13 27.59, 211.47 11.69, 219.59 2.74 M186.14 41.23 C195.26 31.13, 204.76 18.5, 219.59 2.74 M191.78 40.83 C201.22 29.12, 211.25 17.97, 225.24 2.34 M191.78 40.83 C199.65 30.06, 207.91 22.28, 225.24 2.34 M196.77 41.19 C203.8 32.79, 212.36 21.61, 231.54 1.19 M196.77 41.19 C207.82 27.6, 220.38 14.58, 231.54 1.19 M202.41 40.8 C214.34 26.53, 227.55 11.11, 235.87 2.31 M202.41 40.8 C215.25 25.98, 227.05 11.21, 235.87 2.31 M207.4 41.16 C219.96 26.39, 230.82 13.89, 238.89 4.93 M207.4 41.16 C220.26 27.64, 231.68 12.39, 238.89 4.93 M213.04 40.77 C223.27 27.44, 235.18 19.18, 241.91 7.56 M213.04 40.77 C224.36 27.6, 234.71 15.35, 241.91 7.56 M218.03 41.13 C223.95 33.97, 227.73 31.08, 241.64 13.96 M218.03 41.13 C226.86 30.09, 237.33 18.59, 241.64 13.96 M223.01 41.49 C229.6 36.3, 231.47 30.67, 242.04 19.6 M223.01 41.49 C228.45 35.03, 232.32 30.5, 242.04 19.6 M228.66 41.09 C231.25 37.1, 232.9 34.68, 242.43 25.24 M228.66 41.09 C233.62 34.81, 240.2 29.65, 242.43 25.24 M232.99 42.21 C236.75 40.28, 239.27 36.92, 242.17 31.64 M232.99 42.21 C235.56 40.15, 237.69 36.14, 242.17 31.64" stroke="#e64980" stroke-width="0.5" fill="none"></path><path d="M10 0 M10 0 C85.71 0.35, 164.5 1.06, 230 0 M10 0 C97.1 1.9, 183.34 2.01, 230 0 M230 0 C234.67 -0.67, 241.31 2.26, 240 10 M230 0 C234.93 0.81, 241.46 1.41, 240 10 M240 10 C240.74 13.08, 241.69 18.67, 240 30 M240 10 C240.22 16.87, 239.79 24.79, 240 30 M240 30 C240.93 37.95, 237.5 40.81, 230 40 M240 30 C241.7 36.46, 238.5 41.8, 230 40 M230 40 C148.85 42.1, 67.43 42.02, 10 40 M230 40 C163.46 40.48, 97.24 40.8, 10 40 M10 40 C4.21 41.28, 0.99 37.31, 0 30 M10 40 C4.25 37.97, -0.63 37.21, 0 30 M0 30 C-1.83 25.33, 0.55 19.88, 0 10 M0 30 C-0.87 24.02, -0.92 19.11, 0 10 M0 10 C-0.84 3.22, 4.37 -1.12, 10 0 M0 10 C-0.62 2.76, 4.97 -1.28, 10 0" stroke="#FFFFFF" stroke-width="1" fill="none"></path></g><g transform="translate(185.72002410888672 480) rotate(0 44.27997589111328 10)"><text x="44.27997589111328" y="0" font-family="Virgil, Segoe UI Emoji" font-size="16px" fill="#FFFFFF" text-anchor="middle" style="white-space: pre;" direction="ltr" dominant-baseline="text-before-edge">Click R icon</text></g><g stroke-linecap="round" transform="translate(150 570) rotate(0 80 25)"><path d="M3.33 2.89 C3.33 2.89, 3.33 2.89, 3.33 2.89 M3.33 2.89 C3.33 2.89, 3.33 2.89, 3.33 2.89 M1.75 10.8 C5.04 7.97, 5.13 6.02, 10.28 0.99 M1.75 10.8 C4.29 8.96, 6.42 6.24, 10.28 0.99 M1.49 17.2 C4.97 11.74, 9.35 7.86, 14.61 2.1 M1.49 17.2 C6.66 12.52, 10.42 6.85, 14.61 2.1 M1.89 22.84 C8.88 14.19, 14.98 6.84, 20.26 1.71 M1.89 22.84 C5.23 17.96, 9.55 13.49, 20.26 1.71 M1.63 29.24 C7.86 20.28, 16.74 13.4, 25.24 2.07 M1.63 29.24 C10.39 19.26, 16.41 9.89, 25.24 2.07 M1.36 35.64 C11.53 22.87, 20.54 14.01, 30.89 1.67 M1.36 35.64 C9.78 25.55, 17.13 16.24, 30.89 1.67 M1.76 41.28 C9.94 30.91, 19.71 22.87, 35.87 2.03 M1.76 41.28 C11.34 30.12, 19.95 20.87, 35.87 2.03 M3.47 45.41 C12.23 33.16, 22.59 20.7, 40.86 2.39 M3.47 45.41 C16.21 31.53, 26.88 16.81, 40.86 2.39 M5.83 48.79 C18.54 36.18, 31.58 22.18, 46.5 2 M5.83 48.79 C20.95 30.25, 36.88 13.32, 46.5 2 M8.85 51.42 C24.11 35.73, 36.09 19.16, 51.49 2.36 M8.85 51.42 C22.45 35.96, 34.67 21.61, 51.49 2.36 M14.49 51.02 C29.86 34.33, 44.73 18.38, 57.13 1.97 M14.49 51.02 C24.9 38.7, 36.1 25.21, 57.13 1.97 M19.48 51.38 C31.02 38.1, 45.78 21.59, 62.12 2.33 M19.48 51.38 C30.08 37.06, 42.5 24.31, 62.12 2.33 M25.12 50.99 C40.58 33.5, 56.99 14.77, 67.76 1.93 M25.12 50.99 C41.61 33.11, 57.2 13.99, 67.76 1.93 M30.11 51.35 C44.83 33.55, 59.01 20.63, 72.75 2.29 M30.11 51.35 C40.06 38.71, 52.23 25.25, 72.75 2.29 M35.75 50.95 C49.07 34.84, 66.18 17.27, 77.74 2.65 M35.75 50.95 C50.8 34.07, 64.76 17.77, 77.74 2.65 M40.74 51.31 C55.64 34.29, 67.09 20.5, 83.38 2.26 M40.74 51.31 C56.96 31.83, 75.4 11.39, 83.38 2.26 M46.38 50.92 C58.27 40.26, 68.7 26.91, 88.37 2.62 M46.38 50.92 C61.91 32.96, 76.07 16.3, 88.37 2.62 M51.37 51.28 C63.8 37.73, 72.09 24.9, 94.01 2.22 M51.37 51.28 C60.13 41.01, 70.14 29.41, 94.01 2.22 M56.35 51.64 C72.87 32.44, 89.13 12.47, 99 2.58 M56.35 51.64 C67.64 40.17, 77.61 27.37, 99 2.58 M62 51.24 C76.17 37.82, 86.88 25.35, 104.64 2.19 M62 51.24 C76.59 33.51, 92.62 15.23, 104.64 2.19 M66.98 51.6 C76.73 37.41, 90.98 23.94, 109.63 2.55 M66.98 51.6 C78.45 38.61, 89.67 26.44, 109.63 2.55 M72.63 51.21 C82.82 38.71, 94.99 25.53, 115.27 2.15 M72.63 51.21 C82.52 37.4, 94.42 25.07, 115.27 2.15 M77.61 51.57 C87.31 40.25, 96.01 32.35, 120.26 2.51 M77.61 51.57 C94.4 33.21, 109.68 12.98, 120.26 2.51 M83.26 51.17 C101.51 33.28, 116.2 15.54, 125.25 2.87 M83.26 51.17 C93.14 40.5, 101.83 29.46, 125.25 2.87 M88.24 51.53 C98.47 41.39, 107.51 28.68, 130.89 2.48 M88.24 51.53 C98.19 39.53, 109.91 27.14, 130.89 2.48 M93.23 51.89 C109.13 34.09, 125.36 15.81, 135.88 2.84 M93.23 51.89 C110.43 31.11, 127.37 13.12, 135.88 2.84 M98.87 51.5 C106.62 39.79, 116.98 29.95, 141.52 2.44 M98.87 51.5 C110.01 39.25, 119.6 26.92, 141.52 2.44 M103.86 51.86 C113 41.51, 119.03 33.75, 146.51 2.8 M103.86 51.86 C112.37 42.28, 122.3 31.49, 146.51 2.8 M109.5 51.47 C127 35.51, 138.11 16.73, 153.46 0.9 M109.5 51.47 C119.97 39.48, 130.17 27.01, 153.46 0.9 M114.49 51.83 C127.01 34.98, 142.21 23.41, 156.48 3.52 M114.49 51.83 C124.9 38.32, 136.83 26.45, 156.48 3.52 M120.13 51.43 C129.83 40.09, 137.57 31.13, 159.5 6.15 M120.13 51.43 C134.21 34.71, 149 17.66, 159.5 6.15 M125.12 51.79 C138.3 38.1, 153.47 23.59, 161.21 10.28 M125.12 51.79 C136.54 39.39, 147.32 26.22, 161.21 10.28 M130.76 51.4 C137 45.19, 144.7 35.24, 160.94 16.68 M130.76 51.4 C140.37 40.4, 149.79 30.37, 160.94 16.68 M135.75 51.76 C146.31 39.62, 154.19 29.17, 160.68 23.08 M135.75 51.76 C142.32 44.61, 149.24 37.68, 160.68 23.08 M140.74 52.12 C144.5 47.03, 150.19 39.22, 160.42 29.48 M140.74 52.12 C146.26 46.35, 149 42.64, 160.42 29.48 M147.69 50.21 C151.93 44.52, 155.73 42.71, 160.82 35.12 M147.69 50.21 C151.58 45.74, 155.68 41.58, 160.82 35.12 M154.65 48.31 C156.49 46.49, 157.12 45.74, 159.24 43.03 M154.65 48.31 C156.6 46.68, 157.77 44.74, 159.24 43.03" stroke="#40c057" stroke-width="0.5" fill="none"></path><path d="M12.5 0 M12.5 0 C41.93 1.27, 73.94 2.32, 147.5 0 M12.5 0 C55.82 -0.14, 97.72 0.6, 147.5 0 M147.5 0 C154.02 -0.2, 160.86 3.25, 160 12.5 M147.5 0 C155.63 -0.1, 158.41 3.44, 160 12.5 M160 12.5 C159.97 17.54, 160.63 26.71, 160 37.5 M160 12.5 C160.41 21.86, 160.43 31.3, 160 37.5 M160 37.5 C161.44 46.64, 157.13 51.7, 147.5 50 M160 37.5 C161.04 46.5, 155.07 49.56, 147.5 50 M147.5 50 C117.77 48.39, 82.73 49.29, 12.5 50 M147.5 50 C111 49.12, 74.68 49.02, 12.5 50 M12.5 50 C4.23 50.59, -1.09 43.88, 0 37.5 M12.5 50 C2.52 52.17, -1.12 46.91, 0 37.5 M0 37.5 C-1.52 28.79, 0.9 19.69, 0 12.5 M0 37.5 C0.62 29.47, 0.93 19.91, 0 12.5 M0 12.5 C-1.9 2.92, 4.35 -0.87, 12.5 0 M0 12.5 C-0.52 5.78, 4.77 0.75, 12.5 0" stroke="#FFFFFF" stroke-width="1" fill="none"></path></g><g transform="translate(162.25604248046875 585) rotate(0 67.74395751953125 10)"><text x="67.74395751953125" y="0" font-family="Virgil, Segoe UI Emoji" font-size="16px" fill="#FFFFFF" text-anchor="middle" style="white-space: pre;" direction="ltr" dominant-baseline="text-before-edge">Click send button</text></g><g stroke-linecap="round" transform="translate(30 110) rotate(0 60 20)"><path d="M2.66 2.31 C2.66 2.31, 2.66 2.31, 2.66 2.31 M2.66 2.31 C2.66 2.31, 2.66 2.31, 2.66 2.31 M0.43 10.98 C2.94 9.71, 5.91 4.77, 10.27 -0.34 M0.43 10.98 C3.44 8.46, 5.69 5.33, 10.27 -0.34 M0.83 16.62 C3.58 11.91, 10.4 6.64, 13.29 2.28 M0.83 16.62 C5.82 11.39, 9.55 7.28, 13.29 2.28 M1.22 22.26 C8.76 16.15, 12.7 9.69, 18.28 2.64 M1.22 22.26 C5.2 16.33, 11.79 10.12, 18.28 2.64 M0.96 28.66 C6.8 24.46, 8.41 19.11, 23.27 3 M0.96 28.66 C5.08 23.63, 10.55 18.08, 23.27 3 M0.7 35.06 C10.62 23.71, 22.97 9.97, 28.91 2.6 M0.7 35.06 C10.04 25.6, 18.36 16.04, 28.91 2.6 M3.72 37.68 C11.66 26.17, 20.41 16.94, 33.9 2.97 M3.72 37.68 C14.09 26.42, 23.93 14.22, 33.9 2.97 M6.74 40.31 C18.36 28.21, 30.15 13.88, 39.54 2.57 M6.74 40.31 C16.13 29.45, 26.74 17.57, 39.54 2.57 M11.72 40.67 C20.77 33.22, 27.47 23.21, 44.53 2.93 M11.72 40.67 C22.61 29.56, 31.88 16.74, 44.53 2.93 M17.37 40.27 C25.75 29.97, 33.25 20.01, 50.17 2.54 M17.37 40.27 C25.49 30.91, 36.18 20.61, 50.17 2.54 M22.35 40.63 C34.64 25.11, 47.23 10, 55.16 2.9 M22.35 40.63 C34.66 26.61, 44.53 14.23, 55.16 2.9 M28 40.24 C39.45 27.03, 53.35 14.62, 60.14 3.26 M28 40.24 C36.96 29.9, 46.66 19.58, 60.14 3.26 M32.98 40.6 C45.48 27.26, 55.39 17.19, 65.79 2.86 M32.98 40.6 C39.39 32.56, 47.42 24.57, 65.79 2.86 M38.63 40.2 C44.81 31.22, 54.22 20.58, 70.77 3.22 M38.63 40.2 C51.88 26.64, 63.47 12.6, 70.77 3.22 M43.61 40.56 C56.14 28.59, 66.69 11.99, 76.42 2.83 M43.61 40.56 C51.16 31.5, 59.47 23.55, 76.42 2.83 M48.6 40.92 C56.99 28.14, 68.21 16.19, 81.4 3.19 M48.6 40.92 C58.89 30.84, 66.96 19.14, 81.4 3.19 M54.24 40.53 C65.25 29.12, 74.22 16.6, 87.05 2.79 M54.24 40.53 C65.44 28.01, 77.72 14.86, 87.05 2.79 M59.23 40.89 C70.3 28.59, 83.72 14.78, 92.03 3.15 M59.23 40.89 C68.29 30.7, 77.81 19.76, 92.03 3.15 M64.87 40.49 C78.38 26.97, 90.06 9.31, 97.68 2.76 M64.87 40.49 C71.76 31.93, 80.04 21.47, 97.68 2.76 M69.86 40.85 C77.74 32.72, 81.54 25.52, 102.66 3.12 M69.86 40.85 C82.32 28.28, 93.34 13.68, 102.66 3.12 M75.5 40.46 C83.69 28.22, 95.23 16.52, 107.65 3.48 M75.5 40.46 C88.57 25.96, 101.32 11.58, 107.65 3.48 M80.49 40.82 C88.38 29.09, 99.17 22.12, 115.26 0.82 M80.49 40.82 C89.35 30.1, 98.44 20.16, 115.26 0.82 M86.13 40.42 C93.84 31.14, 99.87 26.15, 117.62 4.2 M86.13 40.42 C94.06 31.45, 103.42 21.53, 117.62 4.2 M91.12 40.78 C98.36 31.88, 107.79 20.94, 120.64 6.82 M91.12 40.78 C96.78 32.74, 104.4 27.24, 120.64 6.82 M96.11 41.14 C100.84 33.23, 109.22 25.46, 120.38 13.22 M96.11 41.14 C102.14 34.24, 108.45 27.38, 120.38 13.22 M101.75 40.75 C109.32 34.84, 113.25 27.2, 120.78 18.86 M101.75 40.75 C106.68 36.52, 109.17 31.38, 120.78 18.86 M106.74 41.11 C112.93 37.44, 116.85 32.77, 120.52 25.26 M106.74 41.11 C110.36 38.05, 113.64 33.88, 120.52 25.26 M111.72 41.47 C113.95 38.58, 114.68 38.54, 120.91 30.9 M111.72 41.47 C114.68 37.04, 118.44 33.75, 120.91 30.9" stroke="#fa5252" stroke-width="0.5" fill="none"></path><path d="M10 0 M10 0 C36.16 -0.84, 67.04 1.08, 110 0 M10 0 C38.43 -0.78, 64.07 -0.66, 110 0 M110 0 C115.81 1.37, 119.67 2.07, 120 10 M110 0 C118.81 1.1, 119.38 3.43, 120 10 M120 10 C120.65 16.66, 118.64 20.54, 120 30 M120 10 C119.31 14.71, 120.53 18.04, 120 30 M120 30 C120.38 36.93, 116.12 38.36, 110 40 M120 30 C118.78 36.79, 116.51 37.94, 110 40 M110 40 C83.39 41.53, 55.65 39.69, 10 40 M110 40 C80.3 39, 49.3 39.21, 10 40 M10 40 C1.79 38.83, -1.28 34.73, 0 30 M10 40 C3.49 41.99, -1.6 37.34, 0 30 M0 30 C-0.45 25.54, -1.68 18.97, 0 10 M0 30 C-0.59 21.98, 0.6 14.68, 0 10 M0 10 C0.94 1.81, 4.44 1.85, 10 0 M0 10 C-1.85 1.27, 4.6 -0.26, 10 0" stroke="#FFFFFF" stroke-width="1" fill="none"></path></g><g transform="translate(44.296043395996094 120) rotate(0 45.703956604003906 10)"><text x="45.703956604003906" y="0" font-family="Virgil, Segoe UI Emoji" font-size="16px" fill="#FFFFFF" text-anchor="middle" style="white-space: pre;" direction="ltr" dominant-baseline="text-before-edge">Add project</text></g><g stroke-linecap="round"><g transform="translate(230 50) rotate(0 -70.29068197224291 29.342149266600615)"><path d="M0.26 -0.06 C-19.46 3.12, -95.95 9.59, -119.34 19.44 C-142.72 29.28, -136.77 52.17, -140.05 59.02 M-1.06 -1.14 C-20.79 2.17, -96.64 10.52, -119.94 20.68 C-143.24 30.84, -137.78 53.57, -140.84 59.82" stroke="#FFFFFF" stroke-width="1" fill="none"></path></g><g transform="translate(230 50) rotate(0 -70.29068197224291 29.342149266600615)"><path d="M-145.23 38.98 C-145.09 42.51, -144.86 48.91, -140.01 60.66 M-144.68 37.39 C-143.18 42.68, -143.02 46.31, -140.15 60.51" stroke="#FFFFFF" stroke-width="1" fill="none"></path></g><g transform="translate(230 50) rotate(0 -70.29068197224291 29.342149266600615)"><path d="M-130.12 41.35 C-133.24 44.41, -136.27 50.3, -140.01 60.66 M-129.57 39.77 C-131.29 44.49, -134.33 47.61, -140.15 60.51" stroke="#FFFFFF" stroke-width="1" fill="none"></path></g></g><mask></mask><g stroke-linecap="round"><g transform="translate(230 50) rotate(0 70.5151009032596 30.08349929563701)"><path d="M0.96 -0.67 C17.64 2.54, 75.91 9.83, 99.25 20.08 C122.6 30.33, 134.18 54.36, 141.03 60.83 M0 1.6 C17.14 4.94, 78.11 12.1, 101.57 21.65 C125.04 31.21, 134.27 52.63, 140.8 58.93" stroke="#FFFFFF" stroke-width="1" fill="none"></path></g><g transform="translate(230 50) rotate(0 70.5151009032596 30.08349929563701)"><path d="M115.84 42.48 C122.72 48.78, 129.52 51.15, 138.99 58.86 M115.98 43.2 C121.78 47.02, 127.47 50.99, 140.11 58.99" stroke="#FFFFFF" stroke-width="1" fill="none"></path></g><g transform="translate(230 50) rotate(0 70.5151009032596 30.08349929563701)"><path d="M131.2 30.71 C134.59 39.86, 137.83 44.96, 138.99 58.86 M131.34 31.42 C133.97 37.74, 136.45 44.17, 140.11 58.99" stroke="#FFFFFF" stroke-width="1" fill="none"></path></g></g><mask></mask><g stroke-linecap="round"><g transform="translate(90 150) rotate(0 43.614931874891624 19.52411564449781)"><path d="M-0.82 -0.89 C6.02 2.09, 25.42 12.26, 40.23 18.86 C55.04 25.47, 80.2 35.28, 88.05 38.75 M0.96 1.26 C7.73 4.26, 25.05 13.36, 39.41 19.8 C53.77 26.25, 79.18 36.99, 87.11 39.94" stroke="#FFFFFF" stroke-width="1" fill="none"></path></g><g transform="translate(90 150) rotate(0 43.614931874891624 19.52411564449781)"><path d="M59.67 39.52 C65.29 38.97, 72.8 37.91, 88.22 41.72 M61.3 39.95 C69.95 38.99, 78.97 39.03, 87.22 40.87" stroke="#FFFFFF" stroke-width="1" fill="none"></path></g><g transform="translate(90 150) rotate(0 43.614931874891624 19.52411564449781)"><path d="M66.26 23.02 C70.48 26.25, 76.46 29.02, 88.22 41.72 M67.89 23.44 C74.34 28.01, 81.14 33.58, 87.22 40.87" stroke="#FFFFFF" stroke-width="1" fill="none"></path></g></g><mask></mask><g stroke-linecap="round"><g transform="translate(370 150) rotate(0 -49.10907251540573 19.591120971478517)"><path d="M-0.06 0.47 C-9.95 3.82, -42.76 13.08, -59.02 19.58 C-75.28 26.09, -91.09 36.14, -97.6 39.5 M-1.54 -0.32 C-11.54 3.23, -43.35 14.61, -59.46 20.9 C-75.56 27.2, -91.76 34.64, -98.16 37.43" stroke="#FFFFFF" stroke-width="1" fill="none"></path></g><g transform="translate(370 150) rotate(0 -49.10907251540573 19.591120971478517)"><path d="M-82.07 24.32 C-88.66 28.21, -92.18 32.27, -96.85 36.44 M-82.64 22.72 C-88.11 28.3, -93.26 31.98, -98.25 38.11" stroke="#FFFFFF" stroke-width="1" fill="none"></path></g><g transform="translate(370 150) rotate(0 -49.10907251540573 19.591120971478517)"><path d="M-76.18 37.6 C-84.66 37.1, -90.12 36.79, -96.85 36.44 M-76.75 36 C-84.25 37.21, -91.33 36.55, -98.25 38.11" stroke="#FFFFFF" stroke-width="1" fill="none"></path></g></g><mask></mask><g stroke-linecap="round"><g transform="translate(232.59536566927477 221) rotate(0 -1.5092004227152245 24.01018881420606)"><path d="M0.34 0.43 C-0.24 8.65, -1.88 40.52, -2.45 48.41 M-0.93 -0.39 C-1.76 7.55, -2.82 38.27, -3.36 46.5" stroke="#FFFFFF" stroke-width="1" fill="none"></path></g><g transform="translate(232.59536566927477 221) rotate(0 -1.5092004227152245 24.01018881420606)"><path d="M-9.73 23.66 C-7.2 31.43, -5.5 39.64, -5.28 48.16 M-11.28 24.35 C-7.75 30.51, -4.62 39.25, -4.25 47.16" stroke="#FFFFFF" stroke-width="1" fill="none"></path></g><g transform="translate(232.59536566927477 221) rotate(0 -1.5092004227152245 24.01018881420606)"><path d="M6.69 24.47 C2.85 31.98, -1.82 39.86, -5.28 48.16 M5.14 25.16 C3.15 31, 0.76 39.46, -4.25 47.16" stroke="#FFFFFF" stroke-width="1" fill="none"></path></g></g><mask></mask><g stroke-linecap="round"><g transform="translate(222.59568736623078 328) rotate(0 -63.16076557494654 20.060598245561124)"><path d="M0.19 -0.29 C-20.9 6.6, -104.72 33.44, -125.95 40.39 M-1.17 -1.49 C-22.41 5.64, -105.34 34.82, -126.51 41.61" stroke="#FFFFFF" stroke-width="1" fill="none"></path></g><g transform="translate(222.59568736623078 328) rotate(0 -63.16076557494654 20.060598245561124)"><path d="M-103.58 24.1 C-112.44 28.63, -118.93 37.42, -125.15 39.73 M-102.42 23.53 C-108.27 27.08, -113.9 32.5, -126.95 41.92" stroke="#FFFFFF" stroke-width="1" fill="none"></path></g><g transform="translate(222.59568736623078 328) rotate(0 -63.16076557494654 20.060598245561124)"><path d="M-97 43.54 C-108 41.28, -116.79 43.29, -125.15 39.73 M-95.84 42.97 C-103.16 41.98, -110.35 42.81, -126.95 41.92" stroke="#FFFFFF" stroke-width="1" fill="none"></path></g></g><mask></mask><g stroke-linecap="round"><g transform="translate(243.54622146666316 330) rotate(0 70.9121082896088 20.01505459696054)"><path d="M0.81 0.81 C24.56 7.08, 118.53 32.06, 142.05 38.55 M-0.22 0.18 C23.46 6.55, 117.77 33.58, 141.37 39.85" stroke="#FFFFFF" stroke-width="1" fill="none"></path></g><g transform="translate(243.54622146666316 330) rotate(0 70.9121082896088 20.01505459696054)"><path d="M112.8 43.05 C118.48 42.01, 128.26 39.88, 141.99 41.07 M111.44 42.39 C118.1 41.63, 123.13 41.24, 141.97 40.34" stroke="#FFFFFF" stroke-width="1" fill="none"></path></g><g transform="translate(243.54622146666316 330) rotate(0 70.9121082896088 20.01505459696054)"><path d="M118.29 23.28 C122.68 27.43, 131.03 30.45, 141.99 41.07 M116.92 22.61 C122.41 25.84, 126.33 29.44, 141.97 40.34" stroke="#FFFFFF" stroke-width="1" fill="none"></path></g></g><mask></mask><g stroke-linecap="round"><g transform="translate(95.06568683194234 411) rotate(0 61.84161089765095 28.761907434165494)"><path d="M0.04 -0.42 C20.93 9.39, 104.05 48, 125.08 57.78 M-1.4 -1.68 C19.32 8.4, 102.73 48.97, 123.94 59.21" stroke="#FFFFFF" stroke-width="1" fill="none"></path></g><g transform="translate(95.06568683194234 411) rotate(0 61.84161089765095 28.761907434165494)"><path d="M93.4 55.53 C102.08 58.24, 111.29 57.86, 125.09 58.8 M94.41 55.62 C102.06 56.46, 110.37 57.69, 124.82 59.67" stroke="#FFFFFF" stroke-width="1" fill="none"></path></g><g transform="translate(95.06568683194234 411) rotate(0 61.84161089765095 28.761907434165494)"><path d="M102.35 37.06 C108.36 44.96, 115.06 49.76, 125.09 58.8 M103.36 37.15 C108.53 42.84, 114.51 48.89, 124.82 59.67" stroke="#FFFFFF" stroke-width="1" fill="none"></path></g></g><mask></mask><g stroke-linecap="round"><g transform="translate(379.7791798740078 411) rotate(0 -69.86726541226852 28.888402523994444)"><path d="M0.23 -0.49 C-23.08 9.28, -116.21 48.18, -139.46 58.02 M-1.11 -1.79 C-24.54 8.24, -116.9 49.86, -139.96 59.57" stroke="#FFFFFF" stroke-width="1" fill="none"></path></g><g transform="translate(379.7791798740078 411) rotate(0 -69.86726541226852 28.888402523994444)"><path d="M-119.07 40.29 C-125.52 47.53, -131.83 53.21, -138.16 58.8 M-118.28 39.73 C-126.14 46.23, -134.22 53.87, -140.46 59.12" stroke="#FFFFFF" stroke-width="1" fill="none"></path></g><g transform="translate(379.7791798740078 411) rotate(0 -69.86726541226852 28.888402523994444)"><path d="M-110.84 59.09 C-119.92 60.11, -128.96 59.55, -138.16 58.8 M-110.05 58.53 C-120.92 58.23, -131.98 59.05, -140.46 59.12" stroke="#FFFFFF" stroke-width="1" fill="none"></path></g></g><mask></mask><g stroke-linecap="round"><g transform="translate(230.41268900819603 511) rotate(0 -0.031162949529715434 28.756133351428446)"><path d="M0.32 -0.98 C0.59 8.71, 0.9 47.65, 0.91 57.31 M-0.97 1.13 C-0.82 11.02, -0.8 49.04, -0.17 58.49" stroke="#FFFFFF" stroke-width="1" fill="none"></path></g><g transform="translate(230.41268900819603 511) rotate(0 -0.031162949529715434 28.756133351428446)"><path d="M-12.49 31.14 C-9.61 36.7, -7.53 45.45, 0.17 56.56 M-10.39 31.35 C-7.7 38.13, -5.78 43.3, -0.26 58.28" stroke="#FFFFFF" stroke-width="1" fill="none"></path></g><g transform="translate(230.41268900819603 511) rotate(0 -0.031162949529715434 28.756133351428446)"><path d="M7.34 30.56 C5.43 36.32, 2.73 45.21, 0.17 56.56 M9.45 30.78 C7.77 37.61, 5.33 42.91, -0.26 58.28" stroke="#FFFFFF" stroke-width="1" fill="none"></path></g></g><mask></mask></svg>