<svg version="1.1" xmlns="http://www.w3.org/2000/svg" viewBox="0 0 420 700" width="500" height="700" >
  <rect x="0" y="0" width="420" height="612" fill="#2A2A2A"></rect><g stroke-linecap="round" transform="translate(150 10) rotate(0 60 20)"><path d="M2.66 2.31 C2.66 2.31, 2.66 2.31, 2.66 2.31 M2.66 2.31 C2.66 2.31, 2.66 2.31, 2.66 2.31 M0.43 10.98 C1.83 7.81, 4.25 6.57, 10.27 -0.34 M0.43 10.98 C4.03 6.41, 8.42 2.5, 10.27 -0.34 M0.83 16.62 C2.17 12.03, 4.64 10.07, 13.29 2.28 M0.83 16.62 C4.99 11.63, 10.59 4.65, 13.29 2.28 M1.22 22.26 C5.52 14.1, 15.64 8.08, 18.28 2.64 M1.22 22.26 C7.83 15.99, 11.9 9.92, 18.28 2.64 M0.96 28.66 C10.38 20.73, 18.59 11.1, 23.27 3 M0.96 28.66 C8.35 21.51, 14.77 13.1, 23.27 3 M0.7 35.06 C6.84 28.84, 13.17 21.41, 28.91 2.6 M0.7 35.06 C7.46 28.08, 12.23 22.63, 28.91 2.6 M3.72 37.68 C12.4 30.02, 19.66 18.02, 33.9 2.97 M3.72 37.68 C15.09 23.93, 26.76 10.97, 33.9 2.97 M6.74 40.31 C14.85 32.63, 24.39 20.39, 39.54 2.57 M6.74 40.31 C18.21 27.24, 30.47 12.45, 39.54 2.57 M11.72 40.67 C20.31 27.02, 31 18.08, 44.53 2.93 M11.72 40.67 C24.01 27.45, 36.45 12.74, 44.53 2.93 M17.37 40.27 C28.78 25.43, 39.7 14.21, 50.17 2.54 M17.37 40.27 C24.28 33.52, 30.01 24.68, 50.17 2.54 M22.35 40.63 C31.35 29.18, 41.87 17.7, 55.16 2.9 M22.35 40.63 C33.28 29.57, 42.21 17.35, 55.16 2.9 M28 40.24 C36.56 31.45, 45.08 18.44, 60.14 3.26 M28 40.24 C35.78 30.94, 41.98 23.71, 60.14 3.26 M32.98 40.6 C44.98 27.64, 54.52 16.73, 65.79 2.86 M32.98 40.6 C43.94 28.86, 53.28 18.38, 65.79 2.86 M38.63 40.2 C51.03 27.47, 62.83 10.93, 70.77 3.22 M38.63 40.2 C48.24 28.93, 58.1 17.14, 70.77 3.22 M43.61 40.56 C57.58 25.19, 66.74 13.05, 76.42 2.83 M43.61 40.56 C55.11 26.5, 67.82 11.6, 76.42 2.83 M48.6 40.92 C56.61 32.64, 63.97 26.42, 81.4 3.19 M48.6 40.92 C57.34 31.17, 64.35 23.28, 81.4 3.19 M54.24 40.53 C65.22 30.34, 74.54 16.03, 87.05 2.79 M54.24 40.53 C62.43 30.69, 72.45 19.62, 87.05 2.79 M59.23 40.89 C71.32 26.22, 85.44 10.7, 92.03 3.15 M59.23 40.89 C72.84 25.32, 85.32 11.02, 92.03 3.15 M64.87 40.49 C73.64 30.99, 80.09 20.88, 97.68 2.76 M64.87 40.49 C77.99 25.28, 90.32 10.9, 97.68 2.76 M69.86 40.85 C80.82 26.68, 92.76 13.29, 102.66 3.12 M69.86 40.85 C77.87 30.73, 87.52 20.72, 102.66 3.12 M75.5 40.46 C84.83 33.59, 92.24 23.32, 107.65 3.48 M75.5 40.46 C83.31 30.65, 92.1 23.05, 107.65 3.48 M80.49 40.82 C91.11 27.65, 106.73 12, 115.26 0.82 M80.49 40.82 C93.27 27.95, 103.89 14.21, 115.26 0.82 M86.13 40.42 C96.38 30.62, 105.5 18.83, 117.62 4.2 M86.13 40.42 C95.22 30.94, 102.69 19.83, 117.62 4.2 M91.12 40.78 C101.95 29.56, 108.43 19.09, 120.64 6.82 M91.12 40.78 C102.4 27.32, 114.52 14.59, 120.64 6.82 M96.11 41.14 C102.19 34.98, 109.25 26.34, 120.38 13.22 M96.11 41.14 C105.05 29.59, 114.1 18.82, 120.38 13.22 M101.75 40.75 C107.51 36.13, 112.59 29.36, 120.78 18.86 M101.75 40.75 C108.93 31.9, 115.65 24.2, 120.78 18.86 M106.74 41.11 C110.1 35.14, 114.95 29.96, 120.52 25.26 M106.74 41.11 C111.9 34.59, 117.98 27.91, 120.52 25.26 M111.72 41.47 C115.3 38.63, 117.15 35.97, 120.91 30.9 M111.72 41.47 C115.61 37.77, 118.66 33.9, 120.91 30.9" stroke="#228be6" stroke-width="0.5" fill="none"></path><path d="M10 0 M10 0 C48.89 0.11, 87.89 1.02, 110 0 M10 0 C50.07 -1.55, 89.35 0.3, 110 0 M110 0 C117.69 -1.4, 121.51 2.59, 120 10 M110 0 C115.37 -2.29, 118.15 3.31, 120 10 M120 10 C119.73 18.16, 119.7 23.31, 120 30 M120 10 C119.9 17.47, 119.82 24.03, 120 30 M120 30 C118.01 35.78, 116.16 38.98, 110 40 M120 30 C122.1 38.37, 114.46 41.76, 110 40 M110 40 C82.48 38.19, 56.54 38.47, 10 40 M110 40 C87.47 39.93, 65.22 40.31, 10 40 M10 40 C2.28 39.09, -0.17 34.73, 0 30 M10 40 C3.96 41.98, 1.62 34.76, 0 30 M0 30 C-1.93 21.02, -1.46 16.43, 0 10 M0 30 C0.93 23.48, -0.61 17.14, 0 10 M0 10 C-0.66 3.84, 1.6 1.08, 10 0 M0 10 C-1.34 2.29, 1.11 2, 10 0" stroke="#FFFFFF" stroke-width="1" fill="none"></path></g><g transform="translate(194 20) rotate(0 16 10)"><text x="16" y="0" font-family="Virgil, Segoe UI Emoji" font-size="16px" fill="#FFFFFF" text-anchor="middle" style="white-space: pre;" direction="ltr" dominant-baseline="text-before-edge">开始</text></g><g stroke-linecap="round" transform="translate(290 110) rotate(0 60 20)"><path d="M2.66 2.31 C2.66 2.31, 2.66 2.31, 2.66 2.31 M2.66 2.31 C2.66 2.31, 2.66 2.31, 2.66 2.31 M0.43 10.98 C4.46 7.55, 4.35 4.62, 10.27 -0.34 M0.43 10.98 C2.41 8.78, 5.78 4.97, 10.27 -0.34 M0.83 16.62 C4.65 13.14, 9.21 6.87, 13.29 2.28 M0.83 16.62 C3.71 12.38, 7.34 10.04, 13.29 2.28 M1.22 22.26 C4.57 16.08, 7.97 13.31, 18.28 2.64 M1.22 22.26 C6.28 17.44, 12 11.12, 18.28 2.64 M0.96 28.66 C8.76 18.64, 17.95 8.54, 23.27 3 M0.96 28.66 C5.43 22.51, 9.98 17.55, 23.27 3 M0.7 35.06 C10.85 20.51, 22.06 9.23, 28.91 2.6 M0.7 35.06 C11.07 24.64, 20.32 13.34, 28.91 2.6 M3.72 37.68 C12.35 27.07, 20.41 21.36, 33.9 2.97 M3.72 37.68 C10.53 30.52, 17.18 22.54, 33.9 2.97 M6.74 40.31 C14.81 28.31, 25.58 17.91, 39.54 2.57 M6.74 40.31 C18.43 27.84, 27.58 16.37, 39.54 2.57 M11.72 40.67 C24.52 24.17, 38.53 13.04, 44.53 2.93 M11.72 40.67 C21.72 27.79, 33.98 15.58, 44.53 2.93 M17.37 40.27 C28.68 27.3, 40.12 12.05, 50.17 2.54 M17.37 40.27 C27.73 29.48, 38.69 16.92, 50.17 2.54 M22.35 40.63 C30.31 29.85, 41.15 17.8, 55.16 2.9 M22.35 40.63 C32.39 29.95, 41.3 18.02, 55.16 2.9 M28 40.24 C37.89 26.39, 51.33 13.91, 60.14 3.26 M28 40.24 C36.68 32.09, 43.99 22.74, 60.14 3.26 M32.98 40.6 C38.87 33.23, 47.36 25.8, 65.79 2.86 M32.98 40.6 C41.29 29.19, 51.24 19.49, 65.79 2.86 M38.63 40.2 C44.7 33.6, 52.37 24.67, 70.77 3.22 M38.63 40.2 C48.48 27.93, 59.82 15.72, 70.77 3.22 M43.61 40.56 C56.09 25.16, 68.53 13.6, 76.42 2.83 M43.61 40.56 C53.44 29.75, 62.47 20.45, 76.42 2.83 M48.6 40.92 C57.6 29.38, 66.36 21.3, 81.4 3.19 M48.6 40.92 C59.85 27.64, 70.68 15.76, 81.4 3.19 M54.24 40.53 C64.28 30.58, 69.7 22.16, 87.05 2.79 M54.24 40.53 C60.51 33.89, 68.5 25.73, 87.05 2.79 M59.23 40.89 C73.47 25.14, 84.75 9.03, 92.03 3.15 M59.23 40.89 C67.81 30.8, 78.33 19.58, 92.03 3.15 M64.87 40.49 C74.59 28, 89.78 12.17, 97.68 2.76 M64.87 40.49 C76.6 26.31, 87.81 14.03, 97.68 2.76 M69.86 40.85 C76.27 33.49, 87.29 22.93, 102.66 3.12 M69.86 40.85 C79.37 29.98, 89.63 17.01, 102.66 3.12 M75.5 40.46 C85.83 26.33, 100.39 13.26, 107.65 3.48 M75.5 40.46 C85.29 29.26, 96.66 16.84, 107.65 3.48 M80.49 40.82 C92.9 28.39, 104.46 14.95, 115.26 0.82 M80.49 40.82 C89.22 31.17, 97.28 22.74, 115.26 0.82 M86.13 40.42 C96.76 27.55, 104.51 19.79, 117.62 4.2 M86.13 40.42 C96.12 30.03, 104.85 18.08, 117.62 4.2 M91.12 40.78 C101.34 29.81, 113.82 15.44, 120.64 6.82 M91.12 40.78 C96.18 33.27, 102.58 26.64, 120.64 6.82 M96.11 41.14 C102.96 33.17, 109.73 24.78, 120.38 13.22 M96.11 41.14 C105.82 30.04, 114.55 19.57, 120.38 13.22 M101.75 40.75 C104.81 34.22, 112.19 27.88, 120.78 18.86 M101.75 40.75 C106.43 36.02, 110.97 31.01, 120.78 18.86 M106.74 41.11 C110.18 38.13, 114 31.29, 120.52 25.26 M106.74 41.11 C109.99 36.79, 113.88 33.09, 120.52 25.26 M111.72 41.47 C113.68 38.39, 118.93 34.25, 120.91 30.9 M111.72 41.47 C114.79 38.4, 117.08 36.62, 120.91 30.9" stroke="#fa5252" stroke-width="0.5" fill="none"></path><path d="M10 0 M10 0 C49.26 1.75, 86.51 -0.85, 110 0 M10 0 C41.62 -1.12, 72.73 -0.12, 110 0 M110 0 C117.54 -1.11, 121.32 5.15, 120 10 M110 0 C117.34 0.54, 119.01 3.15, 120 10 M120 10 C119.06 13.58, 119.7 19.28, 120 30 M120 10 C119.47 16.1, 119.66 23.55, 120 30 M120 30 C120.78 37.35, 117.1 41.84, 110 40 M120 30 C122.15 35.09, 114.52 37.74, 110 40 M110 40 C76.86 37.65, 42.33 40.2, 10 40 M110 40 C82.98 39.05, 54.8 39.05, 10 40 M10 40 C2.01 39.43, -0.64 36.76, 0 30 M10 40 C1.84 42.16, -0.18 35.86, 0 30 M0 30 C-1.53 25.06, 0.78 20.45, 0 10 M0 30 C-0.01 21.14, -0.12 14.21, 0 10 M0 10 C-0.88 5, 4.52 0.38, 10 0 M0 10 C-1.63 1.58, 3.26 1.79, 10 0" stroke="#FFFFFF" stroke-width="1" fill="none"></path></g><g transform="translate(310 120) rotate(0 40 10)"><text x="40" y="0" font-family="Virgil, Segoe UI Emoji" font-size="16px" fill="#FFFFFF" text-anchor="middle" style="white-space: pre;" direction="ltr" dominant-baseline="text-before-edge">配置环境名</text></g><g stroke-linecap="round" transform="translate(150 190) rotate(0 60 15)"><path d="M2 1.74 C2 1.74, 2 1.74, 2 1.74 M2 1.74 C2 1.74, 2 1.74, 2 1.74 M1.08 8.89 C4.38 5.16, 6.91 1.4, 8.3 0.59 M1.08 8.89 C3.78 6.38, 5.88 3.37, 8.3 0.59 M1.47 14.53 C3.33 9.94, 8.31 6.32, 13.28 0.95 M1.47 14.53 C6.18 8.55, 10.12 2.84, 13.28 0.95 M1.87 20.17 C10.08 14.46, 12.85 3.96, 18.93 0.55 M1.87 20.17 C7.17 14, 11.74 7.58, 18.93 0.55 M1.61 26.57 C10.69 14.78, 17.96 7.42, 23.91 0.91 M1.61 26.57 C7.33 19.63, 14.79 12.25, 23.91 0.91 M3.97 29.95 C10.83 23.07, 19.92 14.88, 29.56 0.52 M3.97 29.95 C9.14 24.26, 13.72 18.45, 29.56 0.52 M9.61 29.56 C20.06 19.42, 28.19 8.37, 34.54 0.88 M9.61 29.56 C17.73 19.99, 27.78 7.67, 34.54 0.88 M14.6 29.92 C20.3 22.03, 26.16 15.8, 40.19 0.48 M14.6 29.92 C22.12 21.81, 27.18 14.76, 40.19 0.48 M20.24 29.52 C25.95 22.59, 31.82 13.14, 45.17 0.84 M20.24 29.52 C25.84 22.02, 32.71 15.28, 45.17 0.84 M25.23 29.88 C32.88 19.53, 41.46 10.49, 50.16 1.2 M25.23 29.88 C34.13 19.4, 43.21 8.44, 50.16 1.2 M30.87 29.49 C37.87 20.79, 42.83 12.59, 55.8 0.81 M30.87 29.49 C37.96 20.39, 45.61 12.65, 55.8 0.81 M35.86 29.85 C43.43 23.36, 47.76 16.41, 60.79 1.17 M35.86 29.85 C45.59 18.76, 55.39 8.62, 60.79 1.17 M41.5 29.45 C47.48 22.11, 53.31 18.83, 66.43 0.77 M41.5 29.45 C49.57 19.87, 57.16 10.32, 66.43 0.77 M46.49 29.81 C51.5 23.02, 59.9 14.57, 71.42 1.13 M46.49 29.81 C53.02 23.25, 59.22 16.04, 71.42 1.13 M52.13 29.42 C59.77 16.39, 72.12 8.51, 77.06 0.74 M52.13 29.42 C57.39 23.72, 62.91 17.14, 77.06 0.74 M57.12 29.78 C63.46 20.18, 69.92 13.03, 82.05 1.1 M57.12 29.78 C64.72 22.18, 70.11 13.89, 82.05 1.1 M62.11 30.14 C69.3 22.38, 76.9 14.87, 87.69 0.7 M62.11 30.14 C69.98 20.26, 79.57 10.07, 87.69 0.7 M67.75 29.74 C75.72 17.18, 86.63 9.27, 92.68 1.06 M67.75 29.74 C74.68 23.08, 80.54 16.07, 92.68 1.06 M72.74 30.1 C82.75 20.03, 90.23 12.27, 98.32 0.67 M72.74 30.1 C80.43 20.71, 89.48 10.53, 98.32 0.67 M78.38 29.71 C83.94 22.7, 92.29 14.2, 103.31 1.03 M78.38 29.71 C87.11 20.61, 95.15 10.34, 103.31 1.03 M83.37 30.07 C89.31 21.78, 97.51 13.47, 108.3 1.39 M83.37 30.07 C91.79 20.62, 98.5 13.04, 108.3 1.39 M89.01 29.67 C98.48 19.41, 109.54 8.23, 113.94 1 M89.01 29.67 C94.74 23.17, 100.51 16.67, 113.94 1 M94 30.03 C98.36 23.52, 107.14 14.68, 118.27 2.11 M94 30.03 C101.03 23.19, 107.33 15.06, 118.27 2.11 M99.64 29.64 C105.54 22.11, 111.18 17.32, 120.63 5.49 M99.64 29.64 C105.95 23.06, 111.64 15.45, 120.63 5.49 M104.63 30 C111.57 21.72, 115.85 17.12, 121.03 11.13 M104.63 30 C109.53 24.08, 115.66 18.24, 121.03 11.13 M109.61 30.36 C114.33 24.88, 115.62 20.98, 120.77 17.53 M109.61 30.36 C112.77 26.96, 114.98 24.22, 120.77 17.53 M113.95 31.48 C115.67 28.9, 117.78 26.29, 120.51 23.93 M113.95 31.48 C115.94 28.54, 118.27 25.84, 120.51 23.93" stroke="#12b886" stroke-width="0.5" fill="none"></path><path d="M7.5 0 M7.5 0 C36.34 -1.01, 68.01 -2.49, 112.5 0 M7.5 0 C42.72 -0.53, 78.01 0.47, 112.5 0 M112.5 0 C115.62 1.56, 120.89 2.58, 120 7.5 M112.5 0 C117.42 -0.4, 118.06 1.11, 120 7.5 M120 7.5 C121.19 14.24, 120.59 17.64, 120 22.5 M120 7.5 C119.4 10.71, 120.63 14.85, 120 22.5 M120 22.5 C118.57 26.96, 118.72 29.35, 112.5 30 M120 22.5 C119.12 29.04, 116.72 31.44, 112.5 30 M112.5 30 C83.47 32.4, 55.01 29.56, 7.5 30 M112.5 30 C77.32 30.48, 43.91 29.43, 7.5 30 M7.5 30 C0.63 30.22, -1.51 25.73, 0 22.5 M7.5 30 C3.4 28.75, 1 26.15, 0 22.5 M0 22.5 C-0.54 19, 0.55 13.71, 0 7.5 M0 22.5 C-0.3 18.04, 0.87 15.06, 0 7.5 M0 7.5 C0.68 3.27, 0.99 -0.58, 7.5 0 M0 7.5 C-0.64 3.22, 2.63 -0.98, 7.5 0" stroke="#FFFFFF" stroke-width="1" fill="none"></path></g><g transform="translate(178 195) rotate(0 32 10)"><text x="32" y="0" font-family="Virgil, Segoe UI Emoji" font-size="16px" fill="#FFFFFF" text-anchor="middle" style="white-space: pre;" direction="ltr" dominant-baseline="text-before-edge">设置域名</text></g><g stroke-linecap="round" transform="translate(150 270) rotate(0 60 20)"><path d="M2.66 2.31 C2.66 2.31, 2.66 2.31, 2.66 2.31 M2.66 2.31 C2.66 2.31, 2.66 2.31, 2.66 2.31 M0.43 10.98 C4.45 5.52, 7.11 0.51, 10.27 -0.34 M0.43 10.98 C4.82 7.39, 7.12 2, 10.27 -0.34 M0.83 16.62 C5.05 11.77, 7.85 6.35, 13.29 2.28 M0.83 16.62 C5.88 10.16, 10.07 5.82, 13.29 2.28 M1.22 22.26 C4.8 17.64, 11.53 12.27, 18.28 2.64 M1.22 22.26 C5.82 17.41, 11.57 11.93, 18.28 2.64 M0.96 28.66 C5.56 24.05, 8.94 19.09, 23.27 3 M0.96 28.66 C9.81 19.51, 17.44 9.89, 23.27 3 M0.7 35.06 C9.08 25.09, 21.14 9.68, 28.91 2.6 M0.7 35.06 C7.42 26.77, 14.14 19.3, 28.91 2.6 M3.72 37.68 C13.3 27.65, 17.9 19.92, 33.9 2.97 M3.72 37.68 C11.16 29.08, 18.58 19.21, 33.9 2.97 M6.74 40.31 C13.63 30.19, 23 21.71, 39.54 2.57 M6.74 40.31 C17.16 27.38, 28.14 15.17, 39.54 2.57 M11.72 40.67 C23.14 26.89, 34.98 12.24, 44.53 2.93 M11.72 40.67 C20.71 29.98, 28.68 19.56, 44.53 2.93 M17.37 40.27 C26.41 28.11, 36.4 18.76, 50.17 2.54 M17.37 40.27 C25.95 31.12, 33.11 21.91, 50.17 2.54 M22.35 40.63 C35.22 25.94, 48.24 13.21, 55.16 2.9 M22.35 40.63 C29.51 31.87, 36.82 25.18, 55.16 2.9 M28 40.24 C38.34 27.71, 47.7 15.32, 60.14 3.26 M28 40.24 C35.84 30.97, 45.15 20.86, 60.14 3.26 M32.98 40.6 C41.75 32.23, 49.97 22.63, 65.79 2.86 M32.98 40.6 C44.55 25.05, 58.7 11.95, 65.79 2.86 M38.63 40.2 C45.25 33.2, 52.34 24.58, 70.77 3.22 M38.63 40.2 C47.32 29.09, 56.18 19.05, 70.77 3.22 M43.61 40.56 C54.26 30.51, 60.46 19.19, 76.42 2.83 M43.61 40.56 C53.08 30.01, 62.82 19.42, 76.42 2.83 M48.6 40.92 C58.08 28.22, 71.13 14.88, 81.4 3.19 M48.6 40.92 C60.24 25.64, 73.49 12.72, 81.4 3.19 M54.24 40.53 C64.03 32.08, 71.59 22.87, 87.05 2.79 M54.24 40.53 C65.79 28.11, 76.1 16.67, 87.05 2.79 M59.23 40.89 C68.71 29.14, 80.75 15.75, 92.03 3.15 M59.23 40.89 C67.24 31.36, 76.75 20.97, 92.03 3.15 M64.87 40.49 C76.5 29.11, 86.69 15.32, 97.68 2.76 M64.87 40.49 C73.75 29.61, 83.61 18.82, 97.68 2.76 M69.86 40.85 C81.4 28.05, 89.61 18.88, 102.66 3.12 M69.86 40.85 C82.53 26.91, 95.81 12.4, 102.66 3.12 M75.5 40.46 C83.17 31.8, 90.92 23.16, 107.65 3.48 M75.5 40.46 C82.86 31.15, 92.38 20.84, 107.65 3.48 M80.49 40.82 C90.67 31.52, 99.36 19.77, 115.26 0.82 M80.49 40.82 C89.62 30.23, 98.4 20.98, 115.26 0.82 M86.13 40.42 C95.78 30.61, 104.29 18.7, 117.62 4.2 M86.13 40.42 C97.34 27.33, 107.4 15.92, 117.62 4.2 M91.12 40.78 C99.93 30.09, 111.18 19.58, 120.64 6.82 M91.12 40.78 C101.24 29.34, 109.13 18.84, 120.64 6.82 M96.11 41.14 C103.12 33.66, 107.87 27.72, 120.38 13.22 M96.11 41.14 C103.55 32.03, 111.43 22.77, 120.38 13.22 M101.75 40.75 C107.15 32, 113.85 24.21, 120.78 18.86 M101.75 40.75 C106.98 34.29, 113.44 27.42, 120.78 18.86 M106.74 41.11 C110.87 34.55, 115.11 31.2, 120.52 25.26 M106.74 41.11 C109.49 37.75, 112.11 33.68, 120.52 25.26 M111.72 41.47 C114.1 40.03, 116.93 36.94, 120.91 30.9 M111.72 41.47 C113.55 38.81, 115.38 37.79, 120.91 30.9" stroke="#fab005" stroke-width="0.5" fill="none"></path><path d="M10 0 M10 0 C48.15 -0.38, 83.11 1.61, 110 0 M10 0 C37.3 0.67, 62.93 1.29, 110 0 M110 0 C116.04 -0.84, 120.61 3.16, 120 10 M110 0 C117.44 -1.04, 120.29 5.32, 120 10 M120 10 C118.3 12.39, 120.6 17.23, 120 30 M120 10 C120.53 17.67, 119.59 24.69, 120 30 M120 30 C120.87 38.04, 115.65 38.23, 110 40 M120 30 C121.86 35.35, 114.47 42.27, 110 40 M110 40 C77.94 39.8, 48.33 41.01, 10 40 M110 40 C78.83 39.93, 49.59 39.88, 10 40 M10 40 C5.25 38.87, 0.96 35.6, 0 30 M10 40 C3.54 41.75, -1.23 37.66, 0 30 M0 30 C-1.75 23.24, 0.39 15.02, 0 10 M0 30 C-0.15 23, 0.14 13.89, 0 10 M0 10 C-0.2 4.75, 1.74 1, 10 0 M0 10 C0.68 1.72, 2.43 -0.5, 10 0" stroke="#FFFFFF" stroke-width="1" fill="none"></path></g><g transform="translate(170 280) rotate(0 40 10)"><text x="40" y="0" font-family="Virgil, Segoe UI Emoji" font-size="16px" fill="#FFFFFF" text-anchor="middle" style="white-space: pre;" direction="ltr" dominant-baseline="text-before-edge">返回主界面</text></g><g stroke-linecap="round" transform="translate(50 370) rotate(0 60 20)"><path d="M2.66 2.31 C2.66 2.31, 2.66 2.31, 2.66 2.31 M2.66 2.31 C2.66 2.31, 2.66 2.31, 2.66 2.31 M0.43 10.98 C3.02 7.15, 5.17 5.25, 10.27 -0.34 M0.43 10.98 C2.59 7.26, 6.44 4.44, 10.27 -0.34 M0.83 16.62 C6.81 11.46, 12.11 5.15, 13.29 2.28 M0.83 16.62 C6.07 12.18, 10.7 5.13, 13.29 2.28 M1.22 22.26 C7.08 15.21, 12.57 11.25, 18.28 2.64 M1.22 22.26 C5.5 17.57, 9.31 13.32, 18.28 2.64 M0.96 28.66 C11.15 19.24, 15.9 9.07, 23.27 3 M0.96 28.66 C6.45 21.5, 12.75 15.05, 23.27 3 M0.7 35.06 C9.27 22.36, 20.12 12.16, 28.91 2.6 M0.7 35.06 C7.81 26.61, 13.63 18.78, 28.91 2.6 M3.72 37.68 C13.02 26.26, 23.95 15.98, 33.9 2.97 M3.72 37.68 C13.32 26.06, 23.64 15.14, 33.9 2.97 M6.74 40.31 C16.07 28.84, 24.49 18.94, 39.54 2.57 M6.74 40.31 C16.15 28.11, 25.83 17.58, 39.54 2.57 M11.72 40.67 C24.47 24.65, 40.02 9.53, 44.53 2.93 M11.72 40.67 C24.26 26, 36.77 12.55, 44.53 2.93 M17.37 40.27 C26.51 30.12, 37.6 17.19, 50.17 2.54 M17.37 40.27 C29.8 25.78, 44.3 10.41, 50.17 2.54 M22.35 40.63 C32.64 27.06, 43.04 15.45, 55.16 2.9 M22.35 40.63 C29.37 33.34, 35.54 25.04, 55.16 2.9 M28 40.24 C36.79 31.76, 44.34 23.84, 60.14 3.26 M28 40.24 C39.91 26.35, 54.23 10.67, 60.14 3.26 M32.98 40.6 C44.87 27.94, 55.1 15.96, 65.79 2.86 M32.98 40.6 C43.69 27.15, 55.42 14.6, 65.79 2.86 M38.63 40.2 C48.5 27.94, 57.06 17.31, 70.77 3.22 M38.63 40.2 C49.8 28.02, 60.91 16.43, 70.77 3.22 M43.61 40.56 C50.96 32.64, 57.68 25.3, 76.42 2.83 M43.61 40.56 C54.56 27.21, 67.89 13.13, 76.42 2.83 M48.6 40.92 C60.83 28.89, 72.31 14.78, 81.4 3.19 M48.6 40.92 C58.85 29.24, 70.04 17.41, 81.4 3.19 M54.24 40.53 C66.79 27.18, 77.72 12.59, 87.05 2.79 M54.24 40.53 C65.98 28.1, 76.84 15.01, 87.05 2.79 M59.23 40.89 C71.29 28.07, 80.96 16.44, 92.03 3.15 M59.23 40.89 C66.89 31.96, 74.67 23.04, 92.03 3.15 M64.87 40.49 C71.83 30.29, 82.45 22.91, 97.68 2.76 M64.87 40.49 C72.49 32.95, 79.52 23.19, 97.68 2.76 M69.86 40.85 C78.86 31.16, 87.88 17.4, 102.66 3.12 M69.86 40.85 C79.13 30.98, 87.42 19.99, 102.66 3.12 M75.5 40.46 C87.8 27.85, 97.61 15.8, 107.65 3.48 M75.5 40.46 C81.79 32.77, 89.42 23.86, 107.65 3.48 M80.49 40.82 C88.23 32.5, 93.91 23.85, 115.26 0.82 M80.49 40.82 C92.69 25.81, 106.51 10.98, 115.26 0.82 M86.13 40.42 C98.13 28.53, 110.25 12.93, 117.62 4.2 M86.13 40.42 C92.16 31.65, 99.13 23.52, 117.62 4.2 M91.12 40.78 C100.81 29.03, 112.07 15.84, 120.64 6.82 M91.12 40.78 C101.19 28.97, 111.05 18.53, 120.64 6.82 M96.11 41.14 C104.22 29.52, 113.25 20.48, 120.38 13.22 M96.11 41.14 C100.94 36.07, 105.42 29.6, 120.38 13.22 M101.75 40.75 C105.89 33.68, 113.24 26.64, 120.78 18.86 M101.75 40.75 C108.81 32.3, 115.19 23.6, 120.78 18.86 M106.74 41.11 C113.6 36.25, 118.11 26.97, 120.52 25.26 M106.74 41.11 C109.18 37.25, 113.96 34.61, 120.52 25.26 M111.72 41.47 C113.4 38.46, 116.89 36.11, 120.91 30.9 M111.72 41.47 C115.36 37.37, 119.12 33.52, 120.91 30.9" stroke="#4c6ef5" stroke-width="0.5" fill="none"></path><path d="M10 0 M10 0 C36.48 -0.81, 61.88 1.81, 110 0 M10 0 C30.04 -0.99, 51.98 -0.65, 110 0 M110 0 C117.54 -1.18, 120.55 4.63, 120 10 M110 0 C118.51 -0.68, 122.17 4.33, 120 10 M120 10 C121.52 16.23, 117.98 26.73, 120 30 M120 10 C119.31 15.82, 119.79 22.54, 120 30 M120 30 C120.11 35.81, 116.38 38.79, 110 40 M120 30 C120.17 38.32, 116.72 42.2, 110 40 M110 40 C85.83 40.99, 60.24 40.34, 10 40 M110 40 C72.61 40.8, 37.16 40.35, 10 40 M10 40 C4.93 38.68, 2 36.11, 0 30 M10 40 C4.7 40.02, -2.11 36.44, 0 30 M0 30 C0.75 21.18, -0.63 14.74, 0 10 M0 30 C1.04 24.57, 0.58 17.27, 0 10 M0 10 C0.96 1.35, 3.95 0.9, 10 0 M0 10 C0.84 2.98, 1.26 2.03, 10 0" stroke="#FFFFFF" stroke-width="1" fill="none"></path></g><g transform="translate(70 380) rotate(0 40 10)"><text x="40" y="0" font-family="Virgil, Segoe UI Emoji" font-size="16px" fill="#FFFFFF" text-anchor="middle" style="white-space: pre;" direction="ltr" dominant-baseline="text-before-edge">选择项目名</text></g><g stroke-linecap="round" transform="translate(270 370) rotate(0 60 20)"><path d="M2.66 2.31 C2.66 2.31, 2.66 2.31, 2.66 2.31 M2.66 2.31 C2.66 2.31, 2.66 2.31, 2.66 2.31 M0.43 10.98 C3.85 8.02, 6.01 6.8, 10.27 -0.34 M0.43 10.98 C3.86 6.83, 6.19 4.58, 10.27 -0.34 M0.83 16.62 C5.38 13.43, 7.38 7.53, 13.29 2.28 M0.83 16.62 C5.12 12.06, 10.48 5.88, 13.29 2.28 M1.22 22.26 C3.14 17.15, 7.27 13.87, 18.28 2.64 M1.22 22.26 C5.97 16.8, 10.66 11.11, 18.28 2.64 M0.96 28.66 C10.03 17.94, 17.32 8.71, 23.27 3 M0.96 28.66 C5.83 21.61, 12.87 14.57, 23.27 3 M0.7 35.06 C7.75 28.2, 14.56 20.79, 28.91 2.6 M0.7 35.06 C8.44 26.76, 16.28 16.53, 28.91 2.6 M3.72 37.68 C10.9 28.28, 19.35 20.09, 33.9 2.97 M3.72 37.68 C12.65 27.14, 23.8 15.67, 33.9 2.97 M6.74 40.31 C17.22 29.6, 25.45 22.56, 39.54 2.57 M6.74 40.31 C19.62 26.67, 31.64 10.88, 39.54 2.57 M11.72 40.67 C23.4 27.24, 33.99 17.6, 44.53 2.93 M11.72 40.67 C24.11 27.78, 34.71 14.09, 44.53 2.93 M17.37 40.27 C26.35 28.68, 34.68 18.3, 50.17 2.54 M17.37 40.27 C24.04 31.69, 30.63 23.87, 50.17 2.54 M22.35 40.63 C33.32 30.07, 45.42 14.59, 55.16 2.9 M22.35 40.63 C30.2 31.94, 36.53 24.12, 55.16 2.9 M28 40.24 C37.34 29.75, 46.52 18.14, 60.14 3.26 M28 40.24 C36.59 30.26, 45.5 20.06, 60.14 3.26 M32.98 40.6 C44.55 25.78, 59.38 9.45, 65.79 2.86 M32.98 40.6 C43.15 30.27, 50.74 19.28, 65.79 2.86 M38.63 40.2 C44.65 33.89, 53.59 24.69, 70.77 3.22 M38.63 40.2 C47.06 31.18, 54.15 23.78, 70.77 3.22 M43.61 40.56 C57.45 25.88, 69.77 8.48, 76.42 2.83 M43.61 40.56 C56.9 26.32, 69.43 12.06, 76.42 2.83 M48.6 40.92 C56.36 30.88, 65.47 21.29, 81.4 3.19 M48.6 40.92 C56.68 31.48, 65.63 21.6, 81.4 3.19 M54.24 40.53 C65.34 28.26, 73.68 17.63, 87.05 2.79 M54.24 40.53 C61.87 31.73, 69.21 23.33, 87.05 2.79 M59.23 40.89 C72.74 28.76, 81.84 12.36, 92.03 3.15 M59.23 40.89 C68.68 28.99, 77.92 19.06, 92.03 3.15 M64.87 40.49 C74.67 26.54, 86.85 16.08, 97.68 2.76 M64.87 40.49 C70.98 32.53, 78.28 24.2, 97.68 2.76 M69.86 40.85 C81.38 27.85, 88.86 16.68, 102.66 3.12 M69.86 40.85 C80.67 28.06, 90.86 16.36, 102.66 3.12 M75.5 40.46 C84.52 28.71, 98.54 14.04, 107.65 3.48 M75.5 40.46 C87.84 26.68, 100.8 11.81, 107.65 3.48 M80.49 40.82 C90.5 28.91, 99.45 17.03, 115.26 0.82 M80.49 40.82 C92.8 25.55, 107.13 11.91, 115.26 0.82 M86.13 40.42 C97.73 26.69, 111.62 10.73, 117.62 4.2 M86.13 40.42 C94.13 31.72, 103.31 21.29, 117.62 4.2 M91.12 40.78 C97.4 32.74, 103.26 26.28, 120.64 6.82 M91.12 40.78 C98.25 31.69, 107.05 22.01, 120.64 6.82 M96.11 41.14 C103.69 31.78, 111.06 26.94, 120.38 13.22 M96.11 41.14 C102.65 32.1, 111.72 24.3, 120.38 13.22 M101.75 40.75 C108.41 31.76, 112.26 26.06, 120.78 18.86 M101.75 40.75 C108.15 35.36, 111.86 28.26, 120.78 18.86 M106.74 41.11 C113.1 34.77, 117.99 29.14, 120.52 25.26 M106.74 41.11 C112.76 34.99, 116.42 29.77, 120.52 25.26 M111.72 41.47 C114.54 39.64, 115.75 34.05, 120.91 30.9 M111.72 41.47 C114.93 37.89, 117.82 34.57, 120.91 30.9" stroke="#4c6ef5" stroke-width="0.5" fill="none"></path><path d="M10 0 M10 0 C42.15 1.09, 76.35 0.57, 110 0 M10 0 C34.36 -1.77, 60.85 -0.75, 110 0 M110 0 C117.34 0.77, 118.49 2.75, 120 10 M110 0 C116.02 0.72, 120.13 2.35, 120 10 M120 10 C121.32 15.76, 121.79 20.3, 120 30 M120 10 C120.65 16.43, 120.33 24.58, 120 30 M120 30 C120.31 37.73, 114.95 40.55, 110 40 M120 30 C120.48 36.25, 118.5 38.48, 110 40 M110 40 C70.04 38.76, 29.84 42.01, 10 40 M110 40 C87.27 39.9, 65.74 40.38, 10 40 M10 40 C2.36 41.35, 1.89 38.17, 0 30 M10 40 C4.43 39.15, 1.1 34.38, 0 30 M0 30 C-0.4 21.59, 1.68 14.9, 0 10 M0 30 C0.55 25.52, -0.1 20.34, 0 10 M0 10 C-1.57 4.86, 5.33 1.75, 10 0 M0 10 C-2.28 3.72, 1.75 -0.95, 10 0" stroke="#FFFFFF" stroke-width="1" fill="none"></path></g><g transform="translate(290 380) rotate(0 40 10)"><text x="40" y="0" font-family="Virgil, Segoe UI Emoji" font-size="16px" fill="#FFFFFF" text-anchor="middle" style="white-space: pre;" direction="ltr" dominant-baseline="text-before-edge">选择环境名</text></g><g stroke-linecap="round" transform="translate(90 470) rotate(0 120 20)"><path d="M2.66 2.31 C2.66 2.31, 2.66 2.31, 2.66 2.31 M2.66 2.31 C2.66 2.31, 2.66 2.31, 2.66 2.31 M3.06 7.96 C5.71 5.02, 7.21 2.57, 10.27 -0.34 M3.06 7.96 C4.72 5.44, 7.01 3.05, 10.27 -0.34 M2.79 14.35 C5.8 11.31, 7.75 6.64, 13.29 2.28 M2.79 14.35 C4.82 11.14, 7.4 8.26, 13.29 2.28 M2.53 20.75 C10.49 15.17, 15.79 6.26, 18.28 2.64 M2.53 20.75 C7.31 14.68, 12.99 8.68, 18.28 2.64 M2.93 26.4 C11.32 18.01, 17.75 9.41, 23.92 2.24 M2.93 26.4 C10.63 16.83, 19.02 6.78, 23.92 2.24 M2.67 32.79 C9.59 23.28, 17.36 17.19, 28.91 2.6 M2.67 32.79 C9.9 24.66, 18.06 16.21, 28.91 2.6 M3.06 38.44 C11.29 24.87, 20.61 16.04, 33.9 2.97 M3.06 38.44 C13.94 25.04, 26.61 11.89, 33.9 2.97 M7.39 39.55 C16.41 26.58, 27 13.75, 39.54 2.57 M7.39 39.55 C15.59 30.43, 24.89 19.1, 39.54 2.57 M11.07 41.42 C17.27 32.12, 27.31 23.24, 44.53 2.93 M11.07 41.42 C24.37 25.41, 37.64 11.08, 44.53 2.93 M16.71 41.03 C25.34 29.56, 32 21.05, 50.17 2.54 M16.71 41.03 C30.09 27.29, 42.69 12.52, 50.17 2.54 M21.7 41.39 C31.42 29.58, 44.25 15.25, 55.16 2.9 M21.7 41.39 C34.19 26.65, 46.3 13.29, 55.16 2.9 M27.34 40.99 C36.21 28.71, 47.48 19.23, 60.8 2.5 M27.34 40.99 C36.49 30.74, 46.08 19.8, 60.8 2.5 M32.33 41.35 C45.08 26.91, 55.58 14.69, 65.79 2.86 M32.33 41.35 C42.53 31.04, 51.13 18.98, 65.79 2.86 M37.97 40.96 C48.89 26.95, 62.56 14.51, 71.43 2.47 M37.97 40.96 C48.84 29.27, 58.94 17.63, 71.43 2.47 M42.96 41.32 C52.16 30.77, 59.07 24.62, 76.42 2.83 M42.96 41.32 C50.82 31.56, 61.1 21.08, 76.42 2.83 M48.6 40.92 C60.94 27.54, 71.87 13.83, 82.06 2.43 M48.6 40.92 C58.31 30.95, 67.25 20.3, 82.06 2.43 M53.59 41.28 C59.11 34.39, 65.63 24.93, 87.05 2.79 M53.59 41.28 C62.43 29.7, 72.91 19.48, 87.05 2.79 M59.23 40.89 C68.84 31.56, 76.49 18.04, 92.69 2.4 M59.23 40.89 C67.11 33.17, 73.5 24.46, 92.69 2.4 M64.22 41.25 C71.37 30.47, 80.99 20.5, 97.68 2.76 M64.22 41.25 C72.71 29.93, 81.66 19.4, 97.68 2.76 M69.86 40.85 C79.8 30.39, 87.16 22.48, 103.32 2.36 M69.86 40.85 C76.41 32.86, 82.64 24.86, 103.32 2.36 M74.85 41.21 C87.47 27.95, 97.88 14.44, 108.31 2.72 M74.85 41.21 C82.39 32.81, 90.31 24.95, 108.31 2.72 M80.49 40.82 C91.57 27.64, 102.01 14.46, 113.95 2.33 M80.49 40.82 C93 26.66, 105.99 10.66, 113.95 2.33 M85.48 41.18 C97.31 28.22, 110.94 12.11, 118.94 2.69 M85.48 41.18 C99.28 25.85, 112.68 10.1, 118.94 2.69 M91.12 40.78 C99.39 29.27, 110.21 15.24, 124.58 2.29 M91.12 40.78 C102.09 27.86, 114.68 15.33, 124.58 2.29 M96.11 41.14 C106.17 29.58, 112.07 21.8, 129.57 2.65 M96.11 41.14 C104.66 31.81, 113.11 21.37, 129.57 2.65 M101.09 41.5 C110.56 29.91, 119.4 18.93, 135.21 2.26 M101.09 41.5 C112.26 28.87, 122.27 16.84, 135.21 2.26 M106.74 41.11 C117.65 30.71, 127.42 18.58, 140.2 2.62 M106.74 41.11 C113.61 33.6, 120.3 25.56, 140.2 2.62 M111.72 41.47 C118.76 30.8, 131.11 18.94, 145.18 2.98 M111.72 41.47 C122.93 28.01, 135.13 14.27, 145.18 2.98 M117.37 41.08 C130.26 25.93, 142.57 10.53, 150.83 2.59 M117.37 41.08 C128.11 27.32, 140.22 14.56, 150.83 2.59 M122.36 41.44 C131.9 33.04, 139.04 23.06, 155.81 2.95 M122.36 41.44 C130.34 31.59, 137.04 23.37, 155.81 2.95 M128 41.04 C136.21 31.35, 143.3 21.37, 161.46 2.55 M128 41.04 C135.85 31.78, 146.32 20.96, 161.46 2.55 M132.99 41.4 C143.22 28.77, 156.41 15.18, 166.44 2.91 M132.99 41.4 C141.5 30.52, 151.29 20.93, 166.44 2.91 M138.63 41.01 C146.17 31.24, 153.16 25.56, 172.09 2.52 M138.63 41.01 C146.56 33.8, 153.93 24.82, 172.09 2.52 M143.62 41.37 C153.78 29.85, 162.62 18.1, 177.07 2.88 M143.62 41.37 C156.03 28.28, 166.7 13.87, 177.07 2.88 M149.26 40.97 C156.24 32.71, 164.98 25.88, 182.72 2.48 M149.26 40.97 C157.15 30.56, 165.99 20.82, 182.72 2.48 M154.25 41.33 C163.94 32.05, 173.98 19.1, 187.7 2.84 M154.25 41.33 C165.62 28.59, 175.59 15.87, 187.7 2.84 M159.89 40.94 C166.72 29.75, 177.67 22.03, 193.35 2.45 M159.89 40.94 C172.82 25.69, 187.48 10.62, 193.35 2.45 M164.88 41.3 C177.96 26.71, 191.55 12.71, 198.33 2.81 M164.88 41.3 C175.18 28.46, 187 16.99, 198.33 2.81 M170.52 40.9 C178.95 31.47, 185.72 22.62, 203.98 2.41 M170.52 40.9 C180.92 29.52, 191.33 18.6, 203.98 2.41 M175.51 41.26 C186.54 26.83, 200.37 10.8, 208.96 2.77 M175.51 41.26 C184.96 30.21, 194.06 18.77, 208.96 2.77 M181.15 40.87 C189.9 28.22, 199.84 19.79, 214.61 2.38 M181.15 40.87 C193.1 27.39, 205.23 13.85, 214.61 2.38 M186.14 41.23 C200.13 27.59, 211.47 11.69, 219.59 2.74 M186.14 41.23 C195.26 31.13, 204.76 18.5, 219.59 2.74 M191.78 40.83 C201.22 29.12, 211.25 17.97, 225.24 2.34 M191.78 40.83 C199.65 30.06, 207.91 22.28, 225.24 2.34 M196.77 41.19 C203.8 32.79, 212.36 21.61, 231.54 1.19 M196.77 41.19 C207.82 27.6, 220.38 14.58, 231.54 1.19 M202.41 40.8 C214.34 26.53, 227.55 11.11, 235.87 2.31 M202.41 40.8 C215.25 25.98, 227.05 11.21, 235.87 2.31 M207.4 41.16 C219.96 26.39, 230.82 13.89, 238.89 4.93 M207.4 41.16 C220.26 27.64, 231.68 12.39, 238.89 4.93 M213.04 40.77 C223.27 27.44, 235.18 19.18, 241.91 7.56 M213.04 40.77 C224.36 27.6, 234.71 15.35, 241.91 7.56 M218.03 41.13 C223.95 33.97, 227.73 31.08, 241.64 13.96 M218.03 41.13 C226.86 30.09, 237.33 18.59, 241.64 13.96 M223.01 41.49 C229.6 36.3, 231.47 30.67, 242.04 19.6 M223.01 41.49 C228.45 35.03, 232.32 30.5, 242.04 19.6 M228.66 41.09 C231.25 37.1, 232.9 34.68, 242.43 25.24 M228.66 41.09 C233.62 34.81, 240.2 29.65, 242.43 25.24 M232.99 42.21 C236.75 40.28, 239.27 36.92, 242.17 31.64 M232.99 42.21 C235.56 40.15, 237.69 36.14, 242.17 31.64" stroke="#e64980" stroke-width="0.5" fill="none"></path><path d="M10 0 M10 0 C85.71 0.35, 164.5 1.06, 230 0 M10 0 C97.1 1.9, 183.34 2.01, 230 0 M230 0 C234.67 -0.67, 241.31 2.26, 240 10 M230 0 C234.93 0.81, 241.46 1.41, 240 10 M240 10 C240.74 13.08, 241.69 18.67, 240 30 M240 10 C240.22 16.87, 239.79 24.79, 240 30 M240 30 C240.93 37.95, 237.5 40.81, 230 40 M240 30 C241.7 36.46, 238.5 41.8, 230 40 M230 40 C148.85 42.1, 67.43 42.02, 10 40 M230 40 C163.46 40.48, 97.24 40.8, 10 40 M10 40 C4.21 41.28, 0.99 37.31, 0 30 M10 40 C4.25 37.97, -0.63 37.21, 0 30 M0 30 C-1.83 25.33, 0.55 19.88, 0 10 M0 30 C-0.87 24.02, -0.92 19.11, 0 10 M0 10 C-0.84 3.22, 4.37 -1.12, 10 0 M0 10 C-0.62 2.76, 4.97 -1.28, 10 0" stroke="#FFFFFF" stroke-width="1" fill="none"></path></g><g transform="translate(116.57600402832031 480) rotate(0 93.42399597167969 10)"><text x="93.42399597167969" y="0" font-family="Virgil, Segoe UI Emoji" font-size="16px" fill="#FFFFFF" text-anchor="middle" style="white-space: pre;" direction="ltr" dominant-baseline="text-before-edge">点击方法左侧火箭R字图标</text></g><g stroke-linecap="round" transform="translate(150 570) rotate(0 58.5 16)"><path d="M2.13 1.85 C2.13 1.85, 2.13 1.85, 2.13 1.85 M2.13 1.85 C2.13 1.85, 2.13 1.85, 2.13 1.85 M1.21 9 C3.99 6.61, 4.07 4.96, 8.43 0.7 M1.21 9 C3.36 7.45, 5.16 5.15, 8.43 0.7 M1.61 14.65 C4.91 9.46, 9.07 5.78, 14.07 0.31 M1.61 14.65 C6.52 10.2, 10.09 4.82, 14.07 0.31 M1.35 21.04 C8.11 12.68, 13.96 5.6, 19.06 0.67 M1.35 21.04 C4.53 16.34, 8.71 12.04, 19.06 0.67 M1.08 27.44 C7.32 18.49, 16.2 11.6, 24.7 0.27 M1.08 27.44 C9.85 17.46, 15.87 8.09, 24.7 0.27 M3.45 30.82 C12.53 19.3, 20.44 11.7, 29.69 0.63 M3.45 30.82 C10.97 21.77, 17.43 13.49, 29.69 0.63 M6.47 33.45 C13.25 24.64, 21.64 18.19, 34.68 0.99 M6.47 33.45 C14.43 24.09, 21.48 16.64, 34.68 0.99 M12.11 33.05 C18.37 23.84, 26.11 14.38, 40.32 0.6 M12.11 33.05 C21.87 22.62, 29.6 11.29, 40.32 0.6 M17.1 33.41 C26.21 24.98, 35.55 15.25, 45.31 0.96 M17.1 33.41 C27.62 20.27, 38.88 8.71, 45.31 0.96 M22.74 33.02 C33.26 22.94, 40.39 11.96, 50.95 0.56 M22.74 33.02 C31.89 22.61, 39.68 13.36, 50.95 0.56 M27.73 33.38 C38.02 22.54, 47.86 12.37, 55.94 0.92 M27.73 33.38 C34.41 25.41, 41.8 16.3, 55.94 0.92 M32.71 33.74 C40.21 25.1, 50.95 13.22, 61.58 0.53 M32.71 33.74 C39.63 23.89, 48.25 15.5, 61.58 0.53 M38.36 33.34 C48.56 21.8, 59.71 9.13, 66.57 0.89 M38.36 33.34 C49.19 21.77, 59.25 9.01, 66.57 0.89 M43.34 33.7 C53.42 21.14, 63.03 13.49, 72.21 0.49 M43.34 33.7 C49.82 25.12, 58.41 15.77, 72.21 0.49 M48.99 33.31 C57.41 22.74, 69.67 10.75, 77.2 0.85 M48.99 33.31 C59.33 21.73, 68.72 10.69, 77.2 0.85 M53.97 33.67 C64.39 21.8, 71.37 13.15, 82.18 1.22 M53.97 33.67 C64.44 20.8, 77.13 6.96, 82.18 1.22 M59.62 33.27 C68.07 26.31, 75.19 16.76, 87.83 0.82 M59.62 33.27 C70.17 20.99, 79.43 9.96, 87.83 0.82 M64.6 33.63 C73.27 24.45, 77.85 15.89, 92.81 1.18 M64.6 33.63 C70.11 27.01, 76.92 19.09, 92.81 1.18 M70.25 33.24 C81.04 20.49, 91.74 6.92, 98.46 0.79 M70.25 33.24 C77.98 25.8, 84.32 17.17, 98.46 0.79 M75.23 33.6 C85.19 24.77, 91.82 17, 103.44 1.15 M75.23 33.6 C84.64 21.76, 95.42 9.52, 103.44 1.15 M80.22 33.96 C86.35 24.17, 96.86 15.02, 109.09 0.75 M80.22 33.96 C88.18 25.07, 95.8 17.05, 109.09 0.75 M85.86 33.56 C92.15 25.71, 100.25 17.21, 113.42 1.87 M85.86 33.56 C91.93 24.31, 99.98 16.41, 113.42 1.87 M90.85 33.92 C97.02 26.66, 102.1 22.92, 116.44 4.49 M90.85 33.92 C101.1 23.18, 109.88 10.42, 116.44 4.49 M96.49 33.53 C107.37 23.8, 114.82 14.39, 119.46 7.11 M96.49 33.53 C102.04 27.72, 106.45 21.59, 119.46 7.11 M101.48 33.89 C105.76 30.79, 108.82 24.96, 119.19 13.51 M101.48 33.89 C105.3 29.16, 110.86 23.85, 119.19 13.51 M107.12 33.5 C112.04 28.05, 117.56 22.08, 119.59 19.16 M107.12 33.5 C112.16 26.81, 117.04 22.63, 119.59 19.16" stroke="#40c057" stroke-width="0.5" fill="none"></path><path d="M8 0 M8 0 C28.84 -1.08, 52.06 -0.12, 109 0 M8 0 C34.13 -0.48, 58.39 -0.48, 109 0 M109 0 C112.35 0.62, 117.9 3.39, 117 8 M109 0 C113.98 -2.07, 119.03 0.52, 117 8 M117 8 C117.85 12.95, 116.81 16.77, 117 24 M117 8 C117.82 10.75, 117.26 14.53, 117 24 M117 24 C116.18 29.98, 114.53 31.68, 109 32 M117 24 C117.35 27.15, 114.67 31.05, 109 32 M109 32 C80.72 33.08, 49.65 31.65, 8 32 M109 32 C71.5 32.79, 33.66 31.55, 8 32 M8 32 C3.61 32.69, -0.93 28.87, 0 24 M8 32 C3.06 33.66, -1.82 28.65, 0 24 M0 24 C-0.3 21.68, -1.4 16.19, 0 8 M0 24 C0.56 19.5, -0.26 14.24, 0 8 M0 8 C0.17 3.23, 1.9 0.09, 8 0 M0 8 C-2.06 4.01, 3.9 0.09, 8 0" stroke="#FFFFFF" stroke-width="1" fill="none"></path></g><g transform="translate(160.5 576) rotate(0 48 10)"><text x="48" y="0" font-family="Virgil, Segoe UI Emoji" font-size="16px" fill="#FFFFFF" text-anchor="middle" style="white-space: pre;" direction="ltr" dominant-baseline="text-before-edge">点击发送按钮</text></g><g stroke-linecap="round" transform="translate(10 110) rotate(0 60 20)"><path d="M2.66 2.31 C2.66 2.31, 2.66 2.31, 2.66 2.31 M2.66 2.31 C2.66 2.31, 2.66 2.31, 2.66 2.31 M0.43 10.98 C2.94 9.71, 5.91 4.77, 10.27 -0.34 M0.43 10.98 C3.44 8.46, 5.69 5.33, 10.27 -0.34 M0.83 16.62 C3.58 11.91, 10.4 6.64, 13.29 2.28 M0.83 16.62 C5.82 11.39, 9.55 7.28, 13.29 2.28 M1.22 22.26 C8.76 16.15, 12.7 9.69, 18.28 2.64 M1.22 22.26 C5.2 16.33, 11.79 10.12, 18.28 2.64 M0.96 28.66 C6.8 24.46, 8.41 19.11, 23.27 3 M0.96 28.66 C5.08 23.63, 10.55 18.08, 23.27 3 M0.7 35.06 C10.62 23.71, 22.97 9.97, 28.91 2.6 M0.7 35.06 C10.04 25.6, 18.36 16.04, 28.91 2.6 M3.72 37.68 C11.66 26.17, 20.41 16.94, 33.9 2.97 M3.72 37.68 C14.09 26.42, 23.93 14.22, 33.9 2.97 M6.74 40.31 C18.36 28.21, 30.15 13.88, 39.54 2.57 M6.74 40.31 C16.13 29.45, 26.74 17.57, 39.54 2.57 M11.72 40.67 C20.77 33.22, 27.47 23.21, 44.53 2.93 M11.72 40.67 C22.61 29.56, 31.88 16.74, 44.53 2.93 M17.37 40.27 C25.75 29.97, 33.25 20.01, 50.17 2.54 M17.37 40.27 C25.49 30.91, 36.18 20.61, 50.17 2.54 M22.35 40.63 C34.64 25.11, 47.23 10, 55.16 2.9 M22.35 40.63 C34.66 26.61, 44.53 14.23, 55.16 2.9 M28 40.24 C39.45 27.03, 53.35 14.62, 60.14 3.26 M28 40.24 C36.96 29.9, 46.66 19.58, 60.14 3.26 M32.98 40.6 C45.48 27.26, 55.39 17.19, 65.79 2.86 M32.98 40.6 C39.39 32.56, 47.42 24.57, 65.79 2.86 M38.63 40.2 C44.81 31.22, 54.22 20.58, 70.77 3.22 M38.63 40.2 C51.88 26.64, 63.47 12.6, 70.77 3.22 M43.61 40.56 C56.14 28.59, 66.69 11.99, 76.42 2.83 M43.61 40.56 C51.16 31.5, 59.47 23.55, 76.42 2.83 M48.6 40.92 C56.99 28.14, 68.21 16.19, 81.4 3.19 M48.6 40.92 C58.89 30.84, 66.96 19.14, 81.4 3.19 M54.24 40.53 C65.25 29.12, 74.22 16.6, 87.05 2.79 M54.24 40.53 C65.44 28.01, 77.72 14.86, 87.05 2.79 M59.23 40.89 C70.3 28.59, 83.72 14.78, 92.03 3.15 M59.23 40.89 C68.29 30.7, 77.81 19.76, 92.03 3.15 M64.87 40.49 C78.38 26.97, 90.06 9.31, 97.68 2.76 M64.87 40.49 C71.76 31.93, 80.04 21.47, 97.68 2.76 M69.86 40.85 C77.74 32.72, 81.54 25.52, 102.66 3.12 M69.86 40.85 C82.32 28.28, 93.34 13.68, 102.66 3.12 M75.5 40.46 C83.69 28.22, 95.23 16.52, 107.65 3.48 M75.5 40.46 C88.57 25.96, 101.32 11.58, 107.65 3.48 M80.49 40.82 C88.38 29.09, 99.17 22.12, 115.26 0.82 M80.49 40.82 C89.35 30.1, 98.44 20.16, 115.26 0.82 M86.13 40.42 C93.84 31.14, 99.87 26.15, 117.62 4.2 M86.13 40.42 C94.06 31.45, 103.42 21.53, 117.62 4.2 M91.12 40.78 C98.36 31.88, 107.79 20.94, 120.64 6.82 M91.12 40.78 C96.78 32.74, 104.4 27.24, 120.64 6.82 M96.11 41.14 C100.84 33.23, 109.22 25.46, 120.38 13.22 M96.11 41.14 C102.14 34.24, 108.45 27.38, 120.38 13.22 M101.75 40.75 C109.32 34.84, 113.25 27.2, 120.78 18.86 M101.75 40.75 C106.68 36.52, 109.17 31.38, 120.78 18.86 M106.74 41.11 C112.93 37.44, 116.85 32.77, 120.52 25.26 M106.74 41.11 C110.36 38.05, 113.64 33.88, 120.52 25.26 M111.72 41.47 C113.95 38.58, 114.68 38.54, 120.91 30.9 M111.72 41.47 C114.68 37.04, 118.44 33.75, 120.91 30.9" stroke="#fa5252" stroke-width="0.5" fill="none"></path><path d="M10 0 M10 0 C36.16 -0.84, 67.04 1.08, 110 0 M10 0 C38.43 -0.78, 64.07 -0.66, 110 0 M110 0 C115.81 1.37, 119.67 2.07, 120 10 M110 0 C118.81 1.1, 119.38 3.43, 120 10 M120 10 C120.65 16.66, 118.64 20.54, 120 30 M120 10 C119.31 14.71, 120.53 18.04, 120 30 M120 30 C120.38 36.93, 116.12 38.36, 110 40 M120 30 C118.78 36.79, 116.51 37.94, 110 40 M110 40 C83.39 41.53, 55.65 39.69, 10 40 M110 40 C80.3 39, 49.3 39.21, 10 40 M10 40 C1.79 38.83, -1.28 34.73, 0 30 M10 40 C3.49 41.99, -1.6 37.34, 0 30 M0 30 C-0.45 25.54, -1.68 18.97, 0 10 M0 30 C-0.59 21.98, 0.6 14.68, 0 10 M0 10 C0.94 1.81, 4.44 1.85, 10 0 M0 10 C-1.85 1.27, 4.6 -0.26, 10 0" stroke="#FFFFFF" stroke-width="1" fill="none"></path></g><g transform="translate(30 120) rotate(0 40 10)"><text x="40" y="0" font-family="Virgil, Segoe UI Emoji" font-size="16px" fill="#FFFFFF" text-anchor="middle" style="white-space: pre;" direction="ltr" dominant-baseline="text-before-edge">配置项目名</text></g><g stroke-linecap="round"><g transform="translate(210 50) rotate(0 -70.29068197224291 29.342149266600615)"><path d="M0.26 -0.06 C-19.46 3.12, -95.95 9.59, -119.34 19.44 C-142.72 29.28, -136.77 52.17, -140.05 59.02 M-1.06 -1.14 C-20.79 2.17, -96.64 10.52, -119.94 20.68 C-143.24 30.84, -137.78 53.57, -140.84 59.82" stroke="#FFFFFF" stroke-width="1" fill="none"></path></g><g transform="translate(210 50) rotate(0 -70.29068197224291 29.342149266600615)"><path d="M-145.23 38.98 C-145.09 42.51, -144.86 48.91, -140.01 60.66 M-144.68 37.39 C-143.18 42.68, -143.02 46.31, -140.15 60.51" stroke="#FFFFFF" stroke-width="1" fill="none"></path></g><g transform="translate(210 50) rotate(0 -70.29068197224291 29.342149266600615)"><path d="M-130.12 41.35 C-133.24 44.41, -136.27 50.3, -140.01 60.66 M-129.57 39.77 C-131.29 44.49, -134.33 47.61, -140.15 60.51" stroke="#FFFFFF" stroke-width="1" fill="none"></path></g></g><mask></mask><g stroke-linecap="round"><g transform="translate(210 50) rotate(0 70.5151009032596 30.08349929563701)"><path d="M0.96 -0.67 C17.64 2.54, 75.91 9.83, 99.25 20.08 C122.6 30.33, 134.18 54.36, 141.03 60.83 M0 1.6 C17.14 4.94, 78.11 12.1, 101.57 21.65 C125.04 31.21, 134.27 52.63, 140.8 58.93" stroke="#FFFFFF" stroke-width="1" fill="none"></path></g><g transform="translate(210 50) rotate(0 70.5151009032596 30.08349929563701)"><path d="M115.84 42.48 C122.72 48.78, 129.52 51.15, 138.99 58.86 M115.98 43.2 C121.78 47.02, 127.47 50.99, 140.11 58.99" stroke="#FFFFFF" stroke-width="1" fill="none"></path></g><g transform="translate(210 50) rotate(0 70.5151009032596 30.08349929563701)"><path d="M131.2 30.71 C134.59 39.86, 137.83 44.96, 138.99 58.86 M131.34 31.42 C133.97 37.74, 136.45 44.17, 140.11 58.99" stroke="#FFFFFF" stroke-width="1" fill="none"></path></g></g><mask></mask><g stroke-linecap="round"><g transform="translate(70 150) rotate(0 43.614931874891624 19.52411564449781)"><path d="M-0.82 -0.89 C6.02 2.09, 25.42 12.26, 40.23 18.86 C55.04 25.47, 80.2 35.28, 88.05 38.75 M0.96 1.26 C7.73 4.26, 25.05 13.36, 39.41 19.8 C53.77 26.25, 79.18 36.99, 87.11 39.94" stroke="#FFFFFF" stroke-width="1" fill="none"></path></g><g transform="translate(70 150) rotate(0 43.614931874891624 19.52411564449781)"><path d="M59.67 39.52 C65.29 38.97, 72.8 37.91, 88.22 41.72 M61.3 39.95 C69.95 38.99, 78.97 39.03, 87.22 40.87" stroke="#FFFFFF" stroke-width="1" fill="none"></path></g><g transform="translate(70 150) rotate(0 43.614931874891624 19.52411564449781)"><path d="M66.26 23.02 C70.48 26.25, 76.46 29.02, 88.22 41.72 M67.89 23.44 C74.34 28.01, 81.14 33.58, 87.22 40.87" stroke="#FFFFFF" stroke-width="1" fill="none"></path></g></g><mask></mask><g stroke-linecap="round"><g transform="translate(350 150) rotate(0 -49.10907251540573 19.591120971478517)"><path d="M-0.06 0.47 C-9.95 3.82, -42.76 13.08, -59.02 19.58 C-75.28 26.09, -91.09 36.14, -97.6 39.5 M-1.54 -0.32 C-11.54 3.23, -43.35 14.61, -59.46 20.9 C-75.56 27.2, -91.76 34.64, -98.16 37.43" stroke="#FFFFFF" stroke-width="1" fill="none"></path></g><g transform="translate(350 150) rotate(0 -49.10907251540573 19.591120971478517)"><path d="M-82.07 24.32 C-88.66 28.21, -92.18 32.27, -96.85 36.44 M-82.64 22.72 C-88.11 28.3, -93.26 31.98, -98.25 38.11" stroke="#FFFFFF" stroke-width="1" fill="none"></path></g><g transform="translate(350 150) rotate(0 -49.10907251540573 19.591120971478517)"><path d="M-76.18 37.6 C-84.66 37.1, -90.12 36.79, -96.85 36.44 M-76.75 36 C-84.25 37.21, -91.33 36.55, -98.25 38.11" stroke="#FFFFFF" stroke-width="1" fill="none"></path></g></g><mask></mask><g stroke-linecap="round"><g transform="translate(212.4667401156841 230) rotate(0 -1.2595469577290146 19.51018881420606)"><path d="M0.34 0.43 C-0.16 7.15, -1.46 33.02, -1.95 39.41 M-0.93 -0.39 C-1.68 6.05, -2.4 30.77, -2.86 37.5" stroke="#FFFFFF" stroke-width="1" fill="none"></path></g><g transform="translate(212.4667401156841 230) rotate(0 -1.2595469577290146 19.51018881420606)"><path d="M-7.95 18.97 C-5.89 25.1, -4.67 31.65, -4.73 39.12 M-9.46 19.64 C-6.42 24.39, -3.74 31.66, -3.73 38.14" stroke="#FFFFFF" stroke-width="1" fill="none"></path></g><g transform="translate(212.4667401156841 230) rotate(0 -1.2595469577290146 19.51018881420606)"><path d="M5.39 19.61 C2.28 25.53, -1.67 31.83, -4.73 39.12 M3.88 20.29 C2.44 24.77, 0.63 31.82, -3.73 38.14" stroke="#FFFFFF" stroke-width="1" fill="none"></path></g></g><mask></mask><g stroke-linecap="round"><g transform="translate(210 310) rotate(0 -49.80968739438802 29.560598245561124)"><path d="M0.19 -0.29 C-16.45 9.77, -82.47 49.28, -99.25 59.39 M-1.17 -1.49 C-17.96 8.81, -83.08 50.65, -99.81 60.61" stroke="#FFFFFF" stroke-width="1" fill="none"></path></g><g transform="translate(210 310) rotate(0 -49.80968739438802 29.560598245561124)"><path d="M-81.77 38.26 C-88.96 44.46, -93.74 54.95, -98.45 58.73 M-80.61 37.68 C-85.32 42.34, -89.81 48.9, -100.25 60.92" stroke="#FFFFFF" stroke-width="1" fill="none"></path></g><g transform="translate(210 310) rotate(0 -49.80968739438802 29.560598245561124)"><path d="M-70.93 55.68 C-81.77 55.82, -90.33 60.22, -98.45 58.73 M-69.77 55.11 C-76.97 55.73, -84.01 58.18, -100.25 60.92" stroke="#FFFFFF" stroke-width="1" fill="none"></path></g></g><mask></mask><g stroke-linecap="round"><g transform="translate(210 310) rotate(0 60.14513466160747 30.51505459696054)"><path d="M0.81 0.81 C20.98 10.58, 100.58 49.56, 120.51 59.55 M-0.22 0.18 C19.87 10.05, 99.83 51.08, 119.83 60.85" stroke="#FFFFFF" stroke-width="1" fill="none"></path></g><g transform="translate(210 310) rotate(0 60.14513466160747 30.51505459696054)"><path d="M91.38 58.22 C97.07 58.7, 106.82 58.09, 120.46 62.07 M90.01 57.55 C96.64 57.98, 101.64 58.76, 120.44 61.34" stroke="#FFFFFF" stroke-width="1" fill="none"></path></g><g transform="translate(210 310) rotate(0 60.14513466160747 30.51505459696054)"><path d="M100.59 39.88 C104.01 45.2, 111.37 49.37, 120.46 62.07 M99.22 39.21 C103.92 43.32, 107.06 47.81, 120.44 61.34" stroke="#FFFFFF" stroke-width="1" fill="none"></path></g></g><mask></mask><g stroke-linecap="round"><g transform="translate(110.09055643995544 411) rotate(0 49.072338157010876 29.261907434165494)"><path d="M0.04 -0.42 C16.67 9.56, 82.77 48.83, 99.54 58.78 M-1.4 -1.68 C15.06 8.57, 81.45 49.8, 98.4 60.21" stroke="#FFFFFF" stroke-width="1" fill="none"></path></g><g transform="translate(110.09055643995544 411) rotate(0 49.072338157010876 29.261907434165494)"><path d="M68.33 53.5 C76.85 57.06, 85.93 57.53, 99.56 59.8 M69.34 53.59 C76.84 55.23, 85.04 57.25, 99.28 60.67" stroke="#FFFFFF" stroke-width="1" fill="none"></path></g><g transform="translate(110.09055643995544 411) rotate(0 49.072338157010876 29.261907434165494)"><path d="M79.12 36.04 C84.46 44.51, 90.51 49.87, 99.56 59.8 M80.13 36.14 C84.68 42.36, 90.06 48.94, 99.28 60.67" stroke="#FFFFFF" stroke-width="1" fill="none"></path></g></g><mask></mask><g stroke-linecap="round"><g transform="translate(325.20210526315793 411) rotate(0 -57.30943840908964 29.388402523994444)"><path d="M0.23 -0.49 C-18.89 9.45, -95.28 49.01, -114.35 59.02 M-1.11 -1.79 C-20.35 8.41, -95.97 50.69, -114.85 60.57" stroke="#FFFFFF" stroke-width="1" fill="none"></path></g><g transform="translate(325.20210526315793 411) rotate(0 -57.30943840908964 29.388402523994444)"><path d="M-95.8 39.52 C-101.65 47.34, -107.35 53.61, -113.04 59.8 M-95.01 38.96 C-102.2 46.1, -109.6 54.38, -115.35 60.12" stroke="#FFFFFF" stroke-width="1" fill="none"></path></g><g transform="translate(325.20210526315793 411) rotate(0 -57.30943840908964 29.388402523994444)"><path d="M-86 57.55 C-95 59.41, -103.95 59.7, -113.04 59.8 M-85.21 56.99 C-95.97 57.61, -106.93 59.35, -115.35 60.12" stroke="#FFFFFF" stroke-width="1" fill="none"></path></g></g><mask></mask><g stroke-linecap="round"><g transform="translate(210 510) rotate(0 -0.5578664357441596 29.756133351428446)"><path d="M0.32 -0.98 C0.4 9.04, -0.05 49.31, -0.23 59.31 M-0.97 1.13 C-1.01 11.36, -1.75 50.71, -1.31 60.49" stroke="#FFFFFF" stroke-width="1" fill="none"></path></g><g transform="translate(210 510) rotate(0 -0.5578664357441596 29.756133351428446)"><path d="M-13.43 31.99 C-10.61 37.83, -8.57 46.86, -0.97 58.56 M-11.32 32.21 C-8.68 39.24, -6.8 44.66, -1.4 60.28" stroke="#FFFFFF" stroke-width="1" fill="none"></path></g><g transform="translate(210 510) rotate(0 -0.5578664357441596 29.756133351428446)"><path d="M7.09 31.82 C4.96 37.75, 2.05 46.83, -0.97 58.56 M9.2 32.03 C7.33 39.03, 4.69 44.49, -1.4 60.28" stroke="#FFFFFF" stroke-width="1" fill="#FFFFFF"></path></g></g><mask></mask></svg>