<?xml version="1.0" encoding="UTF-8"?>
<svg width="221px" height="50px" viewBox="0 0 221 50" version="1.1" xmlns="http://www.w3.org/2000/svg" xmlns:xlink="http://www.w3.org/1999/xlink">
    <title>220*50</title>
    <defs>
        <path d="M0,0 L221,0 L221,50 L0,50 L0,0 Z" id="path-1"></path>
        <linearGradient x1="50.0000008%" y1="0%" x2="50.0000008%" y2="109.378601%" id="linearGradient-2">
            <stop stop-color="#001A80" offset="0%"></stop>
            <stop stop-color="#5C00E9" offset="100%"></stop>
        </linearGradient>
        <filter x="inf%" y="inf%" width="0.0%" height="0.0%" filterUnits="objectBoundingBox" id="filter-3">
            <feGaussianBlur stdDeviation="14.0206473" in="SourceGraphic"></feGaussianBlur>
        </filter>
        <polygon id="path-4" points="0 0 153.169643 0 153.169643 50 0 50"></polygon>
        <polygon id="path-6" points="0 0 149.083035 0 149.083035 46.8622569 0 46.8622569"></polygon>
        <polygon id="path-8" points="0 0 144.957675 0 144.957675 43.7245139 0 43.7245139"></polygon>
        <polygon id="path-10" points="0 0 140.798048 0 140.798048 40.5869531 0 40.5869531"></polygon>
        <polygon id="path-12" points="0 0 136.595744 0 136.595744 37.449184 0 37.449184"></polygon>
        <polygon id="path-14" points="0 0 132.341418 0 132.341418 34.3115711 0 34.3115711"></polygon>
        <polygon id="path-16" points="0 0 128.025101 0 128.025101 31.1739583 0 31.1739583"></polygon>
        <polygon id="path-18" points="0 0 121.213568 0 121.213568 28.0363454 0 28.0363454"></polygon>
        <polygon id="path-20" points="0 0 112.243877 0 112.243877 24.8984721 0 24.8984721"></polygon>
        <polygon id="path-22" points="0 0 103.048027 0 103.048027 21.7608593 0 21.7608593"></polygon>
        <polygon id="path-24" points="0 0 93.5440921 0 93.5440921 18.6232464 0 18.6232464"></polygon>
        <polygon id="path-26" points="0 0 83.6510778 0 83.6510778 15.4853732 0 15.4853732"></polygon>
        <polygon id="path-28" points="0 0 73.1886186 0 73.1886186 12.3477603 0 12.3477603"></polygon>
        <polygon id="path-30" points="0 0 61.9124887 0 61.9124887 9.21014742 0 9.21014742"></polygon>
        <polygon id="path-32" points="0 0 49.20932 0 49.20932 6.07253455 0 6.07253455"></polygon>
        <polygon id="path-34" points="0 0 33.4352609 0 33.4352609 2.93466131 0 2.93466131"></polygon>
    </defs>
    <g id="220*50" stroke="none" fill="none" xlink:href="#path-1" fill-rule="evenodd">
        <use fill="#FFFFFF" xlink:href="#path-1"></use>
        <g id="bg2" stroke-width="1" transform="translate(-55.4548, -1)">
            <rect id="矩形" fill="url(#linearGradient-2)" x="55.4547991" y="1.0000121" width="221" height="50.2232143"></rect>
            <ellipse id="椭圆形" filter="url(#filter-3)" cx="68.7430246" cy="63.77903" rx="68.7430246" ry="33.2728795"></ellipse>
            <g id="纹理2" style="mix-blend-mode: soft-light;" transform="translate(131.7223, 26) rotate(-180) translate(-131.7223, -26)translate(55.1375, 1)">
                <g id="编组">
                    <mask id="mask-5" fill="white">
                        <use xlink:href="#path-4"></use>
                    </mask>
                    <g id="Clip-2"></g>
                    <path d="M153.169643,30.4367195 C136.161994,42.5109703 114.151455,49.8047291 90.1403818,49.8047291 C49.8188253,49.8047291 15.1362683,29.2395787 0.318864207,-2.60361204e-05 L-0.000124605005,-2.60361204e-05 C4.84171436,9.63464033 11.9211477,18.4840573 21.0226088,26.0910306 C39.4694452,41.50884 64.0160081,50 90.1403818,50 C113.48731,50 135.570432,43.2131645 153.169643,30.7663368 L153.169643,30.4367195 Z" id="Fill-1" fill="#FFFFFF" mask="url(#mask-5)"></path>
                </g>
                <g id="编组" transform="translate(4.0866, 0)">
                    <mask id="mask-7" fill="white">
                        <use xlink:href="#path-6"></use>
                    </mask>
                    <g id="Clip-4"></g>
                    <path d="M149.083035,26.2546676 C132.424903,38.9287907 110.301908,46.666986 86.0537738,46.666986 C47.8492563,46.666986 14.9149075,27.463004 0.330203262,-0.000156216723 L0,-0.000156216723 C4.63187954,8.7932831 11.2237958,16.8785399 19.5910219,23.8718419 C37.3294788,38.6973296 60.9327818,46.8622569 86.0537738,46.8622569 C109.586363,46.8622569 131.787549,39.6965959 149.083035,26.6025102 L149.083035,26.2546676 Z" id="Fill-3" fill="#FFFFFF" mask="url(#mask-7)"></path>
                </g>
                <g id="编组" transform="translate(8.212, 0)">
                    <mask id="mask-9" fill="white">
                        <use xlink:href="#path-8"></use>
                    </mask>
                    <g id="Clip-6"></g>
                    <path d="M144.957675,21.9377487 C128.712609,35.2833433 106.452859,43.529243 81.9284136,43.529243 C45.8452963,43.529243 14.6604018,25.6835653 0.32989175,-2.60361204e-05 L0,-2.60361204e-05 C4.40291784,7.95218623 10.4914299,15.2756262 18.1209943,21.6526532 C35.1504488,35.8860795 57.8111149,43.7245139 81.9284136,43.7245139 C105.681866,43.7245139 128.018559,36.1157181 144.957675,22.2871534 L144.957675,21.9377487 Z" id="Fill-5" fill="#FFFFFF" mask="url(#mask-9)"></path>
                </g>
                <g id="编组" transform="translate(12.3716, 0)">
                    <mask id="mask-11" fill="white">
                        <use xlink:href="#path-10"></use>
                    </mask>
                    <g id="Clip-8"></g>
                    <path d="M140.798048,17.4478718 C125.04891,31.5560644 102.621567,40.3916822 77.768787,40.3916822 C43.8133002,40.3916822 14.3834672,23.9006639 0.330514775,-0.000234325084 L0,-0.000234325084 C4.15152724,7.11283378 9.72791272,13.676019 16.6163889,19.4333863 C32.9374639,33.0744909 54.6551817,40.5869531 77.768787,40.5869531 C100.882081,40.5869531 122.599799,33.0744909 138.920874,19.4333863 C139.559163,18.8999062 140.182188,18.3573135 140.798048,17.8100342 L140.798048,17.4478718 Z" id="Fill-7" fill="#FFFFFF" mask="url(#mask-11)"></path>
                </g>
                <g id="编组" transform="translate(16.5739, 0)">
                    <mask id="mask-13" fill="white">
                        <use xlink:href="#path-12"></use>
                    </mask>
                    <g id="Clip-10"></g>
                    <path d="M136.595744,12.7255444 C121.455925,27.7158407 98.8201795,37.2539131 73.5664832,37.2539131 C41.7464147,37.2539131 14.0809886,22.1128676 0.332695362,-0.000130180602 L0,-0.000130180602 C3.87459262,6.27535593 8.92639102,12.0798486 15.0694178,17.2141716 C30.6818018,30.2629544 51.4562597,37.449184 73.5664832,37.449184 C95.6763953,37.449184 116.450853,30.2629544 132.063237,17.2141716 C133.64759,15.8899745 135.158114,14.5204745 136.595744,13.1103583 L136.595744,12.7255444 Z" id="Fill-9" fill="#FFFFFF" mask="url(#mask-13)"></path>
                </g>
                <g id="编组" transform="translate(20.8282, 0)">
                    <mask id="mask-15" fill="white">
                        <use xlink:href="#path-14"></use>
                    </mask>
                    <g id="Clip-12"></g>
                    <path d="M132.341418,7.68859654 C117.971969,23.7208584 95.0689459,34.1163002 69.3121569,34.1163002 C39.6371635,34.1163002 13.7482932,20.31976 0.336122,-0.000130180602 L0,-0.000130180602 C3.5677528,5.44037754 8.07814245,10.4882606 13.4701125,14.995113 C28.3741171,27.4515741 48.2056266,34.3115711 69.3121569,34.3115711 C90.4183756,34.3115711 110.249885,27.4515741 125.15389,14.995113 C127.758446,12.818233 130.155223,10.513776 132.341418,8.10126905 L132.341418,7.68859654 Z" id="Fill-11" fill="#FFFFFF" mask="url(#mask-15)"></path>
                </g>
                <g id="编组" transform="translate(25.1445, 0)">
                    <mask id="mask-17" fill="white">
                        <use xlink:href="#path-16"></use>
                    </mask>
                    <g id="Clip-14"></g>
                    <path d="M128.025101,2.199922 C114.66869,19.4993619 91.4083624,30.9786874 64.9958395,30.9786874 C37.4780703,30.9786874 13.3800854,18.5201434 0.340794688,-0.000130180602 L0,-0.000130180602 C3.22477752,4.6085235 7.17475617,8.90214012 11.8091278,12.7757941 C26.0041299,24.6399335 44.8930026,31.1739583 64.9958395,31.1739583 C85.0983649,31.1739583 103.987238,24.6399335 118.18224,12.7757941 C121.917898,9.65354255 125.200305,6.25452703 128.025101,2.64123424 L128.025101,2.199922 Z" id="Fill-13" fill="#FFFFFF" mask="url(#mask-17)"></path>
                </g>
                <g id="编组" transform="translate(29.5336, 0)">
                    <mask id="mask-19" fill="white">
                        <use xlink:href="#path-18"></use>
                    </mask>
                    <g id="Clip-16"></g>
                    <path d="M120.867478,-0.000130180602 C108.244991,16.7140177 85.9528437,27.8410745 60.6066282,27.8410745 C35.2607242,27.8410745 12.9685774,16.7140177 0.3460904,-0.000130180602 L0,-0.000130180602 C2.83912503,3.78161631 6.20657528,7.32304941 10.0752492,10.5564752 C23.5618718,21.8285532 41.5074846,28.0363454 60.6066282,28.0363454 C79.7057718,28.0363454 97.6516961,21.8285532 111.138319,10.5564752 C115.006993,7.32304941 118.374443,3.78161631 121.213568,-0.000130180602 L120.867478,-0.000130180602 Z" id="Fill-15" fill="#FFFFFF" mask="url(#mask-19)"></path>
                </g>
                <g id="编组" transform="translate(34.0183, 0)">
                    <mask id="mask-21" fill="white">
                        <use xlink:href="#path-20"></use>
                    </mask>
                    <g id="Clip-18"></g>
                    <path d="M111.896852,-0.000130180602 C99.7438141,14.9000812 79.2777536,24.7032012 56.1217826,24.7032012 C32.9661231,24.7032012 12.5000626,14.9000812 0.347024938,-0.000130180602 L0,-0.000130180602 C2.40144995,2.96043707 5.15366299,5.75307135 8.24573618,8.33741666 C21.0236679,19.0169125 38.0263323,24.8984721 56.1217826,24.8984721 C74.2175444,24.8984721 91.2202088,19.0169125 103.998141,8.33741666 C107.090214,5.75307135 109.842427,2.96043707 112.243877,-0.000130180602 L111.896852,-0.000130180602 Z" id="Fill-17" fill="#FFFFFF" mask="url(#mask-21)"></path>
                </g>
                <g id="编组" transform="translate(38.6162, 0)">
                    <mask id="mask-23" fill="white">
                        <use xlink:href="#path-22"></use>
                    </mask>
                    <g id="Clip-20"></g>
                    <path d="M102.693838,-0.000130180602 C91.0753555,13.0759906 72.464352,21.5655884 51.5238579,21.5655884 C30.5836754,21.5655884 11.9726719,13.0759906 0.354189726,-0.000130180602 L0,-0.000130180602 C1.89866876,2.1488912 4.00137821,4.19454918 6.30283265,6.11809776 C18.3720734,16.2055323 34.4317894,21.7608593 51.5238579,21.7608593 C68.6159264,21.7608593 84.675954,16.2055323 96.7448832,6.11809776 C99.0466491,4.19454918 101.149359,2.1488912 103.048027,-0.000130180602 L102.693838,-0.000130180602 Z" id="Fill-19" fill="#FFFFFF" mask="url(#mask-23)"></path>
                </g>
                <g id="编组" transform="translate(43.3682, 0)">
                    <mask id="mask-25" fill="white">
                        <use xlink:href="#path-24"></use>
                    </mask>
                    <g id="Clip-22"></g>
                    <path d="M93.1842952,-0.000130180602 C82.1816733,11.2401837 65.4631083,18.4279755 46.7720461,18.4279755 C28.0809839,18.4279755 11.3624189,11.2401837 0.359796951,-0.000130180602 L0,-0.000130180602 C1.31302524,1.3495823 2.71452003,2.65216941 4.20635345,3.89903922 C15.5665917,13.3938916 30.6836709,18.6232464 46.7720461,18.6232464 C62.8604212,18.6232464 77.9775004,13.3938916 89.3377387,3.89903922 C90.8295721,2.65216941 92.2310669,1.3495823 93.5440921,-0.000130180602 L93.1842952,-0.000130180602 Z" id="Fill-21" fill="#FFFFFF" mask="url(#mask-25)"></path>
                </g>
                <g id="编组" transform="translate(48.3146, 0)">
                    <mask id="mask-27" fill="white">
                        <use xlink:href="#path-26"></use>
                    </mask>
                    <g id="Clip-24"></g>
                    <path d="M83.2781973,-0.000130180602 C72.9961038,9.3908381 58.2201309,15.2901023 41.8255389,15.2901023 C25.4309469,15.2901023 10.6549739,9.3908381 0.373191989,-0.000130180602 L0,-0.000130180602 C0.620221411,0.570581579 1.25819903,1.13087889 1.91517892,1.67972031 C12.5670377,10.5825113 26.740857,15.4853732 41.8255389,15.4853732 C56.9105323,15.4853732 71.0843516,10.5825113 81.7362104,1.67972031 C82.3931903,1.13087889 83.0311679,0.570581579 83.6510778,-0.000130180602 L83.2781973,-0.000130180602 Z" id="Fill-23" fill="#FFFFFF" mask="url(#mask-27)"></path>
                </g>
                <g id="编组" transform="translate(53.546, 0)">
                    <mask id="mask-29" fill="white">
                        <use xlink:href="#path-28"></use>
                    </mask>
                    <g id="Clip-26"></g>
                    <path d="M72.8014085,-0.000130180602 C63.3812702,7.52456899 50.6223407,12.1524894 36.5943093,12.1524894 C22.5659663,12.1524894 9.80703689,7.52456899 0.387210052,-0.000130180602 L0,-0.000130180602 C9.86497822,7.96744339 22.8217181,12.3477603 36.5943093,12.3477603 C50.3665889,12.3477603 63.3236404,7.96744339 73.1886186,-0.000130180602 L72.8014085,-0.000130180602 Z" id="Fill-25" fill="#FFFFFF" mask="url(#mask-29)"></path>
                </g>
                <g id="编组" transform="translate(59.1841, 0)">
                    <mask id="mask-31" fill="white">
                        <use xlink:href="#path-30"></use>
                    </mask>
                    <g id="Clip-28"></g>
                    <path d="M61.4788633,-0.000130180602 C53.1231632,5.63512773 42.5037016,9.01487652 30.9559328,9.01487652 C19.4084755,9.01487652 8.789014,5.63512773 0.433313904,-0.000130180602 L0,-0.000130180602 C8.70988983,5.96578645 19.531523,9.21014742 30.9559328,9.21014742 C42.3806542,9.21014742 53.2022873,5.96578645 61.9124887,-0.000130180602 L61.4788633,-0.000130180602 Z" id="Fill-27" fill="#FFFFFF" mask="url(#mask-31)"></path>
                </g>
                <g id="编组" transform="translate(65.5355, 0)">
                    <mask id="mask-33" fill="white">
                        <use xlink:href="#path-32"></use>
                    </mask>
                    <g id="Clip-30"></g>
                    <path d="M48.7149496,-0.000130180602 C41.7442341,3.71912962 33.4704618,5.87726365 24.6048157,5.87726365 C15.7391697,5.87726365 7.46539734,3.71912962 0.494681869,-0.000130180602 L0,-0.000130180602 C7.25574942,3.95111146 15.7326279,6.07253455 24.6048157,6.07253455 C33.4770036,6.07253455 41.953882,3.95111146 49.20932,-0.000130180602 L48.7149496,-0.000130180602 Z" id="Fill-29" fill="#FFFFFF" mask="url(#mask-33)"></path>
                </g>
                <g id="编组" transform="translate(73.4609, 0)">
                    <mask id="mask-35" fill="white">
                        <use xlink:href="#path-34"></use>
                    </mask>
                    <g id="Clip-32"></g>
                    <path d="M32.7764119,-0.000130180602 C27.8289702,1.76277553 22.3880927,2.73939041 16.6793144,2.73939041 C10.9705361,2.73939041 5.5296586,1.76277553 0.582216884,-0.000130180602 L0,-0.000130180602 C5.10569007,1.8851453 10.7481162,2.93466131 16.6793144,2.93466131 C22.5475871,2.93466131 28.2280178,1.9234184 33.4352609,-0.000130180602 L32.7764119,-0.000130180602 Z" id="Fill-31" fill="#FFFFFF" mask="url(#mask-35)"></path>
                </g>
            </g>
        </g>
        <g id="text2" stroke-width="1" transform="translate(60, 10)" fill="#FFFFFF">
            <polygon id="路径" fill-rule="nonzero" points="80.9514509 0.1875 80.9514509 9.75 88.0764509 9.75 88.0764509 8.41071429 82.5184152 8.41071429 82.5184152 5.51785714 87.5273438 5.51785714 87.5273438 4.17857143 82.5184152 4.17857143 82.5184152 1.52678571 87.8487723 1.52678571 87.8487723 0.1875"></polygon>
            <path d="M91.9352679,2.63839286 C91.0513393,2.63839286 90.3549107,2.78571429 89.8459821,3.10714286 C89.2433036,3.45535714 88.8683036,4.01785714 88.7209821,4.78125 L90.234375,4.90178571 C90.3147321,4.54017857 90.515625,4.27232143 90.8102679,4.09821429 C91.0647321,3.9375 91.3995536,3.87053571 91.828125,3.87053571 C92.8191964,3.87053571 93.3147321,4.3125 93.3147321,5.22321429 L93.3147321,5.49107143 L91.8013393,5.53125 C90.7834821,5.55803571 89.9933036,5.77232143 89.4308036,6.17410714 C88.8147321,6.58928571 88.5200893,7.19196429 88.5200893,7.96875 C88.5200893,8.54464286 88.734375,9.01339286 89.1629464,9.38839286 C89.578125,9.75 90.140625,9.9375 90.8638393,9.9375 C91.4665179,9.9375 91.9888393,9.83035714 92.4308036,9.62946429 C92.8191964,9.44196429 93.1540179,9.1875 93.421875,8.83928571 L93.421875,9.75 L94.8415179,9.75 L94.8415179,5.33035714 C94.8415179,4.48660714 94.6272321,3.84375 94.1986607,3.40178571 C93.7165179,2.89285714 92.953125,2.63839286 91.9352679,2.63839286 Z M93.3147321,6.58928571 L93.3147321,6.9375 C93.3147321,7.47321429 93.1004464,7.91517857 92.6986607,8.26339286 C92.296875,8.59821429 91.8013393,8.77232143 91.2120536,8.77232143 C90.8772321,8.77232143 90.609375,8.67857143 90.3950893,8.51785714 C90.1808036,8.35714286 90.0870536,8.15625 90.0870536,7.91517857 C90.0870536,7.08482143 90.6897321,6.65625 91.9084821,6.62946429 L93.3147321,6.58928571 Z" id="形状" fill-rule="nonzero"></path>
            <path d="M98.4324777,2.63839286 C97.5753348,2.63839286 96.8922991,2.8125 96.3699777,3.1875 C95.8342634,3.53571429 95.5797991,4.03125 95.5797991,4.67410714 C95.5797991,5.27678571 95.8476563,5.74553571 96.3833705,6.08035714 C96.718192,6.29464286 97.2940848,6.49553571 98.1110491,6.68303571 C98.8074777,6.84375 99.2628348,6.96428571 99.4771205,7.07142857 C99.8789063,7.25892857 100.079799,7.51339286 100.079799,7.83482143 C100.079799,8.39732143 99.5440848,8.69196429 98.4726563,8.69196429 C97.9637277,8.69196429 97.6021205,8.59821429 97.374442,8.4375 C97.1467634,8.25 96.9860491,7.94196429 96.905692,7.5 L95.4190848,7.5 C95.5664063,9.12053571 96.5976563,9.9375 98.5262277,9.9375 C100.602121,9.9375 101.646763,9.20089286 101.646763,7.72767857 C101.646763,7.11160714 101.365513,6.61607143 100.816406,6.26785714 C100.441406,6.01339286 99.8521205,5.79910714 99.0753348,5.61160714 C98.3789063,5.4375 97.9235491,5.30357143 97.6958705,5.20982143 C97.3208705,5.04910714 97.1467634,4.84821429 97.1467634,4.63392857 C97.1467634,4.36607143 97.2539063,4.17857143 97.4949777,4.05803571 C97.6958705,3.9375 98.0039063,3.88392857 98.405692,3.88392857 C98.874442,3.88392857 99.2226563,3.95089286 99.4503348,4.09821429 C99.6646205,4.23214286 99.8253348,4.48660714 99.9324777,4.83482143 L101.419085,4.83482143 C101.258371,3.36160714 100.253906,2.63839286 98.4324777,2.63839286 Z" id="路径" fill-rule="nonzero"></path>
            <polygon id="路径" fill-rule="nonzero" points="101.487723 2.82589286 104.233259 9.58928571 103.014509 12.4017857 104.648438 12.4017857 108.398438 2.82589286 106.737723 2.82589286 104.983259 7.75446429 103.148438 2.82589286"></polygon>
            <path d="M111.25279,2.63839286 C110.395647,2.63839286 109.712612,2.8125 109.19029,3.1875 C108.654576,3.53571429 108.400112,4.03125 108.400112,4.67410714 C108.400112,5.27678571 108.667969,5.74553571 109.203683,6.08035714 C109.538504,6.29464286 110.114397,6.49553571 110.931362,6.68303571 C111.62779,6.84375 112.083147,6.96428571 112.297433,7.07142857 C112.699219,7.25892857 112.900112,7.51339286 112.900112,7.83482143 C112.900112,8.39732143 112.364397,8.69196429 111.292969,8.69196429 C110.78404,8.69196429 110.422433,8.59821429 110.194754,8.4375 C109.967076,8.25 109.806362,7.94196429 109.726004,7.5 L108.239397,7.5 C108.386719,9.12053571 109.417969,9.9375 111.34654,9.9375 C113.422433,9.9375 114.467076,9.20089286 114.467076,7.72767857 C114.467076,7.11160714 114.185826,6.61607143 113.636719,6.26785714 C113.261719,6.01339286 112.672433,5.79910714 111.895647,5.61160714 C111.199219,5.4375 110.743862,5.30357143 110.516183,5.20982143 C110.141183,5.04910714 109.967076,4.84821429 109.967076,4.63392857 C109.967076,4.36607143 110.074219,4.17857143 110.31529,4.05803571 C110.516183,3.9375 110.824219,3.88392857 111.226004,3.88392857 C111.694754,3.88392857 112.042969,3.95089286 112.270647,4.09821429 C112.484933,4.23214286 112.645647,4.48660714 112.75279,4.83482143 L114.239397,4.83482143 C114.078683,3.36160714 113.074219,2.63839286 111.25279,2.63839286 Z" id="路径" fill-rule="nonzero"></path>
            <path d="M117.991071,2.63839286 C116.959821,2.63839286 116.142857,2.98660714 115.553571,3.69642857 C114.9375,4.39285714 114.642857,5.25 114.642857,6.28125 C114.642857,7.43303571 114.964286,8.33035714 115.607143,8.98660714 C116.209821,9.61607143 117.026786,9.9375 118.058036,9.9375 C118.982143,9.9375 119.745536,9.66964286 120.361607,9.14732143 C120.84375,8.71875 121.165179,8.16964286 121.325893,7.52678571 L119.799107,7.52678571 C119.611607,7.91517857 119.410714,8.19642857 119.183036,8.37053571 C118.888393,8.58482143 118.513393,8.69196429 118.044643,8.69196429 C117.495536,8.69196429 117.066964,8.51785714 116.772321,8.18303571 C116.477679,7.84821429 116.303571,7.35267857 116.25,6.70982143 L121.433036,6.70982143 C121.433036,5.46428571 121.151786,4.48660714 120.602679,3.79017857 C120,3.01339286 119.129464,2.63839286 117.991071,2.63839286 Z M118.03125,3.88392857 C119.102679,3.88392857 119.705357,4.43303571 119.839286,5.55803571 L116.276786,5.55803571 C116.370536,5.00892857 116.558036,4.59375 116.839286,4.3125 C117.133929,4.01785714 117.522321,3.88392857 118.03125,3.88392857 Z" id="形状" fill-rule="nonzero"></path>
            <path d="M125.157924,2.63839286 C124.273996,2.63839286 123.577567,2.78571429 123.068638,3.10714286 C122.46596,3.45535714 122.09096,4.01785714 121.943638,4.78125 L123.457031,4.90178571 C123.537388,4.54017857 123.738281,4.27232143 124.032924,4.09821429 C124.287388,3.9375 124.62221,3.87053571 125.050781,3.87053571 C126.041853,3.87053571 126.537388,4.3125 126.537388,5.22321429 L126.537388,5.49107143 L125.023996,5.53125 C124.006138,5.55803571 123.21596,5.77232143 122.65346,6.17410714 C122.037388,6.58928571 121.742746,7.19196429 121.742746,7.96875 C121.742746,8.54464286 121.957031,9.01339286 122.385603,9.38839286 C122.800781,9.75 123.363281,9.9375 124.086496,9.9375 C124.689174,9.9375 125.211496,9.83035714 125.65346,9.62946429 C126.041853,9.44196429 126.376674,9.1875 126.644531,8.83928571 L126.644531,9.75 L128.064174,9.75 L128.064174,5.33035714 C128.064174,4.48660714 127.849888,3.84375 127.421317,3.40178571 C126.939174,2.89285714 126.175781,2.63839286 125.157924,2.63839286 Z M126.537388,6.58928571 L126.537388,6.9375 C126.537388,7.47321429 126.323103,7.91517857 125.921317,8.26339286 C125.519531,8.59821429 125.023996,8.77232143 124.43471,8.77232143 C124.099888,8.77232143 123.832031,8.67857143 123.617746,8.51785714 C123.40346,8.35714286 123.30971,8.15625 123.30971,7.91517857 C123.30971,7.08482143 123.912388,6.65625 125.131138,6.62946429 L126.537388,6.58928571 Z" id="形状" fill-rule="nonzero"></path>
            <path d="M132.311384,2.63839286 C131.882812,2.63839286 131.521205,2.75892857 131.21317,3.01339286 C130.958705,3.20089286 130.74442,3.46875 130.55692,3.81696429 L130.55692,2.82589286 L129.043527,2.82589286 L129.043527,9.75 L130.55692,9.75 L130.55692,6.08035714 C130.55692,5.49107143 130.731027,5.02232143 131.106027,4.66071429 C131.427455,4.33928571 131.789062,4.19196429 132.190848,4.19196429 C132.512277,4.19196429 132.833705,4.23214286 133.18192,4.33928571 L133.18192,2.8125 C132.940848,2.69196429 132.646205,2.63839286 132.311384,2.63839286 Z" id="路径" fill-rule="nonzero"></path>
            <path d="M136.531808,2.63839286 C135.446987,2.63839286 134.603237,3 134.000558,3.72321429 C133.438058,4.37946429 133.156808,5.23660714 133.156808,6.28125 C133.156808,7.35267857 133.438058,8.22321429 134.013951,8.89285714 C134.603237,9.58928571 135.433594,9.9375 136.505022,9.9375 C137.402344,9.9375 138.125558,9.70982143 138.661272,9.26785714 C139.210379,8.8125 139.571987,8.11607143 139.732701,7.17857143 L138.219308,7.17857143 C138.098772,8.18303571 137.536272,8.69196429 136.518415,8.69196429 C135.929129,8.69196429 135.487165,8.47767857 135.192522,8.0625 C134.871094,7.63392857 134.723772,7.03125 134.723772,6.26785714 C134.723772,5.51785714 134.884487,4.92857143 135.205915,4.51339286 C135.527344,4.08482143 135.969308,3.88392857 136.531808,3.88392857 C136.987165,3.88392857 137.362165,3.99107143 137.643415,4.20535714 C137.911272,4.41964286 138.098772,4.74107143 138.192522,5.18303571 L139.705915,5.18303571 C139.571987,4.3125 139.223772,3.66964286 138.674665,3.24107143 C138.138951,2.83928571 137.429129,2.63839286 136.531808,2.63839286 Z" id="路径" fill-rule="nonzero"></path>
            <path d="M140.310268,0 L140.310268,9.75 L141.837054,9.75 L141.837054,5.87946429 C141.837054,5.29017857 141.970982,4.82142857 142.252232,4.44642857 C142.520089,4.07142857 142.895089,3.88392857 143.377232,3.88392857 C143.899554,3.88392857 144.287946,4.04464286 144.555804,4.37946429 C144.783482,4.6875 144.904018,5.14285714 144.904018,5.73214286 L144.904018,9.75 L146.430804,9.75 L146.430804,5.46428571 C146.430804,4.54017857 146.229911,3.84375 145.841518,3.375 C145.426339,2.87946429 144.796875,2.63839286 143.953125,2.63839286 C143.511161,2.63839286 143.122768,2.71875 142.787946,2.89285714 C142.412946,3.08035714 142.091518,3.36160714 141.837054,3.75 L141.837054,0 L140.310268,0 Z" id="路径" fill-rule="nonzero"></path>
            <polygon id="路径" fill-rule="nonzero" points="0 19.0212054 0 28.5837054 7.125 28.5837054 7.125 27.2444196 1.56696429 27.2444196 1.56696429 24.3515625 6.57589286 24.3515625 6.57589286 23.0122768 1.56696429 23.0122768 1.56696429 20.3604911 6.89732143 20.3604911 6.89732143 19.0212054"></polygon>
            <path d="M11.3454241,18.8337054 C10.3141741,18.8337054 9.47042411,19.0613839 8.80078125,19.5301339 C8.07756696,20.0122768 7.72935268,20.6819196 7.72935268,21.5256696 C7.72935268,22.3694196 8.09095982,23.0122768 8.82756696,23.4542411 C9.10881696,23.6149554 9.84542411,23.8828125 11.0239955,24.2578125 C12.0820312,24.5792411 12.6981027,24.7935268 12.8856027,24.8872768 C13.4748884,25.1819196 13.7829241,25.5837054 13.7829241,26.0926339 C13.7829241,26.4944196 13.5686384,26.8024554 13.1668527,27.0435268 C12.765067,27.2712054 12.202567,27.3917411 11.5061384,27.3917411 C10.7159598,27.3917411 10.140067,27.2444196 9.76506696,26.9765625 C9.34988839,26.6685268 9.09542411,26.1462054 8.98828125,25.4229911 L7.43470982,25.4229911 C7.50167411,26.6417411 7.94363839,27.5256696 8.74720982,28.0881696 C9.40345982,28.5435268 10.327567,28.7712054 11.5061384,28.7712054 C12.7248884,28.7712054 13.6757812,28.5167411 14.3454241,28.0345982 C15.015067,27.5390625 15.3498884,26.8560268 15.3498884,25.9988839 C15.3498884,25.1149554 14.9347098,24.4319196 14.1043527,23.9363839 C13.7293527,23.7220982 12.8989955,23.4006696 11.5998884,22.9988839 C10.7159598,22.7176339 10.1668527,22.5167411 9.96595982,22.4095982 C9.51060268,22.1685268 9.29631696,21.8337054 9.29631696,21.4319196 C9.29631696,20.9765625 9.48381696,20.6417411 9.88560268,20.4408482 C10.2070312,20.2667411 10.6623884,20.1863839 11.265067,20.1863839 C11.9614955,20.1863839 12.4972098,20.3069196 12.8454241,20.5747768 C13.1936384,20.8292411 13.4481027,21.2578125 13.5820312,21.8470982 L15.1356027,21.8470982 C15.0418527,20.8024554 14.6534598,20.0256696 13.983817,19.5301339 C13.3543527,19.0613839 12.4704241,18.8337054 11.3454241,18.8337054 Z" id="路径" fill-rule="nonzero"></path>
            <path d="M22.3309152,20.1863839 L22.3309152,21.4453125 L24.9425223,21.4453125 L24.9425223,22.9720982 L22.7594866,22.9720982 L22.7594866,24.2042411 L24.9425223,24.2042411 L24.9425223,25.9587054 L21.969308,25.9587054 L21.969308,27.2176339 L29.3487723,27.2176339 L29.3487723,25.9587054 L28.0898438,25.9587054 L28.7460938,25.6640625 C28.531808,25.1685268 28.2639509,24.7131696 27.969308,24.2979911 L26.8577009,24.6595982 C27.125558,25.0345982 27.3666295,25.4631696 27.5809152,25.9587054 L26.3621652,25.9587054 L26.3621652,24.2042411 L28.5452009,24.2042411 L28.5452009,22.9720982 L26.3621652,22.9720982 L26.3621652,21.4453125 L28.9603795,21.4453125 L28.9603795,20.1863839 L22.3309152,20.1863839 Z M31.3309152,18.0569196 L19.9737723,18.0569196 L19.9737723,29.9631696 L21.3934152,29.9631696 L21.3934152,29.4676339 L29.9112723,29.4676339 L29.9112723,29.9631696 L31.3309152,29.9631696 L31.3309152,18.0569196 Z M21.3934152,28.1551339 L21.3934152,19.3694196 L29.9112723,19.3694196 L29.9112723,28.1551339 L21.3934152,28.1551339 Z" id="形状" fill-rule="nonzero"></path>
            <path d="M38.6450893,17.4274554 L37.171875,17.6685268 C37.3727679,18.0167411 37.5602679,18.4051339 37.734375,18.8337054 L33.0870536,18.8337054 L33.0870536,20.1595982 L35.4441964,20.1595982 L35.8861607,21.7935268 L33.1941964,21.7935268 L33.1941964,24.8872768 C33.1674107,26.6417411 32.8058036,28.0078125 32.1227679,28.9988839 L33.1808036,29.9497768 C34.0915179,28.6774554 34.5602679,26.9899554 34.6138393,24.8872768 L34.6138393,23.1462054 L44.0691964,23.1462054 L44.0691964,21.7935268 L41.0424107,21.7935268 C41.2566964,21.2578125 41.4308036,20.7220982 41.5647321,20.1595982 L43.7879464,20.1595982 L43.7879464,18.8337054 L39.1674107,18.8337054 C39.0066964,18.3113839 38.8325893,17.8426339 38.6450893,17.4274554 Z M37.265625,21.7935268 L36.8236607,20.1595982 L40.2254464,20.1595982 C40.0915179,20.7220982 39.9174107,21.2578125 39.6897321,21.7935268 L37.265625,21.7935268 Z" id="形状" fill-rule="nonzero"></path>
            <path d="M48.8922991,17.4542411 C48.0351563,19.5301339 46.7092634,21.3381696 44.9280134,22.8649554 L45.3833705,24.3247768 C45.9726563,23.8292411 46.5351563,23.3203125 47.0574777,22.7979911 L47.0574777,30.0033482 L48.4503348,30.0033482 L48.4503348,21.1640625 C49.1735491,20.1863839 49.7628348,19.1551339 50.2047991,18.0703125 L48.8922991,17.4542411 Z M55.3342634,29.7622768 C56.0172991,29.7622768 56.4860491,29.6015625 56.7405134,29.2935268 C56.9949777,28.9720982 57.1690848,28.0345982 57.2628348,26.4944196 L55.9771205,26.0524554 C55.9503348,27.2444196 55.8699777,27.9408482 55.7360491,28.1417411 C55.6021205,28.3292411 55.3878348,28.4363839 55.093192,28.4363839 L53.1646205,28.4363839 C52.749442,28.4363839 52.5485491,28.2488839 52.5485491,27.8872768 L52.5485491,23.6551339 C54.1690848,22.6506696 55.6155134,21.4988839 56.9012277,20.1863839 L55.9235491,19.0747768 C54.9458705,20.1462054 53.8208705,21.1104911 52.5485491,21.9676339 L52.5485491,17.6819196 L51.155692,17.6819196 L51.155692,22.8247768 C50.5128348,23.1729911 49.843192,23.5078125 49.1333705,23.8292411 L49.7628348,25.1551339 C50.2315848,24.9274554 50.7003348,24.6997768 51.155692,24.4587054 L51.155692,28.0881696 C51.155692,29.1997768 51.718192,29.7622768 52.843192,29.7622768 L55.3342634,29.7622768 Z" id="形状" fill-rule="nonzero"></path>
            <path d="M62.8359375,19.7578125 L60.8002232,19.7578125 C61.0412946,19.1417411 61.2421875,18.4587054 61.3895089,17.7354911 L59.9832589,17.5479911 C59.8761161,18.3113839 59.7020089,19.0479911 59.4609375,19.7578125 L58.1752232,19.7578125 L58.1752232,29.5345982 L59.5145089,29.5345982 L59.5145089,28.4765625 L61.4966518,28.4765625 L61.4966518,29.1462054 L62.8359375,29.1462054 L62.8359375,19.7578125 Z M59.5145089,27.1908482 L59.5145089,24.6595982 L61.4966518,24.6595982 L61.4966518,27.1908482 L59.5145089,27.1908482 Z M59.5145089,23.4140625 L59.5145089,21.0703125 L61.4966518,21.0703125 L61.4966518,23.4140625 L59.5145089,23.4140625 Z M65.2734375,23.0122768 L64.1350446,23.7220982 C64.9654018,24.7935268 65.6350446,25.7712054 66.1305804,26.6551339 L67.2555804,25.8783482 C66.7868304,25.0479911 66.1305804,24.0970982 65.2734375,23.0122768 Z M69.7332589,19.7578125 L65.6618304,19.7578125 C65.8627232,19.1149554 66.0368304,18.4319196 66.1707589,17.7087054 L64.7912946,17.5345982 C64.4698661,19.3694196 63.8805804,20.9229911 62.9966518,22.1819196 L63.8404018,23.2935268 C64.3359375,22.6506696 64.7645089,21.9274554 65.1261161,21.1238839 L68.3671875,21.1238839 C68.3404018,24.9140625 68.3002232,27.1238839 68.2198661,27.7667411 C68.1395089,28.2890625 67.8582589,28.5569196 67.3761161,28.5569196 C66.9341518,28.5569196 66.4118304,28.5301339 65.8225446,28.4899554 L66.1573661,29.7622768 C66.8537946,29.8158482 67.3359375,29.8426339 67.6037946,29.8426339 C68.7555804,29.8426339 69.3984375,29.3738839 69.5323661,28.4363839 C69.6662946,27.3381696 69.7332589,24.4453125 69.7332589,19.7578125 Z" id="形状" fill-rule="nonzero"></path>
            <path d="M81.3331473,21.5390625 L77.1679687,21.5390625 C77.2483259,21.2176339 77.3152902,20.8828125 77.3688616,20.5479911 L82.6992188,20.5479911 L82.6992188,19.2087054 L79.5652902,19.2087054 C79.7527902,18.8337054 79.9402902,18.4185268 80.1143973,17.9631696 L78.734933,17.4676339 C78.5206473,18.0837054 78.2795759,18.6595982 78.0117188,19.2087054 L75.359933,19.2087054 C75.1322545,18.5524554 74.891183,17.9765625 74.6233259,17.4944196 L73.2572545,18.0167411 C73.484933,18.3917411 73.6858259,18.7801339 73.8733259,19.2087054 L70.7260045,19.2087054 L70.7260045,20.5479911 L75.8822545,20.5479911 C75.8420759,20.8694196 75.7885045,21.2042411 75.7215402,21.5390625 L72.0920759,21.5390625 L72.0920759,30.0033482 L73.484933,30.0033482 L73.484933,29.5345982 L79.9402902,29.5345982 L79.9402902,30.0033482 L81.3331473,30.0033482 L81.3331473,21.5390625 Z M73.484933,28.2756696 L73.484933,27.2310268 L79.9402902,27.2310268 L79.9402902,28.2756696 L73.484933,28.2756696 Z M73.484933,26.0256696 L73.484933,25.0078125 L79.9402902,25.0078125 L79.9402902,26.0256696 L73.484933,26.0256696 Z M73.484933,23.8024554 L73.484933,22.7979911 L79.9402902,22.7979911 L79.9402902,23.8024554 L73.484933,23.8024554 Z" id="形状" fill-rule="nonzero"></path>
            <path d="M84.6428571,17.6953125 L83.6919643,18.5926339 C84.6294643,19.3694196 85.3526786,20.1060268 85.8616071,20.7756696 L86.8392857,19.8113839 C86.2366071,19.1149554 85.5,18.4051339 84.6428571,17.6953125 Z M92.2767857,29.7622768 L95.34375,29.7622768 L95.6919643,28.3828125 C95.3169643,28.4095982 94.7946429,28.4363839 94.1116071,28.4631696 C93.4151786,28.4631696 92.7455357,28.4765625 92.0758929,28.4765625 C91.03125,28.4765625 90.1339286,28.4631696 89.3571429,28.4497768 C88.5669643,28.4229911 87.9776786,28.3158482 87.5758929,28.1149554 C87.2678571,27.9408482 86.9598214,27.6729911 86.6517857,27.3247768 L86.5044643,27.1774554 L86.5044643,22.0881696 L83.4375,22.0881696 L83.4375,23.3738839 L85.2053571,23.3738839 L85.2053571,27.0435268 C84.6696429,27.3381696 84.0803571,28.0212054 83.4107143,29.0926339 L84.4419643,30.0569196 C85.1116071,28.8515625 85.5669643,28.2488839 85.8348214,28.2488839 C85.9821429,28.2488839 86.1428571,28.3560268 86.3303571,28.5837054 C86.7321429,29.0390625 87.2008929,29.3470982 87.7366071,29.5078125 C88.2991071,29.6417411 89.0089286,29.7220982 89.8794643,29.7354911 C90.7366071,29.7488839 91.5401786,29.7622768 92.2767857,29.7622768 Z M90.9241071,17.5479911 L90.9241071,19.1015625 L89.6651786,19.1015625 C89.7723214,18.7667411 89.8928571,18.4185268 90,18.0435268 L88.6607143,17.7622768 C88.3660714,18.8872768 87.8571429,19.9453125 87.1339286,20.9363839 L88.3392857,21.6997768 C88.6071429,21.3113839 88.8482143,20.8962054 89.0892857,20.4408482 L90.9241071,20.4408482 L90.9241071,22.0078125 L87.4955357,22.0078125 L87.4955357,23.3470982 L89.4776786,23.3470982 C89.4241071,24.0435268 89.3035714,24.6328125 89.1160714,25.1149554 C88.7946429,25.8515625 88.125,26.4810268 87.0803571,26.9899554 L87.9776786,28.0881696 C89.25,27.4185268 90.0535714,26.5747768 90.3883929,25.5703125 C90.6026786,24.9408482 90.75,24.2042411 90.8035714,23.3470982 L91.8348214,23.3470982 L91.8348214,26.7890625 C91.8348214,27.1372768 91.9419643,27.4319196 92.15625,27.6729911 C92.3705357,27.8872768 92.6785714,27.9944196 93.09375,27.9944196 L94.0446429,27.9944196 C94.5267857,27.9944196 94.8482143,27.8872768 95.0357143,27.6997768 C95.2232143,27.4854911 95.3705357,26.8024554 95.4776786,25.6372768 L94.2589286,25.2220982 C94.2321429,26.1060268 94.1651786,26.5881696 94.0580357,26.6685268 C93.9776786,26.7488839 93.8705357,26.8024554 93.75,26.8024554 L93.5223214,26.8024554 C93.2678571,26.8024554 93.1473214,26.6953125 93.1473214,26.4944196 L93.1473214,23.3470982 L95.2767857,23.3470982 L95.2767857,22.0078125 L92.2901786,22.0078125 L92.2901786,20.4408482 L94.8214286,20.4408482 L94.8214286,19.1015625 L92.2901786,19.1015625 L92.2901786,17.5479911 L90.9241071,17.5479911 Z" id="形状" fill-rule="nonzero"></path>
            <path d="M96.6579241,18.4453125 L96.6579241,19.6372768 L98.6266741,19.6372768 C98.5998884,19.9185268 98.5597098,20.1997768 98.5195313,20.4676339 L96.1757813,20.4676339 L96.1757813,21.6997768 L98.1981027,21.6997768 C98.1579241,21.7935268 98.1177455,21.8872768 98.077567,21.9944196 C97.7293527,22.7042411 97.046317,23.2935268 96.0552455,23.7756696 L96.765067,24.8738839 C97.1668527,24.6997768 97.5418527,24.4854911 97.890067,24.2310268 L97.890067,30.0033482 L99.296317,30.0033482 L99.296317,29.4944196 L105.323103,29.4944196 L105.323103,30.0033482 L106.729353,30.0033482 L106.729353,24.1372768 L101.46596,24.1372768 L102.041853,23.2667411 C101.211496,22.6774554 100.394531,22.1551339 99.5909598,21.6997768 L102.041853,21.6997768 L102.041853,20.4676339 L99.8052455,20.4676339 L99.8856027,19.6372768 L101.921317,19.6372768 L101.921317,18.4453125 L99.9123884,18.4453125 L99.9123884,17.6417411 L98.6534598,17.6417411 L98.6534598,18.4453125 L96.6579241,18.4453125 Z M99.1757813,22.7042411 C99.6847098,23.0524554 100.300781,23.5212054 101.023996,24.1372768 L98.0106027,24.1372768 C98.4659598,23.7890625 98.827567,23.3604911 99.108817,22.8515625 C99.1222098,22.8113839 99.1489955,22.7578125 99.1757813,22.7042411 Z M102.564174,18.4453125 L102.564174,19.6372768 L104.532924,19.6372768 C104.506138,19.9319196 104.46596,20.1997768 104.412388,20.4676339 L102.430246,20.4676339 L102.430246,21.6997768 L103.943638,21.6997768 C103.595424,22.2087054 102.939174,22.6372768 101.988281,22.9854911 L102.68471,24.0837054 C103.756138,23.7087054 104.519531,23.1595982 105.001674,22.4497768 L105.02846,22.3962054 C105.644531,23.2265625 106.52846,23.9899554 107.666853,24.6863839 L108.510603,23.6417411 C107.305246,23.0658482 106.43471,22.4229911 105.898996,21.6997768 L108.323103,21.6997768 L108.323103,20.4676339 L105.698103,20.4676339 C105.738281,20.2131696 105.765067,19.9319196 105.791853,19.6372768 L107.948103,19.6372768 L107.948103,18.4453125 L105.805246,18.4453125 L105.805246,17.6417411 L104.546317,17.6417411 L104.546317,18.4453125 L102.564174,18.4453125 Z M99.296317,28.2622768 L99.296317,27.3917411 L105.323103,27.3917411 L105.323103,28.2622768 L99.296317,28.2622768 Z M99.296317,26.2265625 L99.296317,25.3426339 L105.323103,25.3426339 L105.323103,26.2265625 L99.296317,26.2265625 Z" id="形状" fill-rule="nonzero"></path>
            <path d="M120.52567,20.5881696 L116.373884,21.1640625 C116.293527,20.1194196 116.253348,18.9140625 116.253348,17.5479911 L114.833705,17.5479911 C114.860491,18.9676339 114.914062,20.2399554 114.99442,21.3515625 L112.141741,21.7533482 L112.356027,23.0792411 L115.114955,22.6908482 C115.208705,23.5881696 115.329241,24.3515625 115.489955,24.9676339 C115.878348,26.4944196 116.467634,27.7265625 117.257812,28.6640625 C117.981027,29.5212054 118.677455,29.9631696 119.347098,29.9631696 C119.789062,29.9497768 120.15067,29.7354911 120.418527,29.3069196 C120.726562,28.7712054 120.967634,27.9676339 121.155134,26.8694196 L119.936384,26.1595982 C119.789062,27.7265625 119.561384,28.5167411 119.266741,28.5435268 C118.851562,28.5167411 118.409598,28.1551339 117.940848,27.4587054 C117.43192,26.7354911 117.030134,25.6640625 116.735491,24.2712054 C116.628348,23.7622768 116.547991,23.1729911 116.481027,22.5033482 L120.753348,21.9140625 L120.52567,20.5881696 Z M110.347098,23.0122768 L110.347098,30.0033482 L111.766741,30.0033482 L111.766741,20.9363839 C112.27567,20.0524554 112.704241,19.1149554 113.02567,18.1238839 L111.71317,17.5078125 C111.070312,19.5703125 110.065848,21.3515625 108.71317,22.8649554 L109.168527,24.3247768 C109.583705,23.8962054 109.972098,23.4542411 110.347098,23.0122768 Z M117.659598,17.6015625 L116.77567,18.4587054 C117.632812,19.1953125 118.27567,19.8783482 118.731027,20.5078125 L119.68192,19.5703125 C119.11942,18.9140625 118.449777,18.2578125 117.659598,17.6015625 Z" id="形状" fill-rule="nonzero"></path>
            <path d="M121.813058,19.4229911 L121.813058,20.7756696 L125.455915,20.7756696 C125.442522,21.1908482 125.415737,21.7265625 125.388951,22.3962054 C125.321987,23.6551339 125.067522,24.7935268 124.625558,25.7979911 C124.170201,26.8024554 123.232701,27.9006696 121.813058,29.0792411 L122.830915,30.0703125 C124.022879,29.1060268 124.946987,28.0345982 125.603237,26.8694196 C126.071987,26.0256696 126.393415,25.1015625 126.580915,24.0837054 L130.839844,24.0837054 C130.813058,25.9319196 130.772879,27.0569196 130.692522,27.4720982 C130.531808,28.2220982 130.196987,28.6104911 129.674665,28.6372768 C129.179129,28.6372768 128.576451,28.6104911 127.866629,28.5703125 L128.281808,29.8426339 C128.871094,29.8828125 129.380022,29.9095982 129.821987,29.9095982 C130.866629,29.8828125 131.549665,29.3604911 131.857701,28.3158482 C132.071987,27.5926339 132.205915,25.7310268 132.259487,22.7578125 L126.741629,22.7578125 C126.795201,21.9408482 126.821987,21.2845982 126.848772,20.7756696 L133.786272,20.7756696 L133.786272,19.4229911 L128.844308,19.4229911 C128.549665,18.6863839 128.214844,18.0435268 127.866629,17.5078125 L126.540737,18.0033482 C126.875558,18.4587054 127.156808,18.9274554 127.397879,19.4229911 L121.813058,19.4229911 Z" id="路径" fill-rule="nonzero"></path>
            <path d="M139.546875,19.7578125 C139.292411,20.0792411 139.024554,20.4274554 138.743304,20.7756696 L135.180804,20.7756696 L135.180804,21.8738839 L137.805804,21.8738839 C137.497768,22.2220982 137.176339,22.5703125 136.841518,22.9185268 C137.631696,23.0658482 138.435268,23.2399554 139.238839,23.4274554 C138.194196,23.6551339 136.774554,23.7756696 134.979911,23.7756696 L135.729911,24.9274554 C137.953125,24.8872768 139.761161,24.5524554 141.167411,23.9229911 C142.466518,24.2712054 143.765625,24.6729911 145.051339,25.1283482 L145.841518,24.0569196 C144.716518,23.7087054 143.604911,23.3872768 142.520089,23.1194196 C142.948661,22.7845982 143.350446,22.3694196 143.752232,21.8738839 L145.921875,21.8738839 L145.921875,20.7756696 L140.296875,20.7756696 C140.457589,20.5747768 140.618304,20.3604911 140.805804,20.1462054 L139.546875,19.7578125 Z M140.966518,22.7578125 C140.256696,22.5970982 139.560268,22.4631696 138.877232,22.3560268 C139.011161,22.2087054 139.171875,22.0479911 139.332589,21.8738839 L142.185268,21.8738839 C141.850446,22.1953125 141.448661,22.4899554 140.966518,22.7578125 Z M146.029018,18.5256696 L141.194196,18.5256696 C141.046875,18.1506696 140.899554,17.8024554 140.752232,17.4944196 L139.305804,17.7354911 C139.479911,17.9765625 139.640625,18.2444196 139.801339,18.5256696 L135.046875,18.5256696 L135.046875,20.5881696 L136.359375,20.5881696 L136.359375,19.6774554 L144.716518,19.6774554 L144.716518,20.5881696 L146.029018,20.5881696 L146.029018,18.5256696 Z M134.752232,25.4363839 L134.752232,26.6417411 L138.676339,26.6417411 C137.832589,27.3381696 136.439732,27.9676339 134.511161,28.5435268 L135.261161,29.7756696 C137.404018,28.9453125 138.944196,27.9676339 139.854911,26.8426339 L139.854911,29.9363839 L141.274554,29.9363839 L141.274554,26.8694196 C142.279018,28.0212054 143.832589,28.9587054 145.948661,29.6953125 L146.564732,28.4631696 C144.756696,28.0078125 143.390625,27.3917411 142.453125,26.6417411 L146.337054,26.6417411 L146.337054,25.4363839 L141.274554,25.4363839 L141.274554,24.5122768 L139.854911,24.5122768 L139.854911,25.4363839 L134.752232,25.4363839 Z" id="形状" fill-rule="nonzero"></path>
        </g>
        <g id="Logo2" stroke-width="1" transform="translate(9, 8)" fill="#FFFFFF">
            <g id="编组" transform="translate(53.4137, 4.9914)">
                <polygon id="路径" points="0.856045745 0.33045977 0.856045745 4.77873563 2.61780542 4.77873563 2.61780542 5.45689655 0 5.45689655 0 0.33045977"></polygon>
                <path d="M4.99603489,1.32758621 C5.69431111,1.32758621 6.173463,1.65229885 6.42764723,1.98275862 L6.42764723,1.39367816 L7.28953629,1.39367816 L7.28953629,5.45689655 L6.42764723,5.45689655 L6.42764723,4.85344828 C6.16469803,5.20114943 5.67093785,5.52586207 4.9814266,5.52586207 C3.90917818,5.52586207 3.04728912,4.6637931 3.04728912,3.40804598 C3.04728912,2.15229885 3.90917818,1.32758621 4.99603489,1.32758621 L4.99603489,1.32758621 Z M5.17717768,2.05747126 C4.54025627,2.05747126 3.92378647,2.52873563 3.92378647,3.40804598 C3.92378647,4.28735632 4.54025627,4.79597701 5.17717768,4.79597701 C5.81409909,4.79597701 6.43056889,4.30172414 6.43056889,3.42241379 C6.43056889,2.54310345 5.82286406,2.05747126 5.17717768,2.05747126 L5.17717768,2.05747126 Z" id="形状" fill-rule="nonzero"></path>
                <path d="M10.7137193,1.32758621 C11.809341,1.32758621 12.6566217,2.15517241 12.6566217,3.40804598 C12.6566217,4.66091954 11.800576,5.52586207 10.7137193,5.52586207 C10.0300513,5.52586207 9.54505614,5.22413793 9.27334196,4.87068966 L9.27334196,5.45977011 L8.41729621,5.45977011 L8.41729621,0 L9.27334196,0 L9.27334196,2 C9.54213448,1.63218391 10.0621896,1.32758621 10.7137193,1.32758621 Z M10.5267332,2.05747126 C9.88981176,2.05747126 9.27334196,2.55172414 9.27334196,3.42241379 C9.27334196,4.29310345 9.88981176,4.79597701 10.5267332,4.79597701 C11.1636546,4.79597701 11.7859677,4.28735632 11.7859677,3.40804598 C11.7859677,2.52873563 11.1694979,2.05747126 10.5267332,2.05747126 Z" id="形状" fill-rule="nonzero"></path>
                <path d="M15.002713,5.52586207 C14.012271,5.52586207 13.3139947,4.95114943 13.2789348,4.21264368 L14.1641972,4.21264368 C14.1934137,4.54597701 14.5177178,4.81609195 14.9881047,4.81609195 C15.4584916,4.81609195 15.7448141,4.6091954 15.7448141,4.33045977 C15.7448141,3.53448276 13.346133,3.99137931 13.346133,2.5 C13.346133,1.85057471 13.9626028,1.32758621 14.9355148,1.32758621 C15.9084269,1.32758621 16.4869151,1.82183908 16.5336617,2.63218391 L15.6776159,2.63218391 C15.6483993,2.27873563 15.3708419,2.03448276 14.9062983,2.03448276 C14.4417547,2.03448276 14.208022,2.2183908 14.208022,2.49137931 C14.208022,3.31034483 16.539505,2.85344828 16.5862515,4.32183908 C16.5862515,5.00862069 15.9785467,5.52298851 15.002713,5.52298851 L15.002713,5.52586207 Z" id="路径"></path>
            </g>
            <g id="编组" transform="translate(14.6813, 2.1983)">
                <polygon id="路径" points="0 8.29885057 1.75007304 0.261494253 3.88580492 0.261494253 2.13573188 8.29885057"></polygon>
                <polygon id="路径" points="3.70758379 8.29885057 5.51608999 0 5.72060604 0 10.2725489 4.68965517 11.236696 0.261494253 13.2058934 0.261494253 11.3886222 8.60344828 11.2045578 8.60344828 6.63508494 3.9137931 5.67970283 8.29885057 3.71050545 8.29885057"></polygon>
                <polygon id="路径" points="13.1854418 8.29885057 14.9355148 0.261494253 20.4983514 0.261494253 20.1419091 1.89655172 16.7031178 1.89655172 16.3554405 3.5 19.4290246 3.5 19.075504 5.12356322 16.0019199 5.12356322 15.309487 8.29885057 13.1854418 8.29885057"></polygon>
                <polygon id="路径" points="20.1886556 8.29885057 21.9387287 0.261494253 24.0744605 0.261494253 22.3243875 8.29885057 20.1886556 8.29885057"></polygon>
                <polygon id="路径" points="23.8173546 8.29885057 25.6258608 0 25.8303769 0 30.3823198 4.68965517 31.3464669 0.261494253 33.3156643 0.261494253 31.4983931 8.60344828 31.3143286 8.60344828 26.9347636 3.9137931 25.9647732 8.29885057 23.8173546 8.29885057"></polygon>
                <polygon id="路径" points="33.2572311 8.29885057 35.0073041 0.261494253 37.143036 0.261494253 35.392963 8.29885057"></polygon>
            </g>
            <g id="编组">
                <path d="M6.60879002,12.9971264 C2.9654827,12.9971264 0,10.0833333 0,6.5 C0,2.91666667 2.9654827,0 6.60879002,0 C10.2520973,0 13.21758,2.91666667 13.21758,6.5 C13.21758,10.0833333 10.2520973,13 6.60879002,13 L6.60879002,12.9971264 Z M6.60879002,0.704022989 C3.35990651,0.704022989 0.715806169,3.3045977 0.715806169,6.5 C0.715806169,9.6954023 3.35990651,12.295977 6.60879002,12.295977 C9.85767353,12.295977 12.5017739,9.6954023 12.5017739,6.5 C12.5017739,3.3045977 9.85767353,0.704022989 6.60879002,0.704022989 Z" id="形状" fill-rule="nonzero"></path>
                <g transform="translate(2.7639, 1.6494)" id="路径">
                    <path d="M7.5729371,1.33045977 C7.02658709,0.744252874 6.34291915,0.281609195 5.57160149,0 C5.57160149,0.00287356322 5.57160149,0.00574712644 5.57160149,0.00574712644 L4.65420093,4.18390805 L1.37610084,1.8908046 L0.920322217,4.03448276 L6.20852289,7.67241379 L7.57878042,1.33045977"></path>
                    <path d="M2.68792521,6.41666667 L0.70119788,5.03735632 L0,8.23563218 C0.55219333,8.81321839 1.23878292,9.26149425 2.01010059,9.53735632 L2.68792521,6.41666667 Z"></path>
                </g>
            </g>
        </g>
    </g>
</svg>