<svg xmlns="http://www.w3.org/2000/svg" width="16" height="16" fill="none" viewBox="0 0 16 16"><path fill="#fff" d="M8 16C3.58817 16 0 12.4118 0 8C0 3.58817 3.58817 0 8 0C12.4118 0 16 3.58817 16 8C16 12.4118 12.4118 16 8 16ZM8 0.866405C4.06698 0.866405 0.866405 4.06698 0.866405 8C0.866405 11.933 4.06698 15.1336 8 15.1336C11.933 15.1336 15.1336 11.933 15.1336 8C15.1336 4.06698 11.933 0.866405 8 0.866405Z"/><path fill="#fff" d="M12.5174 3.66806C11.8562 2.947 11.0269 2.37985 10.0949 2.0293C10.0949 2.03215 10.0949 2.035 10.0949 2.035L8.98343 7.17928L5.01335 4.35776L4.46045 6.99688L10.8616 11.4771L12.5203 3.66806"/><path fill="#fff" d="M6.60335 9.92965L4.19794 8.23389L3.34863 12.1698C4.01554 12.8794 4.84774 13.4323 5.78255 13.7715L6.60335 9.92965Z"/></svg>