<?xml version="1.0" standalone="no"?><!DOCTYPE svg PUBLIC "-//W3C//DTD SVG 1.1//EN"
        "http://www.w3.org/Graphics/SVG/1.1/DTD/svg11.dtd">
<svg t="1629774163596" class="icon" viewBox="0 0 1024 1024" version="1.1" xmlns="http://www.w3.org/2000/svg"
     p-id="13191"
     width="16" height="16">
    <defs>
        <style type="text/css"></style>
    </defs>
    <path d="M906.93180769 77.57501157H117.06819231c-39.49318077 0-78.98636156 31.5945446-78.98636153 78.98636154v710.87725378c0 47.3918169 31.5945446 78.98636156 78.98636153 78.98636154h789.86361538c39.49318077 0 78.98636156-31.5945446 78.98636153-78.98636154v-710.87725378c0-47.3918169-31.5945446-78.98636156-78.98636153-78.98636154z m-608.19498383 655.58680074l-47.39181689-47.39181697c-7.89863616-7.89863616-7.89863616-15.79727229 0-23.69590843l157.97272304-157.97272307-157.97272304-157.97272305c-7.89863616-7.89863616-7.89863616-15.79727229 0-23.69590844l47.39181689-47.39181696c7.89863616-7.89863616 15.79727229-7.89863616 23.69590849 0l213.26317612 213.26317614c7.89863616 7.89863616 7.89863616 15.79727229 0 23.69590847l-213.26317612 213.26317614c-7.89863616 15.79727229-15.79727229 15.79727229-23.69590849 7.89863617z m513.41134996-7.89863617c0 7.89863616-7.89863616 15.79727229-15.79727229 15.79727232h-252.75635693c-7.89863616 0-15.79727229-7.89863616-15.79727231-15.79727232v-63.18908923c0-7.89863616 7.89863616-15.79727229 15.79727231-15.79727233h252.75635693c7.89863616 0 15.79727229 7.89863616 15.79727229 15.79727233v63.18908923z"
          fill="#bfbfbf" p-id="13192"></path>
</svg>