<?xml version="1.0" standalone="no"?><!DOCTYPE svg PUBLIC "-//W3C//DTD SVG 1.1//EN" "http://www.w3.org/Graphics/SVG/1.1/DTD/svg11.dtd"><svg t="1628037941173" class="icon" viewBox="0 0 1024 1024" version="1.1" xmlns="http://www.w3.org/2000/svg" p-id="45717" xmlns:xlink="http://www.w3.org/1999/xlink" width="16" height="16"><defs><style type="text/css"></style></defs><path d="M862.663 464.327a146.347 146.347 0 0 0-42.667 5.973v-48.64a128 128 0 0 0-128-128H128.37a128 128 0 0 0-128 128v245.334a341.333 341.333 0 0 0 341.333 341.333H480.37a341.333 341.333 0 0 0 329.813-256 145.067 145.067 0 0 0 52.48 10.667 149.333 149.333 0 0 0 0-298.667z m-128 202.667a256 256 0 0 1-256 256h-136.96a256 256 0 0 1-256-256V421.66a42.667 42.667 0 0 1 42.667-42.666h565.333a42.667 42.667 0 0 1 42.667 42.666l-1.707 245.334z m128 10.666a62.72 62.72 0 0 1-37.547-12.373h-3.413V563.74h2.987a64 64 0 1 1 37.973 113.92z m-657.92-489.358l-8.107 12.374a42.667 42.667 0 0 0 11.947 59.306 42.667 42.667 0 0 0 23.467 7.254 42.667 42.667 0 0 0 35.413-19.2l8.107-12.374a102.827 102.827 0 0 0-13.227-128 19.627 19.627 0 0 1-2.987-27.306l9.387-15.787a42.667 42.667 0 0 0-73.387-43.52l-9.386 16.64a105.387 105.387 0 0 0 15.36 128c6.969 5.433 8.448 15.36 3.413 22.613z m178.773 0l-8.106 12.374a42.667 42.667 0 0 0 35.413 66.56 42.667 42.667 0 0 0 35.413-19.2l8.107-12.374a102.827 102.827 0 0 0-13.227-128 20.053 20.053 0 0 1-3.413-27.306l9.813-15.787a42.667 42.667 0 0 0-73.386-43.52l-9.387 16.64a105.387 105.387 0 0 0 16.64 128c6.173 5.973 7.083 15.587 2.133 22.613z m178.774 0l-8.107 12.374a42.667 42.667 0 0 0 35.413 66.56 42.667 42.667 0 0 0 35.414-19.2l8.106-12.374a102.827 102.827 0 0 0-13.226-128 20.053 20.053 0 0 1-3.414-27.306l11.52-15.36a42.667 42.667 0 0 0-16.64-58.454 42.667 42.667 0 0 0-58.453 14.507l-10.24 16.64a105.813 105.813 0 0 0 16.213 128 17.493 17.493 0 0 1 3.414 22.613z" p-id="45718" fill="#AFB1B3"></path></svg>