<?xml version="1.0" standalone="no"?><!DOCTYPE svg PUBLIC "-//W3C//DTD SVG 1.1//EN" "http://www.w3.org/Graphics/SVG/1.1/DTD/svg11.dtd"><svg t="1627998304431" class="icon" viewBox="0 0 1024 1024" version="1.1" xmlns="http://www.w3.org/2000/svg" p-id="27556" xmlns:xlink="http://www.w3.org/1999/xlink" width="16" height="16"><defs><style type="text/css"></style></defs><path d="M972.606365 402.273207h-89.99774c-8.499047-18.280119-20.528782-56.310794-35.935609-83.405347l63.591303-61.811623c20.094614-20.061847 20.094614-51.655774 0.032768-71.684854l-72.561382-72.123117c-20.029079-20.061847-52.528206-19.842715-72.624869 0.219132l-60.029895 63.685509c-27.061785-15.374059-65.09246-27.311636-83.37258-35.810683V51.342436c0-28.374529-30.064099-51.342436-58.407908-51.342436h-102.621385c-28.34381 0-58.405861 22.967907-58.405861 51.342436v90.028459C383.993088 149.839223 345.962413 161.871006 318.86786 177.245066l-61.780904-63.560584c-20.094614-20.094614-51.686494-20.094614-71.717621-0.063487L113.248266 186.245864c-20.031127 20.000408-19.842715 52.499535 0.219132 72.592101L177.185675 318.86786c-15.406827 27.092504-27.344404 65.12318-35.812732 83.405347H51.373155C22.967907 402.273207 0 432.335258 0 460.648348v102.654153c0 28.311042 22.967907 58.407909 51.373155 58.407908H141.370895c8.499047 18.280119 20.563598 56.278027 35.90489 83.403299l-63.560584 61.813671c-20.094614 20.061847-20.094614 51.623007-0.063487 71.684854l72.592102 72.153837c20.000408 20.031127 52.530254 19.814043 72.592101-0.280571l60.029895-63.687557c27.092504 15.406827 65.12318 27.344404 83.405347 35.810683v90.030507c0 28.374529 30.062051 51.342436 58.405861 51.342436h102.621385c28.311042 0 58.407909-22.967907 58.407908-51.375203v-89.99774c18.280119-8.499047 56.278027-20.528782 83.403299-35.935609l61.813671 63.591303c20.094614 20.063895 51.655774 20.063895 71.684854 0.032768l72.153837-72.561382c20.031127-20.061847 19.814043-52.528206-0.247803-72.624869l-63.687558-60.029895c15.376107-27.092504 27.311636-65.09246 35.779964-83.37258h90.030508c28.374529 0 51.342436-30.064099 51.342435-58.407908v-102.621385c0.002048-28.34381-22.965859-58.405861-51.373155-58.405861zM511.990784 742.861764c-127.528712 0-230.934467-103.375035-230.934467-230.903747S384.462072 281.025598 511.990784 281.025598c127.559432 0 230.934467 103.405755 230.934467 230.934467S639.550216 742.861764 511.990784 742.861764z m0 0" p-id="27557" fill="#6E6E6E"></path></svg>