<?xml version="1.0" standalone="no"?><!DOCTYPE svg PUBLIC "-//W3C//DTD SVG 1.1//EN" "http://www.w3.org/Graphics/SVG/1.1/DTD/svg11.dtd"><svg t="1628315188574" class="icon" viewBox="0 0 1095 1024" version="1.1" xmlns="http://www.w3.org/2000/svg" p-id="2999" xmlns:xlink="http://www.w3.org/1999/xlink" width="17.109375" height="16"><defs><style type="text/css"></style></defs><path d="M404.596 932.402c-26.474 0-55.071-19.325-55.071-63.337V495.412L81.768 185.654c-7.82-8.043-13.74-17.65-17.65-28.15a48.507 48.507 0 0 1 0-35.857c5.363-11.282 14.857-20.219 26.475-24.799 10.5-4.245 21.782-6.255 33.064-6.032h645.32c11.283-0.223 22.565 1.787 33.065 6.032 11.617 4.58 21.112 13.517 26.474 24.799a48.507 48.507 0 0 1 0 35.857c-3.91 10.5-9.83 20.107-17.65 28.15l-251 310.316v224.304c-2.234 46.916-17.985 90.928-53.395 121.759l-62.108 72.161c-12.511 11.17-28.485 17.538-45.24 18.208h5.473z m294.9-390.744h238.268c28.15 0 50.937 16.309 50.937 36.416s-22.788 36.415-50.937 36.415H699.497c-28.15 0-50.938-16.309-50.938-36.415s22.788-36.416 50.938-36.416z m238.268 142.759H699.497c-28.15 0-50.938 16.309-50.938 36.416s22.788 36.415 50.938 36.415h238.267c28.15 0 50.937-16.309 50.937-36.415s-22.788-36.416-50.937-36.416z m0 142.2H699.497c-18.208 0-34.964 6.926-44.124 18.208-9.048 11.282-9.048 25.134 0 36.416 9.049 11.282 25.916 18.208 44.124 18.208h238.267c18.208 0 34.963-6.926 44.123-18.208 9.048-11.282 9.048-25.134 0-36.416-9.16-11.282-25.915-18.208-44.123-18.208z m0 0" p-id="3000" fill="#AFB1B3"></path></svg>