<?xml version="1.0" standalone="no"?><!DOCTYPE svg PUBLIC "-//W3C//DTD SVG 1.1//EN" "http://www.w3.org/Graphics/SVG/1.1/DTD/svg11.dtd"><svg t="1626334596784" class="icon" viewBox="0 0 1024 1024" version="1.1" xmlns="http://www.w3.org/2000/svg" p-id="6401" xmlns:xlink="http://www.w3.org/1999/xlink" width="16" height="16"><defs><style type="text/css"></style></defs><path d="M508.017778 624.014222a112.014222 112.014222 0 0 0 111.559111-121.742222l-121.315556 121.287111c3.214222 0.284444 6.456889 0.426667 9.756445 0.426667zM878.734222 165.546667l-42.723555-42.666667a7.992889 7.992889 0 0 0-11.320889 0L715.377778 232.220444C655.075556 201.415111 587.292444 186.026667 512 186.026667c-192.199111 0-335.587556 100.124444-430.193778 300.288a60.302222 60.302222 0 0 0 0 51.512889c37.802667 79.644444 83.342222 143.445333 136.533334 191.431111l-105.784889 105.756444a7.992889 7.992889 0 0 0 0 11.320889l42.695111 42.666667a7.992889 7.992889 0 0 0 11.320889 0L878.734222 176.896a7.992889 7.992889 0 0 0 0-11.320889zM332.032 512a176.042667 176.042667 0 0 1 258.844444-155.306667l-48.611555 48.64a112.071111 112.071111 0 0 0-140.913778 140.913778l-48.64 48.64A175.075556 175.075556 0 0 1 332.032 512z" p-id="6402" fill="#8a8a8a"></path><path d="M942.193778 486.200889c-35.214222-74.126222-77.084444-134.599111-125.696-181.361778l-144.128 144.156445a176.099556 176.099556 0 0 1-227.384889 227.384888l-122.254222 122.254223c56.718222 26.225778 119.808 39.367111 189.269333 39.367111 192.199111 0 335.587556-100.124444 430.193778-300.316445a60.302222 60.302222 0 0 0 0-51.484444z" p-id="6403" fill="#8a8a8a"></path></svg>