<?xml version="1.0" standalone="no"?><!DOCTYPE svg PUBLIC "-//W3C//DTD SVG 1.1//EN" "http://www.w3.org/Graphics/SVG/1.1/DTD/svg11.dtd"><svg t="1628314878330" class="icon" viewBox="0 0 1024 1024" version="1.1" xmlns="http://www.w3.org/2000/svg" p-id="1842" xmlns:xlink="http://www.w3.org/1999/xlink" width="16" height="16"><defs><style type="text/css"></style></defs><path d="M511.509333 63.552A32 32 0 0 0 480 96v33.621333C293.802667 145.088 145.088 293.802667 129.621333 480H96a32 32 0 1 0 0 64h33.621333c15.466667 186.197333 164.181333 334.912 350.378667 350.378667V928a32 32 0 1 0 64 0v-33.408c169.578667-14.08 308.096-138.752 343.253333-301.546667l-77.248 34.752c-42.837333 109.781333-144.426667 190.229333-266.005333 202.410667V800a32 32 0 0 0-32.490667-32.448A32 32 0 0 0 480 800v30.378667C329.066667 815.317333 208.682667 694.933333 193.621333 544H224a32 32 0 1 0 0-64H193.621333C208.682667 329.066667 329.066667 208.682667 480 193.621333V224a32 32 0 1 0 64 0V193.792c121.6 12.16 223.189333 92.629333 266.005333 202.410667l77.205334 34.773333C852.053333 268.16 713.557333 143.466667 544 129.386667V96a32 32 0 0 0-32.490667-32.448z m164.202667 320.64a32 32 0 0 0-32.746667 45.269333L681.216 512l-38.250667 82.56a31.957333 31.957333 0 0 0 42.176 42.624l213.333334-96a32 32 0 0 0 0-58.389333l-213.333334-96a31.850667 31.850667 0 0 0-9.429333-2.581334z" p-id="1843" fill="#AFB1B3"></path></svg>