<svg width="16" height="16" viewBox="0 0 16 16" fill="none" xmlns="http://www.w3.org/2000/svg">
    <path d="M14.0202 6.70769C14.3417 5.73846 14.2345 4.66154 13.6987 3.8C12.9487 2.50769 11.3414 1.75385 9.84133 2.07692C9.30558 1.43077 8.34123 1 7.26972 1C5.76962 1 4.37666 1.96923 3.84091 3.47692C2.87655 3.69231 2.01935 4.23077 1.4836 5.09231C0.733546 6.38462 0.840696 8.10769 1.9122 9.18462C1.59075 10.1538 1.6979 11.2308 2.23365 12.0923C2.9837 13.3846 4.59096 14.1385 6.09107 13.8154C6.73397 14.5692 7.69832 15 8.76983 15C10.2699 15 11.6629 14.0308 12.1986 12.5231C13.163 12.3077 14.0202 11.6615 14.556 10.8C15.306 9.50769 15.0917 7.89231 14.0202 6.70769ZM8.76983 14.1385C8.12693 14.1385 7.59117 13.9231 7.05542 13.4923H7.16257L9.94848 11.7692C10.0556 11.7692 10.1628 11.5538 10.1628 11.4462V7.46154L11.3414 8.10769V11.3385C11.4486 12.9538 10.2699 14.0308 8.76983 14.1385ZM3.09086 11.6615C2.7694 11.1231 2.66225 10.4769 2.7694 9.93846H2.87655L5.66247 11.5538C5.76962 11.6615 5.98392 11.6615 6.09107 11.5538L9.51988 9.61539V11.0154L6.62682 12.6308C5.44816 13.3846 3.84091 12.9538 3.09086 11.6615ZM2.3408 5.63077C2.66225 5.09231 3.09086 4.66154 3.73376 4.44615V7.78462C3.73376 8 3.84091 8.10769 3.94806 8.21538L7.37687 10.1538L6.19822 10.8L3.30516 9.18462C2.01935 8.43077 1.59075 6.81539 2.3408 5.63077ZM12.0915 7.89231L8.66268 5.84615L9.84133 5.2L12.7344 6.81539C14.0202 7.56923 14.4488 9.18462 13.6987 10.3692C13.3773 10.9077 12.9487 11.3385 12.3058 11.5538V8.21538C12.3058 8.10769 12.1986 7.89231 12.0915 7.89231ZM13.2701 6.06154L10.3771 4.44615C10.2699 4.33846 10.0556 4.33846 9.94848 4.44615L6.51967 6.38462V4.98462L9.41273 3.36923C10.6985 2.61538 12.3058 3.04615 13.0558 4.33846C13.2701 4.87692 13.3773 5.52308 13.2701 6.06154ZM5.87677 8.53846L4.69811 7.78462V4.55385C4.69811 3.15385 5.87677 1.96923 7.37687 1.96923C8.01978 1.96923 8.55553 2.18462 9.09128 2.61538H8.98413L6.09107 4.23077C5.98392 4.23077 5.87677 4.44615 5.87677 4.55385V8.53846ZM6.51967 7.13846L8.01978 6.27692L9.51988 7.13846V8.86154L8.01978 9.72308L6.51967 8.86154V7.13846Z" fill="#087CFA"/>
</svg>
