<?xml version="1.0" standalone="no"?><!DOCTYPE svg PUBLIC "-//W3C//DTD SVG 1.1//EN" "http://www.w3.org/Graphics/SVG/1.1/DTD/svg11.dtd">
<svg t="1642303366632" class="icon" viewBox="0 0 1024 1024" version="1.1" xmlns="http://www.w3.org/2000/svg" p-id="3157"
     width="16" height="16"><defs><style type="text/css"></style></defs><path d="M577.207712 4.226012a511.933609 511.933609 0 1 0-130.415087 1015.548296A511.933609 511.933609 0 0 0 577.207712 4.226012z" fill="#FF6C37" p-id="3158"></path><path d="M370.194559 544.347965a1.919751 1.919751 0 0 0 2.23971 1.023867l81.909377-17.661709L419.852119 492.80265l-49.081635 49.081634a1.919751 1.919751 0 0 0-0.639917 2.463681zM753.728819 192.681572a76.342099 76.342099 0 1 0 32.15583 145.58112l-51.929265-51.929266a6.39917 6.39917 0 0 1 0-9.054826l67.831203-67.767211a76.310104 76.310104 0 0 0-48.057768-16.861813z" fill="#FFFFFF" p-id="3159"></path><path d="M811.097379 218.278252L747.521624 281.630036l49.849536 49.849535a76.790041 76.790041 0 0 0 13.726219-113.201319zM683.881878 335.19109h-1.119855a20.12539 20.12539 0 0 0-3.93549 0.319958H678.378591a30.012108 30.012108 0 0 0-4.223452 1.279834l-1.055863 0.479938a20.381357 20.381357 0 0 0-2.975614 1.535801l-1.119855 0.735905a26.652543 26.652543 0 0 0-3.519543 2.879626l-188.519552 188.583543 23.356971 23.356971 199.654108-175.273269a22.909029 22.909029 0 0 0 3.071601-3.263577l0.863888-1.119855a27.292461 27.292461 0 0 0 3.519544-7.487029c0-0.607921 0.351954-1.215842 0.511933-1.823763a30.396058 30.396058 0 0 0 0.511934-3.839502v-1.69578-2.783639c0-0.895884 0-1.215842-0.255967-1.823764a24.892772 24.892772 0 0 0-19.517469-19.613456h-0.959875a27.644415 27.644415 0 0 0-3.839502-0.447942zM428.682974 483.747824l38.714979 38.491008 189.063481-189.063481c6.143203-6.01522 14.142166-9.758734 22.717054-10.590626-33.435664-25.59668-69.878938-18.877552-250.495514 161.163099zM710.598413 386.480438l-2.303701 2.23971-199.654108 175.177282 33.947598 33.915601c84.149087-79.605676 158.859398-155.435842 168.042207-211.332593zM212.614995 796.891213a1.823763 1.823763 0 0 0 1.631789 1.343826l87.028713 5.983224-48.793672-48.793672-39.450884 39.418888a1.919751 1.919751 0 0 0-0.415946 2.047734zM261.600642 746.369765l51.449328 51.449328a3.903494 3.903494 0 0 0 4.863369 0.639917 3.839502 3.839502 0 0 0 1.983743-4.447423l-8.63888-36.955208a11.070564 11.070564 0 0 1 5.695262-12.318402c90.196303-45.210137 162.922871-91.764099 216.323945-138.222075l-35.835352-35.835352-76.790042 16.509859-159.051373 159.179356zM486.435484 559.801961l-19.229506-19.229506-26.620548 26.556555a1.279834 1.279834 0 0 0 0 1.631789 1.215842 1.215842 0 0 0 1.471809 0.671913l44.378245-9.598755z" fill="#FFFFFF" p-id="3160"></path><path d="M812.889147 259.552899a5.919232 5.919232 0 1 0-10.558631 5.119336 17.821689 17.821689 0 0 1-2.239709 19.261502 5.919232 5.919232 0 0 0 9.118817 7.583017 29.628158 29.628158 0 0 0 3.679523-31.963855z" fill="#FF6C37" p-id="3161"></path></svg>