<?xml version="1.0" standalone="no"?><!DOCTYPE svg PUBLIC "-//W3C//DTD SVG 1.1//EN" "http://www.w3.org/Graphics/SVG/1.1/DTD/svg11.dtd">
<svg t="1642120849041" class="icon" viewBox="0 0 1024 1024" version="1.1" xmlns="http://www.w3.org/2000/svg" p-id="2816"
     width="16" height="16"><defs><style type="text/css"></style></defs><path d="M577.152 4.224C296.736-31.744 40.192 166.4 4.224 446.848c-35.968 280.416 162.144 536.928 442.592 572.928 280.448 35.968 537.056-162.176 572.928-442.624C1055.744 296.736 857.664 40.224 577.152 4.224z m105.44 319.36a36.48 36.48 0 0 0-25.312 10.656l-189.984 189.984-40.544-40.544c187.264-186.72 221.024-188.512 255.84-160.128z m-207.488 207.392l189.44-189.44a26.464 26.464 0 1 1 36.192 38.528l-0.032 0.032-200.48 176-25.088-25.088z m14.08 29.632l-46.944 10.144a2.624 2.624 0 0 1-2.88-1.344 2.496 2.496 0 0 1 0.416-3.104l27.52-27.52 21.856 21.856z m-119.616-19.584l50.016-50.016 37.504 37.472-84.448 18.176a3.104 3.104 0 0 1-3.616-1.664v-0.032a2.976 2.976 0 0 1-0.48-1.664c0-0.928 0.416-1.728 1.024-2.304z m-155.552 258.464a3.232 3.232 0 0 1-2.944-3.232v-0.32a3.296 3.296 0 0 1 0.928-1.952h0.096l40.352-40.352 52.128 52.128-90.592-6.272z m103.456-53.6a9.76 9.76 0 0 0-4.96 10.976v-0.064l8.672 36.896a5.344 5.344 0 0 1-8.992 5.024h-0.128l-52.384-52.448 160.512-160.352 77.664-16.768 37.28 37.28c-53.536 47.008-126.752 93.92-217.6 139.424z m225.248-146.24h-0.096l-35.808-35.808 200.48-176a41.6 41.6 0 0 0 5.024-5.344l0.064-0.096c-6.304 57.376-86.56 138.464-169.696 217.216z m156.032-275.648l-0.128-0.096a77.728 77.728 0 0 1 105.056-114.432l-0.128-0.096-68.704 68.832a5.12 5.12 0 0 0 0 7.232l53.216 53.216a76.608 76.608 0 0 1-34.464 8.096 77.184 77.184 0 0 1-54.816-22.72z m109.984 0a72.256 72.256 0 0 1-11.296 9.12l-0.288 0.16h-0.032l-51.488-51.488 65.408-65.408a77.76 77.76 0 0 1-2.304 107.616z m-4.256-65.856a6.08 6.08 0 0 0-2.272 6.72v-0.032a17.6 17.6 0 0 1-2.304 19.232l0.032-0.032a5.984 5.984 0 0 0 0.992 8.384 6.016 6.016 0 0 0 3.584 1.28 6.016 6.016 0 0 0 4.512-2.112 29.312 29.312 0 0 0 3.616-32.192l0.064 0.16a5.92 5.92 0 0 0-8.288-1.408h0.032z" fill="#FF6C37" p-id="2817"></path></svg>