<?xml version="1.0" standalone="no"?><!DOCTYPE svg PUBLIC "-//W3C//DTD SVG 1.1//EN"
        "http://www.w3.org/Graphics/SVG/1.1/DTD/svg11.dtd">
<svg t="1628037833348" class="icon" viewBox="0 0 1152 1024" version="1.1" xmlns="http://www.w3.org/2000/svg"
     p-id="43185" width="18" height="16">
    <defs>
        <style type="text/css"></style>
    </defs>
    <path d="M1056.6 93H777c-96.2 0-179.8 66.6-200.8 160.6-21.2-94-104.6-160.6-200.8-160.6H96c-53 0-96 43-96 96v491.6c0 53 43 96 96 96h179.4c204.4 0 265.4 48.8 294.6 150 1.4 5.6 10.4 5.6 12 0 29.4-101.2 90.4-150 294.6-150H1056c53 0 96-43 96-96V189.2c0-52.8-42.6-95.8-95.4-96.2zM484 623.8c0 3.8-3 7-7 7H156.4c-3.8 0-7-3-7-7V578c0-3.8 3-7 7-7h320.8c3.8 0 7 3 7 7v45.8z m0-121.8c0 3.8-3 7-7 7H156.4c-3.8 0-7-3-7-7v-45.8c0-3.8 3-7 7-7h320.8c3.8 0 7 3 7 7V502z m0-121.8c0 3.8-3 7-7 7H156.4c-3.8 0-7-3-7-7v-45.8c0-3.8 3-7 7-7h320.8c3.8 0 7 3 7 7v45.8z m518.6 243.4c0 3.8-3 7-7 7H675c-3.8 0-7-3-7-7v-45.8c0-3.8 3-7 7-7h320.8c3.8 0 7 3 7 7v45.8z m0-121.8c0 3.8-3 7-7 7H675c-3.8 0-7-3-7-7V456c0-3.8 3-7 7-7h320.8c3.8 0 7 3 7 7v45.8z m0-121.8c0 3.8-3 7-7 7H675c-3.8 0-7-3-7-7v-45.6c0-3.8 3-7 7-7h320.8c3.8 0 7 3 7 7V380z"
          p-id="43186" data-spm-anchor-id="a313x.7781069.0.i40" class="selected" fill="#3CB371"></path>
</svg>