<?xml version="1.0" standalone="no"?><!DOCTYPE svg PUBLIC "-//W3C//DTD SVG 1.1//EN" "http://www.w3.org/Graphics/SVG/1.1/DTD/svg11.dtd"><svg t="1628214656387" class="icon" viewBox="0 0 1196 1024" version="1.1" xmlns="http://www.w3.org/2000/svg" p-id="6051" xmlns:xlink="http://www.w3.org/1999/xlink" width="18.6875" height="16"><defs><style type="text/css"></style></defs><path d="M234.022786 678.195459L370.932056 477.316001a12.829676 12.829676 0 0 0-10.632-20.076066H264.374473a372.357576 372.357576 0 0 1 377.76267-339.986404A372.238782 372.238782 0 1 1 427.35887 798.057891a51.378099 51.378099 0 0 0-69.197093 11.582346 51.972066 51.972066 0 0 0 12.295106 74.899171 476.658087 476.658087 0 0 0 603.351133-59.515439 474.99498 474.99498 0 0 0 124.911147-448.97925A476.479897 476.479897 0 0 0 557.615715 19.605445a476.123517 476.123517 0 0 0-396.828993 437.63449H62.366479a12.889072 12.889072 0 0 0-10.632 20.076066l137.325046 200.879458a27.203664 27.203664 0 0 0 44.963261 0z" p-id="6052" fill="#6E6E6E"></path></svg>