<svg xmlns="http://www.w3.org/2000/svg" xmlns:xlink="http://www.w3.org/1999/xlink" width="16" height="16" class="icon" p-id="2801" t="1628210816114" version="1.1" viewBox="0 0 1024 1024"><defs><style type="text/css"/></defs><path fill="#6E6E6E" d="M768 64H128c-35.392 0-64 28.608-64 64v768a64 64 0 0 0 64 64h768a64 64 0 0 0 64-64V256l-192-192zM320 128h64v256h-64V128z m384 768H320v-256h384v256z m192-64a64 64 0 0 1-64 64h-64V576H256v320H192a64 64 0 0 1-64-64V192a64 64 0 0 1 64-64h64v320h448V128l192 192v512z" p-id="2802"/></svg>