<?xml version="1.0" standalone="no"?><!DOCTYPE svg PUBLIC "-//W3C//DTD SVG 1.1//EN" "http://www.w3.org/Graphics/SVG/1.1/DTD/svg11.dtd"><svg t="1628210816114" class="icon" viewBox="0 0 1024 1024" version="1.1" xmlns="http://www.w3.org/2000/svg" p-id="2801" xmlns:xlink="http://www.w3.org/1999/xlink" width="16" height="16"><defs><style type="text/css"></style></defs><path d="M768 64H128c-35.392 0-64 28.608-64 64v768a64 64 0 0 0 64 64h768a64 64 0 0 0 64-64V256l-192-192zM320 128h64v256h-64V128z m384 768H320v-256h384v256z m192-64a64 64 0 0 1-64 64h-64V576H256v320H192a64 64 0 0 1-64-64V192a64 64 0 0 1 64-64h64v320h448V128l192 192v512z" p-id="2802" fill="#6E6E6E"></path></svg>