<?xml version="1.0" standalone="no"?><!DOCTYPE svg PUBLIC "-//W3C//DTD SVG 1.1//EN" "http://www.w3.org/Graphics/SVG/1.1/DTD/svg11.dtd"><svg t="1626331636947" class="icon" viewBox="0 0 1024 1024" version="1.1" xmlns="http://www.w3.org/2000/svg" p-id="3806" xmlns:xlink="http://www.w3.org/1999/xlink" width="16" height="16"><defs><style type="text/css"></style></defs><path d="M727.428571 638.285714q-9.714286 20-32.571428 20H329.142857q-22.857143 0-32.571428-20-10.285714-20 2.857142-37.714285l182.857143-256q10.857143-15.428571 29.714286-15.428572t29.714286 15.428572l182.857143 256q13.142857 17.714286 2.857142 37.714285z m77.142858 148V237.714286q0-7.428571-5.428572-12.857143T786.285714 219.428571H237.714286q-7.428571 0-12.857143 5.428572T219.428571 237.714286v548.571428q0 7.428571 5.428572 12.857143t12.857143 5.428572h548.571428q7.428571 0 12.857143-5.428572t5.428572-12.857143z m146.285714-548.571428v548.571428q0 68-48.285714 116.285715T786.285714 950.857143H237.714286q-68 0-116.285715-48.285714T73.142857 786.285714V237.714286q0-68 48.285714-116.285715T237.714286 73.142857h548.571428q68 0 116.285715 48.285714T950.857143 237.714286z" p-id="3807" fill="#8a8a8a"></path></svg>