<?xml version="1.0" standalone="no"?><!DOCTYPE svg PUBLIC "-//W3C//DTD SVG 1.1//EN" "http://www.w3.org/Graphics/SVG/1.1/DTD/svg11.dtd"><svg t="1626491900527" class="icon" viewBox="0 0 1024 1024" version="1.1" xmlns="http://www.w3.org/2000/svg" p-id="2411" xmlns:xlink="http://www.w3.org/1999/xlink" width="16" height="16"><defs><style type="text/css"></style></defs><path d="M938.666667 499.2A454.4 454.4 0 0 0 512 213.333333a454.4 454.4 0 0 0-424.106667 284.586667A42.666667 42.666667 0 0 0 85.333333 512a34.56 34.56 0 0 0 2.56 13.226667A454.4 454.4 0 0 0 512 810.666667a454.4 454.4 0 0 0 424.106667-284.586667A34.56 34.56 0 0 0 938.666667 512a39.68 39.68 0 0 0 0-12.8zM512 640a128 128 0 1 1 128-128 128 128 0 0 1-128 128z" p-id="2412" fill="#dbdbdb"></path></svg>