<svg xmlns="http://www.w3.org/2000/svg" xmlns:xlink="http://www.w3.org/1999/xlink" width="16" height="16" class="icon" p-id="2411" t="1626491900527" version="1.1" viewBox="0 0 1024 1024"><defs><style type="text/css"/></defs><path fill="#dbdbdb" d="M938.666667 499.2A454.4 454.4 0 0 0 512 213.333333a454.4 454.4 0 0 0-424.106667 284.586667A42.666667 42.666667 0 0 0 85.333333 512a34.56 34.56 0 0 0 2.56 13.226667A454.4 454.4 0 0 0 512 810.666667a454.4 454.4 0 0 0 424.106667-284.586667A34.56 34.56 0 0 0 938.666667 512a39.68 39.68 0 0 0 0-12.8zM512 640a128 128 0 1 1 128-128 128 128 0 0 1-128 128z" p-id="2412"/></svg>