<?xml version="1.0" standalone="no"?><!DOCTYPE svg PUBLIC "-//W3C//DTD SVG 1.1//EN" "http://www.w3.org/Graphics/SVG/1.1/DTD/svg11.dtd"><svg t="1626334626571" class="icon" viewBox="0 0 1024 1024" version="1.1" xmlns="http://www.w3.org/2000/svg" p-id="7417" xmlns:xlink="http://www.w3.org/1999/xlink" width="16" height="16"><defs><style type="text/css"></style></defs><path d="M512 298.666667c-200.021333 0-353.152 187.52-371.498667 210.944a3.626667 3.626667 0 0 0 0 4.778666C158.848 537.813333 311.978667 725.333333 512 725.333333c199.68 0 362.069333-187.008 381.952-210.858666a3.712 3.712 0 0 0 0-4.992C874.069333 485.674667 711.68 298.666667 512 298.666667z m125.525333 337.706666a4.565333 4.565333 0 0 1-1.109333 1.109334c-182.314667 138.026667-387.925333-67.584-249.898667-249.898667a4.565333 4.565333 0 0 1 1.109334-1.109333c182.314667-137.984 387.84 67.584 249.898666 249.898666zM512 384a128 128 0 1 0 0 256 128 128 0 1 0 0-256z" p-id="7418" fill="#8a8a8a"></path></svg>