<svg width="220" height="50" viewBox="0 0 220 50" fill="none" xmlns="http://www.w3.org/2000/svg">
<rect width="220" height="50" fill="#172E53"/>
<path d="M41.5633 25.7133C42.9538 25.7133 43.6342 27.383 42.677 28.3723L33.5887 37.4606C32.9707 38.0788 31.9813 38.0788 31.3632 37.4606L19.1846 25.2198C18.5666 24.6017 18.5666 23.6125 19.1846 22.9943L29.4168 12.7622C30.2516 11.9274 31.6422 11.9274 32.477 12.7622C33.3118 13.597 33.3118 14.9876 32.477 15.8224L25.3051 23.0245C24.687 23.6425 24.687 24.6318 25.3051 25.2498L31.3955 31.3403C32.0135 31.9584 33.0028 31.9584 33.6208 31.3403L34.4257 30.5355C34.7347 30.2265 34.8892 29.8552 34.8892 29.4217V27.8443C34.8892 27.6277 34.8892 27.4108 34.9192 27.1963C34.9815 26.3615 35.6617 25.7435 36.4965 25.7435H41.5653L41.5633 25.7133Z" fill="#00E7E7"/>
<path d="M58.8431 27.0117L48.5806 37.2741C47.7459 38.1087 46.3553 38.1087 45.5206 37.2741C44.6857 36.4391 44.6857 35.0484 45.5206 34.2137L52.7225 27.0117C53.3406 26.3937 53.3406 25.4043 52.7225 24.7863L46.6022 18.6958C45.984 18.0778 44.9947 18.0778 44.3767 18.6958L43.572 19.5007C43.293 19.7797 43.1083 20.181 43.1083 20.6145V22.1918C43.1083 22.4085 43.1083 22.6253 43.0783 22.8398C43.0162 23.6747 42.3358 24.2927 41.501 24.2927H36.4322C35.0415 24.2927 34.3612 22.6232 35.3183 21.6338L42.2113 14.7408L43.1083 13.8137L44.3767 12.5454C44.9947 11.9274 45.984 11.9274 46.6022 12.5454L58.8131 24.7563C59.4309 25.4043 59.4309 26.3937 58.8431 27.0117Z" fill="#00BFFF"/>
<path d="M107.189 14.5071H104.703C104.67 14.2519 104.602 14.0215 104.499 13.8161C104.396 13.6106 104.26 13.4349 104.091 13.2891C103.922 13.1432 103.722 13.0322 103.49 12.956C103.261 12.8764 103.007 12.8366 102.729 12.8366C102.235 12.8366 101.809 12.9576 101.451 13.1996C101.097 13.4415 100.823 13.7912 100.631 14.2486C100.442 14.706 100.348 15.2595 100.348 15.9091C100.348 16.5852 100.444 17.152 100.636 17.6094C100.832 18.0634 101.105 18.4065 101.456 18.6385C101.811 18.8672 102.23 18.9815 102.714 18.9815C102.986 18.9815 103.233 18.9467 103.455 18.8771C103.68 18.8075 103.877 18.7064 104.047 18.5739C104.219 18.438 104.36 18.2739 104.469 18.0817C104.582 17.8861 104.66 17.6657 104.703 17.4205L107.189 17.4354C107.145 17.8861 107.015 18.3303 106.796 18.7678C106.58 19.2053 106.284 19.6046 105.906 19.9659C105.528 20.3239 105.067 20.6089 104.524 20.821C103.984 21.0331 103.364 21.1392 102.664 21.1392C101.743 21.1392 100.918 20.937 100.189 20.5327C99.4627 20.125 98.8893 19.5317 98.4684 18.7528C98.0475 17.974 97.837 17.026 97.837 15.9091C97.837 14.7888 98.0508 13.8393 98.4783 13.0604C98.9059 12.2815 99.4843 11.6899 100.213 11.2855C100.943 10.8812 101.76 10.679 102.664 10.679C103.281 10.679 103.851 10.7652 104.375 10.9375C104.898 11.1065 105.359 11.3551 105.757 11.6832C106.154 12.008 106.478 12.4074 106.726 12.8814C106.975 13.3554 107.129 13.8973 107.189 14.5071ZM112.161 21.1442C111.359 21.1442 110.67 20.9801 110.093 20.652C109.52 20.3205 109.077 19.8598 108.766 19.2699C108.458 18.6766 108.303 17.9889 108.303 17.2067C108.303 16.4212 108.458 15.7334 108.766 15.1435C109.077 14.5502 109.52 14.0895 110.093 13.7614C110.67 13.4299 111.359 13.2642 112.161 13.2642C112.963 13.2642 113.651 13.4299 114.225 13.7614C114.801 14.0895 115.244 14.5502 115.552 15.1435C115.864 15.7334 116.019 16.4212 116.019 17.2067C116.019 17.9889 115.864 18.6766 115.552 19.2699C115.244 19.8598 114.801 20.3205 114.225 20.652C113.651 20.9801 112.963 21.1442 112.161 21.1442ZM112.176 19.3097C112.468 19.3097 112.715 19.2202 112.917 19.0412C113.119 18.8622 113.273 18.6136 113.379 18.2955C113.489 17.9773 113.544 17.6094 113.544 17.1918C113.544 16.7675 113.489 16.3963 113.379 16.0781C113.273 15.7599 113.119 15.5114 112.917 15.3324C112.715 15.1534 112.468 15.0639 112.176 15.0639C111.875 15.0639 111.619 15.1534 111.411 15.3324C111.205 15.5114 111.048 15.7599 110.938 16.0781C110.832 16.3963 110.779 16.7675 110.779 17.1918C110.779 17.6094 110.832 17.9773 110.938 18.2955C111.048 18.6136 111.205 18.8622 111.411 19.0412C111.619 19.2202 111.875 19.3097 112.176 19.3097ZM120.054 21.1094C119.49 21.1094 118.978 20.9635 118.518 20.6719C118.057 20.3802 117.689 19.9427 117.414 19.3594C117.139 18.776 117.001 18.0518 117.001 17.1868C117.001 16.2886 117.144 15.5495 117.429 14.9695C117.714 14.3894 118.087 13.9602 118.547 13.6818C119.011 13.4034 119.51 13.2642 120.044 13.2642C120.445 13.2642 120.788 13.3338 121.073 13.473C121.358 13.6089 121.593 13.7846 121.779 14C121.965 14.2154 122.105 14.4392 122.202 14.6712H122.251V10.8182H124.682V21H122.276V19.7621H122.202C122.099 19.9974 121.953 20.2178 121.764 20.4233C121.575 20.6288 121.338 20.7945 121.053 20.9205C120.771 21.0464 120.438 21.1094 120.054 21.1094ZM120.899 19.2152C121.194 19.2152 121.446 19.1323 121.655 18.9666C121.863 18.7976 122.024 18.5606 122.137 18.2557C122.25 17.9508 122.306 17.5928 122.306 17.1818C122.306 16.7642 122.25 16.4046 122.137 16.103C122.028 15.8014 121.867 15.5694 121.655 15.407C121.446 15.2446 121.194 15.1634 120.899 15.1634C120.597 15.1634 120.342 15.2462 120.133 15.4119C119.925 15.5777 119.765 15.8113 119.656 16.1129C119.55 16.4145 119.497 16.7708 119.497 17.1818C119.497 17.5928 119.552 17.9508 119.661 18.2557C119.77 18.5606 119.928 18.7976 120.133 18.9666C120.342 19.1323 120.597 19.2152 120.899 19.2152ZM129.789 21.1442C128.991 21.1442 128.301 20.9867 127.721 20.6719C127.145 20.3537 126.7 19.9013 126.389 19.3146C126.081 18.7247 125.926 18.0237 125.926 17.2116C125.926 16.4228 126.082 15.7334 126.394 15.1435C126.705 14.5502 127.145 14.0895 127.711 13.7614C128.278 13.4299 128.946 13.2642 129.715 13.2642C130.258 13.2642 130.756 13.3487 131.206 13.5178C131.657 13.6868 132.047 13.937 132.375 14.2685C132.703 14.5999 132.958 15.0092 133.14 15.4964C133.323 15.9804 133.414 16.5355 133.414 17.1619V17.7685H126.777V16.3565H131.152C131.148 16.098 131.087 15.8677 130.968 15.6655C130.848 15.4633 130.684 15.3059 130.475 15.1932C130.27 15.0772 130.033 15.0192 129.765 15.0192C129.493 15.0192 129.249 15.0805 129.034 15.2031C128.818 15.3224 128.648 15.4865 128.522 15.6953C128.396 15.9008 128.329 16.1345 128.323 16.3963V17.8331C128.323 18.1446 128.384 18.4181 128.507 18.6534C128.629 18.8854 128.803 19.0661 129.029 19.1953C129.254 19.3246 129.523 19.3892 129.834 19.3892C130.05 19.3892 130.245 19.3594 130.421 19.2997C130.596 19.2401 130.747 19.1522 130.873 19.0362C130.999 18.9202 131.094 18.7777 131.157 18.6087L133.389 18.6733C133.296 19.1738 133.092 19.6096 132.777 19.9808C132.466 20.3487 132.056 20.6354 131.549 20.8409C131.042 21.0431 130.456 21.1442 129.789 21.1442ZM141.337 14.1442C141.281 13.9354 141.198 13.7514 141.089 13.5923C140.979 13.4299 140.845 13.2924 140.686 13.1797C140.527 13.067 140.345 12.9825 140.139 12.9261C139.934 12.8665 139.708 12.8366 139.463 12.8366C138.969 12.8366 138.541 12.956 138.18 13.1946C137.822 13.4332 137.546 13.7812 137.35 14.2386C137.154 14.6927 137.057 15.2446 137.057 15.8942C137.057 16.5471 137.151 17.1039 137.34 17.5646C137.529 18.0253 137.802 18.3767 138.16 18.6186C138.518 18.8606 138.952 18.9815 139.463 18.9815C139.914 18.9815 140.295 18.9086 140.606 18.7628C140.921 18.6136 141.16 18.4032 141.322 18.1314C141.485 17.8596 141.566 17.5398 141.566 17.1719L142.023 17.2266H139.547V15.4318H143.937V16.7791C143.937 17.6906 143.743 18.4711 143.356 19.1207C142.971 19.7704 142.441 20.2692 141.765 20.6172C141.092 20.9652 140.318 21.1392 139.443 21.1392C138.472 21.1392 137.618 20.9287 136.883 20.5078C136.147 20.0869 135.573 19.487 135.162 18.7081C134.751 17.9259 134.546 16.9979 134.546 15.924C134.546 15.0888 134.67 14.348 134.919 13.7017C135.167 13.0521 135.514 12.5019 135.958 12.0511C136.405 11.6004 136.922 11.259 137.509 11.027C138.099 10.795 138.734 10.679 139.413 10.679C140.003 10.679 140.552 10.7635 141.059 10.9325C141.569 11.1016 142.02 11.3402 142.411 11.6484C142.805 11.9567 143.125 12.3229 143.371 12.7472C143.616 13.1714 143.768 13.6371 143.828 14.1442H141.337ZM148.957 21.1442C148.159 21.1442 147.469 20.9867 146.889 20.6719C146.313 20.3537 145.868 19.9013 145.557 19.3146C145.249 18.7247 145.094 18.0237 145.094 17.2116C145.094 16.4228 145.25 15.7334 145.562 15.1435C145.873 14.5502 146.312 14.0895 146.879 13.7614C147.446 13.4299 148.114 13.2642 148.883 13.2642C149.426 13.2642 149.924 13.3487 150.374 13.5178C150.825 13.6868 151.214 13.937 151.543 14.2685C151.871 14.5999 152.126 15.0092 152.308 15.4964C152.491 15.9804 152.582 16.5355 152.582 17.1619V17.7685H145.945V16.3565H150.32C150.316 16.098 150.255 15.8677 150.136 15.6655C150.016 15.4633 149.852 15.3059 149.643 15.1932C149.438 15.0772 149.201 15.0192 148.933 15.0192C148.661 15.0192 148.417 15.0805 148.202 15.2031C147.986 15.3224 147.816 15.4865 147.69 15.6953C147.564 15.9008 147.497 16.1345 147.491 16.3963V17.8331C147.491 18.1446 147.552 18.4181 147.675 18.6534C147.797 18.8854 147.971 19.0661 148.197 19.1953C148.422 19.3246 148.691 19.3892 149.002 19.3892C149.218 19.3892 149.413 19.3594 149.589 19.2997C149.764 19.2401 149.915 19.1522 150.041 19.0362C150.167 18.9202 150.262 18.7777 150.325 18.6087L152.557 18.6733C152.464 19.1738 152.26 19.6096 151.945 19.9808C151.634 20.3487 151.224 20.6354 150.717 20.8409C150.21 21.0431 149.624 21.1442 148.957 21.1442ZM157.393 21.1442C156.594 21.1442 155.905 20.9867 155.325 20.6719C154.748 20.3537 154.304 19.9013 153.992 19.3146C153.684 18.7247 153.53 18.0237 153.53 17.2116C153.53 16.4228 153.686 15.7334 153.997 15.1435C154.309 14.5502 154.748 14.0895 155.315 13.7614C155.882 13.4299 156.549 13.2642 157.318 13.2642C157.862 13.2642 158.359 13.3487 158.81 13.5178C159.261 13.6868 159.65 13.937 159.978 14.2685C160.306 14.5999 160.561 15.0092 160.744 15.4964C160.926 15.9804 161.017 16.5355 161.017 17.1619V17.7685H154.38V16.3565H158.755C158.752 16.098 158.691 15.8677 158.571 15.6655C158.452 15.4633 158.288 15.3059 158.079 15.1932C157.874 15.0772 157.637 15.0192 157.368 15.0192C157.096 15.0192 156.853 15.0805 156.637 15.2031C156.422 15.3224 156.251 15.4865 156.125 15.6953C155.999 15.9008 155.933 16.1345 155.926 16.3963V17.8331C155.926 18.1446 155.988 18.4181 156.11 18.6534C156.233 18.8854 156.407 19.0661 156.632 19.1953C156.858 19.3246 157.126 19.3892 157.438 19.3892C157.653 19.3892 157.849 19.3594 158.024 19.2997C158.2 19.2401 158.351 19.1522 158.477 19.0362C158.603 18.9202 158.697 18.7777 158.76 18.6087L160.992 18.6733C160.9 19.1738 160.696 19.6096 160.381 19.9808C160.069 20.3487 159.66 20.6354 159.153 20.8409C158.646 21.0431 158.059 21.1442 157.393 21.1442ZM164.75 10.8182L166.609 14.0348H166.689L168.568 10.8182H171.322L168.25 15.9091L171.422 21H168.598L166.689 17.7486H166.609L164.7 21H161.896L165.053 15.9091L161.975 10.8182H164.75Z" fill="white"/>
<path d="M74.6 31.52H76.1V34.256C76.1 34.64 76.16 34.688 76.58 34.688C76.772 34.688 77.516 34.688 77.756 34.688C78.14 34.688 78.212 34.484 78.26 33.152C78.56 33.392 79.196 33.62 79.592 33.716C79.436 35.552 79.052 36.032 77.888 36.032C77.6 36.032 76.64 36.032 76.364 36.032C74.948 36.032 74.6 35.6 74.6 34.268V31.52ZM71.72 31.724H73.256C73.004 33.836 72.344 35.3 69.056 36.092C68.912 35.72 68.54 35.108 68.24 34.82C71.12 34.256 71.504 33.236 71.72 31.724ZM73.268 28.244H74.66V31.148H73.268V28.244ZM71.648 24.752L73.22 25.064C72.332 26.576 71.108 27.98 69.284 29.12C69.08 28.772 68.624 28.232 68.312 28.004C69.932 27.092 71.048 25.856 71.648 24.752ZM71.048 29.012V30.584H77.108V29.012H71.048ZM69.608 27.728H78.632V31.868H69.608V27.728ZM74.924 25.604H75.26L75.488 25.544L76.508 26.192C76.04 27.02 75.224 28.088 74.564 28.772C74.288 28.556 73.796 28.232 73.46 28.064C74.036 27.452 74.672 26.468 74.924 25.88V25.604ZM71.792 25.604H75.356V26.768H71.084L71.792 25.604ZM82.124 26.936H89.264V26.396H81.26V25.436H90.572V27.884H82.124V26.936ZM81.884 28.4H90.44V29.348H81.62L81.884 28.4ZM89.984 28.4H91.328C91.328 28.4 91.316 28.64 91.316 28.796C91.256 29.624 91.172 30.08 90.968 30.32C90.788 30.524 90.536 30.608 90.272 30.62C90.044 30.644 89.612 30.644 89.132 30.62C89.12 30.356 89.012 29.972 88.892 29.708C89.192 29.756 89.432 29.756 89.564 29.756C89.672 29.756 89.744 29.744 89.816 29.672C89.888 29.564 89.936 29.252 89.984 28.556V28.4ZM84.056 24.812H85.352V27.488C85.352 29.3 84.8 30.764 81.248 31.436C81.128 31.136 80.78 30.584 80.54 30.332C83.636 29.804 84.056 28.76 84.056 27.464V24.812ZM86.684 24.812H88.028V30.608H86.684V24.812ZM82.052 30.848H89.996V34.028H88.532V32.012H83.444V34.148H82.052V30.848ZM85.46 32.408H86.888C86.396 34.388 85.208 35.516 80.96 36.056C80.876 35.72 80.588 35.132 80.348 34.832C84.176 34.472 85.04 33.752 85.46 32.408ZM86.204 34.58L86.948 33.632C88.388 33.944 90.488 34.544 91.592 35L90.788 36.092C89.768 35.636 87.692 34.964 86.204 34.58ZM81.572 26.948H82.856C82.748 27.764 82.616 28.724 82.484 29.348H81.188C81.332 28.7 81.488 27.74 81.572 26.948ZM95.444 27.512H96.98V33.8C96.98 34.412 97.076 34.496 97.7 34.496C97.988 34.496 99.188 34.496 99.524 34.496C100.136 34.496 100.244 34.16 100.34 32.444C100.676 32.696 101.324 32.972 101.744 33.056C101.552 35.24 101.132 35.936 99.644 35.936C99.284 35.936 97.868 35.936 97.52 35.936C95.9 35.936 95.444 35.456 95.444 33.788V27.512ZM95.588 25.844L96.524 24.8C97.496 25.412 98.72 26.312 99.404 26.84L98.456 28.028C97.772 27.44 96.536 26.492 95.588 25.844ZM93.524 28.064L94.904 28.412C94.64 29.828 94.256 31.532 93.656 32.564L92.252 32.048C92.864 31.004 93.308 29.48 93.524 28.064ZM100.592 29.48L101.9 28.868C102.656 29.996 103.4 31.46 103.724 32.468L102.332 33.176C102.056 32.168 101.312 30.62 100.592 29.48ZM101.168 25.508L102.62 26.096C100.688 29.792 97.52 33.392 93.224 35.504C93.008 35.168 92.588 34.64 92.288 34.352C96.356 32.492 99.56 28.892 101.168 25.508ZM109.232 30.368H110.696V31.916H109.232V30.368ZM109.088 31.532L110.204 32.012C109.04 33.164 107.072 34.004 105.08 34.376C104.912 34.064 104.564 33.596 104.312 33.344C106.208 33.056 108.128 32.408 109.088 31.532ZM110.936 31.556C111.644 33.38 113.204 34.544 115.688 34.952C115.4 35.228 115.04 35.756 114.884 36.116C112.16 35.54 110.624 34.136 109.724 31.808L110.936 31.556ZM113.96 32.156L114.98 32.912C114.248 33.428 113.3 33.932 112.58 34.244L111.728 33.548C112.436 33.212 113.396 32.612 113.96 32.156ZM105.752 34.796C107.048 34.652 109.016 34.388 110.84 34.136L110.912 35.312C109.184 35.576 107.324 35.828 105.98 36.02L105.752 34.796ZM104.528 31.196H115.472V32.276H104.528V31.196ZM108.764 26.204H115.448V27.44H108.764V26.204ZM109.064 28.856H115.136V30.092H109.064V28.856ZM106.952 24.812H108.284V30.62H106.952V24.812ZM111.32 24.812H112.76V29.708H111.32V24.812ZM104.564 26.168L105.392 25.352C105.908 25.7 106.592 26.204 106.916 26.564L106.04 27.476C105.74 27.104 105.092 26.54 104.564 26.168ZM104.336 28.94C104.96 28.724 105.824 28.364 106.712 27.992L107 29.132C106.268 29.468 105.488 29.816 104.804 30.116L104.336 28.94ZM107.108 33.44L107.9 32.648L108.488 32.84V35.24H107.108V33.44ZM117.716 26.756H121.4V34.844H117.716V33.572H120.092V28.016H117.716V26.756ZM116.876 26.756H118.184V35.732H116.876V26.756ZM117.656 29.96H120.728V31.208H117.656V29.96ZM118.58 24.8L120.152 25.028C119.876 25.844 119.576 26.696 119.336 27.26L118.184 27.008C118.352 26.384 118.52 25.46 118.58 24.8ZM122.984 26.672H126.488V27.98H122.984V26.672ZM125.996 26.672H127.328C127.328 26.672 127.328 27.14 127.316 27.32C127.16 32.72 127.016 34.628 126.524 35.264C126.188 35.732 125.852 35.864 125.36 35.936C124.904 36.008 124.172 35.996 123.476 35.96C123.452 35.564 123.26 34.952 122.996 34.568C123.776 34.628 124.496 34.64 124.796 34.64C125.036 34.64 125.168 34.592 125.324 34.424C125.708 34.016 125.864 31.952 125.996 26.948V26.672ZM123.02 24.812L124.4 25.136C123.932 26.912 123.152 28.736 122.336 29.888C122.072 29.648 121.484 29.24 121.148 29.048C121.952 28.04 122.636 26.408 123.02 24.812ZM122.432 30.128L123.56 29.492C124.148 30.32 124.94 31.472 125.312 32.18L124.088 32.924C123.764 32.192 123.008 31.016 122.432 30.128ZM152.792 32.972C152.732 32.732 152.528 32.12 152.384 31.784C152.672 31.724 152.912 31.448 153.26 30.992C153.62 30.56 154.724 28.844 155.396 27.212L156.512 27.884C155.732 29.468 154.676 31.112 153.632 32.312V32.336C153.632 32.336 152.792 32.732 152.792 32.972ZM152.792 32.972L152.684 31.868L153.224 31.46L156.008 30.86C155.996 31.22 156.044 31.736 156.092 32.024C153.512 32.648 153.068 32.804 152.792 32.972ZM152.708 30.044C152.636 29.78 152.42 29.144 152.276 28.808C152.504 28.736 152.696 28.472 152.924 28.076C153.164 27.704 153.872 26.18 154.232 24.764L155.564 25.22C155.036 26.696 154.196 28.28 153.428 29.348V29.384C153.428 29.384 152.708 29.804 152.708 30.044ZM152.708 30.044L152.66 29.036L153.248 28.652L155.216 28.496C155.132 28.856 155.072 29.372 155.06 29.66C153.32 29.84 152.936 29.936 152.708 30.044ZM152.324 34.172C153.212 33.86 154.568 33.308 155.876 32.768L156.152 33.884C154.952 34.448 153.68 35.012 152.648 35.468L152.324 34.172ZM159.512 30.5H160.388V35.72H159.512V30.5ZM160.868 30.488H161.744V35.708H160.868V30.488ZM162.248 29.924H163.316V34.856C163.316 35.3 163.268 35.6 163.004 35.78C162.74 35.948 162.44 35.972 162.044 35.972C162.008 35.672 161.888 35.228 161.756 34.952C161.924 34.952 162.08 34.952 162.152 34.952C162.224 34.952 162.248 34.928 162.248 34.844V29.924ZM156.824 26.036H158.132V28.64C158.132 30.68 157.916 33.872 156.644 35.912C156.416 35.672 155.84 35.252 155.552 35.108C156.728 33.224 156.824 30.5 156.824 28.64V26.036ZM157.508 26.036H163.124V29.216H157.508V28.052H161.804V27.2H157.508V26.036ZM157.868 29.924H162.788V31.064H158.96V35.972H157.868V29.924ZM158.36 32.36H162.692V33.44H158.36V32.36ZM159.08 25.1L160.472 24.716C160.712 25.172 160.952 25.784 161.072 26.192L159.632 26.648C159.536 26.228 159.296 25.58 159.08 25.1ZM171.512 30.584H172.94V35.432H171.512V30.584ZM169.112 30.068H175.364V31.304H169.112V30.068ZM168.656 34.568H175.628V35.816H168.656V34.568ZM169.4 32.3H175.064V33.512H169.4V32.3ZM170.828 26.468V28.124H173.636V26.468H170.828ZM169.496 25.256H175.04V29.336H169.496V25.256ZM166.208 25.928H167.612V36.068H166.208V25.928ZM164.48 28.184H168.884V29.528H164.48V28.184ZM166.292 28.724L167.132 29.096C166.676 30.812 165.824 32.948 164.9 34.136C164.768 33.716 164.456 33.116 164.228 32.756C165.068 31.796 165.908 30.056 166.292 28.724ZM168.08 24.932L169.04 26.048C167.816 26.516 166.148 26.84 164.744 27.02C164.684 26.708 164.504 26.228 164.336 25.928C165.668 25.7 167.156 25.352 168.08 24.932ZM167.576 29.852C167.876 30.104 168.92 31.184 169.148 31.46L168.332 32.588C168.044 32.012 167.324 30.92 166.952 30.416L167.576 29.852ZM181.64 27.404H186.452V28.76H181.64V27.404ZM185.864 27.404H187.244C187.244 27.404 187.232 27.872 187.232 28.04C187.124 32.996 187.028 34.772 186.632 35.324C186.344 35.744 186.056 35.876 185.624 35.948C185.24 36.008 184.616 35.996 183.992 35.984C183.968 35.588 183.8 34.988 183.56 34.616C184.16 34.652 184.688 34.664 184.952 34.664C185.144 34.664 185.276 34.616 185.384 34.46C185.684 34.088 185.78 32.348 185.864 27.692V27.404ZM183.236 24.824H184.64C184.628 29.828 184.616 33.86 181.4 36.092C181.184 35.732 180.74 35.24 180.392 35C183.368 33.032 183.224 29.504 183.236 24.824ZM177.128 25.316H181.316V33.14H179.984V26.612H178.4V33.896H177.128V25.316ZM176.288 33.428C177.668 33.188 179.828 32.744 181.844 32.3L181.976 33.596C180.08 34.064 178.04 34.544 176.528 34.904L176.288 33.428ZM177.8 27.812H180.656V29.072H177.8V27.812ZM177.8 30.308H180.656V31.568H177.8V30.308ZM197.384 24.788L198.428 25.976C195.956 26.612 192.5 26.912 189.56 27.008C189.524 26.648 189.344 26.06 189.212 25.748C192.104 25.628 195.416 25.316 197.384 24.788ZM189.32 28.196H198.812V29.576H189.32V28.196ZM188.492 30.992H199.52V32.396H188.492V30.992ZM193.268 26.48H194.768V34.364C194.768 35.216 194.552 35.6 193.976 35.816C193.4 36.044 192.524 36.08 191.3 36.068C191.204 35.66 190.928 35.012 190.712 34.64C191.6 34.676 192.608 34.664 192.884 34.664C193.16 34.664 193.268 34.58 193.268 34.34V26.48Z" fill="white"/>
<path d="M130.112 30.98H137.984V36.068H136.496V32.12H131.528V36.068H130.112V30.98ZM130.964 32.78H137V33.824H130.964V32.78ZM129.92 25.712H133.724V26.828H129.92V25.712ZM128.492 27.62H134.012V28.748H128.492V27.62ZM130.964 34.532H137V35.672H130.964V34.532ZM130.808 26.048H132.164V27.368C132.164 28.592 131.708 30.248 129.272 31.364C129.08 31.076 128.672 30.632 128.348 30.404C130.604 29.54 130.808 28.232 130.808 27.356V26.048ZM129.704 24.74L130.988 24.992C130.688 26.072 130.136 27.104 129.524 27.764C129.26 27.56 128.708 27.236 128.396 27.092C129.008 26.516 129.476 25.628 129.704 24.74ZM131.936 28.688C132.368 28.892 133.712 29.66 134.06 29.888L133.028 30.8C132.56 30.404 131.504 29.624 130.964 29.276L131.936 28.688ZM135.752 26.96V28.988H137.588V26.96H135.752ZM134.42 25.688H139.004V30.272H134.42V25.688ZM142.172 24.752L143.672 25.076C143.24 26.18 142.7 27.356 142.244 28.124L140.996 27.8C141.428 26.984 141.92 25.712 142.172 24.752ZM140.36 27.212C141.656 27.176 143.6 27.092 145.46 27.008L145.448 28.256C143.684 28.388 141.836 28.496 140.468 28.58L140.36 27.212ZM141.068 29.144H144.884V30.332H142.4V36.068H141.068V29.144ZM144.2 29.144H145.628V34.628C145.628 35.24 145.508 35.6 145.1 35.816C144.68 36.032 144.14 36.056 143.408 36.056C143.336 35.672 143.132 35.12 142.952 34.772C143.372 34.796 143.852 34.796 144.008 34.784C144.152 34.784 144.2 34.748 144.2 34.592V29.144ZM141.68 30.956H145.004V32.024H141.68V30.956ZM141.68 32.72H145.004V33.788H141.68V32.72ZM146.564 24.86H148.004V28.46C148.004 28.88 148.076 28.94 148.532 28.94C148.724 28.94 149.588 28.94 149.84 28.94C150.236 28.94 150.308 28.76 150.356 27.704C150.656 27.932 151.244 28.148 151.64 28.232C151.484 29.792 151.1 30.224 149.984 30.224C149.684 30.224 148.604 30.224 148.328 30.224C146.912 30.224 146.564 29.816 146.564 28.484V24.86ZM150.164 25.568L151.076 26.612C150.008 27.128 148.616 27.584 147.428 27.908C147.368 27.62 147.176 27.188 147.02 26.912C148.136 26.564 149.372 26.024 150.164 25.568ZM146.564 30.464H147.992V34.244C147.992 34.688 148.076 34.736 148.544 34.736C148.748 34.736 149.648 34.736 149.912 34.736C150.332 34.736 150.404 34.52 150.464 33.296C150.764 33.512 151.34 33.74 151.736 33.824C151.58 35.516 151.196 35.996 150.044 35.996C149.744 35.996 148.628 35.996 148.34 35.996C146.924 35.996 146.564 35.588 146.564 34.256V30.464ZM150.26 30.968L151.196 32.024C150.104 32.612 148.652 33.116 147.416 33.464C147.344 33.188 147.14 32.732 146.996 32.456C148.16 32.084 149.444 31.496 150.26 30.968ZM143.804 26.072L145.028 25.616C145.616 26.48 146.24 27.62 146.468 28.412L145.16 28.94C144.956 28.172 144.38 26.972 143.804 26.072Z" fill="#00E3E3"/>
</svg>
