<svg width="16" height="16" viewBox="0 0 16 16" fill="none" xmlns="http://www.w3.org/2000/svg">
    <path d="M8.82027 8.22827C9.26523 8.22827 9.48294 8.76256 9.17664 9.07915L6.26838 11.9874C6.07062 12.1852 5.75403 12.1852 5.55622 11.9874L1.65907 8.07035C1.4613 7.87253 1.4613 7.556 1.65907 7.35818L4.93338 4.0839C5.20052 3.81676 5.6455 3.81676 5.91264 4.0839C6.17979 4.35103 6.17979 4.79603 5.91264 5.06317L3.61762 7.36784C3.41984 7.5656 3.41984 7.88219 3.61762 8.07995L5.56656 10.0289C5.76432 10.2267 6.08091 10.2267 6.27867 10.0289L6.53622 9.77136C6.6351 9.67248 6.68454 9.55365 6.68454 9.41493V8.91019C6.68454 8.84085 6.68454 8.77147 6.69414 8.70283C6.71408 8.43568 6.93174 8.23792 7.19888 8.23792H8.82091V8.22827H8.82027Z" fill="#00E7E7"/>
    <path d="M14.3498 8.64374L11.0658 11.9277C10.7987 12.1948 10.3537 12.1948 10.0866 11.9277C9.81942 11.6605 9.81942 11.2155 10.0866 10.9484L12.3912 8.64374C12.589 8.44598 12.589 8.12939 12.3912 7.93163L10.4327 5.98267C10.2349 5.78491 9.9183 5.78491 9.72054 5.98267L9.46304 6.24022C9.37376 6.3295 9.31467 6.45792 9.31467 6.59664V7.10139C9.31467 7.17072 9.31467 7.24011 9.30507 7.30875C9.28518 7.5759 9.06747 7.77366 8.80032 7.77366H7.1783C6.73328 7.77366 6.51558 7.23942 6.82187 6.92283L9.02763 4.71707L9.31467 4.4204L9.72054 4.01454C9.9183 3.81677 10.2349 3.81677 10.4327 4.01454L14.3402 7.92203C14.5379 8.12939 14.5379 8.44598 14.3498 8.64374Z" fill="#00BFFF"/>
</svg>
