<svg width="220" height="50" viewBox="0 0 220 50" fill="none" xmlns="http://www.w3.org/2000/svg">
    <rect x="0.5" y="0.5" width="219" height="49" rx="4.5" fill="#1F1F1F"/>
    <rect x="0.5" y="0.5" width="219" height="49" rx="4.5" stroke="#1E1E1E"/>
    <path d="M39 43.2444C36.5379 43.2444 34.1489 42.7632 31.8973 41.8093C29.7231 40.8897 27.7723 39.5749 26.1008 37.8991C24.425 36.2233 23.1102 34.2726 22.1906 32.1026C21.241 29.8511 20.7555 27.462 20.7555 24.9999C20.7555 22.5378 21.2367 20.1487 22.1906 17.8972C23.1102 15.723 24.425 13.7722 26.1008 12.1007C27.7766 10.4292 29.7274 9.11006 31.8973 8.19053C34.1489 7.24092 36.5379 6.75537 39 6.75537C39.911 6.75537 40.8262 6.82412 41.7242 6.95732C42.0766 7.00889 42.4332 7.07334 42.7813 7.14639C43.7352 7.34834 44.341 8.28076 44.1434 9.23467C43.9414 10.1886 43.009 10.7944 42.0551 10.5968C41.7758 10.5366 41.4879 10.4851 41.2043 10.4421C40.4824 10.3347 39.7391 10.2788 39.0043 10.2788C35.0727 10.2788 31.3774 11.8085 28.5973 14.5886C25.8129 17.373 24.2789 21.0683 24.2789 24.9999C24.2789 28.9315 25.8086 32.6269 28.5887 35.4069C31.3688 38.187 35.0641 39.7167 38.9957 39.7167C42.9274 39.7167 46.6227 38.187 49.4028 35.4069C52.1828 32.6269 53.7125 28.9315 53.7125 24.9999C53.7125 24.2651 53.6567 23.5304 53.5492 22.8085C53.4074 21.846 54.0692 20.9479 55.0317 20.8062C55.9942 20.6644 56.8922 21.3261 57.034 22.2886C57.1672 23.178 57.236 24.089 57.236 24.9956C57.236 27.4577 56.7547 29.8468 55.8008 32.0983C54.8813 34.2726 53.5664 36.2233 51.8906 37.8948C50.2149 39.5706 48.2641 40.8854 46.0942 41.805C43.8512 42.7589 41.4621 43.2444 39 43.2444Z" fill="#16B998"/>
    <path d="M47.6582 13.2866C47.6582 14.1356 47.9955 14.9499 48.5958 15.5502C49.1961 16.1505 50.0104 16.4878 50.8594 16.4878C51.7084 16.4878 52.5226 16.1505 53.1229 15.5502C53.7233 14.9499 54.0605 14.1356 54.0605 13.2866C54.0605 12.4376 53.7233 11.6234 53.1229 11.0231C52.5226 10.4227 51.7084 10.0854 50.8594 10.0854C50.0104 10.0854 49.1961 10.4227 48.5958 11.0231C47.9955 11.6234 47.6582 12.4376 47.6582 13.2866Z" fill="#16B998"/>
    <path d="M112.563 15.36H114.403C114.403 15.36 114.371 15.872 114.355 16.112C114.019 20.336 113.683 22.064 113.107 22.672C112.739 23.12 112.355 23.28 111.843 23.328C111.395 23.392 110.675 23.392 109.907 23.376C109.875 22.848 109.683 22.128 109.395 21.648C110.067 21.728 110.675 21.728 110.979 21.728C111.235 21.728 111.395 21.696 111.571 21.52C111.955 21.12 112.307 19.536 112.563 15.648V15.36ZM106.227 9.232H112.099V10.96H106.227V9.232ZM106.995 11.584L108.787 11.68C108.659 13.424 108.419 15.632 108.227 16.976H106.419C106.659 15.568 106.883 13.312 106.995 11.584ZM106.931 15.36H113.091V16.976H106.931V15.36ZM105.907 18.528H111.635V20.224H105.907V18.528ZM111.379 9.232H111.587L111.875 9.168L113.235 9.296C113.091 11.44 112.787 14.272 112.483 16.528L110.675 16.384C110.979 14.112 111.283 11.04 111.379 9.424V9.232ZM99.9068 9.12H105.667V10.864H99.9068V9.12ZM101.683 14.112H105.315V21.488H101.683V19.808H103.667V15.792H101.683V14.112ZM101.763 10.016L103.507 10.416C102.899 13.456 101.891 16.576 100.227 18.56C100.147 18.048 99.8108 16.832 99.5388 16.272C100.675 14.768 101.363 12.448 101.763 10.016ZM100.867 14.112H102.499V22.688H100.867V14.112ZM122.07 23.456C121.958 23.008 121.558 22.176 121.238 21.776C121.622 21.584 122.182 21.136 122.182 20.432V16.064H124.102V21.776C124.102 21.776 122.07 22.816 122.07 23.456ZM119.702 10.416H133.286V13.968H131.302V12.192H121.606V13.968H119.702V10.416ZM126.166 8.448L128.134 8.832C126.87 14.096 124.326 17.392 119.99 19.248C119.734 18.832 119.03 18.016 118.598 17.632C122.854 16.112 125.158 13.168 126.166 8.448ZM127.046 11.952C128.134 16.08 130.454 19.712 133.926 21.456C133.462 21.824 132.822 22.576 132.502 23.104C128.838 21.008 126.614 17.168 125.286 12.416L127.046 11.952ZM131.318 14.272L132.838 15.552C131.782 16.496 130.374 17.504 129.334 18.16L128.006 16.944C129.014 16.304 130.454 15.168 131.318 14.272ZM122.07 23.456L121.878 21.776L122.71 21.152L127.622 19.888C127.622 20.416 127.686 21.2 127.782 21.616C123.286 22.896 122.55 23.152 122.07 23.456ZM139.066 21.088C141.93 21.008 146.378 20.848 150.41 20.672L150.346 22.432C146.426 22.656 142.202 22.848 139.322 22.96L139.066 21.088ZM138.986 16.32H152.298V18.112H138.986V16.32ZM141.834 13.248H149.338V15.008H141.834V13.248ZM142.906 17.488L145.098 18.096C144.346 19.6 143.482 21.264 142.762 22.336L141.082 21.776C141.738 20.608 142.506 18.832 142.906 17.488ZM146.874 19.136L148.57 18.256C150.01 19.488 151.498 21.168 152.234 22.384L150.458 23.456C149.786 22.24 148.25 20.416 146.874 19.136ZM145.578 10.288C144.282 12.112 141.786 14.16 139.13 15.424C138.906 14.96 138.394 14.24 137.994 13.824C140.73 12.624 143.29 10.336 144.474 8.448H146.506C148.202 10.8 150.746 12.624 153.29 13.536C152.826 14.016 152.394 14.704 152.042 15.28C149.642 14.16 146.938 12.144 145.578 10.288ZM159.389 8.448L161.037 8.944C160.349 10.816 159.229 12.72 157.965 13.92C157.837 13.52 157.373 12.544 157.101 12.112C158.061 11.216 158.909 9.872 159.389 8.448ZM159.357 9.984H163.469V11.664H159.021L159.357 9.984ZM159.581 23.408L159.261 21.776L159.773 21.2L163.101 19.456C163.149 19.952 163.309 20.688 163.453 21.072C160.429 22.752 159.885 23.088 159.581 23.408ZM158.477 12.96H163.181V14.672H158.477V12.96ZM157.677 16.24H163.277V17.952H157.677V16.24ZM166.813 14.832H168.653V17.568C168.653 19.648 167.901 22 163.709 23.472C163.469 23.088 162.925 22.432 162.509 22.08C166.317 20.928 166.813 19.008 166.813 17.552V14.832ZM167.645 21.264L168.813 20.08C169.997 20.64 171.645 21.52 172.493 22.16L171.245 23.472C170.493 22.832 168.861 21.872 167.645 21.264ZM164.013 12.416H171.597V20.08H169.757V14.176H165.773V20.144H164.013V12.416ZM163.645 9.536L165.037 8.864C165.677 9.68 166.301 10.784 166.557 11.536L165.085 12.304C164.845 11.552 164.237 10.368 163.645 9.536ZM170.461 8.912L172.125 9.456C171.565 10.448 170.909 11.504 170.413 12.192L169.069 11.68C169.565 10.944 170.141 9.76 170.461 8.912ZM166.909 8.384H168.685V13.2H166.909V8.384ZM159.581 23.408C159.373 23.072 158.781 22.512 158.477 22.288C158.877 21.92 159.613 21.088 159.613 20.096V13.312H161.341V20.976C161.341 20.976 159.581 22.72 159.581 23.408Z" fill="white"/>
    <path d="M76.36 39.208L77.032 38.152C78.592 38.596 80.284 39.304 81.256 39.88L80.392 41.02C79.468 40.396 77.896 39.676 76.36 39.208ZM74.908 30.1L76.36 29.656C76.684 30.16 77.044 30.832 77.176 31.3L75.652 31.78C75.532 31.348 75.208 30.628 74.908 30.1ZM70.912 30.94H81.112V33.688H79.6V32.284H72.352V33.688H70.912V30.94ZM75.796 32.788H77.308C77.164 37.06 76.852 39.808 71.716 41.068C71.572 40.684 71.212 40.132 70.9 39.82C75.616 38.788 75.676 36.592 75.796 32.788ZM70.804 36.712H81.256V37.924H70.804V36.712ZM72.772 33.46L73.612 32.524C74.236 32.848 75.028 33.352 75.4 33.772L74.5 34.804C74.164 34.396 73.396 33.82 72.772 33.46ZM71.548 35.272L72.376 34.3C73.012 34.6 73.804 35.092 74.2 35.488L73.336 36.556C72.976 36.16 72.184 35.608 71.548 35.272ZM84.544 29.944H85.924V36.256H84.544V29.944ZM85.084 31.888H88.216V33.16H85.084V31.888ZM83.284 38.86H87.46V40.168H83.284V38.86ZM82.876 35.152H88.06V40.804H86.728V36.436H84.148V40.864H82.876V35.152ZM91.18 30.772L92.152 30.232C92.572 30.748 93.1 31.456 93.316 31.924L92.284 32.548C92.08 32.068 91.588 31.324 91.18 30.772ZM88.12 33.52L93.412 32.788L93.604 34.012L88.312 34.756L88.12 33.52ZM92.344 34.384L93.412 34.996C92.632 37.384 90.976 39.724 88.984 40.876C88.744 40.552 88.312 40.12 87.94 39.88C90.004 38.872 91.612 36.676 92.344 34.384ZM89.428 29.908H90.76C90.82 35.044 91.504 39.352 92.38 39.424C92.596 39.436 92.716 38.872 92.788 37.828C93.016 38.116 93.568 38.488 93.796 38.62C93.496 40.624 92.896 41.092 92.392 41.08C90.256 40.984 89.608 36.448 89.428 29.908ZM94.432 31.108H98.44V32.464H94.432V31.108ZM95.812 31.684H97.24V37.696H95.812V31.684ZM94.228 37.492C95.248 37.252 96.88 36.82 98.488 36.388L98.656 37.6C97.24 38.104 95.74 38.62 94.576 39.016L94.228 37.492ZM98.596 30.268H105.544V31.552H98.596V30.268ZM101.152 30.856L102.88 31.084C102.532 31.852 102.112 32.608 101.812 33.112L100.516 32.848C100.768 32.26 101.02 31.456 101.152 30.856ZM101.2 34.204H102.64V36.676C102.64 38.344 101.872 40.072 98.488 41.104C98.32 40.804 97.888 40.288 97.576 40C100.792 39.208 101.2 37.84 101.2 36.664V34.204ZM102.22 39.136L103.12 38.272C103.96 38.776 105.136 39.532 105.7 40.06L104.74 41.032C104.212 40.492 103.084 39.688 102.22 39.136ZM98.92 32.488H104.944V38.116H103.48V33.76H100.324V38.164H98.92V32.488ZM108.724 33.244H115.24V34.6H108.724V33.244ZM108.724 36.028H115.24V37.384H108.724V36.028ZM108.724 38.8H115.24V40.204H108.724V38.8ZM107.68 30.46H116.236V40.948H114.712V31.876H109.132V40.948H107.68V30.46ZM125.404 30.808H126.736V39.46H125.404V30.808ZM127.804 30.1H129.244V40.936H127.804V30.1ZM122.932 30.184H124.36V34.372C124.36 36.676 124.24 39.124 123.064 41.056C122.728 40.792 122.08 40.408 121.648 40.252C122.812 38.524 122.932 36.448 122.932 34.36V30.184ZM118.876 30.892L119.764 29.932C120.484 30.46 121.504 31.228 121.984 31.744L121.036 32.824C120.592 32.296 119.608 31.468 118.876 30.892ZM119.92 40.996L119.56 39.64L119.8 39.184L122.008 37.264C122.14 37.66 122.392 38.212 122.572 38.476C120.496 40.324 120.112 40.696 119.92 40.996ZM118.372 33.508H120.556V34.888H118.372V33.508ZM119.92 41.008C119.788 40.708 119.416 40.204 119.188 40C119.452 39.772 119.776 39.328 119.776 38.68V33.508H121.156V39.448C121.156 39.448 119.92 40.492 119.92 41.008ZM130.816 37.972C130.744 37.708 130.54 37.084 130.384 36.748C130.672 36.676 130.912 36.4 131.236 35.98C131.584 35.548 132.628 33.94 133.264 32.368L134.44 33.064C133.696 34.576 132.688 36.148 131.68 37.276V37.312C131.68 37.312 130.816 37.732 130.816 37.972ZM130.804 37.972L130.708 36.844L131.284 36.412L134.212 35.86C134.176 36.232 134.164 36.772 134.2 37.06C131.56 37.648 131.092 37.804 130.804 37.972ZM130.72 35.044C130.648 34.768 130.42 34.108 130.252 33.748C130.492 33.676 130.684 33.412 130.9 33.016C131.116 32.632 131.788 31.096 132.1 29.692L133.432 30.28C132.976 31.684 132.208 33.244 131.464 34.312V34.36C131.464 34.36 130.72 34.792 130.72 35.044ZM130.72 35.044L130.684 34.072L131.26 33.688L133.3 33.544C133.24 33.88 133.168 34.384 133.168 34.66C131.344 34.852 130.96 34.936 130.72 35.044ZM130.396 39.1C131.272 38.824 132.616 38.32 133.96 37.828L134.2 38.896C133 39.472 131.74 40.048 130.72 40.516L130.396 39.1ZM134.98 36.952V35.848L135.664 35.464H141.04V36.76H136.12C135.604 36.76 135.088 36.832 134.98 36.952ZM134.44 31.036H141.208V32.344H134.44V31.036ZM134.98 36.952C134.92 36.7 134.704 36.076 134.548 35.728C134.824 35.644 135.004 35.272 135.256 34.66C135.496 34.084 136.228 31.804 136.54 29.74L137.944 29.932C137.476 32.188 136.684 34.54 135.94 36.196V36.22C135.94 36.22 134.98 36.7 134.98 36.952ZM139.192 37.78L140.32 37.252C140.776 38.068 141.364 39.172 141.652 39.844L140.452 40.456C140.2 39.784 139.636 38.632 139.192 37.78ZM137.416 33.196H138.808V39.568C138.808 40.24 138.676 40.588 138.256 40.804C137.824 41.02 137.224 41.032 136.396 41.032C136.336 40.66 136.168 40.108 136 39.748C136.48 39.76 137.032 39.76 137.2 39.76C137.356 39.748 137.416 39.7 137.416 39.556V33.196ZM135.448 37.228L136.756 37.612C136.264 38.632 135.556 39.808 134.812 40.552C134.572 40.312 134.104 39.964 133.816 39.784C134.488 39.112 135.136 38.044 135.448 37.228ZM134.632 33.196H138.256V34.504H134.632V33.196ZM144.316 41.656L143.932 40.696C144.94 40.372 145.492 39.784 145.492 39.1L145.408 37.912L146.068 38.992C145.876 39.172 145.624 39.256 145.36 39.256C144.76 39.256 144.208 38.872 144.208 38.176C144.208 37.504 144.748 37.096 145.396 37.096C146.236 37.096 146.692 37.744 146.692 38.752C146.692 40.108 145.804 41.212 144.316 41.656Z" fill="white"/>
    <path d="M158.344 30.304H165.496V31.42H158.344V30.304ZM161.164 30.988L162.784 31.096C162.556 31.648 162.268 32.152 162.076 32.512L160.888 32.332C161.008 31.912 161.128 31.384 161.164 30.988ZM160.18 33.904V34.336H163.648V33.904H160.18ZM160.18 35.068V35.512H163.648V35.068H160.18ZM160.18 32.752V33.16H163.648V32.752H160.18ZM158.884 31.972H165.004V36.292H158.884V31.972ZM158.152 37.264L165.568 36.904L165.616 37.972L158.212 38.344L158.152 37.264ZM163.768 37.864L164.944 38.344C163.516 39.808 160.9 40.636 158.5 41.104C158.356 40.828 158.008 40.288 157.78 40.024C160.132 39.712 162.604 39.016 163.768 37.864ZM160.312 36.136H161.632C161.776 38.272 162.952 39.832 164.26 39.82C164.56 39.82 164.656 39.568 164.704 38.848C164.992 39.076 165.436 39.28 165.76 39.376C165.58 40.756 165.172 41.056 164.2 41.056C162.04 41.056 160.516 39.052 160.312 36.136ZM162.58 36.556L163.276 35.908C163.732 36.112 164.344 36.448 164.644 36.712L163.9 37.432C163.624 37.168 163.048 36.796 162.58 36.556ZM155.476 31.012H158.056V37.864H155.476V36.544H156.832V32.308H155.476V31.012ZM154.768 31.012H155.98V38.86H154.768V31.012ZM170.344 30.304H177.496V31.42H170.344V30.304ZM173.164 30.988L174.784 31.096C174.556 31.648 174.268 32.152 174.076 32.512L172.888 32.332C173.008 31.912 173.128 31.384 173.164 30.988ZM172.18 33.904V34.336H175.648V33.904H172.18ZM172.18 35.068V35.512H175.648V35.068H172.18ZM172.18 32.752V33.16H175.648V32.752H172.18ZM170.884 31.972H177.004V36.292H170.884V31.972ZM170.152 37.264L177.568 36.904L177.616 37.972L170.212 38.344L170.152 37.264ZM175.768 37.864L176.944 38.344C175.516 39.808 172.9 40.636 170.5 41.104C170.356 40.828 170.008 40.288 169.78 40.024C172.132 39.712 174.604 39.016 175.768 37.864ZM172.312 36.136H173.632C173.776 38.272 174.952 39.832 176.26 39.82C176.56 39.82 176.656 39.568 176.704 38.848C176.992 39.076 177.436 39.28 177.76 39.376C177.58 40.756 177.172 41.056 176.2 41.056C174.04 41.056 172.516 39.052 172.312 36.136ZM174.58 36.556L175.276 35.908C175.732 36.112 176.344 36.448 176.644 36.712L175.9 37.432C175.624 37.168 175.048 36.796 174.58 36.556ZM167.476 31.012H170.056V37.864H167.476V36.544H168.832V32.308H167.476V31.012ZM166.768 31.012H167.98V38.86H166.768V31.012ZM180.172 34.324H182.944V35.644H180.172V34.324ZM182.392 34.324H183.796C183.796 34.324 183.784 34.684 183.784 34.852C183.736 37.396 183.676 38.464 183.4 38.836C183.16 39.136 182.92 39.244 182.572 39.304C182.248 39.352 181.732 39.352 181.168 39.34C181.144 38.92 180.988 38.356 180.772 37.996C181.204 38.044 181.612 38.044 181.804 38.044C181.972 38.044 182.08 38.02 182.176 37.9C182.32 37.708 182.368 36.868 182.392 34.54V34.324ZM186.004 30.568L186.868 29.692C187.528 30.04 188.416 30.592 188.848 30.988L187.924 31.96C187.528 31.54 186.676 30.952 186.004 30.568ZM187.42 33.652L188.872 34C187.864 37.132 186.1 39.568 183.724 41.032C183.508 40.732 182.98 40.132 182.68 39.844C184.984 38.608 186.592 36.436 187.42 33.652ZM180.256 31.612H189.508V33.028H180.256V31.612ZM179.296 31.612H180.808V35.14C180.808 36.94 180.604 39.604 179.512 41.224C179.272 40.936 178.624 40.408 178.288 40.24C179.212 38.8 179.296 36.7 179.296 35.128V31.612ZM184.168 29.824H185.68C185.596 34.72 186.7 39.532 187.912 39.532C188.188 39.532 188.332 38.92 188.404 37.408C188.728 37.744 189.244 38.08 189.628 38.224C189.4 40.456 188.92 40.996 187.792 40.996C185.176 40.996 184.204 35.296 184.168 29.824ZM192.64 40.96C192.556 40.612 192.292 40.012 192.076 39.736C192.352 39.604 192.664 39.352 192.664 38.824V29.848H194.188V39.748C194.188 39.748 192.64 40.444 192.64 40.96ZM192.64 40.96L192.508 39.64L193.18 39.136L196.756 38.368C196.756 38.8 196.816 39.424 196.888 39.748C193.588 40.552 193.012 40.732 192.64 40.96ZM190.6 34.336H201.388V35.776H190.6V34.336ZM196.876 35.068C197.644 37.156 199.216 38.68 201.688 39.316C201.34 39.64 200.884 40.264 200.68 40.696C198.016 39.844 196.48 38.032 195.544 35.392L196.876 35.068ZM199.012 30.028L200.476 30.664C199.3 31.948 197.464 33.136 195.904 33.856C195.64 33.532 195.076 32.932 194.728 32.656C196.336 32.092 198.04 31.096 199.012 30.028Z" fill="#16B998"/>
</svg>
