<svg width="220" height="50" viewBox="0 0 220 50" fill="none" xmlns="http://www.w3.org/2000/svg">
    <rect width="220" height="50" fill="#504C47" fill-opacity="0.2"/>
    <path d="M72.99 15.222V15.81H78.94V15.222H72.99ZM72.99 13.64V14.214H78.94V13.64H72.99ZM71.38 12.562H80.62V16.888H71.38V12.562ZM69.728 17.392H82.244V18.736H69.728V17.392ZM76.14 19.254H80.718V20.542H76.14V19.254ZM71.87 19.296H75.062V20.458H71.87V19.296ZM71.87 21.046H75.062V22.208H71.87V21.046ZM77.862 20.416C78.646 22.124 80.298 23.412 82.552 23.944C82.202 24.238 81.768 24.854 81.558 25.246C79.136 24.546 77.47 22.978 76.518 20.794L77.862 20.416ZM80.228 19.254H80.522L80.802 19.198L81.838 19.59C81.012 22.516 79.038 24.308 76.546 25.246C76.364 24.854 75.944 24.252 75.636 23.944C77.806 23.258 79.612 21.648 80.228 19.492V19.254ZM69.602 23.09C71.002 23.006 73.06 22.852 75.02 22.684V24.042C73.144 24.224 71.184 24.406 69.714 24.532L69.602 23.09ZM74.194 17.826H75.804V25.26H74.194V17.826ZM70.82 17.868H72.36V23.58H70.82V17.868ZM89.328 12.814H95.012V14.368H89.328V12.814ZM88.852 17.686H96.58V19.268H88.852V17.686ZM91.806 16.048H93.5V23.398C93.5 24.238 93.332 24.686 92.786 24.952C92.226 25.204 91.456 25.26 90.42 25.246C90.336 24.784 90.056 24.056 89.832 23.608C90.546 23.636 91.274 23.65 91.512 23.636C91.736 23.622 91.806 23.566 91.806 23.37V16.048ZM94.41 12.814H94.816L95.166 12.73L96.258 13.556C95.432 14.774 94.242 16.258 93.15 17.182C92.926 16.888 92.464 16.426 92.198 16.202C93.024 15.404 93.99 14.018 94.41 13.178V12.814ZM83.518 14.9H88.04V16.454H83.518V14.9ZM85.394 12.114L86.976 12.282C86.444 15.264 85.632 19.016 84.974 21.536L83.602 20.808C84.204 18.596 84.96 14.9 85.394 12.114ZM84.33 20.57L85.254 19.394C86.71 20.304 88.558 21.662 89.37 22.712L88.362 24.07C87.578 23.006 85.8 21.536 84.33 20.57ZM87.466 14.9H87.732L88.026 14.858L89.02 15.026C88.698 20.486 87.34 23.58 84.568 25.302C84.344 24.896 83.896 24.294 83.56 23.972C85.94 22.726 87.186 19.632 87.466 15.208V14.9ZM99.002 14.382H103.3V23.818H99.002V22.334H101.774V15.852H99.002V14.382ZM98.022 14.382H99.548V24.854H98.022V14.382ZM98.932 18.12H102.516V19.576H98.932V18.12ZM100.01 12.1L101.844 12.366C101.522 13.318 101.172 14.312 100.892 14.97L99.548 14.676C99.744 13.948 99.94 12.87 100.01 12.1ZM105.148 14.284H109.236V15.81H105.148V14.284ZM108.662 14.284H110.216C110.216 14.284 110.216 14.83 110.202 15.04C110.02 21.34 109.852 23.566 109.278 24.308C108.886 24.854 108.494 25.008 107.92 25.092C107.388 25.176 106.534 25.162 105.722 25.12C105.694 24.658 105.47 23.944 105.162 23.496C106.072 23.566 106.912 23.58 107.262 23.58C107.542 23.58 107.696 23.524 107.878 23.328C108.326 22.852 108.508 20.444 108.662 14.606V14.284ZM105.19 12.114L106.8 12.492C106.254 14.564 105.344 16.692 104.392 18.036C104.084 17.756 103.398 17.28 103.006 17.056C103.944 15.88 104.742 13.976 105.19 12.114ZM104.504 18.316L105.82 17.574C106.506 18.54 107.43 19.884 107.864 20.71L106.436 21.578C106.058 20.724 105.176 19.352 104.504 18.316ZM184.785 12.324L185.751 13.64C183.637 14.13 180.655 14.396 178.149 14.452C178.107 14.074 177.925 13.486 177.757 13.136C180.221 13.01 183.035 12.744 184.785 12.324ZM180.207 17.35L181.495 18.54C180.585 18.96 179.493 19.352 178.611 19.604C178.527 19.296 178.289 18.764 178.121 18.442C178.849 18.148 179.689 17.714 180.207 17.35ZM177.561 15.278H186.059V16.748H177.561V15.278ZM180.977 13.388H182.531V23.986H180.977V13.388ZM177.757 17.756L179.283 18.232V25.232H177.757V17.756ZM182.909 17.854H185.779V25.204H184.253V19.268H182.909V17.854ZM178.737 20.402H180.529V21.802H178.737V20.402ZM183.049 20.402H185.275V21.802H183.049V20.402ZM178.499 23.132H185.065V24.574H178.499V23.132ZM172.913 19.156C174.033 18.904 175.699 18.456 177.281 18.008L177.505 19.52C176.063 19.968 174.523 20.416 173.291 20.766L172.913 19.156ZM173.137 14.774H177.421V16.314H173.137V14.774ZM174.621 12.128H176.161V23.482C176.161 24.266 176.021 24.7 175.587 24.952C175.167 25.218 174.565 25.274 173.655 25.274C173.613 24.854 173.417 24.168 173.221 23.706C173.725 23.734 174.215 23.734 174.383 23.72C174.551 23.72 174.621 23.678 174.621 23.482V12.128ZM194.851 12.296H196.545V25.246H194.851V12.296ZM192.471 12.884L194.081 13.22C193.689 15.11 193.017 17.07 192.275 18.302C191.939 18.05 191.211 17.672 190.805 17.49C191.561 16.384 192.149 14.606 192.471 12.884ZM193.003 14.83H199.485V16.468H192.597L193.003 14.83ZM191.057 18.89H200.157V20.542H191.057V18.89ZM190.021 12.17L191.603 12.66C190.707 15.04 189.279 17.56 187.781 19.17C187.627 18.764 187.165 17.84 186.885 17.434C188.131 16.16 189.321 14.172 190.021 12.17ZM188.635 16.034L190.231 14.438V14.452V25.246H188.635V16.034ZM69.91 29.758H82.132V33.174H80.368V31.312H71.576V33.174H69.91V29.758ZM73.592 32.516H79.668V33.958H73.592V32.516ZM73.242 35.148H78.702V36.618H73.242V35.148ZM69.686 37.724H82.342V39.264H69.686V37.724ZM78.254 35.148H79.934C79.934 35.148 79.906 35.624 79.878 35.848C79.584 39.502 79.248 41.028 78.66 41.616C78.254 42.05 77.834 42.19 77.204 42.246C76.686 42.288 75.79 42.288 74.894 42.246C74.866 41.77 74.628 41.098 74.32 40.664C75.244 40.748 76.196 40.748 76.574 40.748C76.882 40.748 77.064 40.72 77.26 40.58C77.694 40.216 78.002 38.69 78.24 35.4L78.254 35.148ZM73.004 31.242L74.684 31.396C74.362 33.272 73.9 35.596 73.55 37.024L71.842 36.898C72.248 35.428 72.724 33.076 73.004 31.242ZM126.061 29.702H127.881C127.797 32.908 127.587 38.844 124.185 42.176C123.793 41.672 123.219 41.182 122.617 40.832C125.991 37.892 125.991 32.39 126.061 29.702ZM120.853 35.708L121.959 34.308C122.995 35.358 124.087 36.758 124.591 37.696L123.373 39.264C122.897 38.298 121.819 36.786 120.853 35.708ZM127.629 31.34C127.951 34.518 128.679 38.662 131.213 40.524C130.821 40.888 130.163 41.714 129.883 42.246C127.237 39.95 126.495 35.47 126.145 32.11L127.629 31.34ZM120.811 29.632L122.687 29.688C122.449 35.148 121.805 39.586 119.565 42.274C119.271 41.994 118.347 41.364 117.899 41.098C120.111 38.816 120.671 34.644 120.811 29.632ZM132.305 34.672H144.849V36.338H132.305V34.672ZM133.355 31.214H143.827V32.88H133.355V31.214ZM137.639 29.114H139.417V42.26H137.639V29.114ZM137.345 35.638L138.801 36.24C137.457 38.466 135.273 40.496 133.061 41.644C132.781 41.224 132.221 40.552 131.829 40.202C133.985 39.264 136.197 37.444 137.345 35.638ZM139.725 35.652C140.859 37.458 143.071 39.278 145.213 40.202C144.821 40.538 144.261 41.224 143.981 41.672C141.811 40.524 139.669 38.452 138.325 36.24L139.725 35.652ZM153.809 39.25H157.729V40.832H153.809V39.25ZM152.885 30.556H158.625V41.658H156.959V32.138H154.481V41.882H152.885V30.556ZM146.081 31.886H151.107V33.496H146.081V31.886ZM148.195 29.1L149.819 29.282C149.217 32.278 148.349 36.058 147.635 38.564L146.221 37.892C146.879 35.652 147.705 31.928 148.195 29.1ZM146.809 37.416L147.677 36.184C149.385 37.164 151.541 38.648 152.507 39.796L151.541 41.238C150.617 40.062 148.517 38.466 146.809 37.416ZM150.617 31.886H150.897L151.191 31.858L152.227 32.04C151.849 37.696 150.295 40.664 147.159 42.26C146.935 41.84 146.501 41.21 146.165 40.874C148.881 39.726 150.309 36.814 150.617 32.208V31.886ZM164.351 33.272H167.053V34.882H164.351V33.272ZM163.707 29.114H165.443V40.272L163.707 40.468V29.114ZM161.047 32.026H162.685V40.636L161.047 40.86V32.026ZM160.011 40.412C161.803 40.16 164.505 39.698 166.969 39.264L167.095 40.916C164.715 41.378 162.139 41.826 160.291 42.19L160.011 40.412ZM171.589 32.138L172.933 33.524C171.687 34.392 170.105 35.204 168.719 35.834C168.607 35.456 168.313 34.868 168.089 34.518C169.363 33.874 170.721 32.922 171.589 32.138ZM167.557 29.114H169.307V39.446C169.307 40.216 169.363 40.328 169.811 40.328C170.021 40.328 170.875 40.328 171.085 40.328C171.547 40.328 171.617 39.852 171.687 38.018C172.107 38.326 172.793 38.634 173.269 38.746C173.101 41.07 172.667 41.966 171.253 41.966C170.931 41.966 169.839 41.966 169.531 41.966C167.991 41.966 167.557 41.392 167.557 39.418V29.114Z" fill="white"/>
    <path d="M115.125 13.8182H117.78L120.584 20.6591H120.703L123.507 13.8182H126.162V24H124.074V17.3729H123.99L121.355 23.9503H119.933L117.298 17.348H117.213V24H115.125V13.8182ZM129.203 26.8636C128.935 26.8636 128.683 26.8421 128.448 26.799C128.216 26.7592 128.024 26.7079 127.871 26.6449L128.348 25.0639C128.597 25.1402 128.821 25.1816 129.02 25.1882C129.222 25.1948 129.396 25.1484 129.542 25.049C129.691 24.9496 129.812 24.7805 129.904 24.5419L130.029 24.2188L127.289 16.3636H129.517L131.098 21.9716H131.177L132.773 16.3636H135.015L132.047 24.8253C131.905 25.2363 131.711 25.5942 131.466 25.8991C131.224 26.2074 130.917 26.4444 130.546 26.6101C130.175 26.7791 129.727 26.8636 129.203 26.8636ZM136.139 24V13.8182H138.257V17.6463H138.321C138.414 17.4408 138.548 17.232 138.724 17.0199C138.903 16.8045 139.135 16.6255 139.42 16.483C139.708 16.3371 140.066 16.2642 140.494 16.2642C141.051 16.2642 141.565 16.41 142.035 16.7017C142.506 16.9901 142.882 17.4259 143.164 18.0092C143.445 18.5893 143.586 19.3168 143.586 20.1918C143.586 21.0436 143.449 21.7628 143.174 22.3494C142.902 22.9328 142.531 23.3752 142.06 23.6768C141.593 23.9751 141.069 24.1243 140.489 24.1243C140.078 24.1243 139.728 24.0563 139.44 23.9205C139.155 23.7846 138.921 23.6139 138.739 23.4084C138.557 23.1996 138.417 22.9891 138.321 22.777H138.227V24H136.139ZM138.212 20.1818C138.212 20.6359 138.275 21.032 138.401 21.37C138.527 21.7081 138.709 21.9716 138.948 22.1605C139.186 22.3461 139.476 22.4389 139.818 22.4389C140.163 22.4389 140.454 22.3445 140.693 22.1555C140.931 21.9633 141.112 21.6982 141.235 21.3601C141.361 21.0187 141.424 20.6259 141.424 20.1818C141.424 19.741 141.362 19.3532 141.24 19.0185C141.117 18.6837 140.936 18.4219 140.698 18.233C140.459 18.044 140.166 17.9496 139.818 17.9496C139.473 17.9496 139.181 18.0407 138.943 18.223C138.708 18.4053 138.527 18.6638 138.401 18.9986C138.275 19.3333 138.212 19.7277 138.212 20.1818ZM147.177 24.1442C146.69 24.1442 146.256 24.0597 145.874 23.8906C145.493 23.7183 145.192 23.4647 144.97 23.13C144.751 22.7919 144.642 22.371 144.642 21.8672C144.642 21.4429 144.719 21.0866 144.875 20.7983C145.031 20.5099 145.243 20.2779 145.512 20.1023C145.78 19.9266 146.085 19.794 146.426 19.7045C146.771 19.6151 147.132 19.5521 147.51 19.5156C147.954 19.4692 148.312 19.4261 148.584 19.3864C148.856 19.3433 149.053 19.2803 149.176 19.1974C149.298 19.1146 149.36 18.992 149.36 18.8295V18.7997C149.36 18.4848 149.26 18.2412 149.061 18.0689C148.866 17.8965 148.587 17.8104 148.226 17.8104C147.845 17.8104 147.542 17.8949 147.316 18.0639C147.091 18.2296 146.942 18.4384 146.869 18.6903L144.91 18.5312C145.009 18.0672 145.205 17.6662 145.497 17.3281C145.788 16.9867 146.164 16.7249 146.625 16.5426C147.089 16.357 147.626 16.2642 148.236 16.2642C148.66 16.2642 149.066 16.3139 149.454 16.4134C149.845 16.5128 150.191 16.6669 150.493 16.8757C150.798 17.0845 151.038 17.353 151.214 17.6811C151.39 18.0059 151.477 18.3954 151.477 18.8494V24H149.469V22.9411H149.409C149.287 23.1797 149.123 23.3902 148.917 23.5724C148.712 23.7514 148.465 23.8923 148.176 23.995C147.888 24.0945 147.555 24.1442 147.177 24.1442ZM147.784 22.6825C148.095 22.6825 148.37 22.6212 148.609 22.4986C148.847 22.3726 149.035 22.2036 149.171 21.9915C149.307 21.7794 149.374 21.5391 149.374 21.2706V20.4602C149.308 20.5033 149.217 20.5431 149.101 20.5795C148.988 20.6127 148.861 20.6442 148.718 20.674C148.576 20.7005 148.433 20.7254 148.291 20.7486C148.148 20.7685 148.019 20.7867 147.903 20.8033C147.654 20.8397 147.437 20.8977 147.252 20.9773C147.066 21.0568 146.922 21.1645 146.819 21.3004C146.716 21.433 146.665 21.5987 146.665 21.7976C146.665 22.0859 146.769 22.3063 146.978 22.4588C147.19 22.608 147.459 22.6825 147.784 22.6825ZM157.182 16.3636V17.9545H152.584V16.3636H157.182ZM153.628 14.5341H155.746V21.6534C155.746 21.849 155.775 22.0014 155.835 22.1108C155.895 22.2169 155.978 22.2914 156.084 22.3345C156.193 22.3776 156.319 22.3991 156.461 22.3991C156.561 22.3991 156.66 22.3909 156.76 22.3743C156.859 22.3544 156.935 22.3395 156.988 22.3295L157.322 23.9055C157.215 23.9387 157.066 23.9768 156.874 24.0199C156.682 24.0663 156.448 24.0945 156.173 24.1044C155.663 24.1243 155.215 24.0563 154.831 23.9006C154.45 23.7448 154.153 23.5028 153.941 23.1747C153.729 22.8466 153.624 22.4323 153.628 21.9318V14.5341ZM158.562 24V16.3636H160.68V24H158.562ZM159.626 15.3793C159.311 15.3793 159.041 15.2749 158.816 15.0661C158.593 14.8539 158.482 14.6004 158.482 14.3054C158.482 14.0137 158.593 13.7635 158.816 13.5547C159.041 13.3426 159.311 13.2365 159.626 13.2365C159.941 13.2365 160.209 13.3426 160.431 13.5547C160.657 13.7635 160.769 14.0137 160.769 14.3054C160.769 14.6004 160.657 14.8539 160.431 15.0661C160.209 15.2749 159.941 15.3793 159.626 15.3793ZM168.73 18.5412L166.791 18.6605C166.758 18.4948 166.687 18.3456 166.577 18.2131C166.468 18.0772 166.324 17.9695 166.145 17.8899C165.969 17.8071 165.759 17.7656 165.513 17.7656C165.185 17.7656 164.909 17.8352 164.683 17.9744C164.458 18.1103 164.345 18.2926 164.345 18.5213C164.345 18.7036 164.418 18.8577 164.564 18.9837C164.71 19.1096 164.96 19.2107 165.315 19.2869L166.697 19.5653C167.439 19.7178 167.993 19.9631 168.357 20.3011C168.722 20.6392 168.904 21.0833 168.904 21.6335C168.904 22.134 168.757 22.5732 168.462 22.951C168.17 23.3288 167.769 23.6238 167.259 23.8359C166.751 24.0447 166.166 24.1491 165.504 24.1491C164.493 24.1491 163.687 23.9387 163.087 23.5178C162.491 23.0935 162.141 22.5168 162.038 21.7876L164.121 21.6783C164.184 21.9865 164.337 22.2218 164.579 22.3842C164.821 22.5433 165.131 22.6229 165.509 22.6229C165.88 22.6229 166.178 22.5516 166.403 22.4091C166.632 22.2633 166.748 22.076 166.751 21.8473C166.748 21.6551 166.667 21.4976 166.508 21.375C166.349 21.2491 166.103 21.1529 165.772 21.0866L164.45 20.8232C163.704 20.674 163.149 20.4155 162.784 20.0476C162.423 19.6797 162.242 19.2107 162.242 18.6406C162.242 18.1501 162.375 17.7275 162.64 17.3729C162.908 17.0182 163.285 16.7448 163.768 16.5526C164.256 16.3603 164.826 16.2642 165.479 16.2642C166.443 16.2642 167.202 16.468 167.756 16.8757C168.313 17.2834 168.637 17.8385 168.73 18.5412Z" fill="#FE810A"/>
    <path d="M92.6486 33.7464C92.6088 33.3454 92.4382 33.0339 92.1365 32.8118C91.8349 32.5897 91.4256 32.4787 90.9086 32.4787C90.5572 32.4787 90.2606 32.5284 90.0186 32.6278C89.7767 32.724 89.5911 32.8582 89.4618 33.0305C89.3359 33.2029 89.2729 33.3984 89.2729 33.6172C89.2663 33.7995 89.3044 33.9586 89.3873 34.0945C89.4734 34.2304 89.5911 34.348 89.7402 34.4474C89.8894 34.5436 90.0617 34.6281 90.2573 34.701C90.4528 34.7706 90.6616 34.8303 90.8837 34.88L91.7985 35.0987C92.2426 35.1982 92.6503 35.3307 93.0215 35.4964C93.3927 35.6622 93.7142 35.866 93.986 36.108C94.2578 36.3499 94.4682 36.6349 94.6174 36.9631C94.7698 37.2912 94.8477 37.6674 94.851 38.0916C94.8477 38.7147 94.6886 39.255 94.3738 39.7124C94.0622 40.1664 93.6114 40.5194 93.0215 40.7713C92.4348 41.0199 91.7272 41.1442 90.8986 41.1442C90.0766 41.1442 89.3607 41.0182 88.7509 40.7663C88.1444 40.5144 87.6704 40.1416 87.329 39.6477C86.9909 39.1506 86.8136 38.5357 86.7971 37.8033H88.8801C88.9033 38.1446 89.0011 38.4297 89.1735 38.6584C89.3491 38.8838 89.5828 39.0545 89.8745 39.1705C90.1694 39.2831 90.5025 39.3395 90.8738 39.3395C91.2383 39.3395 91.5549 39.2865 91.8233 39.1804C92.0951 39.0743 92.3056 38.9268 92.4547 38.7379C92.6039 38.549 92.6784 38.3319 92.6784 38.0866C92.6784 37.858 92.6105 37.6657 92.4746 37.5099C92.342 37.3542 92.1465 37.2216 91.888 37.1122C91.6328 37.0028 91.3195 36.9034 90.9483 36.8139L89.8397 36.5355C88.9812 36.3267 88.3034 36.0002 87.8063 35.5561C87.3091 35.112 87.0622 34.5137 87.0655 33.7614C87.0622 33.1449 87.2263 32.6063 87.5577 32.1456C87.8925 31.6849 88.3515 31.3253 88.9348 31.0668C89.5182 30.8082 90.181 30.679 90.9235 30.679C91.6792 30.679 92.3387 30.8082 92.9022 31.0668C93.4689 31.3253 93.9097 31.6849 94.2246 32.1456C94.5395 32.6063 94.7019 33.1399 94.7118 33.7464H92.6486ZM100.142 37.4602H101.972L102.891 38.6435L103.796 39.6974L105.501 41.8352H103.493L102.32 40.3935L101.718 39.5384L100.142 37.4602ZM105.656 35.9091C105.656 37.0194 105.445 37.964 105.024 38.7429C104.607 39.5218 104.036 40.1167 103.314 40.5277C102.595 40.9354 101.786 41.1392 100.888 41.1392C99.983 41.1392 99.1709 40.9337 98.4517 40.5227C97.7325 40.1117 97.1641 39.5168 96.7464 38.7379C96.3288 37.959 96.12 37.0161 96.12 35.9091C96.12 34.7988 96.3288 33.8542 96.7464 33.0753C97.1641 32.2964 97.7325 31.7031 98.4517 31.2955C99.1709 30.8845 99.983 30.679 100.888 30.679C101.786 30.679 102.595 30.8845 103.314 31.2955C104.036 31.7031 104.607 32.2964 105.024 33.0753C105.445 33.8542 105.656 34.7988 105.656 35.9091ZM103.473 35.9091C103.473 35.1899 103.365 34.5833 103.15 34.0895C102.938 33.5956 102.638 33.2211 102.25 32.9659C101.862 32.7107 101.408 32.5831 100.888 32.5831C100.367 32.5831 99.9134 32.7107 99.5256 32.9659C99.1378 33.2211 98.8362 33.5956 98.6207 34.0895C98.4086 34.5833 98.3026 35.1899 98.3026 35.9091C98.3026 36.6283 98.4086 37.2348 98.6207 37.7287C98.8362 38.2225 99.1378 38.5971 99.5256 38.8523C99.9134 39.1075 100.367 39.2351 100.888 39.2351C101.408 39.2351 101.862 39.1075 102.25 38.8523C102.638 38.5971 102.938 38.2225 103.15 37.7287C103.365 37.2348 103.473 36.6283 103.473 35.9091ZM107.25 41V30.8182H109.403V39.2251H113.768V41H107.25ZM174.123 30.626H179.513V32.194H174.123V30.626ZM176.755 32.936H178.295V42.19H176.755V32.936ZM173.927 38.424C175.327 38.242 177.427 37.92 179.457 37.612L179.541 39.068C177.693 39.418 175.761 39.768 174.263 40.034L173.927 38.424ZM174.557 36.66C174.473 36.366 174.235 35.638 174.053 35.232C174.347 35.148 174.543 34.756 174.795 34.14C175.033 33.552 175.747 31.2 176.013 29.1L177.623 29.408C177.175 31.69 176.335 34.126 175.579 35.792V35.834C175.579 35.834 174.557 36.366 174.557 36.66ZM174.557 36.66V35.33L175.285 34.938H179.387V36.45H175.649C175.201 36.45 174.683 36.534 174.557 36.66ZM180.017 29.8H185.197V31.326H180.017V29.8ZM184.707 29.8H185.029L185.337 29.73L186.513 30.318C185.365 33.118 182.901 35.008 180.199 36.072C179.989 35.666 179.527 35.008 179.177 34.672C181.571 33.86 183.853 32.11 184.707 30.094V29.8ZM179.303 40.384H187.017V41.938H179.303V40.384ZM182.425 37.29H184.105V40.874H182.425V37.29ZM180.017 36.282H186.415V37.808H180.017V36.282ZM182.131 33.916L183.069 32.754C184.301 33.3 186.093 34.154 186.975 34.756L185.953 36.086C185.141 35.47 183.391 34.518 182.131 33.916ZM195.921 34.56L197.867 35.008C197.195 37.01 196.313 39.362 195.585 40.86L194.129 40.426C194.829 38.83 195.557 36.38 195.921 34.56ZM192.869 40.09C194.633 40.006 197.391 39.852 199.967 39.698V41.238C197.559 41.448 194.997 41.658 193.149 41.784L192.869 40.09ZM197.685 37.78L199.141 37.08C199.981 38.466 200.919 40.286 201.297 41.476L199.701 42.288C199.393 41.098 198.497 39.208 197.685 37.78ZM194.843 29.436L196.593 29.786C196.075 32.054 195.193 34.322 194.157 35.736C193.863 35.442 193.135 34.868 192.729 34.616C193.709 33.398 194.451 31.424 194.843 29.436ZM199.099 29.38C199.561 31.102 200.443 33.062 201.297 34.238C200.877 34.546 200.247 35.162 199.939 35.61C198.987 34.182 198.119 31.914 197.573 29.856L199.099 29.38ZM188.165 31.998H193.177V33.566H188.165V31.998ZM190.027 29.114H191.609V42.26H190.027V29.114ZM189.971 33.076L190.937 33.426C190.517 35.666 189.649 38.382 188.599 39.824C188.445 39.362 188.067 38.676 187.815 38.27C188.767 37.052 189.607 34.868 189.971 33.076ZM191.553 34.252C191.903 34.644 193.177 36.408 193.443 36.814L192.505 38.102C192.141 37.248 191.231 35.68 190.797 34.98L191.553 34.252Z" fill="#FD810A"/>
    <path d="M52.8647 20.2432L55.7619 21.085L53.0603 21.8782L54.9087 22.6522L52.9627 23.0161L52.8647 20.2432Z" fill="#1A1A1A"/>
    <path d="M25.6896 14.8472C25.3002 19.7935 31.226 27.724 37.0821 28.3537C39.3703 28.5997 42.7288 26.4379 42.5539 24.1431C42.0663 17.7428 32.1868 17.4211 25.6896 14.8472V14.8472Z" fill="black"/>
    <path d="M15.2852 33.1533C21.6971 40.3002 33.2446 43.5213 41.6429 40.0622C48.6493 37.1764 53.1923 27.867 53.1945 20.4837C53.1961 15.4271 48.132 9.67609 40.6352 12.0469C37.2677 13.1119 34.6984 16.4947 32.5281 19.5675C27.6791 26.0215 23.3792 30.3574 15.2852 33.1533Z" fill="black"/>
    <path d="M20.1084 18.7119C20.5164 23.6568 27.6358 30.5357 33.5172 30.2193C35.8153 30.0957 38.7841 27.4238 38.244 25.1867C36.7375 18.947 26.9341 20.212 20.1084 18.7119Z" fill="black"/>
    <path d="M36.3673 14.8186C38.4055 15.0007 42.0047 15.6461 44.8449 15.8221C47.176 15.9665 49.9303 15.9041 51.8514 15.8638C53.2427 18.2486 53.3553 20.7913 52.9627 23.0161C48.8662 23.7022 45.8161 23.1964 42.4737 22.1283C39.4331 21.1566 36.4172 19.6925 34.2314 17.2525C35.2061 15.8658 35.5378 15.5662 36.3673 14.8186Z" fill="#D40000"/>
    <path d="M51.5007 20.6442C51.0977 21.7012 49.6904 22.1026 48.3575 21.5407C47.0245 20.9788 46.2705 19.6663 46.6735 18.6093C47.0764 17.5523 48.4837 17.1508 49.8167 17.7128C51.1497 18.2747 51.9036 19.5871 51.5007 20.6442Z" fill="white"/>
    <path d="M51.3625 20.5166C51.0584 21.3144 50.0554 21.6423 49.1223 21.2489C48.1893 20.8556 47.6794 19.8899 47.9834 19.0922C48.2875 18.2945 49.2905 17.9667 50.2236 18.36C51.1567 18.7533 51.6666 19.7189 51.3625 20.5166H51.3625Z" fill="#1A1A1A"/>
    <path d="M50.9863 19.4927C50.8787 19.7747 50.5369 19.896 50.2227 19.7635C49.9085 19.6311 49.741 19.2951 49.8485 19.013C49.956 18.7309 50.2978 18.6097 50.6121 18.7421C50.9263 18.8745 51.0938 19.2105 50.9863 19.4927Z" fill="white"/>
    <path d="M51.3539 19.1321C50.8414 18.8125 50.4165 18.374 49.9063 18.0505C49.4151 17.719 48.9084 17.3994 48.3576 17.1769C48.1162 17.0935 47.8745 17.0105 47.6342 16.9238C47.4699 16.963 47.6654 16.816 47.6997 16.7617L48.1986 16.2048C48.4144 16.2332 48.6049 16.3521 48.8152 16.4026C49.3839 16.6356 49.8978 16.9796 50.4119 17.3119C50.9168 17.6527 51.388 18.0433 51.8971 18.3768C52.0478 18.405 52.0397 18.5098 51.9236 18.5734L51.3539 19.1321Z" fill="#1A1A1A"/>
    <path d="M36.7899 17.5508C35.8074 17.5166 34.6637 17.6388 33.9108 16.7302C33.2478 16.0039 32.7084 15.0996 32.3604 14.1141C32.3002 13.3983 32.2995 12.5238 31.6457 12.1837C30.8911 11.7048 29.9995 11.7736 29.1744 11.6411C27.6174 11.5375 26.1339 12.1867 24.6826 12.761C23.9935 13.0314 23.1466 12.9817 22.6414 12.2916C22.2479 11.8402 22.0088 11.2557 21.7603 10.6961C21.3965 10.3338 21.3747 9.77105 21.8658 9.6209L22.7728 9.00586C23.2374 10.0112 23.5908 11.303 24.5704 11.751C25.576 12.0056 26.5087 11.322 27.4568 11.0452C28.8007 10.5339 30.2369 10.4569 31.625 10.728C32.4242 10.812 33.3915 11.1586 33.6331 12.1889C33.7038 13.0824 33.8648 13.9527 34.3991 14.6236C34.9046 15.5315 35.6459 16.3969 36.6191 16.4341C36.9411 16.5605 37.9952 16.3025 37.8792 16.6122L36.7898 17.5508L36.7899 17.5508Z" fill="#D40000"/>
    <path d="M36.1313 17.0794C35.4189 16.6148 34.5473 16.205 34.2443 15.3497C34.0437 14.7771 33.8375 14.1982 33.7371 13.5991C33.649 12.7849 33.7395 11.9644 33.6989 11.1484C33.8302 10.6277 33.4925 10.1486 32.971 10.0525C32.2874 9.85327 31.5643 9.87944 30.8635 9.78292C30.2193 9.7478 29.4504 9.888 28.9394 9.40343C28.5518 8.94124 28.3835 8.34308 28.1914 7.78304C28.1474 7.49058 28.5358 7.4789 28.7046 7.30593L29.6289 6.71948C29.6958 7.26437 29.9347 7.77288 30.1483 8.27237C30.443 8.79714 31.0887 8.82222 31.6213 8.80905C32.4564 8.86218 33.3047 8.87862 34.1224 9.06413C34.638 9.1846 35.2455 9.5496 35.1913 10.1497C35.2261 11.3931 35.0201 12.6826 35.4477 13.8816C35.6243 14.4179 35.7977 14.9969 36.272 15.353C36.6277 15.6828 37.075 15.8994 37.4714 16.1625C37.1467 16.4466 36.7322 16.6607 36.3731 16.9192L36.1313 17.0794Z" fill="#D40000"/>
</svg>
