<svg xmlns="http://www.w3.org/2000/svg" width="1920" height="875" viewBox="0 0 1920 875"><defs><linearGradient id="vortex-0" x1="1" x2="0" y1="0" y2="0" color-interpolation="linearRGB"><stop offset="0" stop-color="#21D789" stop-opacity="1"/><stop offset=".45" stop-color="#087CFA" stop-opacity=".925"/><stop offset="1" stop-color="#087CFA" stop-opacity=".75"/></linearGradient><linearGradient id="vortex-1" x1="1" x2="0" y1="0" y2="0" color-interpolation="linearRGB"><stop offset="0" stop-color="#21D789" stop-opacity="1"/><stop offset=".45" stop-color="#087CFA" stop-opacity=".925"/><stop offset="1" stop-color="#087CFA" stop-opacity=".75"/></linearGradient><linearGradient id="vortex-2" x1="1" x2="0" y1="0" y2="0" color-interpolation="linearRGB"><stop offset="0" stop-color="#21D789" stop-opacity="1"/><stop offset=".45" stop-color="#087CFA" stop-opacity=".925"/><stop offset="1" stop-color="#087CFA" stop-opacity=".75"/></linearGradient><linearGradient id="vortex-3" x1="1" x2="0" y1="0" y2="0" color-interpolation="linearRGB"><stop offset="0" stop-color="#21D789" stop-opacity="1"/><stop offset=".45" stop-color="#087CFA" stop-opacity=".925"/><stop offset="1" stop-color="#087CFA" stop-opacity=".75"/></linearGradient><linearGradient id="vortex-4" x1="1" x2="0" y1="0" y2="0" color-interpolation="linearRGB"><stop offset="0" stop-color="#21D789" stop-opacity="1"/><stop offset=".45" stop-color="#087CFA" stop-opacity=".925"/><stop offset="1" stop-color="#087CFA" stop-opacity=".75"/></linearGradient><linearGradient id="vortex-5" x1="1" x2="0" y1="0" y2="0" color-interpolation="linearRGB"><stop offset="0" stop-color="#21D789" stop-opacity="1"/><stop offset=".45" stop-color="#087CFA" stop-opacity=".925"/><stop offset="1" stop-color="#087CFA" stop-opacity=".75"/></linearGradient><linearGradient id="vortex-6" x1="1" x2="0" y1="0" y2="0" color-interpolation="linearRGB"><stop offset="0" stop-color="#21D789" stop-opacity="1"/><stop offset=".45" stop-color="#087CFA" stop-opacity=".925"/><stop offset="1" stop-color="#087CFA" stop-opacity=".75"/></linearGradient></defs><rect width="1920" height="875" fill="#000" opacity="1"/><g class="group" transform="rotate(76 1075 555)"><rect width="163.26" height="163.26" x="1147.694" y="711.205" fill="url(#vortex-6)" fill-opacity="1" stroke="rgba(26, 189, 168, 255)" stroke-opacity="0" stroke-width="1" data-x="188.084" data-y="-185.074" rx="62.457" ry="62.457" transform="translate(188.08373971025512, -185.07434393259174) rotate(163.65818817367517, 1075, 555)"/><rect width="125.106" height="125.106" x="1131.932" y="674.665" fill="url(#vortex-5)" fill-opacity="1" stroke="rgba(20, 167, 197, 255)" stroke-opacity="0" stroke-width="1" data-x="145.684" data-y="-220.705" rx="47.861" ry="47.861" transform="translate(145.6836468295617, -220.7051272453782) rotate(136.38182347806264, 1075, 555)"/><rect width="95.869" height="95.869" x="1119.87" y="646.685" fill="url(#vortex-4)" fill-opacity="1" stroke="rgba(13, 144, 225, 255)" stroke-opacity="0" stroke-width="1" data-x="79.781" data-y="-233.94" rx="36.676" ry="36.676" transform="translate(79.7808544185705, -233.9403704929587) rotate(109.10545878245011, 1075, 555)"/><rect width="73.465" height="73.465" x="1110.632" y="625.264" fill="url(#vortex-3)" fill-opacity="1" stroke="rgba(8, 124, 250, 255)" stroke-opacity="0" stroke-width="1" data-x="3.252" data-y="-216.499" rx="28.105" ry="28.105" transform="translate(3.2522074086023522, -216.4994289375833) rotate(81.82909408683759, 1075, 555)"/><rect width="56.296" height="56.296" x="1103.545" y="608.87" fill="url(#vortex-2)" fill-opacity="1" stroke="rgba(8, 124, 250, 255)" stroke-opacity="0" stroke-width="1" data-x="-68.662" data-y="-166.924" rx="21.537" ry="21.537" transform="translate(-68.66239428952146, -166.92365136451596) rotate(54.55272939122506, 1075, 555)"/><rect width="43.14" height="43.14" x="1098.094" y="596.327" fill="url(#vortex-1)" fill-opacity="1" stroke="rgba(8, 124, 250, 255)" stroke-opacity="0" stroke-width="1" data-x="-121.749" data-y="-90.901" rx="16.504" ry="16.504" transform="translate(-121.74915578535547, -90.90076556879522) rotate(27.27636469561253, 1075, 555)"/><rect width="33.058" height="33.058" x="1093.885" y="586.736" fill="url(#vortex-0)" fill-opacity="1" stroke="rgba(8, 124, 250, 255)" stroke-opacity="0" stroke-width="1" data-x="-145.981" data-y="0" rx="12.647" ry="12.647" transform="translate(-145.9813544967416, 0) rotate(0, 1075, 555)"/></g></svg>