<svg xmlns="http://www.w3.org/2000/svg" xml:space="preserve" id="图层_1" x="0" y="0" version="1.1" viewBox="0 0 4252 5550.6"><style>.cls-1{fill:none}.cls-2{fill:#1ba784}</style><path fill="#FE2857" stroke="#FE2857" d="M165 580h105q5-2 0-10l-47-87q-3-3-6 0l-52 87q-5 8 0 10"><animate attributeName="fill" dur="35" repeatCount="indefinite" values="#087CFA;#21D789;#FCF84A;#FDB60D;#FC801D;#FE2857;#DD1265"/><animate attributeName="stroke" dur="35s" repeatCount="indefinite" values="#087CFA;#21D789;#FCF84A;#FDB60D;#FC801D;#FE2857;#DD1265"/><animateTransform attributeName="transform" attributeType="XML" begin="0s" dur="35s" from="0 210 530" repeatCount="indefinite" to="360 210 530" type="rotate"/></path><path id="svg_5" fill="#21D789" stroke="null" d="M1279.397-1815.214v.021c11.798-8.17 25.494-12.856 40.103-12.856s28.305 4.675 40.103 12.856v-.021c0-35.555-16.13-66.606-40.103-83.214-23.972 16.608-40.103 47.649-40.103 83.214z" transform="rotate(90 1500 600)"><animate attributeName="opacity" begin="0s" dur="10s" from="1" repeatCount="indefinite" to="0"/></path><g stroke="null" style="transform-box:fill-box;transform-origin:center"><path fill="#f07c82" d="m3154.027 491.056-69.562-38.936v-77.763l69.562-38.937 69.563 38.937v77.763l-69.563 38.936zm-47.123-51.444 47.123 26.32 47.123-26.32v-52.748l-47.123-26.32-47.123 26.32v52.748z"/><path fill="#f07c82" d="M3131.587 413.184a22.44 21.752 0 1 0 44.88 0 22.44 21.752 0 1 0-44.88 0z"/><animateTransform attributeName="transform" dur="25s" from="360" repeatCount="indefinite" to="0" type="rotate"/><animate attributeName="opacity" begin="0s" dur="25s" from="1" repeatCount="indefinite" to="0"/></g><g id="svg_35" stroke="null" style="transform-box:fill-box;transform-origin:center"><path id="svg_29" stroke="null" d="M577.37 996.312a26.557 26.23 0 0 0-26.56 26.231c0 8.148 3.84 15.336 9.742 20.146l26.095-44.64a26.33 26.006 0 0 0-9.278-1.737z" class="cls-1"/><path id="svg_30" stroke="null" d="M603.928 1022.543a26.42 26.094 0 0 0-4.59-14.73l-23.833 40.775c.627.044 1.225.187 1.87.187a26.412 26.087 0 0 0 18.267-7.266l7.467-12.774a26.387 26.062 0 0 0 .82-6.192z" class="cls-1"/><path id="svg_31" stroke="null" d="M603.928 1022.543a26.387 26.062 0 0 1-.824 6.192l22.58-38.635a58.655 57.932 0 0 0-9.688-10.78l-16.657 28.494a26.42 26.094 0 0 1 4.589 14.73z" class="cls-2"><animate attributeName="opacity" begin="0s" dur="1s" from="1" repeatCount="indefinite" to="0"/></path><path id="svg_32" stroke="null" d="M616.248 1111.729h30.173v-10.492l-13.798-17.523-16.375 28.015z" class="cls-2"><animate attributeName="opacity" begin="1s" dur="1.3s" from="1" repeatCount="indefinite" to="0"/></path><path id="svg_33" stroke="null" d="M635.798 1022.543a58.368 57.648 0 0 0-2.015-14.815l-27.659 47.319-13.538 23.159-1.889 3.231 14.266 18.121 17.1-29.25-4.608-5.853c11.272-10.521 18.343-25.386 18.343-41.912z" class="cls-2"><animate attributeName="opacity" begin="1.5s" dur="1.8s" from="1" repeatCount="indefinite" to="0"/></path><path id="svg_34" fill="#087CFA" stroke="null" d="M575.505 1048.588a26.266 25.943 0 0 1-14.958-5.897c-5.902-4.812-9.741-12-9.741-20.146a26.365 26.04 0 0 1 35.836-24.494l16.047-27.451a58.067 57.351 0 0 0-25.326-5.764c-32.263-.002-58.423 25.835-58.423 57.707v89.187h31.87V1073.9a57.685 56.974 0 0 0 22.303 6.14l7.018-12.014 3.203-5.48 12.298-21.038a26.412 26.087 0 0 1-18.263 7.266c-.637 0-1.237-.143-1.864-.187z"><animate attributeName="opacity" dur="10s" from="1" repeatCount="indefinite" to=".2"/></path></g><linearGradient id="SVGID_1_" x1="11530.766" x2="9054.932" y1="7900.008" y2="7876.994" gradientTransform="rotate(-140.246 5979.858 6737.796)" gradientUnits="userSpaceOnUse"><stop offset="0" style="stop-color:#fc801d"/><stop offset=".502" style="stop-color:#fb7924"/><stop offset="1" style="stop-color:#ee197d"/></linearGradient><path fill="url(#SVGID_1_)" d="m2780.6 2301.7 2095.9 1683.7-150.4 150.4-2085.5-1322.1z"/><linearGradient id="SVGID_00000126295844069109487260000001263970558483856791_" x1="14187.951" x2="12088.12" y1="13490.134" y2="13082.954" gradientTransform="rotate(-89.892 3053.308 13589.249)" gradientUnits="userSpaceOnUse"><stop offset="0" style="stop-color:#fc801d"/><stop offset=".369" style="stop-color:#fdb60d"/><stop offset=".772" style="stop-color:#fcf84a"/></linearGradient><path fill="url(#SVGID_00000126295844069109487260000001263970558483856791_)" d="m2981.5 2496.6-95.6 2752.3-759.9-797.8 552.2-1941.9z"/><linearGradient id="SVGID_00000028294411931750535310000012592738066408570525_" x1="2272.571" x2="4487.097" y1="3745.959" y2="2889.877" gradientTransform="rotate(-1.68 3457.128 8352.027) scale(1.00003)" gradientUnits="userSpaceOnUse"><stop offset="0" style="stop-color:#fcf84a"/><stop offset=".547" style="stop-color:#3dea62"/><stop offset="1" style="stop-color:#07c3f2"/></linearGradient><path fill="url(#SVGID_00000028294411931750535310000012592738066408570525_)" d="M3900.8 1260.3 2126 4451.1l759.9 797.8 1191.3-3617z"/><linearGradient id="SVGID_00000011752290702248551610000016354066440030124423_" x1="359.426" x2="1857.932" y1="282.459" y2="3209.383" gradientUnits="userSpaceOnUse"><stop offset="0" style="stop-color:#b640ff"/><stop offset=".142" style="stop-color:#8752fd"/><stop offset=".327" style="stop-color:#4f67fc"/><stop offset=".486" style="stop-color:#2777fa"/><stop offset=".612" style="stop-color:#0e80f9"/><stop offset=".689" style="stop-color:#0584f9"/></linearGradient><path fill="url(#SVGID_00000011752290702248551610000016354066440030124423_)" d="M1859.1 2667.9 734.4-336.7H569.2l547.3 3449.5 520.1 445.3 425.6-346.4z"/><linearGradient id="SVGID_00000152982055828520814990000000835302115969007496_" x1="1116.499" x2="4077.186" y1="2409.213" y2="2409.213" gradientUnits="userSpaceOnUse"><stop offset="0" style="stop-color:#087cfa"/><stop offset=".049" style="stop-color:#0881f9"/><stop offset=".456" style="stop-color:#07a5f5"/><stop offset=".787" style="stop-color:#07bbf3"/><stop offset="1" style="stop-color:#07c3f2"/></linearGradient><path fill="url(#SVGID_00000152982055828520814990000000835302115969007496_)" d="M3900.8 1260.3 1116.5 3112.8l520.1 445.3 2440.6-1926.2z"/><g id="svg_12" stroke="null" transform="rotate(30 141.06 2544.915)"><path id="svg_10" fill="#707070" stroke="null" d="M672.634 2422.039c-.743 27.083-6.017 53.116-14.84 78.343-10.538 30.183-25.963 56.727-47.586 78.673-1.758 1.792-2.303 3.684-2.072 6.198.76 8.135 1.354 16.27 2.105 24.368 1.758 18.94-4.226 34.451-18.009 45.429-14.79 11.8-30.148 22.696-45.416 33.738-9.615 6.946-21.425.621-22.506-12.002a1698.204 1880.816 0 0 1-3.104-43.573c-.454-7.267-.272-7.34-6.635-8.263-16.878-2.468-30.1-11.343-39.16-27.44-4.672-8.29-6.983-17.458-7.792-27.11-.247-2.88-1.296-3.611-3.755-3.758-13.667-.84-27.318-1.727-40.952-2.86-11.348-.951-17.1-14.214-11.018-25.265 4.275-7.77 8.815-15.365 13.23-23.043 4.746-8.264 9.466-16.563 14.228-24.817 8.724-15.119 21.293-23.281 37.37-23.436 9.219-.074 18.438 1.718 27.648 2.815 1.742.2 2.98-.055 4.168-1.545 21.375-26.453 47.835-44.304 77.777-56.25a219.557 243.166 0 0 1 52.2-13.209c9.013-1.024 18.075-1.408 27.08.439 4.893 1.005 5.157 1.234 5.908 6.535.768 5.302 1.37 10.63 1.13 16.033zm-51.557 66.762c.182-17.851-13.164-33.207-29.034-33.5-16.474-.301-30.76 12.97-31.148 33.701-.321 17.285 13.808 32.934 29.58 33.062a30.289 33.546 0 0 0 30.602-33.263zm0 0"><animateMotion id="rocketStep1" begin="0s;rocketStep3.end" dur="7s" from="-1200 0" rotate="auto" to="-200 -935"/><animateMotion id="rocketStep2" begin="rocketStep1.end" dur="5s" from="-200 -935" rotate="auto" to="1200 -2243"/><animateMotion id="rocketStep3" begin="rocketStep2.end" dur="3s" from="1200 -2243" rotate="auto" to="4200 -5050"/><animate attributeName="opacity" begin="0s" dur="15s" from="1" repeatCount="indefinite" to="0"/></path></g></svg>