<svg xmlns="http://www.w3.org/2000/svg" width="300" height="300" class="icon" viewBox="0 0 1024 1024"><path fill="#8a8a8a" d="M1019.597 83.271c-2.87 94.507-23.252 185.345-57.348 273.376-40.73 105.319-100.343 197.943-183.91 274.524-6.793 6.252-8.898 12.854-8.005 21.625 2.935 28.387 5.231 56.774 8.133 85.034 6.794 66.087-16.33 120.214-69.595 158.52-57.157 41.177-116.514 79.196-175.521 117.726-37.158 24.24-82.8 2.169-86.979-41.879a6562.998 6562.998 0 0 1-11.993-152.045c-1.754-25.357-1.052-25.612-25.643-28.834-65.227-8.611-116.323-39.582-151.344-95.75-18.053-28.929-26.984-60.92-30.11-94.602-.957-10.047-5.007-12.598-14.512-13.109-52.819-2.934-105.574-6.028-158.265-9.983-43.857-3.317-66.088-49.597-42.58-88.159 16.521-27.111 34.064-53.616 51.128-80.408 18.34-28.834 36.584-57.795 54.987-86.597 33.714-52.755 82.29-81.237 144.423-81.78 35.627-.255 71.254 5.997 106.85 9.824 6.73.702 11.514-.191 16.107-5.39 82.61-92.305 184.866-154.597 300.583-196.285A848.514 848.514 0 0 1 887.74 2.991c34.83-3.573 69.851-4.912 104.65 1.53 18.913 3.509 19.934 4.306 22.836 22.806 2.967 18.5 5.295 37.094 4.37 55.944zm-199.25 232.965c.7-62.292-50.874-115.876-112.209-116.897-63.663-1.053-118.874 45.26-120.373 117.598-1.244 60.315 53.36 114.92 114.313 115.366a117.056 117.056 0 0 0 118.268-116.067zm0 0"/><path fill="#8a8a8a" d="M135.423 671.902c15.597.191 24.273 7.08 29.855 23.092 21.976 62.547 61.909 110.007 119.863 142.158 12.79 7.08 26.218 12.854 40.156 17.606 25.038 8.548 30.747 32.885 12.152 51.67-27.494 27.75-55.275 55.18-82.768 83.025-9.09 9.154-19.106 13.428-31.896 8.74-12.981-4.849-19.265-14.481-19.903-27.941-.446-8.516-.223-17.064-.414-25.612-.351-15.725-.51-15.852-14.96-11.036-30.874 10.174-61.78 20.604-92.624 30.779-9.154 3.03-18.276 4.306-27.175-.734-13.013-7.463-17.957-20.668-12.726-36.966 10.27-31.736 21.051-63.281 31.545-94.953 4.56-13.747 4.274-14.034-10.59-14.226-8.93-.127-17.893 0-26.824-.51-12.981-.638-22.295-6.857-27.11-19.233-4.69-12.024-1.723-22.39 7.08-31.257a27544.852 27544.852 0 0 1 86.31-86.373c5.74-5.71 12.534-8.931 20.03-8.23zm0 0"/></svg>