<svg xmlns="http://www.w3.org/2000/svg" width="578" height="151" fill="none" viewBox="0 0 578 151">
  <path fill="#fff" d="M105.11 22.74h13.09v59.49h-13.09V22.74zM124.19 36.68h12.92v6.46c3-3.83 6.8-7.31 13.34-7.31 9.78 0 15.47 6.46 15.47 16.91v29.49H153V56.82c0-6.12-2.89-9.26-7.82-9.26s-8.07 3.14-8.07 9.26v25.41h-12.92V36.68zM173.76 69.31V47.73h-5.44V36.68h5.44V25.02h12.92v11.66h10.71v11.05h-10.71v19.46c0 3 1.27 4.42 4.16 4.42a13.16 13.16 0 006.38-1.59v10.34A19 19 0 01187 83.02c-7.88 0-13.24-3.17-13.24-13.71zM199.56 59.71v-.17c0-13 9.26-23.71 22.52-23.71 15.21 0 22.18 11.81 22.18 24.73 0 1-.08 2.21-.17 3.4h-31.7c1.27 5.86 5.35 8.92 11.13 8.92 4.34 0 7.48-1.36 11-4.67l7.4 6.54c-4.25 5.27-10.37 8.5-18.62 8.5-13.63 0-23.74-9.6-23.74-23.54zm32.12-3.82c-.76-5.78-4.16-9.69-9.6-9.69-5.44 0-8.84 3.82-9.86 9.69h19.46zM247.89 20.19h12.92v62h-12.92v-62zM266.28 20.19h12.92v62h-12.92v-62zM284.33 20.19h13.6v11.47h-13.6V20.19zm.34 16.49h12.92v45.55h-12.92V36.68zM300.28 74.16l8.24-9.14c3.4 3.74 6.71 6 10.88 6 4.93 0 8-3 8-9.86V22.74h13.43v38.92c0 7.06-2 12.33-5.61 15.9-3.61 3.57-9 5.52-15.47 5.52a24.34 24.34 0 01-19.47-8.92zM363.23 22.74h13.08v59.49h-13.08V22.74zM382.45 22.74h23.2c18.69 0 31.61 12.83 31.61 29.58v.17c0 16.74-12.92 29.74-31.61 29.74h-23.2V22.74zm13.08 11.81v35.87h10.12c10.71 0 17.93-7.23 17.93-17.76v-.17c0-10.54-7.22-17.94-17.93-17.94h-10.12zM441.61 22.74h44.87v11.64h-31.87v12.07h28.05V58.1h-28.05v12.49h32.3v11.64h-45.3V22.74zM515.64 22.32h12.07l25.5 59.91h-13.68l-5.44-13.34h-25.16l-5.44 13.34h-13.34l25.49-59.91zm13.77 35l-7.9-19.3-7.9 19.29 15.8.01zM22.5 22.52h60v60h-60v-60z"/>
  <path fill="#000" d="M29.97 71.18h22.5v3.75h-22.5v-3.75zM41.2 34.14v-4.1H30.02v4.1h3.13V48.3h-3.13v4.1H41.2v-4.1h-3.13V34.14h3.13zM51.94 52.72a9 9 0 01-4.4-1 10.47 10.47 0 01-2.92-2.36l3.1-3.45a8.83 8.83 0 001.93 1.64 4 4 0 002.16.59 2.8 2.8 0 002.2-.88 4.06 4.06 0 00.8-2.82V30.02h5v14.65a10.1 10.1 0 01-.54 3.48 7 7 0 01-1.57 2.5 6.74 6.74 0 01-2.51 1.55 9.85 9.85 0 01-3.3.52"/>
  <path fill="#fff" d="M107.54 124.46v3.07h-2.39V104.9h2.39v9.83a7.192 7.192 0 016.14-3.57c3.84 0 7.65 3 7.65 8.31v.06c0 5.24-3.78 8.34-7.65 8.34a7.223 7.223 0 01-6.14-3.41zm11.35-4.9v-.06c0-3.78-2.61-6.2-5.65-6.2a6 6 0 00-5.8 6.17v.06a5.997 5.997 0 005.8 6.2c3.1 0 5.65-2.29 5.65-6.17zM136.55 111.5h2.54l-6.72 16.52c-1.37 3.32-2.92 4.52-5.34 4.52a7.266 7.266 0 01-3.41-.8l.81-1.89a5 5 0 002.51.59c1.43 0 2.33-.75 3.29-3l-7.29-16h2.64l5.82 13.36 5.15-13.3zM150.47 124.02l1.76-1.52c1.34 2 2.7 3.1 5 3.1 2.45 0 4.24-1.77 4.24-5.21v-14.56h2.48v14.51a7.821 7.821 0 01-2 5.7 6.635 6.635 0 01-4.77 1.8 7.428 7.428 0 01-6.71-3.82zM168.35 119.56v-.06c0-4.62 3.25-8.34 7.69-8.34 4.74 0 7.47 3.78 7.47 8.46.016.26.016.52 0 .78h-12.74a5.6 5.6 0 005.64 5.43 6.612 6.612 0 005.05-2.27l1.49 1.34a8.282 8.282 0 01-6.6 3 8 8 0 01-8-8.34zm12.74-.93c-.25-2.91-1.92-5.45-5.11-5.45-2.79 0-4.9 2.32-5.21 5.45h10.32zM187.94 123.28v-9.67h-2.23v-2.11h2.23v-4.84h2.39v4.84h5.08v2.11h-5.08v9.41a2.37 2.37 0 002.7 2.67 5.06 5.06 0 002.32-.56v2a6.06 6.06 0 01-2.88.68c-2.58 0-4.53-1.27-4.53-4.53zM199.33 105.83h9.24a7.998 7.998 0 015.68 1.92 4.801 4.801 0 011.39 3.47v.06a5.247 5.247 0 01-3.44 5c2.57.77 4.65 2.26 4.65 5.24v.06c0 3.72-3.13 5.92-7.87 5.92h-9.65v-21.67zm13.83 5.73c0-2.14-1.7-3.53-4.8-3.53h-6.61v7.47h6.42c2.94 0 5-1.33 5-3.88l-.01-.06zm-4.56 6.11h-6.85v7.66H209c3.28 0 5.33-1.46 5.33-3.88v-.06c.04-2.37-1.94-3.72-5.73-3.72zM221.38 111.5h2.39v4.19a6.852 6.852 0 012.56-3.274 6.851 6.851 0 013.98-1.196v2.58h-.19c-3.5 0-6.35 2.51-6.35 7.34v6.39h-2.39V111.5zM232.22 122.88v-.06c0-3.38 2.79-5.18 6.85-5.18a17.09 17.09 0 014.93.68v-.56c0-2.88-1.77-4.37-4.78-4.37-1.689.019-3.35.423-4.86 1.18l-.72-2a13.218 13.218 0 015.83-1.34 7.002 7.002 0 015.18 1.77 6.317 6.317 0 011.64 4.68v9.8H244v-2.42a7.002 7.002 0 01-5.8 2.76c-2.98.05-5.98-1.65-5.98-4.94zm11.78-1.24v-1.55a16.802 16.802 0 00-4.71-.68c-3 0-4.69 1.3-4.69 3.32v.06c0 2 1.87 3.19 4 3.19 3.01.04 5.4-1.8 5.4-4.34zM251.11 105.36h2.73v2.66h-2.73v-2.66zm.16 6.14h2.38v16h-2.38v-16zM258.81 111.5h2.39v2.79a6.09 6.09 0 015.49-3.13c3.88 0 6.14 2.6 6.14 6.42v10h-2.39v-9.36c0-3-1.61-4.84-4.43-4.84a4.709 4.709 0 00-3.5 1.447 4.722 4.722 0 00-1.31 3.553v9.18h-2.39V111.5zM276.29 125.48l1.2-1.7a9.399 9.399 0 005.55 2c1.93 0 3.32-1 3.32-2.55v-.06c0-1.61-1.89-2.23-4-2.82-2.51-.71-5.3-1.58-5.3-4.53v-.06c0-2.76 2.3-4.59 5.46-4.59 2.048.037 4.044.65 5.76 1.77l-1.08 1.8a9.076 9.076 0 00-4.74-1.55c-1.9 0-3.1 1-3.1 2.32v.06c0 1.52 2 2.11 4.12 2.76 2.48.75 5.15 1.71 5.15 4.59v.1c0 3-2.52 4.81-5.71 4.81a11 11 0 01-6.63-2.35z"/>
</svg>
