<svg xmlns="http://www.w3.org/2000/svg" width="500" height="260"><path fill="#2a2a2a" d="M0 0h500v260H0z"/><g fill="none" stroke-linecap="round"><path stroke="#228be6" stroke-width=".5" d="M12.66 12.31s0 0 0 0m0 0s0 0 0 0m-2.23 8.67c1.49-1.96 4.84-6.05 9.84-11.32m-9.84 11.32c1.83-2.98 4.69-4.74 9.84-11.32m-9.44 16.96c2.61-5.09 8.86-10.15 12.46-14.34M10.83 26.62c4.88-5.88 9.13-10.63 12.46-14.34M11.22 32.26c7.38-9.59 13.87-17.24 17.06-19.62M11.22 32.26c4.55-3.49 7.53-8.23 17.06-19.62M10.96 38.66C15.99 34.7 18.63 25.89 33.27 13M10.96 38.66C18.98 28.9 27.84 18.34 33.27 13M10.7 45.06C20.79 32.67 32.16 20.97 38.91 12.6M10.7 45.06c7.13-7.82 14.33-16.58 28.21-32.46M13.72 47.68C23.81 35.75 34.76 23.95 43.9 12.97M13.72 47.68c11.03-10.72 19.1-21.74 30.18-34.71M16.74 50.31c12.05-16.14 27.19-28.49 32.8-37.74m-32.8 37.74c10.36-12.7 20.76-23.17 32.8-37.74m-27.82 38.1c9.47-11.49 20.79-22.1 32.81-37.74M21.72 50.67c9.75-11.68 19.39-22.53 32.81-37.74M27.37 50.27c10.81-14.58 24.46-29.89 32.8-37.73m-32.8 37.73c9.33-9.86 18.27-20.41 32.8-37.73M32.35 50.63c7.84-8.97 15.2-21.54 32.81-37.73M32.35 50.63c9.05-9.87 17.51-21.75 32.81-37.73M38 50.24c10.25-13.09 23.34-26.93 32.14-36.98M38 50.24c8.2-9.93 17.9-21.27 32.14-36.98M42.98 50.6c9.67-13.23 20.07-21.03 32.81-37.74M42.98 50.6c10.7-14.33 23.47-27.95 32.81-37.74M48.63 50.2c9-9.44 17.23-22.42 32.14-36.98M48.63 50.2c7.02-7.3 14.05-16.89 32.14-36.98M53.61 50.56c7.65-6.52 12.54-16.76 32.81-37.73M53.61 50.56c10.94-12.44 21.74-24.4 32.81-37.73M58.6 50.92c9.75-13.79 21.41-26.53 32.8-37.73M58.6 50.92c6.21-8.08 14.32-15.69 32.8-37.73M64.24 50.53c11.4-13.98 23.04-26.91 32.81-37.74M64.24 50.53c6.8-8.35 16.1-17.1 32.81-37.74m-27.82 38.1c11.33-13.93 25.95-28.03 32.8-37.74m-32.8 37.74c11.1-12.88 21.67-25.12 32.8-37.74M74.87 50.49c13.86-12.82 26.34-27.56 32.81-37.73M74.87 50.49c9.27-10.62 16.29-18.87 32.81-37.73M79.86 50.85c11.23-11.11 20.05-21.99 32.8-37.73m-32.8 37.73c7.64-9.04 15.71-17.34 32.8-37.73M85.5 50.46c8.44-8.5 12.71-18.86 32.15-36.98M85.5 50.46c6.78-9.12 14.19-17 32.15-36.98M90.49 50.82c11.41-12.29 24.34-25.5 34.77-40m-34.77 40c8.52-8.31 15.46-16.56 34.77-40m-29.13 39.6c8.91-9.47 17.37-23.35 31.49-36.22M96.13 50.42c9.28-9.23 17.93-20.51 31.49-36.22m-26.5 36.58c7.39-9.61 16.4-17.99 29.52-33.96m-29.52 33.96c10.33-12.26 21.09-22.6 29.52-33.96m-24.53 34.32c9.85-10.1 18.83-20.41 24.27-27.92m-24.27 27.92c6.73-7.99 12.99-13.63 24.27-27.92m-18.63 27.53c5.98-10.2 16.22-15.61 19.03-21.89m-19.03 21.89c3.97-4.65 8.48-9.44 19.03-21.89m-14.04 22.25c5.16-6.5 9.49-11.01 13.78-15.85m-13.78 15.85c2.84-3.5 7.04-7.84 13.78-15.85m-8.8 16.21c3.22-3.57 5.86-4.19 9.19-10.57m-9.19 10.57c3.39-3.3 6.02-7.46 9.19-10.57"/><path stroke="#FFF" d="M20 10c29.01.24 58.21-1.44 100 0M20 10c31.74-1.27 63.55-.44 100 0m0 0c6.36.04 10.63 4.8 10 10m-10-10c8.85-.47 9.39 3.7 10 10m0 0c-.93 5.72-.26 8.87 0 20m0-20c.32 7.28.25 14.57 0 20m0 0c-.27 6.51-3.28 10.7-10 10m10-10c-1.96 7.67-2.2 11.45-10 10m0 0c-37.88.19-76.06-.26-100 0m100 0c-35.84.12-71.88-1.04-100 0m0 0c-8.32.94-8-3.9-10-10m10 10c-6.07-.35-10.45-4.51-10-10m0 0c-1.05-6.47-1.82-16.53 0-20m0 20c-.83-4.71-1.05-8.57 0-20m0 0c-1.35-5.48 4.21-8.71 10-10M10 20c1.31-6.02 4.44-12.28 10-10"/></g><text x="22.68" fill="#FFF" dominant-baseline="text-before-edge" font-family="Virgil, Segoe UI Emoji" font-size="16" style="white-space:pre" text-anchor="middle" transform="translate(47.32 20)">Start</text><g fill="none" stroke-linecap="round"><path stroke="#fa5252" stroke-width=".5" d="M12.66 112.31s0 0 0 0m0 0s0 0 0 0m-2.23 8.67c2.82-4.33 7.01-9.69 9.84-11.32m-9.84 11.32c3.53-4.36 7.54-8.46 9.84-11.32m-9.44 16.96c3-2.45 5.92-6.71 12.46-14.34m-12.46 14.34c4.09-4.87 8.61-9.69 12.46-14.34m-12.07 19.98c7.48-5.52 9.42-11.24 17.06-19.62m-17.06 19.62c6.28-8.36 14.11-14.84 17.06-19.62m-17.32 26.02c7.08-9.7 14.58-15.32 22.31-25.66m-22.31 25.66C17.47 131 24.85 123.72 33.27 113M10.7 145.06c8.96-10.78 17.29-19.89 28.21-32.46M10.7 145.06c9.81-12.37 21.11-25.18 28.21-32.46m-25.19 35.08c8.98-8.61 17.13-18.49 30.18-34.71m-30.18 34.71c7.55-8.63 14.82-19.04 30.18-34.71m-27.16 37.34c9.39-9.19 17.26-22.52 32.8-37.74m-32.8 37.74c11.13-13.53 23.72-27.41 32.8-37.74m-27.82 38.1c7.94-9.75 18.53-22.32 32.81-37.74m-32.81 37.74c9.86-12.28 20.07-21.94 32.81-37.74m-27.16 37.34c9.79-15.24 23.45-28.81 32.8-37.73m-32.8 37.73c9.14-10.17 17.97-22.08 32.8-37.73m-27.82 38.09c7.01-6.5 13.97-17.48 32.81-37.73m-32.81 37.73c7.31-7.48 13.29-16.67 32.81-37.73M38 150.24c10.77-12.03 21.39-23.34 32.14-36.98M38 150.24c10.05-12.96 21.16-25.4 32.14-36.98M42.98 150.6c5.29-8.08 14.57-15.33 32.81-37.74M42.98 150.6c11.37-13.3 22.79-26.2 32.81-37.74M48.63 150.2c5.72-7.75 16.32-16.07 32.14-36.98M48.63 150.2c11.4-13.72 24.63-27.58 32.14-36.98m-27.16 37.34c11.8-13.69 22.36-26.02 32.81-37.73m-32.81 37.73c13.28-13.7 25.94-28.45 32.81-37.73M58.6 150.92c9.95-11.36 15.68-18.3 32.8-37.73m-32.8 37.73c10.64-11.4 20.26-22.83 32.8-37.73m-27.16 37.34c7.35-8.92 15.74-16.61 32.81-37.74m-32.81 37.74c7.94-8.66 13.99-18.34 32.81-37.74m-27.82 38.1c6.85-10.26 14.77-18.09 32.8-37.74m-32.8 37.74c10.73-11.98 22.34-24.51 32.8-37.74m-27.16 37.34c8.84-7.46 14.56-14.56 32.81-37.73m-32.81 37.73c9.54-10.49 18.84-23.26 32.81-37.73m-27.82 38.09c10.13-8.72 19.16-21.76 32.8-37.73m-32.8 37.73c8.49-10.07 17.64-19.6 32.8-37.73M85.5 150.46c11.29-13.98 23.71-24.18 32.15-36.98M85.5 150.46c12.45-13.67 24.32-27.32 32.15-36.98m-27.16 37.34c10-11.95 19.11-19.3 34.77-40m-34.77 40c12.4-16.17 27.1-29.89 34.77-40m-29.13 39.6c6.37-7.56 13.86-15.4 31.49-36.22m-31.49 36.22c12.41-14.51 24.29-27.94 31.49-36.22m-26.5 36.58c6.21-7.6 15.12-16.87 29.52-33.96m-29.52 33.96c8.19-9 15.85-16.1 29.52-33.96m-24.53 34.32c8.98-8.6 15.79-19.72 24.27-27.92m-24.27 27.92c7.06-7.56 14.41-16.28 24.27-27.92m-18.63 27.53c5.48-8.29 11.02-13.66 19.03-21.89m-19.03 21.89c6.15-5.34 10.63-12.8 19.03-21.89m-14.04 22.25c3.4-6.11 10.06-10.45 13.78-15.85m-13.78 15.85c3.23-4.54 8.18-9.28 13.78-15.85m-8.8 16.21c3.1-3.01 4.92-6.39 9.19-10.57m-9.19 10.57c2.57-4.19 6.59-7.18 9.19-10.57"/><path stroke="#FFF" d="M20 110c34.96-.98 70.57.06 100 0m-100 0c26.31 1.83 51.39 1.09 100 0m0 0c6.36-.39 8.98 5.28 10 10m-10-10c4.71.87 8.59 5.03 10 10m0 0c1.07 3.88-1.5 7.54 0 20m0-20c.67 4.57.72 8.83 0 20m0 0c.56 7.63-5.31 10.7-10 10m10-10c.61 8-4.23 11.4-10 10m0 0c-39.29-.6-77.1-.19-100 0m100 0c-21.66-.48-45.32-1.86-100 0m0 0c-6.48-.23-8.52-3.08-10-10m10 10c-4.72.78-10.81-1.05-10-10m0 0c.67-8.84-1.84-15.93 0-20m0 20c.87-5.99-.01-12.72 0-20m0 0c1.57-6.87 4.48-10.49 10-10m-10 10c1.67-6.37 5.3-8.09 10-10"/></g><text x="32" fill="#FFF" dominant-baseline="text-before-edge" font-family="Virgil, Segoe UI Emoji" font-size="16" style="white-space:pre" text-anchor="middle" transform="translate(38 120)">前置脚本</text><g fill="none" stroke-linecap="round"><path stroke="#12b886" stroke-width=".5" d="M192.66 112.31s0 0 0 0m0 0s0 0 0 0m-2.23 8.67c3.68-2.21 3.38-6.69 9.84-11.32m-9.84 11.32c4.31-3.54 8.18-9.39 9.84-11.32m-9.44 16.96c4.61-3.73 5.46-5.98 12.46-14.34m-12.46 14.34c4.2-4.48 6.78-9.65 12.46-14.34m-12.07 19.98c4.37-5.72 11.51-11.23 17.06-19.62m-17.06 19.62c5.66-6.18 12.63-14.44 17.06-19.62m-17.32 26.02c3.69-6.36 10.6-12.28 22.31-25.66m-22.31 25.66c7.66-9.09 14.64-17.24 22.31-25.66m-22.57 32.06c5.33-8.62 16.38-15.65 28.21-32.46m-28.21 32.46c8.46-10.2 18.9-21.55 28.21-32.46m-25.19 35.08c6.9-8.62 15.94-16.47 30.18-34.71m-30.18 34.71c6.95-8.89 15.18-18.42 30.18-34.71m-27.16 37.34c11.39-9.36 20.29-22.69 32.8-37.74m-32.8 37.74c6.37-8.11 14.52-15.7 32.8-37.74m-27.82 38.1c8.27-12.86 20.26-23.3 32.81-37.74m-32.81 37.74c8.71-11.45 18.6-20.44 32.81-37.74m-27.16 37.34c10.41-11.82 20.8-23.54 32.8-37.73m-32.8 37.73c10.5-11.18 20.46-23.07 32.8-37.73m-27.82 38.09c7.1-11.07 15.39-17.96 32.81-37.73m-32.81 37.73c7.18-7.51 13.23-16.55 32.81-37.73M218 150.24c8.55-12.5 20.34-24.02 32.14-36.98M218 150.24c7.21-7.12 14.2-15.87 32.14-36.98m-27.16 37.34c9.01-9.95 18.39-21.17 32.81-37.74m-32.81 37.74c11.5-13.23 24.85-28.59 32.81-37.74m-27.16 37.34c12.96-14.3 21.25-24.65 32.14-36.98m-32.14 36.98c12.68-13.25 24.92-27.95 32.14-36.98m-27.16 37.34c13.35-14.75 22.52-25.56 32.81-37.73m-32.81 37.73c9.57-10.88 18.7-20.97 32.81-37.73m-27.82 38.09c10.22-15.05 24.9-26.87 32.8-37.73m-32.8 37.73c9.21-10.81 20.29-22.77 32.8-37.73m-27.16 37.34c10.82-13.26 19.56-24.42 32.81-37.74m-32.81 37.74c13.18-14.18 24.41-28.78 32.81-37.74m-27.82 38.1c6.87-10.7 16.99-19 32.8-37.74m-32.8 37.74c10.67-13.76 21.78-26.86 32.8-37.74m-27.16 37.34c8.65-9.86 16.61-20.38 32.81-37.73m-32.81 37.73c10.72-11.07 19.65-22.61 32.81-37.73m-27.82 38.09c11.32-13.88 21.34-23.82 32.8-37.73m-32.8 37.73c12.62-13.16 24.67-27.44 32.8-37.73m-27.16 37.34c9.23-10.67 14.92-19.72 32.15-36.98m-32.15 36.98c8.24-7.73 14.9-17.21 32.15-36.98m-27.16 37.34c11.44-11.88 18.85-21.93 34.77-40m-34.77 40c7.79-9.19 14.55-18.29 34.77-40m-29.13 39.6c13.13-12.35 22.33-24.63 31.49-36.22m-31.49 36.22c9.85-11.57 20.61-22.28 31.49-36.22m-26.5 36.58c9.17-11.43 19.24-22.02 29.52-33.96m-29.52 33.96c8.26-8.94 15.83-17.46 29.52-33.96m-24.53 34.32c8.26-10.05 16.34-19.77 24.27-27.92m-24.27 27.92c5.95-7.09 12.68-13.36 24.27-27.92m-18.63 27.53c4.53-4.35 8.31-10.1 19.03-21.89m-19.03 21.89c6.12-5.97 12.07-12.22 19.03-21.89m-14.04 22.25c3.9-2.43 6.46-5.82 13.78-15.85m-13.78 15.85c4.18-4.81 6.85-9.62 13.78-15.85m-8.8 16.21c3.45-3.86 6.01-8.03 9.19-10.57m-9.19 10.57c3.32-3.72 6.7-8.65 9.19-10.57"/><path stroke="#FFF" d="M200 110c20.92-.41 42.84.8 100 0m-100 0c23.91.13 46.81.04 100 0m0 0c4.69.7 10.53 4.49 10 10m-10-10c5.77 1.4 12.08 2.69 10 10m0 0c.93 6.31-1.51 14.16 0 20m0-20c.03 3.16.28 7.97 0 20m0 0c1.48 6.92-1.64 10.68-10 10m10-10c-.81 8.95-1.58 8.51-10 10m0 0c-35.53-1.53-66.95-.7-100 0m100 0c-30.23-.17-59.64.09-100 0m0 0c-5.52-.49-8.55-3.08-10-10m10 10c-4.7 1.91-12.27-4.71-10-10m0 0c-.34-4.68 1.39-10.55 0-20m0 20c.84-3.68.13-7.53 0-20m0 0c-.41-4.76 4-9.02 10-10m-10 10c.84-4.55 1.14-9.13 10-10"/></g><text x="44.64" fill="#FFF" dominant-baseline="text-before-edge" font-family="Virgil, Segoe UI Emoji" font-size="16" style="white-space:pre" text-anchor="middle" transform="translate(205.36 120)">Do request</text><g fill="none" stroke-linecap="round"><path stroke="#fa5252" stroke-width=".5" d="M372.66 112.31s0 0 0 0m0 0s0 0 0 0m-2.23 8.67c1.52-1.31 3.83-4.77 9.84-11.32m-9.84 11.32c3.42-4.13 7.47-8.43 9.84-11.32m-9.44 16.96c4.04-5.18 7.49-10.54 12.46-14.34m-12.46 14.34c4.37-4.29 8.14-9.46 12.46-14.34m-12.07 19.98c5.54-7.29 7.48-11.15 17.06-19.62m-17.06 19.62c7.33-8.04 12.6-14.93 17.06-19.62m-17.32 26.02c7.47-7.93 14.17-16.78 22.31-25.66m-22.31 25.66c9.07-9.61 16.74-19.8 22.31-25.66m-22.57 32.06c6.48-9.37 18.39-17.54 28.21-32.46m-28.21 32.46c9.93-11.95 20.58-24.31 28.21-32.46m-25.19 35.08c11.23-12.55 18.93-25.09 30.18-34.71m-30.18 34.71c10.82-11.56 19.35-23.26 30.18-34.71m-27.16 37.34c12.41-14.09 21.15-24.51 32.8-37.74m-32.8 37.74c8.45-9.78 17.41-19.37 32.8-37.74m-27.82 38.1c10.44-13.54 21.93-28.26 32.81-37.74m-32.81 37.74c7.93-8.71 16.35-17.82 32.81-37.74m-27.16 37.34c7.45-9.31 15.92-20.85 32.8-37.73m-32.8 37.73c11.58-11.67 22.73-23.97 32.8-37.73m-27.82 38.09c13.29-13.21 26.39-29.4 32.81-37.73m-32.81 37.73c10.48-12.39 21.56-25.02 32.81-37.73M398 150.24c12.69-11.73 23.45-25.83 32.14-36.98M398 150.24c6.22-9.26 14.86-16.91 32.14-36.98m-27.16 37.34c13.96-15.61 28.09-31.45 32.81-37.74m-32.81 37.74c8.17-9.45 17.11-19.71 32.81-37.74m-27.16 37.34c13-16.93 24.12-31.35 32.14-36.98m-32.14 36.98c10.21-12.61 21.66-25.5 32.14-36.98m-27.16 37.34c13.26-12.6 25.56-29.55 32.81-37.73m-32.81 37.73c10.09-11.19 20.22-22.11 32.81-37.73m-27.82 38.09c10.92-12.34 17.4-22.5 32.8-37.73m-32.8 37.73c9.03-9.3 16.07-19.9 32.8-37.73m-27.16 37.34c6.53-7.45 14.25-16.13 32.81-37.74m-32.81 37.74c6.12-7.17 14.21-15.28 32.81-37.74m-27.82 38.1c8.01-8.46 15.91-19.36 32.8-37.74m-32.8 37.74c7.5-9.34 17.47-19.42 32.8-37.74m-27.16 37.34c9.79-11.38 24.39-28.09 32.81-37.73m-32.81 37.73c8.57-9.51 16.86-17.18 32.81-37.73m-27.82 38.09c8.33-11.34 18.73-20.64 32.8-37.73m-32.8 37.73c8.93-9.55 17.08-19.48 32.8-37.73m-27.16 37.34c7.14-7.99 18.3-18.18 32.15-36.98m-32.15 36.98c8.93-10.56 16.82-19.96 32.15-36.98m-27.16 37.34c13.49-13.06 24.64-29.23 34.77-40m-34.77 40c8.32-11.06 18.31-21.12 34.77-40m-29.13 39.6c11.3-11.57 18.37-21.78 31.49-36.22m-31.49 36.22c6.37-7.34 13.76-16.13 31.49-36.22m-26.5 36.58c10.74-11.57 21.11-23.33 29.52-33.96m-29.52 33.96c8.84-10.59 17.39-18.99 29.52-33.96m-24.53 34.32c7.35-9.25 18.19-18.99 24.27-27.92m-24.27 27.92c7.34-8.92 15.56-18.09 24.27-27.92m-18.63 27.53c6.28-5.38 8.91-9.84 19.03-21.89m-19.03 21.89c4.6-5.95 10.18-11.73 19.03-21.89m-14.04 22.25c3.94-3.2 4.13-6.73 13.78-15.85m-13.78 15.85c3.38-2.74 6.28-5.89 13.78-15.85m-8.8 16.21c3.46-3 6.79-7.39 9.19-10.57m-9.19 10.57c3.57-3.88 6.15-7.26 9.19-10.57"/><path stroke="#FFF" d="M380 110c24.56 1.77 54.02-.38 100 0m-100 0c21.93.24 43.23.45 100 0m0 0c5.96 1.99 11.53 2.04 10 10m-10-10c7.49.62 8.49 1.07 10 10m0 0c.06 6.86.4 10.22 0 20m0-20c.73 5.04.88 10.7 0 20m0 0c1.71 8.32-5.31 8.8-10 10m10-10c-.31 6.49-1.31 9.59-10 10m0 0c-37.06-.2-71.72 2-100 0m100 0c-35.26 1.79-69.77 1.33-100 0m0 0c-5.94 1.84-11.9-2.57-10-10m10 10c-6.11 1.11-8.47-5.35-10-10m0 0c.02-7.2 1.46-12.4 0-20m0 20c-.03-7.65-.43-14.58 0-20m0 0c.27-6.87 3.9-9.12 10-10m-10 10c-.18-8.85 2.67-9.03 10-10"/></g><text x="32" fill="#FFF" dominant-baseline="text-before-edge" font-family="Virgil, Segoe UI Emoji" font-size="16" style="white-space:pre" text-anchor="middle" transform="translate(398 120)">后置脚本</text><g fill="none" stroke-linecap="round"><path stroke="#7950f2" stroke-width=".5" d="M372.66 212.31s0 0 0 0m0 0s0 0 0 0m-2.23 8.67c1.86-2.03 5.11-4.7 9.84-11.32m-9.84 11.32c3.33-3.97 6.8-8.11 9.84-11.32m-9.44 16.96c3.49-2.43 6.52-6.53 12.46-14.34m-12.46 14.34c2.82-3.83 5.62-6.33 12.46-14.34m-12.07 19.98c4.95-6.78 10.8-11.09 17.06-19.62m-17.06 19.62c3.43-4.84 7.15-9.31 17.06-19.62m-17.32 26.02c7.07-12 15.46-20.26 22.31-25.66m-22.31 25.66c4.97-5.54 10.11-11.44 22.31-25.66m-22.57 32.06c6.11-7.64 14.82-15.35 28.21-32.46m-28.21 32.46c8.93-8.67 16.75-18.69 28.21-32.46m-25.19 35.08c10.12-9.86 17.74-19.84 30.18-34.71m-30.18 34.71c10.59-13.05 20.8-25.08 30.18-34.71m-27.16 37.34c8.8-10.63 15.92-17.24 32.8-37.74m-32.8 37.74c10.07-12.53 21.21-24.99 32.8-37.74m-27.82 38.1c6.18-10.57 16.06-16.28 32.81-37.74m-32.81 37.74c11.48-14.51 23.91-27.24 32.81-37.74m-27.16 37.34c9.49-10.52 18.73-22.3 32.8-37.73m-32.8 37.73c5.99-7.43 14.27-15.5 32.8-37.73m-27.82 38.09c14.9-13.07 24.22-30.33 32.81-37.73m-32.81 37.73c10.74-13.2 23.64-27.47 32.81-37.73M398 250.24c14.05-14.65 25.17-28.21 32.14-36.98M398 250.24c11.72-13.51 24.27-28.96 32.14-36.98m-27.16 37.34c7.6-8.34 12.33-15.64 32.81-37.74m-32.81 37.74c6.64-8.64 14.99-16.41 32.81-37.74m-27.16 37.34c10.31-11.43 23.56-25.97 32.14-36.98m-32.14 36.98c12.39-15 26.28-30.24 32.14-36.98m-27.16 37.34c8.31-6.5 15.23-14.07 32.81-37.73m-32.81 37.73c8.25-9.71 16.59-18.74 32.81-37.73m-27.82 38.09c9.35-9.73 16.09-18.3 32.8-37.73m-32.8 37.73c11.76-12.53 22.68-25.62 32.8-37.73m-27.16 37.34c12.33-10.6 19.25-22.06 32.81-37.74m-32.81 37.74c11.05-13.59 21.11-24.93 32.81-37.74m-27.82 38.1c10.44-14.28 23.99-27.41 32.8-37.74m-32.8 37.74c11.99-13.9 23.62-28.3 32.8-37.74m-27.16 37.34c13.03-15.71 26.22-28.72 32.81-37.73m-32.81 37.73c10.6-12.17 21.95-24.85 32.81-37.73m-27.82 38.09c13.9-13.63 25.78-29.46 32.8-37.73m-32.8 37.73c10.66-11.17 20.29-22.02 32.8-37.73m-27.16 37.34c9.8-10.34 15.74-20.64 32.15-36.98m-32.15 36.98c10.86-11.33 21.97-24.33 32.15-36.98m-27.16 37.34c10.47-11.74 17.92-20.37 34.77-40m-34.77 40c10.37-12.2 19.81-22.58 34.77-40m-29.13 39.6c9.6-11.26 20.33-24.37 31.49-36.22m-31.49 36.22c11.51-13.46 20.87-24.76 31.49-36.22m-26.5 36.58c11.01-12.04 19.5-23.37 29.52-33.96m-29.52 33.96c9.11-10.54 20.72-22.55 29.52-33.96m-24.53 34.32c6.93-7.1 14.16-17.39 24.27-27.92m-24.27 27.92c5.27-7.19 11.95-13.16 24.27-27.92m-18.63 27.53c5.13-6.16 9.92-8.93 19.03-21.89m-19.03 21.89c7.29-9.02 14.1-15.74 19.03-21.89m-14.04 22.25c6.8-6.32 10.93-11.69 13.78-15.85m-13.78 15.85c2.56-3.76 5.7-6.79 13.78-15.85m-8.8 16.21c3.36-3.77 7.48-7.12 9.19-10.57m-9.19 10.57c4.2-3.5 6.58-7.84 9.19-10.57"/><path stroke="#FFF" d="M380 210c31.82 1.16 65.35 1.03 100 0m-100 0c38.33.8 77.26.59 100 0m0 0c6.18 1.45 10.26 5.05 10 10m-10-10c8.57-2.27 8.62 3.02 10 10m0 0c1.22 7.22 1.08 9.87 0 20m0-20c.38 5.42.71 10.5 0 20m0 0c1.91 7.34-2.35 10.73-10 10m10-10c2.12 4.48-2.46 10.56-10 10m0 0c-34.62-2.26-70.52-1-100 0m100 0c-24.31.91-50.5.14-100 0m0 0c-7.42-.5-10.05-3.06-10-10m10 10c-6.9.65-8.99-3.51-10-10m0 0c-1.1-5.57.33-9.88 0-20m0 20c-.38-6.19.74-12.81 0-20m0 0c-.39-7.14 1.48-9.93 10-10m-10 10c.34-8.45 1.69-10.89 10-10"/></g><text x="13.68" fill="#FFF" dominant-baseline="text-before-edge" font-family="Virgil, Segoe UI Emoji" font-size="16" style="white-space:pre" text-anchor="middle" transform="translate(416.32 220)">End</text><g stroke-linecap="round"><path fill="none" stroke="#FFF" d="M70.6 50.18c.21 9.8-.37 48-.35 57.65m-.8-58.6c.14 9.99-.31 49.57-.2 59.52"/><path fill="none" stroke="#FFF" d="M59.5 80.88c-.34 6.6 2.23 12.58 11.17 26.73M59.71 80.24c2.56 8.51 6.47 17.92 9.52 29.51"/><path fill="none" stroke="#FFF" d="M79.68 80.9c-4.63 6.7-6.36 12.67-9.01 26.71m9.22-27.34c-3.57 8.64-5.79 18.04-10.66 29.48"/></g><g stroke-linecap="round"><path fill="none" stroke="#FFF" d="M131.853 130.048c9.83-.07 48.25-1.05 57.76-1.22m-58.94.62c9.78.04 48.75.34 58.31.43M163.213 140.538c3.64-3.7 10.55-4.32 26.48-10.72m-28.35 9.46c11.91-4.29 21.21-7.71 27.2-8.61"/><path fill="none" stroke="#FFF" d="M163.373 120.818c3.61 1.1 10.48 5.26 26.32 9m-28.2-10.26c11.85 3.59 21.09 8.05 27.05 11.11"/></g><g stroke-linecap="round"><path fill="none" stroke="#FFF" d="M311.113 131.2c9.46-.09 48.18-1.04 57.71-1.29m-59.19.87c9.22.07 48.63.6 58.23.62"/><path fill="none" stroke="#FFF" d="M342.653 140.99c8.03-4.5 17.9-6.03 23.82-11.55m-25.32 12.53c7.51-4.21 14.02-7.18 26.34-10.8"/><path fill="none" stroke="#FFF" d="M342.823 121.25c8.03 2.91 17.84 8.79 23.65 8.19m-25.16-7.2c7.39 1.19 13.85 3.62 26.18 8.93"/></g><g stroke-linecap="round"><path fill="none" stroke="#FFF" d="M428.82 150.996c-.2 9.86.36 48.84.65 58.65m.94-59.86c-.47 9.61-2.12 48.52-2.17 58.23"/><path fill="none" stroke="#FFF" d="M418.63 179.926c5.16 11.67 8.71 21.46 8.77 27.24m-8.75-25.88c2.12 6.04 3.6 12.12 9.64 26.05"/><path fill="none" stroke="#FFF" d="M438.25 180.446c-1.85 11.3-5.32 20.9-10.85 26.72m10.88-25.36c-2.29 5.88-5.23 11.85-9.99 25.53"/></g></svg>