<svg xmlns="http://www.w3.org/2000/svg" width="740" height="250"><path fill="#2a2a2a" d="M0 0h740v250H0z"/><g fill="none" stroke-linecap="round"><path stroke="#228be6" stroke-width=".5" d="M12.66 12.31s0 0 0 0m0 0s0 0 0 0m-2.23 8.67c1.49-1.96 4.84-6.05 9.84-11.32m-9.84 11.32c1.83-2.98 4.69-4.74 9.84-11.32m-9.44 16.96c2.61-5.09 8.86-10.15 12.46-14.34M10.83 26.62c4.88-5.88 9.13-10.63 12.46-14.34M11.22 32.26c7.38-9.59 13.87-17.24 17.06-19.62M11.22 32.26c4.55-3.49 7.53-8.23 17.06-19.62M10.96 38.66C15.99 34.7 18.63 25.89 33.27 13M10.96 38.66C18.98 28.9 27.84 18.34 33.27 13M10.7 45.06C20.79 32.67 32.16 20.97 38.91 12.6M10.7 45.06c7.13-7.82 14.33-16.58 28.21-32.46M13.72 47.68C23.81 35.75 34.76 23.95 43.9 12.97M13.72 47.68c11.03-10.72 19.1-21.74 30.18-34.71M16.74 50.31c12.05-16.14 27.19-28.49 32.8-37.74m-32.8 37.74c10.36-12.7 20.76-23.17 32.8-37.74m-27.82 38.1c9.47-11.49 20.79-22.1 32.81-37.74M21.72 50.67c9.75-11.68 19.39-22.53 32.81-37.74M27.37 50.27c10.81-14.58 24.46-29.89 32.8-37.73m-32.8 37.73c9.33-9.86 18.27-20.41 32.8-37.73M32.35 50.63c7.84-8.97 15.2-21.54 32.81-37.73M32.35 50.63c9.05-9.87 17.51-21.75 32.81-37.73M38 50.24C48.49 36.88 61.81 22.76 70.8 12.5M38 50.24C46.38 40.1 56.26 28.55 70.8 12.5M42.98 50.6c9.67-13.23 20.07-21.03 32.81-37.74M42.98 50.6c10.7-14.33 23.47-27.95 32.81-37.74M48.63 50.2c9.18-9.65 17.6-22.84 32.8-37.73M48.63 50.2c7.16-7.47 14.35-17.22 32.8-37.73M53.61 50.56c7.65-6.52 12.54-16.76 32.81-37.73M53.61 50.56c10.94-12.44 21.74-24.4 32.81-37.73M59.26 50.17c9.53-13.54 20.97-26.03 32.14-36.98M59.26 50.17c6.06-7.92 14.03-15.37 32.14-36.98M64.24 50.53c11.4-13.98 23.04-26.91 32.81-37.74M64.24 50.53c6.8-8.35 16.1-17.1 32.81-37.74M69.89 50.13c11.09-13.64 25.46-27.46 32.14-36.98M69.89 50.13C80.78 37.5 91.14 25.5 102.03 13.15M74.87 50.49c13.86-12.82 26.34-27.56 32.81-37.73M74.87 50.49c9.27-10.62 16.29-18.87 32.81-37.73M79.86 50.85c11.23-11.11 20.05-21.99 32.8-37.73m-32.8 37.73c7.64-9.04 15.71-17.34 32.8-37.73M85.5 50.46c8.59-8.67 13.01-19.21 32.81-37.74M85.5 50.46c6.92-9.28 14.47-17.33 32.81-37.74m-27.82 38.1c10.77-11.54 23.04-24 32.8-37.74m-32.8 37.74c8.08-7.82 14.59-15.56 32.8-37.74M96.13 50.42c9.3-9.91 18.15-24.24 32.81-37.73M96.13 50.42c9.64-9.65 18.65-21.34 32.81-37.73m-27.82 38.09c8.27-10.57 18.12-19.92 32.8-37.73m-32.8 37.73c11.47-13.55 23.34-25.16 32.8-37.73m-27.16 37.34c13.06-13.78 25.19-27.71 32.81-37.74m-32.81 37.74c8.88-10.5 17.25-18.57 32.81-37.74m-27.82 38.1c11.12-16.24 26.58-27.66 32.8-37.74m-32.8 37.74c7.28-8.26 15.02-16.77 32.8-37.74m-27.16 37.35c12.5-14.92 24.09-27.77 32.15-36.99m-32.15 36.99c7.71-9.04 16.69-18.87 32.15-36.99m-27.16 37.35c9.64-10.64 18.37-17.23 32.8-37.74m-32.8 37.74c11.8-12.8 22.43-26.67 32.8-37.74m-27.81 38.1c9.8-9.93 20.07-22.24 32.8-37.74m-32.8 37.74c10.31-12.91 20.56-24.2 32.8-37.74m-27.16 37.34c10.81-8.95 18.28-22.13 32.8-37.73m-32.8 37.73c10.11-12.6 21.62-24.19 32.8-37.73M138 51.04c7.98-10.89 19.43-22.15 32.8-37.73M138 51.04c10.96-12.15 20.97-24.59 32.8-37.73m-27.16 37.34c9.58-14.68 23.35-25.83 32.8-37.74m-32.8 37.74c11.33-13.75 23.05-26.59 32.8-37.74m-27.81 38.1c9.73-7.48 16.7-18.71 32.8-37.74m-32.8 37.74c10.38-11.42 19.12-21.92 32.8-37.74m-27.16 37.34c11.11-12.87 24.77-29.54 32.8-37.73m-32.8 37.73c8.73-9.94 18.9-20.3 32.8-37.73m-27.81 38.09c9.62-12.92 23.84-25.93 32.8-37.73m-32.8 37.73c8.05-9.64 16.76-20.54 32.8-37.73M164.9 50.58c11.69-14.84 24.79-25.02 32.8-37.74m-32.8 37.74c9.55-10.02 19.12-20.65 32.8-37.74m-27.81 38.1c13.27-15 24.07-26.52 34.77-40m-34.77 40c8.62-9.24 16.7-17.71 34.77-40m-29.13 39.6c11.83-11.89 21.67-23.97 32.15-36.98m-32.15 36.98c12.76-15.04 23.31-27.96 32.15-36.98M180.52 50.9c9.56-8.71 18.23-22.05 30.18-34.71M180.52 50.9c8.8-9.46 17.2-19.02 30.18-34.71m-25.19 35.07c10.48-9.62 17.71-22.04 24.93-28.68m-24.93 28.68c7.06-9.36 15.33-19.2 24.93-28.68m-19.29 28.29c5.68-5.28 13.13-14.2 19.02-21.89m-19.02 21.89c6.06-6.72 11.98-13.48 19.02-21.89m-14.03 22.25c4.39-4.73 8.78-12.74 14.43-16.6m-14.43 16.6c3.99-4.7 8.68-9.81 14.43-16.6m-9.45 16.96c2.89-5.09 6.59-7.41 9.19-10.57m-9.19 10.57c2.2-1.98 4.44-4.46 9.19-10.57"/><path stroke="#FFF" d="M20 10c69.53-1.66 139.87 1.54 180 0M20 10c54.77.96 110.5.91 180 0m0 0c6.15 1.06 10.3 2.05 10 10m-10-10c5.43-.03 12.02 3.89 10 10m0 0c.51 3.2-.69 8.36 0 20m0-20c-.83 7.23-.53 12.66 0 20m0 0c.79 6.79-3.96 9.21-10 10m10-10c.38 8.49-1.63 8.91-10 10m0 0c-37.3 1.02-79.1 3.43-180 0m180 0c-53.73-.18-107.49-.47-180 0m0 0c-7.91-.06-10.12-2.82-10-10m10 10c-5.61.33-10.28-2.68-10-10m0 0c-.49-6.64-2.01-13.81 0-20m0 20c-.55-7.1-.03-14.01 0-20m0 0c-1.05-7.19 3.89-10.51 10-10M10 20c-.61-4.4 1.33-11.08 10-10"/></g><text x="22.68" fill="#FFF" dominant-baseline="text-before-edge" font-family="Virgil, Segoe UI Emoji" font-size="16" style="white-space:pre" text-anchor="middle" transform="translate(87.32 20)">Start</text><g fill="none" stroke-linecap="round"><path stroke="#fa5252" stroke-width=".5" d="M12.66 112.31s0 0 0 0m0 0s0 0 0 0m-2.23 8.67c2.82-4.33 7.01-9.69 9.84-11.32m-9.84 11.32c3.53-4.36 7.54-8.46 9.84-11.32m-9.44 16.96c3-2.45 5.92-6.71 12.46-14.34m-12.46 14.34c4.09-4.87 8.61-9.69 12.46-14.34m-12.07 19.98c7.48-5.52 9.42-11.24 17.06-19.62m-17.06 19.62c6.28-8.36 14.11-14.84 17.06-19.62m-17.32 26.02c7.08-9.7 14.58-15.32 22.31-25.66m-22.31 25.66C17.47 131 24.85 123.72 33.27 113M10.7 145.06c8.96-10.78 17.29-19.89 28.21-32.46M10.7 145.06c9.81-12.37 21.11-25.18 28.21-32.46m-25.19 35.08c8.98-8.61 17.13-18.49 30.18-34.71m-30.18 34.71c7.55-8.63 14.82-19.04 30.18-34.71m-27.16 37.34c9.39-9.19 17.26-22.52 32.8-37.74m-32.8 37.74c11.13-13.53 23.72-27.41 32.8-37.74m-27.82 38.1c7.94-9.75 18.53-22.32 32.81-37.74m-32.81 37.74c9.86-12.28 20.07-21.94 32.81-37.74m-27.16 37.34c9.79-15.24 23.45-28.81 32.8-37.73m-32.8 37.73c9.14-10.17 17.97-22.08 32.8-37.73m-27.82 38.09c7.01-6.5 13.97-17.48 32.81-37.73m-32.81 37.73c7.31-7.48 13.29-16.67 32.81-37.73M38 150.24c10.99-12.28 21.82-23.84 32.8-37.74M38 150.24c10.27-13.22 21.59-25.91 32.8-37.74m-27.82 38.1c5.29-8.08 14.57-15.33 32.81-37.74M42.98 150.6c11.37-13.3 22.79-26.2 32.81-37.74M48.63 150.2c5.88-7.93 16.63-16.42 32.8-37.73m-32.8 37.73c11.64-14 25.11-28.14 32.8-37.73m-27.82 38.09c11.8-13.69 22.36-26.02 32.81-37.73m-32.81 37.73c13.28-13.7 25.94-28.45 32.81-37.73m-27.16 37.34C69.03 139 74.6 132.25 91.4 113.19m-32.14 36.98C69.7 139 79.11 127.81 91.4 113.19m-27.16 37.34c7.35-8.92 15.74-16.61 32.81-37.74m-32.81 37.74c7.94-8.66 13.99-18.34 32.81-37.74m-27.16 37.34c6.7-10.09 14.48-17.76 32.14-36.98m-32.14 36.98c10.51-11.73 21.91-24 32.14-36.98m-27.16 37.34c8.84-7.46 14.56-14.56 32.81-37.73m-32.81 37.73c9.54-10.49 18.84-23.26 32.81-37.73m-27.82 38.09c10.13-8.72 19.16-21.76 32.8-37.73m-32.8 37.73c8.49-10.07 17.64-19.6 32.8-37.73M85.5 150.46c11.52-14.24 24.16-24.7 32.81-37.74M85.5 150.46c12.7-13.96 24.81-27.88 32.81-37.74m-27.82 38.1c9.5-11.37 18.12-18.16 32.8-37.74m-32.8 37.74c11.67-15.31 25.62-28.17 32.8-37.74m-27.16 37.34c6.68-7.91 14.48-16.1 32.81-37.73m-32.81 37.73c12.93-15.11 25.33-29.14 32.81-37.73m-27.82 38.09c7.08-8.59 16.84-18.83 32.8-37.73m-32.8 37.73c9.03-9.93 17.52-17.97 32.8-37.73m-27.16 37.34c12-12.11 21.79-26.66 32.81-37.74m-32.81 37.74c9.4-10.4 19.16-21.87 32.81-37.74m-27.82 38.1c9.95-13.47 19.92-23.93 32.8-37.74m-32.8 37.74c10.07-9.9 18.48-21.87 32.8-37.74m-27.16 37.35c9.37-12.88 21.83-23.9 32.15-36.99m-32.15 36.99c8.54-10.88 18.9-21.85 32.15-36.99m-27.16 37.35c10.99-11.81 20.12-24.16 32.8-37.74m-32.8 37.74c10.4-14.07 23.01-26.23 32.8-37.74m-27.81 38.1c11.1-13.95 22.93-26.27 32.8-37.74m-32.8 37.74c9.26-8.48 16.98-18.97 32.8-37.74m-27.16 37.34c11.36-12.27 19.5-22.53 32.8-37.73m-32.8 37.73c11.87-13.43 24.83-28.83 32.8-37.73M138 151.04c8.06-9.34 19.33-19.66 32.8-37.73M138 151.04c10.61-13.27 23.57-26.51 32.8-37.73m-27.16 37.34c7.77-9.14 16.63-21.1 32.8-37.74m-32.8 37.74c11.61-13.86 23.87-25.51 32.8-37.74m-27.81 38.1c9.43-9.28 19.24-19.81 32.8-37.74m-32.8 37.74c11.85-13.58 22.39-25.26 32.8-37.74m-27.16 37.34c8.23-8.73 15.78-15.79 32.8-37.73m-32.8 37.73c11.26-12.03 21.51-24.21 32.8-37.73m-27.81 38.09c13.83-16.31 23.19-28.67 32.8-37.73m-32.8 37.73c9.77-10.27 19.28-22.9 32.8-37.73m-27.16 37.34c10.02-10.23 19.46-20.86 32.8-37.74m-32.8 37.74c13.21-14.17 24.87-29.63 32.8-37.74m-27.81 38.1c9.33-13.01 20.96-27.06 34.77-40m-34.77 40c10.41-11.35 21.56-24.35 34.77-40m-29.13 39.6c10.23-11.31 20.22-22.68 32.15-36.98m-32.15 36.98c10.79-11.98 21.55-25.85 32.15-36.98m-27.16 37.34c8.42-9.88 18.2-20.56 30.18-34.71m-30.18 34.71c10.33-13.39 21.5-24.85 30.18-34.71m-25.19 35.07c5.97-5.31 12.09-12.06 24.93-28.68m-24.93 28.68c9.11-11.92 18.88-21.51 24.93-28.68m-19.29 28.29c5.09-4.82 12.04-11.62 19.02-21.89m-19.02 21.89c4.46-6.57 10.3-11.15 19.02-21.89m-14.03 22.25c2.98-4.66 7.67-11.24 14.43-16.6m-14.43 16.6c3.99-4.59 7.01-7.95 14.43-16.6m-9.45 16.96c1.89-3.29 4.93-4.35 9.19-10.57m-9.19 10.57c2.92-3.27 7.52-8.02 9.19-10.57"/><path stroke="#FFF" d="M20 110c43.88-.55 89.53.59 180 0m-180 0c68.46 1.06 137.23 1.58 180 0m0 0c6.96-.24 10.56 5.18 10 10m-10-10c8.66 2.11 9.63 4.71 10 10m0 0c.06 5.44-.94 8.44 0 20m0-20c-.2 6.18-.19 11.55 0 20m0 0c1.97 4.93-4.28 10.95-10 10m10-10c-2.12 5.1-5.33 8.98-10 10m0 0c-38.62 2.54-79.11 2.18-180 0m180 0c-57.19.97-112.77 2.09-180 0m0 0c-8.6.42-9.49-2.83-10-10m10 10c-7.51 1.47-7.86-1.63-10-10m0 0c1.73-6.28-1.25-11.33 0-20m0 20c-.16-5.51-.01-12.75 0-20m0 0c-.28-7.36 4.26-11.4 10-10m-10 10c1.3-6.94 5.27-8.73 10-10"/></g><text x="72.376" fill="#FFF" dominant-baseline="text-before-edge" font-family="Virgil, Segoe UI Emoji" font-size="16" style="white-space:pre" text-anchor="middle" transform="translate(37.624 120)">Pre-request script</text><g fill="none" stroke-linecap="round"><path stroke="#12b886" stroke-width=".5" d="M272.66 112.31s0 0 0 0m0 0s0 0 0 0m-2.23 8.67c3.68-2.21 3.38-6.69 9.84-11.32m-9.84 11.32c4.31-3.54 8.18-9.39 9.84-11.32m-9.44 16.96c4.61-3.73 5.46-5.98 12.46-14.34m-12.46 14.34c4.2-4.48 6.78-9.65 12.46-14.34m-12.07 19.98c4.37-5.72 11.51-11.23 17.06-19.62m-17.06 19.62c5.66-6.18 12.63-14.44 17.06-19.62m-17.32 26.02c3.69-6.36 10.6-12.28 22.31-25.66m-22.31 25.66c7.66-9.09 14.64-17.24 22.31-25.66m-22.57 32.06c5.33-8.62 16.38-15.65 28.21-32.46m-28.21 32.46c8.46-10.2 18.9-21.55 28.21-32.46m-25.19 35.08c6.9-8.62 15.94-16.47 30.18-34.71m-30.18 34.71c6.95-8.89 15.18-18.42 30.18-34.71m-27.16 37.34c11.39-9.36 20.29-22.69 32.8-37.74m-32.8 37.74c6.37-8.11 14.52-15.7 32.8-37.74m-27.82 38.1c8.27-12.86 20.26-23.3 32.81-37.74m-32.81 37.74c8.71-11.45 18.6-20.44 32.81-37.74m-27.16 37.34c10.41-11.82 20.8-23.54 32.8-37.73m-32.8 37.73c10.5-11.18 20.46-23.07 32.8-37.73m-27.82 38.09c7.1-11.07 15.39-17.96 32.81-37.73m-32.81 37.73c7.18-7.51 13.23-16.55 32.81-37.73M298 150.24c8.75-12.73 20.74-24.47 32.8-37.74M298 150.24c7.34-7.28 14.47-16.19 32.8-37.74m-27.82 38.1c9.01-9.95 18.39-21.17 32.81-37.74m-32.81 37.74c11.5-13.23 24.85-28.59 32.81-37.74m-27.16 37.34c13.19-14.57 21.71-25.19 32.8-37.73m-32.8 37.73c12.93-13.52 25.41-28.51 32.8-37.73m-27.82 38.09c13.35-14.75 22.52-25.56 32.81-37.73m-32.81 37.73c9.57-10.88 18.7-20.97 32.81-37.73m-27.16 37.34c9.97-14.78 24.42-26.33 32.14-36.98m-32.14 36.98c9.01-10.59 19.9-22.33 32.14-36.98m-27.16 37.34c10.82-13.26 19.56-24.42 32.81-37.74m-32.81 37.74c13.18-14.18 24.41-28.78 32.81-37.74m-27.16 37.34c6.69-10.49 16.63-18.58 32.14-36.98m-32.14 36.98c10.44-13.49 21.32-26.33 32.14-36.98m-27.16 37.34c8.65-9.86 16.61-20.38 32.81-37.73m-32.81 37.73c10.72-11.07 19.65-22.61 32.81-37.73m-27.82 38.09c11.32-13.88 21.34-23.82 32.8-37.73m-32.8 37.73c12.62-13.16 24.67-27.44 32.8-37.73m-27.16 37.34c9.4-10.86 15.25-20.1 32.81-37.74m-32.81 37.74c8.39-7.9 15.21-17.57 32.81-37.74m-27.82 38.1c10.88-11.26 17.73-20.66 32.8-37.74m-32.8 37.74c7.37-8.69 13.7-17.3 32.8-37.74m-27.16 37.34c13.61-12.9 23.29-25.73 32.81-37.73m-32.81 37.73c10.26-12.05 21.44-23.24 32.81-37.73m-27.82 38.09c10.28-12.74 21.46-24.63 32.8-37.73m-32.8 37.73c9.15-9.92 17.58-19.43 32.8-37.73m-27.16 37.34c11.36-13.7 22.62-27.08 32.81-37.74m-32.81 37.74c8.11-9.56 16.94-18.26 32.81-37.74m-27.82 38.1c7.62-7.96 14.52-17.3 32.8-37.74m-32.8 37.74c10.23-10.65 20.35-21.7 32.8-37.74m-27.16 37.35c8.05-7.11 14.61-15.11 32.15-36.99m-32.15 36.99c9.33-10.66 17.11-21.36 32.15-36.99m-27.16 37.35c11.53-13.32 22.01-27.13 32.8-37.74m-32.8 37.74c12.74-14.38 25.39-30.43 32.8-37.74m-27.81 38.1c5.68-8.9 12.58-16.12 32.8-37.74m-32.8 37.74c8.05-8.36 15.32-17.23 32.8-37.74m-27.16 37.34c7.62-8.45 14.27-13.45 32.8-37.73m-32.8 37.73c8.18-9.74 17.31-21.23 32.8-37.73M398 151.04c11.43-12.21 18.77-23.31 32.8-37.73M398 151.04c10.03-10.59 18.3-20.82 32.8-37.73m-27.16 37.34c13.13-15.64 22.97-29.4 32.8-37.74m-32.8 37.74c11.02-11.48 20.27-23.69 32.8-37.74m-27.81 38.1c11.96-13.02 25.12-27.04 32.8-37.74m-32.8 37.74c12.79-14.33 26.37-28.88 32.8-37.74m-27.16 37.34c9.48-14.09 21.62-25.19 32.8-37.73m-32.8 37.73c11.27-12.54 23.31-26.23 32.8-37.73m-27.81 38.09c11.44-11.89 22.68-23.74 32.8-37.73m-32.8 37.73c6.48-7.84 13.39-15.14 32.8-37.73m-27.16 37.34c8.37-11.28 18.63-23.37 32.8-37.74m-32.8 37.74c10-10.76 19.4-23.38 32.8-37.74m-27.81 38.1c7.79-10.37 17.01-20.62 34.77-40m-34.77 40c8.55-8.53 16.9-18.65 34.77-40m-29.13 39.6c9.53-11.79 16.7-21.23 32.15-36.98m-32.15 36.98c10.13-10.73 20.72-22.98 32.15-36.98m-27.16 37.34c10.02-8.92 15.62-18.21 30.18-34.71m-30.18 34.71c8.42-9.33 15.9-17.95 30.18-34.71m-25.19 35.07c7.79-6.28 10.89-14.75 24.93-28.68m-24.93 28.68c4.88-6.62 10.7-11.63 24.93-28.68m-19.29 28.29c6.35-9.4 15.62-16.85 19.02-21.89m-19.02 21.89c5.99-5.17 9.83-12.61 19.02-21.89m-14.03 22.25c2.47-4.84 8.05-7.38 14.43-16.6m-14.43 16.6c4.34-3.86 8.06-9.88 14.43-16.6m-9.45 16.96c3.38-2.96 5.3-5.91 9.19-10.57m-9.19 10.57c3.4-3.81 6.47-7.71 9.19-10.57"/><path stroke="#FFF" d="M280 110c63.32-1.04 128.8-.54 180 0m-180 0c44.32-.77 90.13-1.37 180 0m0 0c5.72.95 8.15 1.97 10 10m-10-10c4.67-1.02 8.14 3.9 10 10m0 0c-.08 8.37.36 15.28 0 20m0-20c-.05 8.27-1.12 15.88 0 20m0 0c.51 7.17-4.07 11.28-10 10m10-10c2.14 8.37-3.44 10.05-10 10m0 0c-68.8.15-134.72-.44-180 0m180 0c-41.53 1.59-83.16 1.22-180 0m0 0c-5.74-1.4-8.87-3.57-10-10m10 10c-4.73 1.27-9.77-4.5-10-10m0 0c-2.12-5.75.78-10.25 0-20m0 20c-.09-4.26.04-9.52 0-20m0 0c.53-8.18 1.67-9.12 10-10m-10 10c2.12-7.63 3.39-10.24 10-10"/></g><text x="44.64" fill="#FFF" dominant-baseline="text-before-edge" font-family="Virgil, Segoe UI Emoji" font-size="16" style="white-space:pre" text-anchor="middle" transform="translate(325.36 120)">Do request</text><g fill="none" stroke-linecap="round"><path stroke="#fa5252" stroke-width=".5" d="M532.66 112.31s0 0 0 0m0 0s0 0 0 0m-2.23 8.67c1.52-1.31 3.83-4.77 9.84-11.32m-9.84 11.32c3.42-4.13 7.47-8.43 9.84-11.32m-9.44 16.96c4.04-5.18 7.49-10.54 12.46-14.34m-12.46 14.34c4.37-4.29 8.14-9.46 12.46-14.34m-12.07 19.98c5.54-7.29 7.48-11.15 17.06-19.62m-17.06 19.62c7.33-8.04 12.6-14.93 17.06-19.62m-17.32 26.02c7.47-7.93 14.17-16.78 22.31-25.66m-22.31 25.66c9.07-9.61 16.74-19.8 22.31-25.66m-22.57 32.06c6.48-9.37 18.39-17.54 28.21-32.46m-28.21 32.46c9.93-11.95 20.58-24.31 28.21-32.46m-25.19 35.08c11.23-12.55 18.93-25.09 30.18-34.71m-30.18 34.71c10.82-11.56 19.35-23.26 30.18-34.71m-27.16 37.34c12.41-14.09 21.15-24.51 32.8-37.74m-32.8 37.74c8.45-9.78 17.41-19.37 32.8-37.74m-27.82 38.1c10.44-13.54 21.93-28.26 32.81-37.74m-32.81 37.74c7.93-8.71 16.35-17.82 32.81-37.74m-27.16 37.34c7.45-9.31 15.92-20.85 32.8-37.73m-32.8 37.73c11.58-11.67 22.73-23.97 32.8-37.73m-27.82 38.09c13.29-13.21 26.39-29.4 32.81-37.73m-32.81 37.73c10.48-12.39 21.56-25.02 32.81-37.73M558 150.24c12.91-11.98 23.89-26.34 32.8-37.74M558 150.24c6.37-9.44 15.15-17.26 32.8-37.74m-27.82 38.1c13.96-15.61 28.09-31.45 32.81-37.74m-32.81 37.74c8.17-9.45 17.11-19.71 32.81-37.74m-27.16 37.34c13.27-17.23 24.65-31.96 32.8-37.73m-32.8 37.73c10.44-12.87 22.12-26.03 32.8-37.73m-27.82 38.09c13.26-12.6 25.56-29.55 32.81-37.73m-32.81 37.73c10.09-11.19 20.22-22.11 32.81-37.73m-27.16 37.34c10.72-12.13 17.01-22.07 32.14-36.98m-32.14 36.98c8.87-9.11 15.74-19.51 32.14-36.98m-27.16 37.34c6.53-7.45 14.25-16.13 32.81-37.74m-32.81 37.74c6.12-7.17 14.21-15.28 32.81-37.74m-27.16 37.34c7.86-8.27 15.6-18.99 32.14-36.98m-32.14 36.98c7.33-9.13 17.13-19.01 32.14-36.98m-27.16 37.34c9.79-11.38 24.39-28.09 32.81-37.73m-32.81 37.73c8.57-9.51 16.86-17.18 32.81-37.73m-27.82 38.09c8.33-11.34 18.73-20.64 32.8-37.73m-32.8 37.73c8.93-9.55 17.08-19.48 32.8-37.73m-27.16 37.34c7.32-8.19 18.64-18.57 32.81-37.74m-32.81 37.74c9.1-10.76 17.17-20.37 32.81-37.74m-27.82 38.1c12.78-12.21 23.2-27.55 32.8-37.74m-32.8 37.74c7.82-10.47 17.29-19.93 32.8-37.74m-27.16 37.34c11.69-12.03 19.16-22.7 32.81-37.73m-32.81 37.73c6.65-7.67 14.34-16.8 32.81-37.73m-27.82 38.09c11.89-12.89 23.43-26 32.8-37.73m-32.8 37.73c9.79-11.68 19.28-21.15 32.8-37.73m-27.16 37.34c10.37-12.75 24.3-26.05 32.81-37.74m-32.81 37.74c10-12.02 20.93-24.3 32.81-37.74m-27.82 38.1c9.39-8.86 14.98-16.74 32.8-37.74m-32.8 37.74c8.55-10.53 17.99-20.76 32.8-37.74m-27.16 37.35c7.7-7.31 11.57-15.07 32.15-36.99m-32.15 36.99c7.1-6.99 13.8-14.5 32.15-36.99m-27.16 37.35c11.29-11.53 22.51-25.23 32.8-37.74m-32.8 37.74c12-13.66 22.78-26.66 32.8-37.74m-27.81 38.1c7.02-8.19 18.66-20.35 32.8-37.74m-32.8 37.74c7.66-7.84 14.71-15.62 32.8-37.74m-27.16 37.34c7.02-9.53 17.54-21.55 32.8-37.73m-32.8 37.73c6.77-7.62 14.27-15.06 32.8-37.73M658 151.04c9.73-10.38 19.25-21.35 32.8-37.73M658 151.04c8.95-12.68 20.06-23.96 32.8-37.73m-27.16 37.34c14.17-13.91 23.69-30.09 32.8-37.74m-32.8 37.74c7.57-8.31 15.11-17.17 32.8-37.74m-27.81 38.1c12.6-14.61 22.45-24.81 32.8-37.74m-32.8 37.74c11.26-13.55 22.14-26.05 32.8-37.74m-27.16 37.34c9.21-7.57 14.92-18.51 32.8-37.73m-32.8 37.73c8.84-10 17.6-19.37 32.8-37.73m-27.81 38.09c10.79-12.09 18.07-21.69 32.8-37.73m-32.8 37.73c7.49-8.45 14.69-15.47 32.8-37.73m-27.16 37.34c11.12-14.69 26.17-31.15 32.8-37.74m-32.8 37.74c8.13-8.27 15.45-16.39 32.8-37.74m-27.81 38.1c12.09-16.08 28.81-30.85 34.77-40m-34.77 40c10.48-10.67 19.96-22.05 34.77-40m-29.13 39.6c10.22-12.87 24.39-25.4 32.15-36.98m-32.15 36.98c8.53-9.79 15.92-18.88 32.15-36.98m-27.16 37.34c8.02-10.23 18.49-23.8 30.18-34.71m-30.18 34.71c9.82-11.52 21.25-22.72 30.18-34.71m-25.19 35.07c8.27-5.33 12.29-15.36 24.93-28.68m-24.93 28.68c9.54-10.81 19.93-21.72 24.93-28.68m-19.29 28.29c5.76-6.09 12.54-12.92 19.02-21.89m-19.02 21.89c6.28-5.56 10.73-12.18 19.02-21.89m-14.03 22.25c2.71-2.26 4.71-6.88 14.43-16.6m-14.43 16.6c3.94-4.55 8.22-10 14.43-16.6m-9.45 16.96c4.42-5.46 6.46-9.59 9.19-10.57m-9.19 10.57c3.09-2.43 5.08-5.48 9.19-10.57"/><path stroke="#FFF" d="M540 110c60.24-1.08 115.45.63 180 0m-180 0c62.09-.13 123.32.26 180 0m0 0c8.53 1.48 9.91 3.38 10 10m-10-10c8.4 1.99 9.57 1.9 10 10m0 0c-1.35 6.15 1.78 12.94 0 20m0-20c.44 5.33.54 11.95 0 20m0 0c1.68 7.77-3.13 8.99-10 10m10-10c-1.24 8.38-2.13 7.73-10 10m0 0c-47.36-1.61-93.23-.8-180 0m180 0c-69.5.6-140.36 1.79-180 0m0 0c-4.82-.83-9.95-3.54-10-10m10 10c-8.19-1.41-9.36-4.1-10-10m0 0c-.38-5.35.56-6.71 0-20m0 20c.98-6.37-.84-13.15 0-20m0 0c1.53-5.55 5-9.18 10-10m-10 10c1.31-6.99 3.1-10.62 10-10"/></g><text x="77.856" fill="#FFF" dominant-baseline="text-before-edge" font-family="Virgil, Segoe UI Emoji" font-size="16" style="white-space:pre" text-anchor="middle" transform="translate(552.144 120)">Post-request script</text><g fill="none" stroke-linecap="round"><path stroke="#7950f2" stroke-width=".5" d="M530.39 214.31s0 0 0 0m0 0s0 0 0 0m-.26 6.4c1.6-1.75 4.43-4.07 8.52-9.81m-8.52 9.81c2.88-3.44 5.89-7.02 8.52-9.81m-8.79 16.21c3.82-2.72 7.14-7.2 13.78-15.85m-13.78 15.85c3.12-4.2 6.21-7 13.78-15.85m-13.38 21.49c5.53-7.46 11.95-12.43 19.03-21.89m-19.03 21.89c3.9-5.37 8.08-10.39 19.03-21.89m-17.32 26.02c7.06-12 15.46-20.25 22.3-25.66m-22.3 25.66c4.97-5.53 10.11-11.44 22.3-25.66m-19.94 29.04c5.5-6.95 13.62-13.99 25.59-29.43m-25.59 29.43c8.18-7.83 15.28-17.02 25.59-29.43m-21.26 30.55c8.99-8.56 15.47-17.23 26.24-30.19m-26.24 30.19c9.21-11.42 18.01-21.84 26.24-30.19m-20.6 29.79c7.18-8.87 12.74-13.68 26.25-30.18m-26.25 30.18c7.9-10.01 16.83-19.93 26.25-30.18m-21.26 30.54c4.63-8.82 13.01-12.8 26.24-30.18m-26.24 30.18c9.12-11.67 19.14-21.62 26.24-30.18m-20.6 29.79c7.47-8.15 14.66-17.56 26.25-30.19m-26.25 30.19c4.69-5.83 11.6-12.32 26.25-30.19m-21.26 30.55c12.31-10.19 19.07-24.51 26.24-30.19m-26.24 30.19c8.4-10.44 18.97-22.02 26.24-30.19m-20.6 29.79c11.74-12.06 20.6-23.01 26.25-30.18m-26.25 30.18c9.48-10.9 19.82-23.82 26.25-30.18m-21.26 30.54c6.13-6.7 9.47-12.38 26.24-30.18m-26.24 30.18c5.2-6.89 12.07-12.98 26.24-30.18m-20.6 29.79c8.19-9.06 19.37-21.21 26.25-30.19m-26.25 30.19c10.03-12.29 21.57-24.81 26.25-30.19m-21.26 30.55c6.96-5.01 12.55-11.05 26.24-30.19m-26.24 30.19c6.53-7.82 13.17-14.89 26.24-30.19m-20.6 29.8c7.62-7.77 12.6-14.32 26.25-30.19m-26.25 30.19c9.54-9.96 18.18-20.42 26.25-30.19m-21.26 30.55c10.2-8.23 15.05-17.3 26.24-30.19m-26.24 30.19c8.88-10.99 16.7-19.75 26.24-30.19m-20.6 29.79c8.08-11.66 19.33-22.14 26.25-30.19m-26.25 30.19c9.66-11.15 18.88-22.78 26.25-30.19m-21.26 30.55c10.52-12.9 21.23-23.05 26.24-30.19m-26.24 30.19c8.32-9.61 17.42-19.72 26.24-30.19m-21.25 30.55c11.72-11.11 21.38-24.39 26.9-30.94m-26.9 30.94c8.86-9.09 16.72-17.9 26.9-30.94m-21.26 30.55c8.25-8.57 12.64-17.09 26.24-30.19m-26.24 30.19c8.92-9.12 18.11-19.9 26.24-30.19m-21.25 30.55c8.15-9.13 13.27-15.08 26.24-30.19m-26.24 30.19c7.96-9.39 15-17 26.24-30.19m-20.6 29.79c7.97-9.38 17.06-20.6 26.24-30.19M623.7 241.1c9.73-11.36 17.29-20.58 26.24-30.19m-21.25 30.55c9.91-10.75 17.29-20.8 26.24-30.19m-26.24 30.19c8-9.32 18.53-20.08 26.24-30.19m-20.6 29.8c7.58-7.84 15.45-18.87 26.24-30.19m-26.24 30.19c5.73-7.71 12.88-14.23 26.24-30.19m-21.25 30.55c6.79-7.99 13.23-12.65 26.24-30.19m-26.24 30.19c9.87-12.07 19.31-21.82 26.24-30.19m-20.6 29.79c11.32-11.52 19.91-22.03 26.24-30.19m-26.24 30.19c5.54-7.23 11.74-13.77 26.24-30.19m-21.25 30.55c9.4-10.54 19.86-20.61 26.24-30.19m-26.24 30.19c10.98-10.75 19.43-22.76 26.24-30.19m-20.6 29.8c7.9-9.43 17.32-19.44 26.24-30.19M655.59 241c9.74-10.89 20.14-22.78 26.24-30.19m-21.25 30.55c8.73-6.7 12.28-17.88 26.24-30.19m-26.24 30.19c7.36-8.35 15.74-17.07 26.24-30.19m-20.6 29.79c7.13-5.13 11.2-10.78 26.24-30.18m-26.24 30.18c7.54-8.15 15.3-17.9 26.24-30.18m-21.25 30.54c10.13-12.08 17.86-21.92 26.24-30.18m-26.24 30.18c7.38-7.58 14.06-14.37 26.24-30.18m-20.6 29.79c5.75-7.19 12.81-14.59 26.24-30.19m-26.24 30.19c7.54-10.18 17.52-20.38 26.24-30.19m-21.25 30.55c6.78-7.97 13.01-14.51 26.24-30.19m-26.24 30.19c9.27-11.58 18.19-22.41 26.24-30.19m-20.6 29.8c7.72-9.09 17.72-18.02 26.24-30.19m-26.24 30.19c8.55-10.57 16.37-20.49 26.24-30.19m-21.25 30.55c10.24-12.56 22.43-23.27 26.24-30.19m-26.24 30.19c10.46-12.56 20.01-23.7 26.24-30.19m-20.6 29.79c8.63-13.06 20.41-24.46 25.59-29.43m-25.59 29.43c7.44-7.21 13.25-15.37 25.59-29.43m-20.6 29.79c6.28-7.67 11.4-13.65 24.93-28.68m-24.93 28.68c8.41-11.57 19.57-20.79 24.93-28.68m-19.29 28.29c6.24-7.68 11.78-13.38 22.31-25.66m-22.31 25.66c6.54-8.51 14.47-16.71 22.31-25.66m-17.32 26.02c6.44-4.93 13.51-11.73 17.06-19.63m-17.06 19.63c5.67-4.84 9.5-10.35 17.06-19.63m-11.42 19.23c3.42-4.24 5.27-6.11 11.81-13.58m-11.81 13.58c2.5-4.27 6.95-8.41 11.81-13.58m-6.82 13.94c.78-1.47 4.05-3.04 6.56-7.55m-6.56 7.55c2.32-2.72 4.95-5.56 6.56-7.55"/><path stroke="#FFF" d="M537.5 210c40.97-.38 86.31-.3 185 0m-185 0c49.47-1.77 97.48-.97 185 0m0 0c6.73-.37 6.25 2.99 7.5 7.5m-7.5-7.5c5.44-.12 5.9 2.11 7.5 7.5m0 0c-.22 5.29.7 10.57 0 15m0-15c.4 5.42-.4 10.29 0 15m0 0c1.49 6.05-4.47 6.67-7.5 7.5m7.5-7.5c1.07 4.53-3.49 6.07-7.5 7.5m0 0c-53.47 3.12-106.05.11-185 0m185 0c-40.5 1.73-80.27 1.04-185 0m0 0c-6.23.56-8.17-4.48-7.5-7.5m7.5 7.5c-3.28 1.43-7.76-4.03-7.5-7.5m0 0c-.67-5.8 1.26-9.75 0-15m0 15c.42-2.5.31-5.81 0-15m0 0c-.28-5.2 1.96-8.42 7.5-7.5m-7.5 7.5c.48-6.81 1.65-7.92 7.5-7.5"/></g><text x="13.68" fill="#FFF" dominant-baseline="text-before-edge" font-family="Virgil, Segoe UI Emoji" font-size="16" style="white-space:pre" text-anchor="middle" transform="translate(616.32 215)">End</text><g stroke-linecap="round"><path fill="none" stroke="#FFF" d="M110.61 51.18c.25 9.63-.19 47.17-.14 56.65m-1.01-57.6c.18 9.82-.13 48.74.02 58.52"/><path fill="none" stroke="#FFF" d="M99.79 81.38c-.34 6.49 2.21 12.37 11.1 26.23M100 80.74c2.54 8.36 6.43 17.62 9.45 29.01"/><path fill="none" stroke="#FFF" d="M119.63 81.33c-4.57 6.61-6.24 12.49-8.74 26.28m8.95-26.91c-3.49 8.51-5.63 17.78-10.39 29.05"/></g><g stroke-linecap="round"><path fill="none" stroke="#FFF" d="M211.587 130.127c9.88-.1 48.48-1.19 58.02-1.39m-59.2.79c9.83.02 48.97.21 58.58.26M243.117 140.577c3.66-3.73 10.59-4.38 26.58-10.85m-28.45 9.59c11.95-4.34 21.29-7.81 27.3-8.74"/><path fill="none" stroke="#FFF" d="M243.217 120.757c3.65 1.09 10.55 5.25 26.48 8.97m-28.35-10.23c11.9 3.58 21.21 8.03 27.2 11.08"/></g><g stroke-linecap="round"><path fill="none" stroke="#FFF" d="M470.97 131.2c9.51-.09 48.42-1.04 58-1.29m-59.48.87c9.27.07 48.87.6 58.51.62"/><path fill="none" stroke="#FFF" d="M502.67 141.03c8.07-4.51 17.99-6.06 23.94-11.59m-25.45 12.58c7.55-4.22 14.1-7.21 26.47-10.85"/><path fill="none" stroke="#FFF" d="M502.83 121.2c8.08 2.93 17.95 8.83 23.78 8.24m-25.29-7.25c7.43 1.2 13.92 3.65 26.31 8.98"/></g><g stroke-linecap="round"><path fill="none" stroke="#FFF" d="M628.82 150.69c-.2 9.96.36 49.35.65 59.26m.94-60.47c-.47 9.71-2.12 49.03-2.17 58.84"/><path fill="none" stroke="#FFF" d="M618.52 179.94c5.21 11.78 8.78 21.67 8.88 27.53m-8.85-26.17c2.14 6.11 3.64 12.26 9.74 26.34"/><path fill="none" stroke="#FFF" d="M638.35 180.46c-1.88 11.4-5.39 21.11-10.95 27.01m10.98-25.64c-2.31 5.94-5.27 11.97-10.09 25.81"/></g></svg>