<svg xmlns="http://www.w3.org/2000/svg" width="500" height="700" viewBox="0 0 420 700"><path fill="#2A2A2A" d="M0 0h420v612H0z"/><g fill="none" stroke-linecap="round"><path stroke="#228be6" stroke-width=".5" d="M152.66 12.31s0 0 0 0m0 0s0 0 0 0m-2.23 8.67c1.4-3.17 3.82-4.41 9.84-11.32m-9.84 11.32c3.6-4.57 7.99-8.48 9.84-11.32m-9.44 16.96c1.34-4.59 3.81-6.55 12.46-14.34m-12.46 14.34c4.16-4.99 9.76-11.97 12.46-14.34m-12.07 19.98c4.3-8.16 14.42-14.18 17.06-19.62m-17.06 19.62c6.61-6.27 10.68-12.34 17.06-19.62m-17.32 26.02c9.42-7.93 17.63-17.56 22.31-25.66m-22.31 25.66c7.39-7.15 13.81-15.56 22.31-25.66M150.7 45.06c6.14-6.22 12.47-13.65 28.21-32.46M150.7 45.06c6.76-6.98 11.53-12.43 28.21-32.46m-25.19 35.08c8.68-7.66 15.94-19.66 30.18-34.71m-30.18 34.71c11.37-13.75 23.04-26.71 30.18-34.71m-27.16 37.34c8.11-7.68 17.65-19.92 32.8-37.74m-32.8 37.74c11.47-13.07 23.73-27.86 32.8-37.74m-27.82 38.1c8.59-13.65 19.28-22.59 32.81-37.74m-32.81 37.74c12.29-13.22 24.73-27.93 32.81-37.74m-27.16 37.34c11.41-14.84 22.33-26.06 32.8-37.73m-32.8 37.73c6.91-6.75 12.64-15.59 32.8-37.73m-27.82 38.09c9-11.45 19.52-22.93 32.81-37.73m-32.81 37.73c10.93-11.06 19.86-23.28 32.81-37.73M178 50.24c8.56-8.79 17.08-21.8 32.14-36.98M178 50.24c7.78-9.3 13.98-16.53 32.14-36.98M182.98 50.6c12-12.96 21.54-23.87 32.81-37.74M182.98 50.6c10.96-11.74 20.3-22.22 32.81-37.74M188.63 50.2c12.4-12.73 24.2-29.27 32.14-36.98M188.63 50.2c9.61-11.27 19.47-23.06 32.14-36.98m-27.16 37.34c13.97-15.37 23.13-27.51 32.81-37.73m-32.81 37.73c11.5-14.06 24.21-28.96 32.81-37.73M198.6 50.92c8.01-8.28 15.37-14.5 32.8-37.73m-32.8 37.73c8.74-9.75 15.75-17.64 32.8-37.73m-27.16 37.34c10.98-10.19 20.3-24.5 32.81-37.74m-32.81 37.74c8.19-9.84 18.21-20.91 32.81-37.74m-27.82 38.1c12.09-14.67 26.21-30.19 32.8-37.74m-32.8 37.74c13.61-15.57 26.09-29.87 32.8-37.74m-27.16 37.34c8.77-9.5 15.22-19.61 32.81-37.73m-32.81 37.73c13.12-15.21 25.45-29.59 32.81-37.73m-27.82 38.09c10.96-14.17 22.9-27.56 32.8-37.73m-32.8 37.73c8.01-10.12 17.66-20.13 32.8-37.73M225.5 50.46c9.33-6.87 16.74-17.14 32.15-36.98M225.5 50.46c7.81-9.81 16.6-17.41 32.15-36.98m-27.16 37.34c10.62-13.17 26.24-28.82 34.77-40m-34.77 40c12.78-12.87 23.4-26.61 34.77-40m-29.13 39.6c10.25-9.8 19.37-21.59 31.49-36.22m-31.49 36.22c9.09-9.48 16.56-20.59 31.49-36.22m-26.5 36.58c10.83-11.22 17.31-21.69 29.52-33.96m-29.52 33.96c11.28-13.46 23.4-26.19 29.52-33.96m-24.53 34.32c6.08-6.16 13.14-14.8 24.27-27.92m-24.27 27.92c8.94-11.55 17.99-22.32 24.27-27.92m-18.63 27.53c5.76-4.62 10.84-11.39 19.03-21.89m-19.03 21.89c7.18-8.85 13.9-16.55 19.03-21.89m-14.04 22.25c3.36-5.97 8.21-11.15 13.78-15.85m-13.78 15.85c5.16-6.52 11.24-13.2 13.78-15.85m-8.8 16.21c3.58-2.84 5.43-5.5 9.19-10.57m-9.19 10.57c3.89-3.7 6.94-7.57 9.19-10.57"/><path stroke="#FFF" d="M160 10c38.89.11 77.89 1.02 100 0m-100 0c40.07-1.55 79.35.3 100 0m0 0c7.69-1.4 11.51 2.59 10 10m-10-10c5.37-2.29 8.15 3.31 10 10m0 0c-.27 8.16-.3 13.31 0 20m0-20c-.1 7.47-.18 14.03 0 20m0 0c-1.99 5.78-3.84 8.98-10 10m10-10c2.1 8.37-5.54 11.76-10 10m0 0c-27.52-1.81-53.46-1.53-100 0m100 0c-22.53-.07-44.78.31-100 0m0 0c-7.72-.91-10.17-5.27-10-10m10 10c-6.04 1.98-8.38-5.24-10-10m0 0c-1.93-8.98-1.46-13.57 0-20m0 20c.93-6.52-.61-12.86 0-20m0 0c-.66-6.16 1.6-8.92 10-10m-10 10c-1.34-7.71 1.11-8 10-10"/></g><text x="16" fill="#FFF" dominant-baseline="text-before-edge" font-family="Virgil, Segoe UI Emoji" font-size="16" style="white-space:pre" text-anchor="middle" transform="translate(194 20)">开始</text><g fill="none" stroke-linecap="round"><path stroke="#fa5252" stroke-width=".5" d="M292.66 112.31s0 0 0 0m0 0s0 0 0 0m-2.23 8.67c4.03-3.43 3.92-6.36 9.84-11.32m-9.84 11.32c1.98-2.2 5.35-6.01 9.84-11.32m-9.44 16.96c3.82-3.48 8.38-9.75 12.46-14.34m-12.46 14.34c2.88-4.24 6.51-6.58 12.46-14.34m-12.07 19.98c3.35-6.18 6.75-8.95 17.06-19.62m-17.06 19.62c5.06-4.82 10.78-11.14 17.06-19.62m-17.32 26.02c7.8-10.02 16.99-20.12 22.31-25.66m-22.31 25.66c4.47-6.15 9.02-11.11 22.31-25.66m-22.57 32.06c10.15-14.55 21.36-25.83 28.21-32.46m-28.21 32.46c10.37-10.42 19.62-21.72 28.21-32.46m-25.19 35.08c8.63-10.61 16.69-16.32 30.18-34.71m-30.18 34.71c6.81-7.16 13.46-15.14 30.18-34.71m-27.16 37.34c8.07-12 18.84-22.4 32.8-37.74m-32.8 37.74c11.69-12.47 20.84-23.94 32.8-37.74m-27.82 38.1c12.8-16.5 26.81-27.63 32.81-37.74m-32.81 37.74c10-12.88 22.26-25.09 32.81-37.74m-27.16 37.34c11.31-12.97 22.75-28.22 32.8-37.73m-32.8 37.73c10.36-10.79 21.32-23.35 32.8-37.73m-27.82 38.09c7.96-10.78 18.8-22.83 32.81-37.73m-32.81 37.73c10.04-10.68 18.95-22.61 32.81-37.73M318 150.24c9.89-13.85 23.33-26.33 32.14-36.98M318 150.24c8.68-8.15 15.99-17.5 32.14-36.98m-27.16 37.34c5.89-7.37 14.38-14.8 32.81-37.74m-32.81 37.74c8.31-11.41 18.26-21.11 32.81-37.74m-27.16 37.34c6.07-6.6 13.74-15.53 32.14-36.98m-32.14 36.98c9.85-12.27 21.19-24.48 32.14-36.98m-27.16 37.34c12.48-15.4 24.92-26.96 32.81-37.73m-32.81 37.73c9.83-10.81 18.86-20.11 32.81-37.73m-27.82 38.09c9-11.54 17.76-19.62 32.8-37.73m-32.8 37.73c11.25-13.28 22.08-25.16 32.8-37.73m-27.16 37.34c10.04-9.95 15.46-18.37 32.81-37.74m-32.81 37.74c6.27-6.64 14.26-14.8 32.81-37.74m-27.82 38.1c14.24-15.75 25.52-31.86 32.8-37.74m-32.8 37.74c8.58-10.09 19.1-21.31 32.8-37.74m-27.16 37.34c9.72-12.49 24.91-28.32 32.81-37.73m-32.81 37.73c11.73-14.18 22.94-26.46 32.81-37.73m-27.82 38.09c6.41-7.36 17.43-17.92 32.8-37.73m-32.8 37.73c9.51-10.87 19.77-23.84 32.8-37.73m-27.16 37.34c10.33-14.13 24.89-27.2 32.15-36.98m-32.15 36.98c9.79-11.2 21.16-23.62 32.15-36.98m-27.16 37.34c12.41-12.43 23.97-25.87 34.77-40m-34.77 40c8.73-9.65 16.79-18.08 34.77-40m-29.13 39.6c10.63-12.87 18.38-20.63 31.49-36.22m-31.49 36.22c9.99-10.39 18.72-22.34 31.49-36.22m-26.5 36.58c10.22-10.97 22.7-25.34 29.52-33.96m-29.52 33.96c5.06-7.51 11.46-14.14 29.52-33.96m-24.53 34.32c6.85-7.97 13.62-16.36 24.27-27.92m-24.27 27.92c9.71-11.1 18.44-21.57 24.27-27.92m-18.63 27.53c3.06-6.53 10.44-12.87 19.03-21.89m-19.03 21.89c4.68-4.73 9.22-9.74 19.03-21.89m-14.04 22.25c3.44-2.98 7.26-9.82 13.78-15.85m-13.78 15.85c3.25-4.32 7.14-8.02 13.78-15.85m-8.8 16.21c1.96-3.08 7.21-7.22 9.19-10.57m-9.19 10.57c3.07-3.07 5.36-4.85 9.19-10.57"/><path stroke="#FFF" d="M300 110c39.26 1.75 76.51-.85 100 0m-100 0c31.62-1.12 62.73-.12 100 0m0 0c7.54-1.11 11.32 5.15 10 10m-10-10c7.34.54 9.01 3.15 10 10m0 0c-.94 3.58-.3 9.28 0 20m0-20c-.53 6.1-.34 13.55 0 20m0 0c.78 7.35-2.9 11.84-10 10m10-10c2.15 5.09-5.48 7.74-10 10m0 0c-33.14-2.35-67.67.2-100 0m100 0c-27.02-.95-55.2-.95-100 0m0 0c-7.99-.57-10.64-3.24-10-10m10 10c-8.16 2.16-10.18-4.14-10-10m0 0c-1.53-4.94.78-9.55 0-20m0 20c-.01-8.86-.12-15.79 0-20m0 0c-.88-5 4.52-9.62 10-10m-10 10c-1.63-8.42 3.26-8.21 10-10"/></g><text x="40" fill="#FFF" dominant-baseline="text-before-edge" font-family="Virgil, Segoe UI Emoji" font-size="16" style="white-space:pre" text-anchor="middle" transform="translate(310 120)">配置环境名</text><g fill="none" stroke-linecap="round"><path stroke="#12b886" stroke-width=".5" d="M152 191.74s0 0 0 0m0 0s0 0 0 0m-.92 7.15c3.3-3.73 5.83-7.49 7.22-8.3m-7.22 8.3c2.7-2.51 4.8-5.52 7.22-8.3m-6.83 13.94c1.86-4.59 6.84-8.21 11.81-13.58m-11.81 13.58c4.71-5.98 8.65-11.69 11.81-13.58m-11.41 19.22c8.21-5.71 10.98-16.21 17.06-19.62m-17.06 19.62c5.3-6.17 9.87-12.59 17.06-19.62m-17.32 26.02c9.08-11.79 16.35-19.15 22.3-25.66m-22.3 25.66c5.72-6.94 13.18-14.32 22.3-25.66m-19.94 29.04c6.86-6.88 15.95-15.07 25.59-29.43m-25.59 29.43c5.17-5.69 9.75-11.5 25.59-29.43m-19.95 29.04c10.45-10.14 18.58-21.19 24.93-28.68m-24.93 28.68c8.12-9.57 18.17-21.89 24.93-28.68m-19.94 29.04c5.7-7.89 11.56-14.12 25.59-29.44m-25.59 29.44c7.52-8.11 12.58-15.16 25.59-29.44m-19.95 29.04c5.71-6.93 11.58-16.38 24.93-28.68m-24.93 28.68c5.6-7.5 12.47-14.24 24.93-28.68m-19.94 29.04c7.65-10.35 16.23-19.39 24.93-28.68m-24.93 28.68c8.9-10.48 17.98-21.44 24.93-28.68m-19.29 28.29c7-8.7 11.96-16.9 24.93-28.68m-24.93 28.68c7.09-9.1 14.74-16.84 24.93-28.68m-19.94 29.04c7.57-6.49 11.9-13.44 24.93-28.68m-24.93 28.68c9.73-11.09 19.53-21.23 24.93-28.68m-19.29 28.28c5.98-7.34 11.81-10.62 24.93-28.68m-24.93 28.68c8.07-9.58 15.66-19.13 24.93-28.68m-19.94 29.04c5.01-6.79 13.41-15.24 24.93-28.68m-24.93 28.68c6.53-6.56 12.73-13.77 24.93-28.68m-19.29 28.29c7.64-13.03 19.99-20.91 24.93-28.68m-24.93 28.68c5.26-5.7 10.78-12.28 24.93-28.68m-19.94 29.04c6.34-9.6 12.8-16.75 24.93-28.68m-24.93 28.68c7.6-7.6 12.99-15.89 24.93-28.68m-19.94 29.04c7.19-7.76 14.79-15.27 25.58-29.44m-25.58 29.44c7.87-9.88 17.46-20.07 25.58-29.44m-19.94 29.04c7.97-12.56 18.88-20.47 24.93-28.68m-24.93 28.68c6.93-6.66 12.79-13.67 24.93-28.68m-19.94 29.04c10.01-10.07 17.49-17.83 25.58-29.43m-25.58 29.43c7.69-9.39 16.74-19.57 25.58-29.43m-19.94 29.04c5.56-7.01 13.91-15.51 24.93-28.68m-24.93 28.68c8.73-9.1 16.77-19.37 24.93-28.68m-19.94 29.04c5.94-8.29 14.14-16.6 24.93-28.68m-24.93 28.68c8.42-9.45 15.13-17.03 24.93-28.68m-19.29 28.28c9.47-10.26 20.53-21.44 24.93-28.67m-24.93 28.67c5.73-6.5 11.5-13 24.93-28.67M244 220.03c4.36-6.51 13.14-15.35 24.27-27.92M244 220.03c7.03-6.84 13.33-14.97 24.27-27.92m-18.63 27.53c5.9-7.53 11.54-12.32 20.99-24.15m-20.99 24.15c6.31-6.58 12-14.19 20.99-24.15m-16 24.51c6.94-8.28 11.22-12.88 16.4-18.87M254.63 220c4.9-5.92 11.03-11.76 16.4-18.87m-11.42 19.23c4.72-5.48 6.01-9.38 11.16-12.83m-11.16 12.83c3.16-3.4 5.37-6.14 11.16-12.83m-6.82 13.95c1.72-2.58 3.83-5.19 6.56-7.55m-6.56 7.55c1.99-2.94 4.32-5.64 6.56-7.55"/><path stroke="#FFF" d="M157.5 190c28.84-1.01 60.51-2.49 105 0m-105 0c35.22-.53 70.51.47 105 0m0 0c3.12 1.56 8.39 2.58 7.5 7.5m-7.5-7.5c4.92-.4 5.56 1.11 7.5 7.5m0 0c1.19 6.74.59 10.14 0 15m0-15c-.6 3.21.63 7.35 0 15m0 0c-1.43 4.46-1.28 6.85-7.5 7.5m7.5-7.5c-.88 6.54-3.28 8.94-7.5 7.5m0 0c-29.03 2.4-57.49-.44-105 0m105 0c-35.18.48-68.59-.57-105 0m0 0c-6.87.22-9.01-4.27-7.5-7.5m7.5 7.5c-4.1-1.25-6.5-3.85-7.5-7.5m0 0c-.54-3.5.55-8.79 0-15m0 15c-.3-4.46.87-7.44 0-15m0 0c.68-4.23.99-8.08 7.5-7.5m-7.5 7.5c-.64-4.28 2.63-8.48 7.5-7.5"/></g><text x="32" fill="#FFF" dominant-baseline="text-before-edge" font-family="Virgil, Segoe UI Emoji" font-size="16" style="white-space:pre" text-anchor="middle" transform="translate(178 195)">设置域名</text><g fill="none" stroke-linecap="round"><path stroke="#fab005" stroke-width=".5" d="M152.66 272.31s0 0 0 0m0 0s0 0 0 0m-2.23 8.67c4.02-5.46 6.68-10.47 9.84-11.32m-9.84 11.32c4.39-3.59 6.69-8.98 9.84-11.32m-9.44 16.96c4.22-4.85 7.02-10.27 12.46-14.34m-12.46 14.34c5.05-6.46 9.24-10.8 12.46-14.34m-12.07 19.98c3.58-4.62 10.31-9.99 17.06-19.62m-17.06 19.62c4.6-4.85 10.35-10.33 17.06-19.62m-17.32 26.02c4.6-4.61 7.98-9.57 22.31-25.66m-22.31 25.66c8.85-9.15 16.48-18.77 22.31-25.66m-22.57 32.06c8.38-9.97 20.44-25.38 28.21-32.46m-28.21 32.46c6.72-8.29 13.44-15.76 28.21-32.46m-25.19 35.08c9.58-10.03 14.18-17.76 30.18-34.71m-30.18 34.71c7.44-8.6 14.86-18.47 30.18-34.71m-27.16 37.34c6.89-10.12 16.26-18.6 32.8-37.74m-32.8 37.74c10.42-12.93 21.4-25.14 32.8-37.74m-27.82 38.1c11.42-13.78 23.26-28.43 32.81-37.74m-32.81 37.74c8.99-10.69 16.96-21.11 32.81-37.74m-27.16 37.34c9.04-12.16 19.03-21.51 32.8-37.73m-32.8 37.73c8.58-9.15 15.74-18.36 32.8-37.73m-27.82 38.09c12.87-14.69 25.89-27.42 32.81-37.73m-32.81 37.73c7.16-8.76 14.47-15.45 32.81-37.73M178 310.24c10.34-12.53 19.7-24.92 32.14-36.98M178 310.24c7.84-9.27 17.15-19.38 32.14-36.98m-27.16 37.34c8.77-8.37 16.99-17.97 32.81-37.74m-32.81 37.74c11.57-15.55 25.72-28.65 32.81-37.74m-27.16 37.34c6.62-7 13.71-15.62 32.14-36.98m-32.14 36.98c8.69-11.11 17.55-21.15 32.14-36.98m-27.16 37.34c10.65-10.05 16.85-21.37 32.81-37.73m-32.81 37.73c9.47-10.55 19.21-21.14 32.81-37.73m-27.82 38.09c9.48-12.7 22.53-26.04 32.8-37.73m-32.8 37.73c11.64-15.28 24.89-28.2 32.8-37.73m-27.16 37.34c9.79-8.45 17.35-17.66 32.81-37.74m-32.81 37.74c11.55-12.42 21.86-23.86 32.81-37.74m-27.82 38.1c9.48-11.75 21.52-25.14 32.8-37.74m-32.8 37.74c8.01-9.53 17.52-19.92 32.8-37.74m-27.16 37.34c11.63-11.38 21.82-25.17 32.81-37.73m-32.81 37.73c8.88-10.88 18.74-21.67 32.81-37.73m-27.82 38.09c11.54-12.8 19.75-21.97 32.8-37.73m-32.8 37.73c12.67-13.94 25.95-28.45 32.8-37.73m-27.16 37.34c7.67-8.66 15.42-17.3 32.15-36.98m-32.15 36.98c7.36-9.31 16.88-19.62 32.15-36.98m-27.16 37.34c10.18-9.3 18.87-21.05 34.77-40m-34.77 40c9.13-10.59 17.91-19.84 34.77-40m-29.13 39.6c9.65-9.81 18.16-21.72 31.49-36.22m-31.49 36.22c11.21-13.09 21.27-24.5 31.49-36.22m-26.5 36.58c8.81-10.69 20.06-21.2 29.52-33.96m-29.52 33.96c10.12-11.44 18.01-21.94 29.52-33.96m-24.53 34.32c7.01-7.48 11.76-13.42 24.27-27.92m-24.27 27.92c7.44-9.11 15.32-18.37 24.27-27.92m-18.63 27.53c5.4-8.75 12.1-16.54 19.03-21.89m-19.03 21.89c5.23-6.46 11.69-13.33 19.03-21.89m-14.04 22.25c4.13-6.56 8.37-9.91 13.78-15.85m-13.78 15.85c2.75-3.36 5.37-7.43 13.78-15.85m-8.8 16.21c2.38-1.44 5.21-4.53 9.19-10.57m-9.19 10.57c1.83-2.66 3.66-3.68 9.19-10.57"/><path stroke="#FFF" d="M160 270c38.15-.38 73.11 1.61 100 0m-100 0c27.3.67 52.93 1.29 100 0m0 0c6.04-.84 10.61 3.16 10 10m-10-10c7.44-1.04 10.29 5.32 10 10m0 0c-1.7 2.39.6 7.23 0 20m0-20c.53 7.67-.41 14.69 0 20m0 0c.87 8.04-4.35 8.23-10 10m10-10c1.86 5.35-5.53 12.27-10 10m0 0c-32.06-.2-61.67 1.01-100 0m100 0c-31.17-.07-60.41-.12-100 0m0 0c-4.75-1.13-9.04-4.4-10-10m10 10c-6.46 1.75-11.23-2.34-10-10m0 0c-1.75-6.76.39-14.98 0-20m0 20c-.15-7 .14-16.11 0-20m0 0c-.2-5.25 1.74-9 10-10m-10 10c.68-8.28 2.43-10.5 10-10"/></g><text x="40" fill="#FFF" dominant-baseline="text-before-edge" font-family="Virgil, Segoe UI Emoji" font-size="16" style="white-space:pre" text-anchor="middle" transform="translate(170 280)">返回主界面</text><g fill="none" stroke-linecap="round"><path stroke="#4c6ef5" stroke-width=".5" d="M52.66 372.31s0 0 0 0m0 0s0 0 0 0m-2.23 8.67c2.59-3.83 4.74-5.73 9.84-11.32m-9.84 11.32c2.16-3.72 6.01-6.54 9.84-11.32m-9.44 16.96c5.98-5.16 11.28-11.47 12.46-14.34m-12.46 14.34c5.24-4.44 9.87-11.49 12.46-14.34m-12.07 19.98c5.86-7.05 11.35-11.01 17.06-19.62m-17.06 19.62c4.28-4.69 8.09-8.94 17.06-19.62m-17.32 26.02c10.19-9.42 14.94-19.59 22.31-25.66m-22.31 25.66c5.49-7.16 11.79-13.61 22.31-25.66M50.7 405.06c8.57-12.7 19.42-22.9 28.21-32.46M50.7 405.06c7.11-8.45 12.93-16.28 28.21-32.46m-25.19 35.08c9.3-11.42 20.23-21.7 30.18-34.71m-30.18 34.71c9.6-11.62 19.92-22.54 30.18-34.71m-27.16 37.34c9.33-11.47 17.75-21.37 32.8-37.74m-32.8 37.74c9.41-12.2 19.09-22.73 32.8-37.74m-27.82 38.1c12.75-16.02 28.3-31.14 32.81-37.74m-32.81 37.74c12.54-14.67 25.05-28.12 32.81-37.74m-27.16 37.34c9.14-10.15 20.23-23.08 32.8-37.73m-32.8 37.73c12.43-14.49 26.93-29.86 32.8-37.73m-27.82 38.09c10.29-13.57 20.69-25.18 32.81-37.73m-32.81 37.73c7.02-7.29 13.19-15.59 32.81-37.73M78 410.24c8.79-8.48 16.34-16.4 32.14-36.98M78 410.24c11.91-13.89 26.23-29.57 32.14-36.98M82.98 410.6c11.89-12.66 22.12-24.64 32.81-37.74M82.98 410.6c10.71-13.45 22.44-26 32.81-37.74M88.63 410.2c9.87-12.26 18.43-22.89 32.14-36.98M88.63 410.2c11.17-12.18 22.28-23.77 32.14-36.98m-27.16 37.34c7.35-7.92 14.07-15.26 32.81-37.73m-32.81 37.73c10.95-13.35 24.28-27.43 32.81-37.73M98.6 410.92c12.23-12.03 23.71-26.14 32.8-37.73m-32.8 37.73c10.25-11.68 21.44-23.51 32.8-37.73m-27.16 37.34c12.55-13.35 23.48-27.94 32.81-37.74m-32.81 37.74c11.74-12.43 22.6-25.52 32.81-37.74m-27.82 38.1c12.06-12.82 21.73-24.45 32.8-37.74m-32.8 37.74c7.66-8.93 15.44-17.85 32.8-37.74m-27.16 37.34c6.96-10.2 17.58-17.58 32.81-37.73m-32.81 37.73c7.62-7.54 14.65-17.3 32.81-37.73m-27.82 38.09c9-9.69 18.02-23.45 32.8-37.73m-32.8 37.73c9.27-9.87 17.56-20.86 32.8-37.73m-27.16 37.34c12.3-12.61 22.11-24.66 32.15-36.98m-32.15 36.98c6.29-7.69 13.92-16.6 32.15-36.98m-27.16 37.34c7.74-8.32 13.42-16.97 34.77-40m-34.77 40c12.2-15.01 26.02-29.84 34.77-40m-29.13 39.6c12-11.89 24.12-27.49 31.49-36.22m-31.49 36.22c6.03-8.77 13-16.9 31.49-36.22m-26.5 36.58c9.69-11.75 20.95-24.94 29.52-33.96m-29.52 33.96c10.07-11.81 19.93-22.25 29.52-33.96m-24.53 34.32c8.11-11.62 17.14-20.66 24.27-27.92m-24.27 27.92c4.83-5.07 9.31-11.54 24.27-27.92m-18.63 27.53c4.14-7.07 11.49-14.11 19.03-21.89m-19.03 21.89c7.06-8.45 13.44-17.15 19.03-21.89m-14.04 22.25c6.86-4.86 11.37-14.14 13.78-15.85m-13.78 15.85c2.44-3.86 7.22-6.5 13.78-15.85m-8.8 16.21c1.68-3.01 5.17-5.36 9.19-10.57m-9.19 10.57c3.64-4.1 7.4-7.95 9.19-10.57"/><path stroke="#FFF" d="M60 370c26.48-.81 51.88 1.81 100 0m-100 0c20.04-.99 41.98-.65 100 0m0 0c7.54-1.18 10.55 4.63 10 10m-10-10c8.51-.68 12.17 4.33 10 10m0 0c1.52 6.23-2.02 16.73 0 20m0-20c-.69 5.82-.21 12.54 0 20m0 0c.11 5.81-3.62 8.79-10 10m10-10c.17 8.32-3.28 12.2-10 10m0 0c-24.17.99-49.76.34-100 0m100 0c-37.39.8-72.84.35-100 0m0 0c-5.07-1.32-8-3.89-10-10m10 10c-5.3.02-12.11-3.56-10-10m0 0c.75-8.82-.63-15.26 0-20m0 20c1.04-5.43.58-12.73 0-20m0 0c.96-8.65 3.95-9.1 10-10m-10 10c.84-7.02 1.26-7.97 10-10"/></g><text x="40" fill="#FFF" dominant-baseline="text-before-edge" font-family="Virgil, Segoe UI Emoji" font-size="16" style="white-space:pre" text-anchor="middle" transform="translate(70 380)">选择项目名</text><g fill="none" stroke-linecap="round"><path stroke="#4c6ef5" stroke-width=".5" d="M272.66 372.31s0 0 0 0m0 0s0 0 0 0m-2.23 8.67c3.42-2.96 5.58-4.18 9.84-11.32m-9.84 11.32c3.43-4.15 5.76-6.4 9.84-11.32m-9.44 16.96c4.55-3.19 6.55-9.09 12.46-14.34m-12.46 14.34c4.29-4.56 9.65-10.74 12.46-14.34m-12.07 19.98c1.92-5.11 6.05-8.39 17.06-19.62m-17.06 19.62c4.75-5.46 9.44-11.15 17.06-19.62m-17.32 26.02c9.07-10.72 16.36-19.95 22.31-25.66m-22.31 25.66c4.87-7.05 11.91-14.09 22.31-25.66m-22.57 32.06c7.05-6.86 13.86-14.27 28.21-32.46m-28.21 32.46c7.74-8.3 15.58-18.53 28.21-32.46m-25.19 35.08c7.18-9.4 15.63-17.59 30.18-34.71m-30.18 34.71c8.93-10.54 20.08-22.01 30.18-34.71m-27.16 37.34c10.48-10.71 18.71-17.75 32.8-37.74m-32.8 37.74c12.88-13.64 24.9-29.43 32.8-37.74m-27.82 38.1c11.68-13.43 22.27-23.07 32.81-37.74m-32.81 37.74c12.39-12.89 22.99-26.58 32.81-37.74m-27.16 37.34c8.98-11.59 17.31-21.97 32.8-37.73m-32.8 37.73c6.67-8.58 13.26-16.4 32.8-37.73m-27.82 38.09c10.97-10.56 23.07-26.04 32.81-37.73m-32.81 37.73c7.85-8.69 14.18-16.51 32.81-37.73M298 410.24c9.34-10.49 18.52-22.1 32.14-36.98M298 410.24c8.59-9.98 17.5-20.18 32.14-36.98m-27.16 37.34c11.57-14.82 26.4-31.15 32.81-37.74m-32.81 37.74c10.17-10.33 17.76-21.32 32.81-37.74m-27.16 37.34c6.02-6.31 14.96-15.51 32.14-36.98m-32.14 36.98c8.43-9.02 15.52-16.42 32.14-36.98m-27.16 37.34c13.84-14.68 26.16-32.08 32.81-37.73m-32.81 37.73c13.29-14.24 25.82-28.5 32.81-37.73m-27.82 38.09c7.76-10.04 16.87-19.63 32.8-37.73m-32.8 37.73c8.08-9.44 17.03-19.32 32.8-37.73m-27.16 37.34c11.1-12.27 19.44-22.9 32.81-37.74m-32.81 37.74c7.63-8.8 14.97-17.2 32.81-37.74m-27.82 38.1c13.51-12.13 22.61-28.53 32.8-37.74m-32.8 37.74c9.45-11.9 18.69-21.83 32.8-37.74m-27.16 37.34c9.8-13.95 21.98-24.41 32.81-37.73m-32.81 37.73c6.11-7.96 13.41-16.29 32.81-37.73m-27.82 38.09c11.52-13 19-24.17 32.8-37.73m-32.8 37.73c10.81-12.79 21-24.49 32.8-37.73m-27.16 37.34c9.02-11.75 23.04-26.42 32.15-36.98m-32.15 36.98c12.34-13.78 25.3-28.65 32.15-36.98m-27.16 37.34c10.01-11.91 18.96-23.79 34.77-40m-34.77 40c12.31-15.27 26.64-28.91 34.77-40m-29.13 39.6c11.6-13.73 25.49-29.69 31.49-36.22m-31.49 36.22c8-8.7 17.18-19.13 31.49-36.22m-26.5 36.58c6.28-8.04 12.14-14.5 29.52-33.96m-29.52 33.96c7.13-9.09 15.93-18.77 29.52-33.96m-24.53 34.32c7.58-9.36 14.95-14.2 24.27-27.92m-24.27 27.92c6.54-9.04 15.61-16.84 24.27-27.92m-18.63 27.53c6.66-8.99 10.51-14.69 19.03-21.89m-19.03 21.89c6.4-5.39 10.11-12.49 19.03-21.89m-14.04 22.25c6.36-6.34 11.25-11.97 13.78-15.85m-13.78 15.85c6.02-6.12 9.68-11.34 13.78-15.85m-8.8 16.21c2.82-1.83 4.03-7.42 9.19-10.57m-9.19 10.57c3.21-3.58 6.1-6.9 9.19-10.57"/><path stroke="#FFF" d="M280 370c32.15 1.09 66.35.57 100 0m-100 0c24.36-1.77 50.85-.75 100 0m0 0c7.34.77 8.49 2.75 10 10m-10-10c6.02.72 10.13 2.35 10 10m0 0c1.32 5.76 1.79 10.3 0 20m0-20c.65 6.43.33 14.58 0 20m0 0c.31 7.73-5.05 10.55-10 10m10-10c.48 6.25-1.5 8.48-10 10m0 0c-39.96-1.24-80.16 2.01-100 0m100 0c-22.73-.1-44.26.38-100 0m0 0c-7.64 1.35-8.11-1.83-10-10m10 10c-5.57-.85-8.9-5.62-10-10m0 0c-.4-8.41 1.68-15.1 0-20m0 20c.55-4.48-.1-9.66 0-20m0 0c-1.57-5.14 5.33-8.25 10-10m-10 10c-2.28-6.28 1.75-10.95 10-10"/></g><text x="40" fill="#FFF" dominant-baseline="text-before-edge" font-family="Virgil, Segoe UI Emoji" font-size="16" style="white-space:pre" text-anchor="middle" transform="translate(290 380)">选择环境名</text><g fill="none" stroke-linecap="round"><path stroke="#e64980" stroke-width=".5" d="M92.66 472.31s0 0 0 0m0 0s0 0 0 0m.4 5.65c2.65-2.94 4.15-5.39 7.21-8.3m-7.21 8.3c1.66-2.52 3.95-4.91 7.21-8.3m-7.48 14.69c3.01-3.04 4.96-7.71 10.5-12.07m-10.5 12.07c2.03-3.21 4.61-6.09 10.5-12.07m-10.76 18.47c7.96-5.58 13.26-14.49 15.75-18.11m-15.75 18.11c4.78-6.07 10.46-12.07 15.75-18.11M92.93 496.4c8.39-8.39 14.82-16.99 20.99-24.16M92.93 496.4c7.7-9.57 16.09-19.62 20.99-24.16m-21.25 30.55c6.92-9.51 14.69-15.6 26.24-30.19m-26.24 30.19c7.23-8.13 15.39-16.58 26.24-30.19m-25.85 35.84c8.23-13.57 17.55-22.4 30.84-35.47m-30.84 35.47c10.88-13.4 23.55-26.55 30.84-35.47m-26.51 36.58c9.02-12.97 19.61-25.8 32.15-36.98m-32.15 36.98c8.2-9.12 17.5-20.45 32.15-36.98m-28.47 38.85c6.2-9.3 16.24-18.18 33.46-38.49m-33.46 38.49c13.3-16.01 26.57-30.34 33.46-38.49m-27.82 38.1c8.63-11.47 15.29-19.98 33.46-38.49m-33.46 38.49c13.38-13.74 25.98-28.51 33.46-38.49m-28.47 38.85c9.72-11.81 22.55-26.14 33.46-38.49m-33.46 38.49c12.49-14.74 24.6-28.1 33.46-38.49m-27.82 38.09c8.87-12.28 20.14-21.76 33.46-38.49m-33.46 38.49c9.15-10.25 18.74-21.19 33.46-38.49m-28.47 38.85c12.75-14.44 23.25-26.66 33.46-38.49m-33.46 38.49c10.2-10.31 18.8-22.37 33.46-38.49m-27.82 38.1c10.92-14.01 24.59-26.45 33.46-38.49m-33.46 38.49c10.87-11.69 20.97-23.33 33.46-38.49m-28.47 38.85c9.2-10.55 16.11-16.7 33.46-38.49m-33.46 38.49c7.86-9.76 18.14-20.24 33.46-38.49m-27.82 38.09c12.34-13.38 23.27-27.09 33.46-38.49m-33.46 38.49c9.71-9.97 18.65-20.62 33.46-38.49m-28.47 38.85c5.52-6.89 12.04-16.35 33.46-38.49m-33.46 38.49c8.84-11.58 19.32-21.8 33.46-38.49m-27.82 38.1c9.61-9.33 17.26-22.85 33.46-38.49m-33.46 38.49c7.88-7.72 14.27-16.43 33.46-38.49m-28.47 38.85c7.15-10.78 16.77-20.75 33.46-38.49m-33.46 38.49c8.49-11.32 17.44-21.85 33.46-38.49m-27.82 38.09c9.94-10.46 17.3-18.37 33.46-38.49m-33.46 38.49c6.55-7.99 12.78-15.99 33.46-38.49m-28.47 38.85c12.62-13.26 23.03-26.77 33.46-38.49m-33.46 38.49c7.54-8.4 15.46-16.26 33.46-38.49m-27.82 38.1c11.08-13.18 21.52-26.36 33.46-38.49m-33.46 38.49c12.51-14.16 25.5-30.16 33.46-38.49m-28.47 38.85c11.83-12.96 25.46-29.07 33.46-38.49m-33.46 38.49c13.8-15.33 27.2-31.08 33.46-38.49m-27.82 38.09c8.27-11.51 19.09-25.54 33.46-38.49m-33.46 38.49c10.97-12.92 23.56-25.45 33.46-38.49m-28.47 38.85c10.06-11.56 15.96-19.34 33.46-38.49m-33.46 38.49c8.55-9.33 17-19.77 33.46-38.49m-28.48 38.85c9.47-11.59 18.31-22.57 34.12-39.24m-34.12 39.24c11.17-12.63 21.18-24.66 34.12-39.24m-28.47 38.85c10.91-10.4 20.68-22.53 33.46-38.49m-33.46 38.49c6.87-7.51 13.56-15.55 33.46-38.49m-28.48 38.85c7.04-10.67 19.39-22.53 33.46-38.49m-33.46 38.49c11.21-13.46 23.41-27.2 33.46-38.49m-27.81 38.1c12.89-15.15 25.2-30.55 33.46-38.49m-33.46 38.49c10.74-13.76 22.85-26.52 33.46-38.49m-28.47 38.85c9.54-8.4 16.68-18.38 33.45-38.49m-33.45 38.49c7.98-9.85 14.68-18.07 33.45-38.49M218 511.04c8.21-9.69 15.3-19.67 33.46-38.49M218 511.04c7.85-9.26 18.32-20.08 33.46-38.49m-28.47 38.85c10.23-12.63 23.42-26.22 33.45-38.49m-33.45 38.49c8.51-10.88 18.3-20.47 33.45-38.49m-27.81 38.1c7.54-9.77 14.53-15.45 33.46-38.49m-33.46 38.49c7.93-7.21 15.3-16.19 33.46-38.49m-28.47 38.85c10.16-11.52 19-23.27 33.45-38.49m-33.45 38.49c12.41-13.09 23.08-27.5 33.45-38.49m-27.81 38.09c6.98-8.26 15.72-15.09 33.46-38.49m-33.46 38.49c7.89-10.41 16.73-20.15 33.46-38.49m-28.47 38.85c9.69-9.28 19.73-22.23 33.45-38.49m-33.45 38.49c11.37-12.74 21.34-25.46 33.45-38.49m-27.81 38.1c6.83-11.19 17.78-18.91 33.46-38.49m-33.46 38.49c12.93-15.25 27.59-30.32 33.46-38.49m-28.47 38.85c13.08-14.59 26.67-28.59 33.45-38.49m-33.45 38.49c10.3-12.84 22.12-24.31 33.45-38.49m-27.81 38.09c8.43-9.43 15.2-18.28 33.46-38.49m-33.46 38.49c10.4-11.38 20.81-22.3 33.46-38.49m-28.47 38.85c11.03-14.43 24.86-30.46 33.45-38.49m-33.45 38.49c9.45-11.05 18.55-22.49 33.45-38.49m-27.81 38.1c8.75-12.65 18.69-21.08 33.46-38.49m-33.46 38.49c11.95-13.48 24.08-27.02 33.46-38.49m-28.47 38.85c13.99-13.64 25.33-29.54 33.45-38.49m-33.45 38.49c9.12-10.1 18.62-22.73 33.45-38.49m-27.81 38.09c9.44-11.71 19.47-22.86 33.46-38.49m-33.46 38.49c7.87-10.77 16.13-18.55 33.46-38.49m-28.47 38.85c7.03-8.4 15.59-19.58 34.77-40m-34.77 40c11.05-13.59 23.61-26.61 34.77-40m-29.13 39.61c11.93-14.27 25.14-29.69 33.46-38.49m-33.46 38.49c12.84-14.82 24.64-29.59 33.46-38.49m-28.47 38.85c12.56-14.77 23.42-27.27 31.49-36.23m-31.49 36.23c12.86-13.52 24.28-28.77 31.49-36.23m-25.85 35.84c10.23-13.33 22.14-21.59 28.87-33.21m-28.87 33.21c11.32-13.17 21.67-25.42 28.87-33.21m-23.88 33.57c5.92-7.16 9.7-10.05 23.61-27.17m-23.61 27.17c8.83-11.04 19.3-22.54 23.61-27.17m-18.63 27.53c6.59-5.19 8.46-10.82 19.03-21.89m-19.03 21.89c5.44-6.46 9.31-10.99 19.03-21.89m-13.38 21.49c2.59-3.99 4.24-6.41 13.77-15.85m-13.77 15.85c4.96-6.28 11.54-11.44 13.77-15.85m-9.44 16.97c3.76-1.93 6.28-5.29 9.18-10.57m-9.18 10.57c2.57-2.06 4.7-6.07 9.18-10.57"/><path stroke="#FFF" d="M100 470c75.71.35 154.5 1.06 220 0m-220 0c87.1 1.9 173.34 2.01 220 0m0 0c4.67-.67 11.31 2.26 10 10m-10-10c4.93.81 11.46 1.41 10 10m0 0c.74 3.08 1.69 8.67 0 20m0-20c.22 6.87-.21 14.79 0 20m0 0c.93 7.95-2.5 10.81-10 10m10-10c1.7 6.46-1.5 11.8-10 10m0 0c-81.15 2.1-162.57 2.02-220 0m220 0c-66.54.48-132.76.8-220 0m0 0c-5.79 1.28-9.01-2.69-10-10m10 10c-5.75-2.03-10.63-2.79-10-10m0 0c-1.83-4.67.55-10.12 0-20m0 20c-.87-5.98-.92-10.89 0-20m0 0c-.84-6.78 4.37-11.12 10-10m-10 10c-.62-7.24 4.97-11.28 10-10"/></g><text x="93.424" fill="#FFF" dominant-baseline="text-before-edge" font-family="Virgil, Segoe UI Emoji" font-size="16" style="white-space:pre" text-anchor="middle" transform="translate(116.576 480)">点击方法左侧火箭R字图标</text><g fill="none" stroke-linecap="round"><path stroke="#40c057" stroke-width=".5" d="M152.13 571.85s0 0 0 0m0 0s0 0 0 0m-.92 7.15c2.78-2.39 2.86-4.04 7.22-8.3m-7.22 8.3c2.15-1.55 3.95-3.85 7.22-8.3m-6.82 13.95c3.3-5.19 7.46-8.87 12.46-14.34m-12.46 14.34c4.91-4.45 8.48-9.83 12.46-14.34m-12.72 20.73c6.76-8.36 12.61-15.44 17.71-20.37m-17.71 20.37c3.18-4.7 7.36-9 17.71-20.37m-17.98 26.77c6.24-8.95 15.12-15.84 23.62-27.17m-23.62 27.17c8.77-9.98 14.79-19.35 23.62-27.17m-21.25 30.55c9.08-11.52 16.99-19.12 26.24-30.19m-26.24 30.19c7.52-9.05 13.98-17.33 26.24-30.19m-23.22 32.82c6.78-8.81 15.17-15.26 28.21-32.46m-28.21 32.46c7.96-9.36 15.01-16.81 28.21-32.46m-22.57 32.06c6.26-9.21 14-18.67 28.21-32.45m-28.21 32.45c9.76-10.43 17.49-21.76 28.21-32.45m-23.22 32.81c9.11-8.43 18.45-18.16 28.21-32.45m-28.21 32.45c10.52-13.14 21.78-24.7 28.21-32.45m-22.57 32.06c10.52-10.08 17.65-21.06 28.21-32.46m-28.21 32.46c9.15-10.41 16.94-19.66 28.21-32.46m-23.22 32.82c10.29-10.84 20.13-21.01 28.21-32.46m-28.21 32.46c6.68-7.97 14.07-17.08 28.21-32.46m-23.23 32.82c7.5-8.64 18.24-20.52 28.87-33.21m-28.87 33.21c6.92-9.85 15.54-18.24 28.87-33.21m-23.22 32.81c10.2-11.54 21.35-24.21 28.21-32.45m-28.21 32.45c10.83-11.57 20.89-24.33 28.21-32.45m-23.23 32.81c10.08-12.56 19.69-20.21 28.87-33.21m-28.87 33.21c6.48-8.58 15.07-17.93 28.87-33.21m-23.22 32.82c8.42-10.57 20.68-22.56 28.21-32.46m-28.21 32.46c10.34-11.58 19.73-22.62 28.21-32.46m-23.23 32.82c10.42-11.87 17.4-20.52 28.21-32.45m-28.21 32.45c10.47-12.87 23.16-26.71 28.21-32.45m-22.56 32.05c8.45-6.96 15.57-16.51 28.21-32.45m-28.21 32.45c10.55-12.28 19.81-23.31 28.21-32.45m-23.23 32.81c8.67-9.18 13.25-17.74 28.21-32.45m-28.21 32.45c5.51-6.62 12.32-14.54 28.21-32.45m-22.56 32.06c10.79-12.75 21.49-26.32 28.21-32.45m-28.21 32.45c7.73-7.44 14.07-16.07 28.21-32.45m-23.23 32.81c9.96-8.83 16.59-16.6 28.21-32.45m-28.21 32.45c9.41-11.84 20.19-24.08 28.21-32.45m-23.22 32.81c6.13-9.79 16.64-18.94 28.87-33.21m-28.87 33.21c7.96-8.89 15.58-16.91 28.87-33.21m-23.23 32.81c6.29-7.85 14.39-16.35 27.56-31.69m-27.56 31.69c6.07-9.25 14.12-17.15 27.56-31.69m-22.57 32.05c6.17-7.26 11.25-11 25.59-29.43m-25.59 29.43c10.25-10.74 19.03-23.5 25.59-29.43m-19.95 29.04c10.88-9.73 18.33-19.14 22.97-26.42m-22.97 26.42c5.55-5.81 9.96-11.94 22.97-26.42m-17.98 26.78c4.28-3.1 7.34-8.93 17.71-20.38m-17.71 20.38c3.82-4.73 9.38-10.04 17.71-20.38m-12.07 19.99c4.92-5.45 10.44-11.42 12.47-14.34m-12.47 14.34c5.04-6.69 9.92-10.87 12.47-14.34"/><path stroke="#FFF" d="M158 570c20.84-1.08 44.06-.12 101 0m-101 0c26.13-.48 50.39-.48 101 0m0 0c3.35.62 8.9 3.39 8 8m-8-8c4.98-2.07 10.03.52 8 8m0 0c.85 4.95-.19 8.77 0 16m0-16c.82 2.75.26 6.53 0 16m0 0c-.82 5.98-2.47 7.68-8 8m8-8c.35 3.15-2.33 7.05-8 8m0 0c-28.28 1.08-59.35-.35-101 0m101 0c-37.5.79-75.34-.45-101 0m0 0c-4.39.69-8.93-3.13-8-8m8 8c-4.94 1.66-9.82-3.35-8-8m0 0c-.3-2.32-1.4-7.81 0-16m0 16c.56-4.5-.26-9.76 0-16m0 0c.17-4.77 1.9-7.91 8-8m-8 8c-2.06-3.99 3.9-7.91 8-8"/></g><text x="48" fill="#FFF" dominant-baseline="text-before-edge" font-family="Virgil, Segoe UI Emoji" font-size="16" style="white-space:pre" text-anchor="middle" transform="translate(160.5 576)">点击发送按钮</text><g fill="none" stroke-linecap="round"><path stroke="#fa5252" stroke-width=".5" d="M12.66 112.31s0 0 0 0m0 0s0 0 0 0m-2.23 8.67c2.51-1.27 5.48-6.21 9.84-11.32m-9.84 11.32c3.01-2.52 5.26-5.65 9.84-11.32m-9.44 16.96c2.75-4.71 9.57-9.98 12.46-14.34m-12.46 14.34c4.99-5.23 8.72-9.34 12.46-14.34m-12.07 19.98c7.54-6.11 11.48-12.57 17.06-19.62m-17.06 19.62c3.98-5.93 10.57-12.14 17.06-19.62m-17.32 26.02c5.84-4.2 7.45-9.55 22.31-25.66m-22.31 25.66c4.12-5.03 9.59-10.58 22.31-25.66M10.7 145.06c9.92-11.35 22.27-25.09 28.21-32.46M10.7 145.06c9.34-9.46 17.66-19.02 28.21-32.46m-25.19 35.08c7.94-11.51 16.69-20.74 30.18-34.71m-30.18 34.71c10.37-11.26 20.21-23.46 30.18-34.71m-27.16 37.34c11.62-12.1 23.41-26.43 32.8-37.74m-32.8 37.74c9.39-10.86 20-22.74 32.8-37.74m-27.82 38.1c9.05-7.45 15.75-17.46 32.81-37.74m-32.81 37.74c10.89-11.11 20.16-23.93 32.81-37.74m-27.16 37.34c8.38-10.3 15.88-20.26 32.8-37.73m-32.8 37.73c8.12-9.36 18.81-19.66 32.8-37.73m-27.82 38.09C44.64 135.11 57.23 120 65.16 112.9m-32.81 37.73c12.31-14.02 22.18-26.4 32.81-37.73M38 150.24c11.45-13.21 25.35-25.62 32.14-36.98M38 150.24c8.96-10.34 18.66-20.66 32.14-36.98M42.98 150.6c12.5-13.34 22.41-23.41 32.81-37.74M42.98 150.6c6.41-8.04 14.44-16.03 32.81-37.74M48.63 150.2c6.18-8.98 15.59-19.62 32.14-36.98M48.63 150.2c13.25-13.56 24.84-27.6 32.14-36.98m-27.16 37.34c12.53-11.97 23.08-28.57 32.81-37.73m-32.81 37.73c7.55-9.06 15.86-17.01 32.81-37.73M58.6 150.92c8.39-12.78 19.61-24.73 32.8-37.73m-32.8 37.73c10.29-10.08 18.36-21.78 32.8-37.73m-27.16 37.34c11.01-11.41 19.98-23.93 32.81-37.74m-32.81 37.74c11.2-12.52 23.48-25.67 32.81-37.74m-27.82 38.1c11.07-12.3 24.49-26.11 32.8-37.74m-32.8 37.74c9.06-10.19 18.58-21.13 32.8-37.74m-27.16 37.34c13.51-13.52 25.19-31.18 32.81-37.73m-32.81 37.73c6.89-8.56 15.17-19.02 32.81-37.73m-27.82 38.09c7.88-8.13 11.68-15.33 32.8-37.73m-32.8 37.73c12.46-12.57 23.48-27.17 32.8-37.73M85.5 150.46c8.19-12.24 19.73-23.94 32.15-36.98M85.5 150.46c13.07-14.5 25.82-28.88 32.15-36.98m-27.16 37.34c7.89-11.73 18.68-18.7 34.77-40m-34.77 40c8.86-10.72 17.95-20.66 34.77-40m-29.13 39.6c7.71-9.28 13.74-14.27 31.49-36.22m-31.49 36.22c7.93-8.97 17.29-18.89 31.49-36.22m-26.5 36.58c7.24-8.9 16.67-19.84 29.52-33.96m-29.52 33.96c5.66-8.04 13.28-13.54 29.52-33.96m-24.53 34.32c4.73-7.91 13.11-15.68 24.27-27.92m-24.27 27.92c6.03-6.9 12.34-13.76 24.27-27.92m-18.63 27.53c7.57-5.91 11.5-13.55 19.03-21.89m-19.03 21.89c4.93-4.23 7.42-9.37 19.03-21.89m-14.04 22.25c6.19-3.67 10.11-8.34 13.78-15.85m-13.78 15.85c3.62-3.06 6.9-7.23 13.78-15.85m-8.8 16.21c2.23-2.89 2.96-2.93 9.19-10.57m-9.19 10.57c2.96-4.43 6.72-7.72 9.19-10.57"/><path stroke="#FFF" d="M20 110c26.16-.84 57.04 1.08 100 0m-100 0c28.43-.78 54.07-.66 100 0m0 0c5.81 1.37 9.67 2.07 10 10m-10-10c8.81 1.1 9.38 3.43 10 10m0 0c.65 6.66-1.36 10.54 0 20m0-20c-.69 4.71.53 8.04 0 20m0 0c.38 6.93-3.88 8.36-10 10m10-10c-1.22 6.79-3.49 7.94-10 10m0 0c-26.61 1.53-54.35-.31-100 0m100 0c-29.7-1-60.7-.79-100 0m0 0c-8.21-1.17-11.28-5.27-10-10m10 10c-6.51 1.99-11.6-2.66-10-10m0 0c-.45-4.46-1.68-11.03 0-20m0 20c-.59-8.02.6-15.32 0-20m0 0c.94-8.19 4.44-8.15 10-10m-10 10c-1.85-8.73 4.6-10.26 10-10"/></g><text x="40" fill="#FFF" dominant-baseline="text-before-edge" font-family="Virgil, Segoe UI Emoji" font-size="16" style="white-space:pre" text-anchor="middle" transform="translate(30 120)">配置项目名</text><g stroke-linecap="round"><path fill="none" stroke="#FFF" d="M210.26 49.94c-19.72 3.18-96.21 9.65-119.6 19.5-23.38 9.84-17.43 32.73-20.71 39.58m138.99-60.16c-19.73 3.31-95.58 11.66-118.88 21.82-23.3 10.16-17.84 32.89-20.9 39.14"/><path fill="none" stroke="#FFF" d="M64.77 88.98c.14 3.53.37 9.93 5.22 21.68m-4.67-23.27c1.5 5.29 1.66 8.92 4.53 23.12"/><path fill="none" stroke="#FFF" d="M79.88 91.35c-3.12 3.06-6.15 8.95-9.89 19.31m10.44-20.89c-1.72 4.72-4.76 7.84-10.58 20.74"/></g><g stroke-linecap="round"><path fill="none" stroke="#FFF" d="M210.96 49.33c16.68 3.21 74.95 10.5 98.29 20.75 23.35 10.25 34.93 34.28 41.78 40.75M210 51.6c17.14 3.34 78.11 10.5 101.57 20.05 23.47 9.56 32.7 30.98 39.23 37.28"/><path fill="none" stroke="#FFF" d="M325.84 92.48c6.88 6.3 13.68 8.67 23.15 16.38M325.98 93.2c5.8 3.82 11.49 7.79 24.13 15.79"/><path fill="none" stroke="#FFF" d="M341.2 80.71c3.39 9.15 6.63 14.25 7.79 28.15m-7.65-27.44c2.63 6.32 5.11 12.75 8.77 27.57"/></g><g stroke-linecap="round"><path fill="none" stroke="#FFF" d="M69.18 149.11c6.84 2.98 26.24 13.15 41.05 19.75 14.81 6.61 39.97 16.42 47.82 19.89m-87.09-37.49c6.77 3 24.09 12.1 38.45 18.54 14.36 6.45 39.77 17.19 47.7 20.14M129.67 189.52c5.62-.55 13.13-1.61 28.55 2.2m-26.92-1.77c8.65-.96 17.67-.92 25.92.92"/><path fill="none" stroke="#FFF" d="M136.26 173.02c4.22 3.23 10.2 6 21.96 18.7m-20.33-18.28c6.45 4.57 13.25 10.14 19.33 17.43"/></g><g stroke-linecap="round"><path fill="none" stroke="#FFF" d="M349.94 150.47c-9.89 3.35-42.7 12.61-58.96 19.11-16.26 6.51-32.07 16.56-38.58 19.92m96.06-39.82c-10 3.55-41.81 14.93-57.92 21.22-16.1 6.3-32.3 13.74-38.7 16.53"/><path fill="none" stroke="#FFF" d="M267.93 174.32c-6.59 3.89-10.11 7.95-14.78 12.12m14.21-13.72c-5.47 5.58-10.62 9.26-15.61 15.39"/><path fill="none" stroke="#FFF" d="M273.82 187.6c-8.48-.5-13.94-.81-20.67-1.16m20.1-.44c-7.5 1.21-14.58.55-21.5 2.11"/></g><g stroke-linecap="round"><path fill="none" stroke="#FFF" d="M212.807 230.43c-.5 6.72-1.8 32.59-2.29 38.98m1.02-39.8c-.75 6.44-1.47 31.16-1.93 37.89M204.517 248.97c2.06 6.13 3.28 12.68 3.22 20.15m-4.73-19.48c3.04 4.75 5.72 12.02 5.73 18.5"/><path fill="none" stroke="#FFF" d="M217.857 249.61c-3.11 5.92-7.06 12.22-10.12 19.51m8.61-18.83c-1.44 4.48-3.25 11.53-7.61 17.85"/></g><g stroke-linecap="round"><path fill="none" stroke="#FFF" d="M210.19 309.71c-16.64 10.06-82.66 49.57-99.44 59.68m98.08-60.88c-16.79 10.3-81.91 52.14-98.64 62.1"/><path fill="none" stroke="#FFF" d="M128.23 348.26c-7.19 6.2-11.97 16.69-16.68 20.47m17.84-21.05c-4.71 4.66-9.2 11.22-19.64 23.24"/><path fill="none" stroke="#FFF" d="M139.07 365.68c-10.84.14-19.4 4.54-27.52 3.05m28.68-3.62c-7.2.62-14.24 3.07-30.48 5.81"/></g><g stroke-linecap="round"><path fill="none" stroke="#FFF" d="M210.81 310.81c20.17 9.77 99.77 48.75 119.7 58.74m-120.73-59.37c20.09 9.87 100.05 50.9 120.05 60.67M301.38 368.22c5.69.48 15.44-.13 29.08 3.85m-30.45-4.52c6.63.43 11.63 1.21 30.43 3.79"/><path fill="none" stroke="#FFF" d="M310.59 349.88c3.42 5.32 10.78 9.49 19.87 22.19m-21.24-22.86c4.7 4.11 7.84 8.6 21.22 22.13"/></g><g stroke-linecap="round"><path fill="none" stroke="#FFF" d="M110.13 410.58c16.63 9.98 82.73 49.25 99.5 59.2m-100.94-60.46c16.46 10.25 82.85 51.48 99.8 61.89"/><path fill="none" stroke="#FFF" d="M178.42 464.5c8.52 3.56 17.6 4.03 31.23 6.3m-30.22-6.21c7.5 1.64 15.7 3.66 29.94 7.08"/><path fill="none" stroke="#FFF" d="M189.21 447.04c5.34 8.47 11.39 13.83 20.44 23.76m-19.43-23.66c4.55 6.22 9.93 12.8 19.15 24.53"/></g><g stroke-linecap="round"><path fill="none" stroke="#FFF" d="M325.432 410.51c-19.12 9.94-95.51 49.5-114.58 59.51m113.24-60.81c-19.24 10.2-94.86 52.48-113.74 62.36"/><path fill="none" stroke="#FFF" d="M229.402 450.52c-5.85 7.82-11.55 14.09-17.24 20.28m18.03-20.84c-7.19 7.14-14.59 15.42-20.34 21.16M239.202 468.55c-9 1.86-17.95 2.15-27.04 2.25m27.83-2.81c-10.76.62-21.72 2.36-30.14 3.13"/></g><g stroke-linecap="round"><path fill="none" stroke="#FFF" d="M210.32 509.02c.08 10.02-.37 50.29-.55 60.29m-.74-58.18c-.04 10.23-.78 49.58-.34 59.36"/><path fill="none" stroke="#FFF" d="M196.57 541.99c2.82 5.84 4.86 14.87 12.46 26.57m-10.35-26.35c2.64 7.03 4.52 12.45 9.92 28.07"/><path fill="#FFF" stroke="#FFF" d="M217.09 541.82c-2.13 5.93-5.04 15.01-8.06 26.74m10.17-26.53c-1.87 7-4.51 12.46-10.6 28.25"/></g></svg>