<svg xmlns="http://www.w3.org/2000/svg" width="540" height="700" viewBox="0 0 420 700"><path fill="#2A2A2A" d="M0 0h480v630H0z"/><g fill="none" stroke-linecap="round"><path stroke="#228be6" stroke-width=".5" d="M172.66 12.31s0 0 0 0m0 0s0 0 0 0m-2.23 8.67c1.4-3.17 3.82-4.41 9.84-11.32m-9.84 11.32c3.6-4.57 7.99-8.48 9.84-11.32m-9.44 16.96c1.34-4.59 3.81-6.55 12.46-14.34m-12.46 14.34c4.16-4.99 9.76-11.97 12.46-14.34m-12.07 19.98c4.3-8.16 14.42-14.18 17.06-19.62m-17.06 19.62c6.61-6.27 10.68-12.34 17.06-19.62m-17.32 26.02c9.42-7.93 17.63-17.56 22.31-25.66m-22.31 25.66c7.39-7.15 13.81-15.56 22.31-25.66M170.7 45.06c6.14-6.22 12.47-13.65 28.21-32.46M170.7 45.06c6.76-6.98 11.53-12.43 28.21-32.46m-25.19 35.08c8.68-7.66 15.94-19.66 30.18-34.71m-30.18 34.71c11.37-13.75 23.04-26.71 30.18-34.71m-27.16 37.34c8.11-7.68 17.65-19.92 32.8-37.74m-32.8 37.74c11.47-13.07 23.73-27.86 32.8-37.74m-27.82 38.1c8.59-13.65 19.28-22.59 32.81-37.74m-32.81 37.74c12.29-13.22 24.73-27.93 32.81-37.74m-27.16 37.34c11.41-14.84 22.33-26.06 32.8-37.73m-32.8 37.73c6.91-6.75 12.64-15.59 32.8-37.73m-27.82 38.09c9-11.45 19.52-22.93 32.81-37.73m-32.81 37.73c10.93-11.06 19.86-23.28 32.81-37.73M198 50.24c8.56-8.79 17.08-21.8 32.14-36.98M198 50.24c7.78-9.3 13.98-16.53 32.14-36.98M202.98 50.6c12-12.96 21.54-23.87 32.81-37.74M202.98 50.6c10.96-11.74 20.3-22.22 32.81-37.74M208.63 50.2c12.4-12.73 24.2-29.27 32.14-36.98M208.63 50.2c9.61-11.27 19.47-23.06 32.14-36.98m-27.16 37.34c13.97-15.37 23.13-27.51 32.81-37.73m-32.81 37.73c11.5-14.06 24.21-28.96 32.81-37.73M218.6 50.92c8.01-8.28 15.37-14.5 32.8-37.73m-32.8 37.73c8.74-9.75 15.75-17.64 32.8-37.73m-27.16 37.34c10.98-10.19 20.3-24.5 32.81-37.74m-32.81 37.74c8.19-9.84 18.21-20.91 32.81-37.74m-27.82 38.1c12.09-14.67 26.21-30.19 32.8-37.74m-32.8 37.74c13.61-15.57 26.09-29.87 32.8-37.74m-27.16 37.34c8.77-9.5 15.22-19.61 32.81-37.73m-32.81 37.73c13.12-15.21 25.45-29.59 32.81-37.73m-27.82 38.09c10.96-14.17 22.9-27.56 32.8-37.73m-32.8 37.73c8.01-10.12 17.66-20.13 32.8-37.73M245.5 50.46c9.33-6.87 16.74-17.14 32.15-36.98M245.5 50.46c7.81-9.81 16.6-17.41 32.15-36.98m-27.16 37.34c10.62-13.17 26.24-28.82 34.77-40m-34.77 40c12.78-12.87 23.4-26.61 34.77-40m-29.13 39.6c10.25-9.8 19.37-21.59 31.49-36.22m-31.49 36.22c9.09-9.48 16.56-20.59 31.49-36.22m-26.5 36.58c10.83-11.22 17.31-21.69 29.52-33.96m-29.52 33.96c11.28-13.46 23.4-26.19 29.52-33.96m-24.53 34.32c6.08-6.16 13.14-14.8 24.27-27.92m-24.27 27.92c8.94-11.55 17.99-22.32 24.27-27.92m-18.63 27.53c5.76-4.62 10.84-11.39 19.03-21.89m-19.03 21.89c7.18-8.85 13.9-16.55 19.03-21.89m-14.04 22.25c3.36-5.97 8.21-11.15 13.78-15.85m-13.78 15.85c5.16-6.52 11.24-13.2 13.78-15.85m-8.8 16.21c3.58-2.84 5.43-5.5 9.19-10.57m-9.19 10.57c3.89-3.7 6.94-7.57 9.19-10.57"/><path stroke="#FFF" d="M180 10c38.89.11 77.89 1.02 100 0m-100 0c40.07-1.55 79.35.3 100 0m0 0c7.69-1.4 11.51 2.59 10 10m-10-10c5.37-2.29 8.15 3.31 10 10m0 0c-.27 8.16-.3 13.31 0 20m0-20c-.1 7.47-.18 14.03 0 20m0 0c-1.99 5.78-3.84 8.98-10 10m10-10c2.1 8.37-5.54 11.76-10 10m0 0c-27.52-1.81-53.46-1.53-100 0m100 0c-22.53-.07-44.78.31-100 0m0 0c-7.72-.91-10.17-5.27-10-10m10 10c-6.04 1.98-8.38-5.24-10-10m0 0c-1.93-8.98-1.46-13.57 0-20m0 20c.93-6.52-.61-12.86 0-20m0 0c-.66-6.16 1.6-8.92 10-10m-10 10c-1.34-7.71 1.11-8 10-10"/></g><text x="22.68" fill="#FFF" dominant-baseline="text-before-edge" font-family="Virgil, Segoe UI Emoji" font-size="16" style="white-space:pre" text-anchor="middle" transform="translate(207.32 20)">Start</text><g fill="none" stroke-linecap="round"><path stroke="#fa5252" stroke-width=".5" d="M312.66 112.31s0 0 0 0m0 0s0 0 0 0m-2.23 8.67c4.03-3.43 3.92-6.36 9.84-11.32m-9.84 11.32c1.98-2.2 5.35-6.01 9.84-11.32m-9.44 16.96c3.82-3.48 8.38-9.75 12.46-14.34m-12.46 14.34c2.88-4.24 6.51-6.58 12.46-14.34m-12.07 19.98c3.35-6.18 6.75-8.95 17.06-19.62m-17.06 19.62c5.06-4.82 10.78-11.14 17.06-19.62m-17.32 26.02c7.8-10.02 16.99-20.12 22.31-25.66m-22.31 25.66c4.47-6.15 9.02-11.11 22.31-25.66m-22.57 32.06c10.15-14.55 21.36-25.83 28.21-32.46m-28.21 32.46c10.37-10.42 19.62-21.72 28.21-32.46m-25.19 35.08c8.63-10.61 16.69-16.32 30.18-34.71m-30.18 34.71c6.81-7.16 13.46-15.14 30.18-34.71m-27.16 37.34c8.07-12 18.84-22.4 32.8-37.74m-32.8 37.74c11.69-12.47 20.84-23.94 32.8-37.74m-27.82 38.1c12.8-16.5 26.81-27.63 32.81-37.74m-32.81 37.74c10-12.88 22.26-25.09 32.81-37.74m-27.16 37.34c11.31-12.97 22.75-28.22 32.8-37.73m-32.8 37.73c10.36-10.79 21.32-23.35 32.8-37.73m-27.82 38.09c7.96-10.78 18.8-22.83 32.81-37.73m-32.81 37.73c10.04-10.68 18.95-22.61 32.81-37.73M338 150.24c9.89-13.85 23.33-26.33 32.14-36.98M338 150.24c8.68-8.15 15.99-17.5 32.14-36.98m-27.16 37.34c5.89-7.37 14.38-14.8 32.81-37.74m-32.81 37.74c8.31-11.41 18.26-21.11 32.81-37.74m-27.16 37.34c6.07-6.6 13.74-15.53 32.14-36.98m-32.14 36.98c9.85-12.27 21.19-24.48 32.14-36.98m-27.16 37.34c12.48-15.4 24.92-26.96 32.81-37.73m-32.81 37.73c9.83-10.81 18.86-20.11 32.81-37.73m-27.82 38.09c9-11.54 17.76-19.62 32.8-37.73m-32.8 37.73c11.25-13.28 22.08-25.16 32.8-37.73m-27.16 37.34c10.04-9.95 15.46-18.37 32.81-37.74m-32.81 37.74c6.27-6.64 14.26-14.8 32.81-37.74m-27.82 38.1c14.24-15.75 25.52-31.86 32.8-37.74m-32.8 37.74c8.58-10.09 19.1-21.31 32.8-37.74m-27.16 37.34c9.72-12.49 24.91-28.32 32.81-37.73m-32.81 37.73c11.73-14.18 22.94-26.46 32.81-37.73m-27.82 38.09c6.41-7.36 17.43-17.92 32.8-37.73m-32.8 37.73c9.51-10.87 19.77-23.84 32.8-37.73m-27.16 37.34c10.33-14.13 24.89-27.2 32.15-36.98m-32.15 36.98c9.79-11.2 21.16-23.62 32.15-36.98m-27.16 37.34c12.41-12.43 23.97-25.87 34.77-40m-34.77 40c8.73-9.65 16.79-18.08 34.77-40m-29.13 39.6c10.63-12.87 18.38-20.63 31.49-36.22m-31.49 36.22c9.99-10.39 18.72-22.34 31.49-36.22m-26.5 36.58c10.22-10.97 22.7-25.34 29.52-33.96m-29.52 33.96c5.06-7.51 11.46-14.14 29.52-33.96m-24.53 34.32c6.85-7.97 13.62-16.36 24.27-27.92m-24.27 27.92c9.71-11.1 18.44-21.57 24.27-27.92m-18.63 27.53c3.06-6.53 10.44-12.87 19.03-21.89m-19.03 21.89c4.68-4.73 9.22-9.74 19.03-21.89m-14.04 22.25c3.44-2.98 7.26-9.82 13.78-15.85m-13.78 15.85c3.25-4.32 7.14-8.02 13.78-15.85m-8.8 16.21c1.96-3.08 7.21-7.22 9.19-10.57m-9.19 10.57c3.07-3.07 5.36-4.85 9.19-10.57"/><path stroke="#FFF" d="M320 110c39.26 1.75 76.51-.85 100 0m-100 0c31.62-1.12 62.73-.12 100 0m0 0c7.54-1.11 11.32 5.15 10 10m-10-10c7.34.54 9.01 3.15 10 10m0 0c-.94 3.58-.3 9.28 0 20m0-20c-.53 6.1-.34 13.55 0 20m0 0c.78 7.35-2.9 11.84-10 10m10-10c2.15 5.09-5.48 7.74-10 10m0 0c-33.14-2.35-67.67.2-100 0m100 0c-27.02-.95-55.2-.95-100 0m0 0c-7.99-.57-10.64-3.24-10-10m10 10c-8.16 2.16-10.18-4.14-10-10m0 0c-1.53-4.94.78-9.55 0-20m0 20c-.01-8.86-.12-15.79 0-20m0 0c-.88-5 4.52-9.62 10-10m-10 10c-1.63-8.42 3.26-8.21 10-10"/></g><text x="30.648" fill="#FFF" dominant-baseline="text-before-edge" font-family="Virgil, Segoe UI Emoji" font-size="16" style="white-space:pre" text-anchor="middle" transform="translate(339.352 120)">Add env</text><g fill="none" stroke-linecap="round"><path stroke="#12b886" stroke-width=".5" d="M172 191.74s0 0 0 0m0 0s0 0 0 0m-.92 7.15c3.3-3.73 5.83-7.49 7.22-8.3m-7.22 8.3c2.7-2.51 4.8-5.52 7.22-8.3m-6.83 13.94c1.86-4.59 6.84-8.21 11.81-13.58m-11.81 13.58c4.71-5.98 8.65-11.69 11.81-13.58m-11.41 19.22c8.21-5.71 10.98-16.21 17.06-19.62m-17.06 19.62c5.3-6.17 9.87-12.59 17.06-19.62m-17.32 26.02c9.08-11.79 16.35-19.15 22.3-25.66m-22.3 25.66c5.72-6.94 13.18-14.32 22.3-25.66m-19.94 29.04c6.86-6.88 15.95-15.07 25.59-29.43m-25.59 29.43c5.17-5.69 9.75-11.5 25.59-29.43m-19.95 29.04c10.45-10.14 18.58-21.19 24.93-28.68m-24.93 28.68c8.12-9.57 18.17-21.89 24.93-28.68m-19.94 29.04c5.7-7.89 11.56-14.12 25.59-29.44m-25.59 29.44c7.52-8.11 12.58-15.16 25.59-29.44m-19.95 29.04c5.71-6.93 11.58-16.38 24.93-28.68m-24.93 28.68c5.6-7.5 12.47-14.24 24.93-28.68m-19.94 29.04c7.65-10.35 16.23-19.39 24.93-28.68m-24.93 28.68c8.9-10.48 17.98-21.44 24.93-28.68m-19.29 28.29c7-8.7 11.96-16.9 24.93-28.68m-24.93 28.68c7.09-9.1 14.74-16.84 24.93-28.68m-19.94 29.04c7.57-6.49 11.9-13.44 24.93-28.68m-24.93 28.68c9.73-11.09 19.53-21.23 24.93-28.68m-19.29 28.28c5.98-7.34 11.81-10.62 24.93-28.68m-24.93 28.68c8.07-9.58 15.66-19.13 24.93-28.68m-19.94 29.04c5.01-6.79 13.41-15.24 24.93-28.68m-24.93 28.68c6.53-6.56 12.73-13.77 24.93-28.68m-19.29 28.29c7.64-13.03 19.99-20.91 24.93-28.68m-24.93 28.68c5.26-5.7 10.78-12.28 24.93-28.68m-19.94 29.04c6.34-9.6 12.8-16.75 24.93-28.68m-24.93 28.68c7.6-7.6 12.99-15.89 24.93-28.68m-19.94 29.04c7.19-7.76 14.79-15.27 25.58-29.44m-25.58 29.44c7.87-9.88 17.46-20.07 25.58-29.44m-19.94 29.04c7.97-12.56 18.88-20.47 24.93-28.68m-24.93 28.68c6.93-6.66 12.79-13.67 24.93-28.68m-19.94 29.04c10.01-10.07 17.49-17.83 25.58-29.43m-25.58 29.43c7.69-9.39 16.74-19.57 25.58-29.43m-19.94 29.04c5.56-7.01 13.91-15.51 24.93-28.68m-24.93 28.68c8.73-9.1 16.77-19.37 24.93-28.68m-19.94 29.04c5.94-8.29 14.14-16.6 24.93-28.68m-24.93 28.68c8.42-9.45 15.13-17.03 24.93-28.68m-19.29 28.28c9.47-10.26 20.53-21.44 24.93-28.67m-24.93 28.67c5.73-6.5 11.5-13 24.93-28.67M264 220.03c4.36-6.51 13.14-15.35 24.27-27.92M264 220.03c7.03-6.84 13.33-14.97 24.27-27.92m-18.63 27.53c5.9-7.53 11.54-12.32 20.99-24.15m-20.99 24.15c6.31-6.58 12-14.19 20.99-24.15m-16 24.51c6.94-8.28 11.22-12.88 16.4-18.87M274.63 220c4.9-5.92 11.03-11.76 16.4-18.87m-11.42 19.23c4.72-5.48 6.01-9.38 11.16-12.83m-11.16 12.83c3.16-3.4 5.37-6.14 11.16-12.83m-6.82 13.95c1.72-2.58 3.83-5.19 6.56-7.55m-6.56 7.55c1.99-2.94 4.32-5.64 6.56-7.55"/><path stroke="#FFF" d="M177.5 190c28.84-1.01 60.51-2.49 105 0m-105 0c35.22-.53 70.51.47 105 0m0 0c3.12 1.56 8.39 2.58 7.5 7.5m-7.5-7.5c4.92-.4 5.56 1.11 7.5 7.5m0 0c1.19 6.74.59 10.14 0 15m0-15c-.6 3.21.63 7.35 0 15m0 0c-1.43 4.46-1.28 6.85-7.5 7.5m7.5-7.5c-.88 6.54-3.28 8.94-7.5 7.5m0 0c-29.03 2.4-57.49-.44-105 0m105 0c-35.18.48-68.59-.57-105 0m0 0c-6.87.22-9.01-4.27-7.5-7.5m7.5 7.5c-4.1-1.25-6.5-3.85-7.5-7.5m0 0c-.54-3.5.55-8.79 0-15m0 15c-.3-4.46.87-7.44 0-15m0 0c.68-4.23.99-8.08 7.5-7.5m-7.5 7.5c-.64-4.28 2.63-8.48 7.5-7.5"/></g><text x="42.632" fill="#FFF" dominant-baseline="text-before-edge" font-family="Virgil, Segoe UI Emoji" font-size="16" style="white-space:pre" text-anchor="middle" transform="translate(187.368 195)">Set domain</text><g fill="none" stroke-linecap="round"><path stroke="#fab005" stroke-width=".5" d="M113.33 272.89s0 0 0 0m0 0s0 0 0 0m-2.89 9.42c4.02-5.46 6.68-10.47 9.84-11.32m-9.84 11.32c4.38-3.58 6.69-8.98 9.84-11.32m-10.1 17.72c4.83-5.56 8.17-11.71 14.43-16.61m-14.43 16.61c5.84-7.41 10.76-12.57 14.43-16.61m-14.04 22.25c4.33-5.51 11.84-11.76 19.69-22.64m-19.69 22.64c5.32-5.72 11.81-12.05 19.69-22.64m-19.95 29.04c5.13-5.22 9.03-10.79 24.93-28.68m-24.93 28.68c9.82-10.24 18.39-20.95 24.93-28.68m-24.53 34.32c9.09-10.8 21.88-27.05 30.18-34.72m-30.18 34.72c7.21-8.84 14.42-16.87 30.18-34.72m-29.79 40.36c10.78-11.38 16.59-20.5 34.77-40m-34.77 40c8.64-9.92 17.21-21.14 34.77-40m-32.4 43.38c8.22-11.61 18.93-21.63 38.05-43.77m-38.05 43.77c12.12-14.93 24.82-29.12 38.05-43.77m-35.69 47.15c14.36-17.09 29.12-35.1 40.67-46.79m-40.67 46.79c11.11-13.13 21.21-26 40.67-46.79m-36.34 47.91c11.6-15.19 24.25-27.59 41.33-47.55m-41.33 47.55c10.6-11.63 19.84-23.25 41.33-47.55m-36.34 47.91c16.42-18.72 32.97-35.52 41.98-48.3m-41.98 48.3c9.03-11.06 18.33-20.04 41.98-48.3m-36.34 47.9c13.34-15.96 25.73-31.84 41.33-47.54m-41.33 47.54c10.33-12 22.03-24.86 41.33-47.54m-36.34 47.9c11.07-10.93 21.55-23.12 41.98-48.3m-41.98 48.3c15.06-19.62 32.81-36.87 41.98-48.3m-36.34 47.91c8.65-9.28 17.77-20.26 41.33-47.55m-41.33 47.55c11.27-14.05 22.75-27.11 41.33-47.55m-36.34 47.91c13.09-12.82 21.76-26.98 41.98-48.3m-41.98 48.3c12.16-13.62 24.62-27.34 41.98-48.3m-36.34 47.9c12.39-15.98 28.28-32.58 41.33-47.54m-41.33 47.54c14.85-19.06 31.36-35.74 41.33-47.54m-36.34 47.9c11.98-11.07 21.78-22.87 41.98-48.3m-41.98 48.3c14.55-15.8 27.88-30.71 41.98-48.3m-37 48.66c12.44-15.27 27.5-32.13 41.99-48.3m-41.99 48.3c10.37-12.25 22.29-25.41 41.99-48.3m-36.34 47.91c14.77-15.05 28.12-32.48 41.98-48.3m-41.98 48.3c11.54-13.93 24.01-27.71 41.98-48.3m-37 48.66c14.4-16.09 25.42-28.48 41.99-48.3m-41.99 48.3c16.26-17.93 33.04-36.46 41.99-48.3m-36.34 47.9c9.77-11.08 19.62-22.13 41.98-48.3m-41.98 48.3c9.9-12.28 21.94-25.49 41.98-48.3m-37 48.66c12.22-11.59 22.96-25.71 41.99-48.3m-41.99 48.3c10.97-12.62 21.52-23.9 41.99-48.3m-36.34 47.91c12.61-13.16 24-28.38 41.98-48.3m-41.98 48.3c14.68-17.13 28.32-32.65 41.98-48.3m-37 48.66c12.58-15.05 27.71-30.02 41.99-48.3m-41.99 48.3c14.11-15.91 25.88-30.86 41.99-48.3m-36.34 47.91c10.82-12.09 19.53-22.59 41.98-48.31m-41.98 48.31c13.14-15.66 26.82-31.58 41.98-48.31m-37 48.67c13.57-18.27 28.6-35.65 41.99-48.31m-41.99 48.31c11.89-13.98 24.78-28.25 41.99-48.31m-36.34 47.91c13.73-17.51 27.5-31.83 41.98-48.3m-41.98 48.3c8.3-10.17 16.74-20.92 41.98-48.3m-37 48.66c10.03-10.04 20.98-22.41 41.99-48.3m-41.99 48.3c8.77-10.53 17.31-18.79 41.99-48.3m-36.34 47.91c16.82-18.11 30.11-33.68 41.33-47.55m-41.33 47.55c11.39-12.15 21.4-24.19 41.33-47.55m-36.35 47.91c11.31-12.43 21.86-25.82 41.99-48.31m-41.99 48.31c16.78-19.03 32-36.54 41.99-48.31m-36.34 47.91c10.49-10.13 21.7-23.7 41.33-47.55m-41.33 47.55c15.58-19.92 33.2-38.36 41.33-47.55m-36.35 47.91c8.78-9.12 15.17-20.34 41.99-48.3m-41.99 48.3c10.85-13.3 22.09-26.23 41.99-48.3m-36.34 47.91c14.22-17.11 29.66-35.58 41.33-47.55m-41.33 47.55c16.44-17.9 31.86-36.79 41.33-47.55m-36.35 47.91c15.24-17.05 29.38-32.1 41.99-48.3m-41.99 48.3c14.99-16.27 29.38-33.83 41.99-48.3m-37 48.66c13.74-15.57 27.03-30.3 41.99-48.3m-41.99 48.3c15.83-18.78 31.77-38 41.99-48.3m-36.35 47.9c12.51-14.82 26.92-34.2 41.99-48.3m-41.99 48.3c13.17-14.53 25.38-29.39 41.99-48.3m-37 48.66c13.34-18.21 29.75-37.55 41.99-48.3m-41.99 48.3c14.06-16.93 28.01-32.45 41.99-48.3m-36.35 47.91c13.53-11.76 24.04-27.25 41.99-48.3m-41.99 48.3c15.7-16.79 30.66-35.86 41.99-48.3m-37 48.66c13.96-16.25 30.45-34.95 41.99-48.3m-41.99 48.3c11.01-13.24 23.76-26.98 41.99-48.3m-36.35 47.9c11.39-9.52 19.24-22.44 41.99-48.3m-41.99 48.3c9.16-11.09 18.23-21.58 41.99-48.3m-37 48.66c16.26-18.71 29.86-36.04 41.99-48.3m-41.99 48.3c16.33-17.97 33.37-37.83 41.99-48.3m-36.35 47.91a707.052 707.052 0 0 1 41.99-48.3m-41.99 48.3c15.86-16.94 29.93-34.78 41.99-48.3m-37 48.66c11.19-14.66 22.59-28.61 41.99-48.3m-41.99 48.3c9.73-11.61 21.49-23.86 41.99-48.3m-36.35 47.9c9.85-9.35 20.04-21.14 41.99-48.3m-41.99 48.3c8.6-9.33 17.45-19.94 41.99-48.3m-37 48.66c11.22-12.32 25.01-29.49 40.68-46.79m-40.68 46.79c14.06-16.9 28.66-34.58 40.68-46.79m-35.04 46.4c10.02-10.09 21.16-22.34 38.71-44.53m-38.71 44.53c9.58-11.09 18.55-22.55 38.71-44.53m-33.72 44.89c12.49-15.59 24.32-28.91 36.08-41.51m-36.08 41.51c12.6-15.45 27.37-30.75 36.08-41.51m-30.44 41.12c12.53-13.18 25.06-25.66 30.18-34.72m-30.18 34.72c10.5-11.78 19.98-24.07 30.18-34.72m-25.19 35.08c7.54-7.61 9.87-13.55 25.59-29.44m-25.59 29.44c6.78-8.26 13.91-16.32 25.59-29.44m-19.95 29.04c3.96-8.19 13.76-14.6 19.69-22.64m-19.69 22.64c7.61-8.55 13.87-15.19 19.69-22.64m-14.7 23c5.28-5.16 11.54-10.83 15.09-17.36m-15.09 17.36c3.48-4.05 6.39-6.62 15.09-17.36m-11.41 19.23c2.47-3.79 4.9-6.61 9.84-11.32m-9.84 11.32c2.32-3.15 5.49-6.33 9.84-11.32"/><path stroke="#FFF" d="M122.5 270c44.56-1.79 86.07.75 215 0m-215 0c58.88.76 120.04.58 215 0m0 0c8.42-.69 13.82 2.19 12.5 12.5M337.5 270c9.12-2.22 10.42 4.29 12.5 12.5m0 0c-.06 10.88 2.1 20.65 0 25m0-25c.63 8.39-.55 18.48 0 25m0 0c-.69 10.17-3.87 11.37-12.5 12.5m12.5-12.5c.25 7.24-3.94 13.07-12.5 12.5m0 0c-78.44-1.99-156.05-.26-215 0m215 0c-61.42-.73-123.46-.94-215 0m0 0c-9.14-.13-10.81-2.36-12.5-12.5m12.5 12.5c-9.06.87-12.58-1.98-12.5-12.5m0 0c-.88-8.26-2.14-17.81 0-25m0 25c.58-9.22-.91-20.94 0-25m0 0c-1.74-8.62 3.25-10.6 12.5-12.5M110 282.5c.71-10.36 4.81-11.91 12.5-12.5"/></g><text x="85.368" fill="#FFF" dominant-baseline="text-before-edge" font-family="Virgil, Segoe UI Emoji" font-size="16" style="white-space:pre" text-anchor="middle" transform="translate(144.632 285)">Return main interface</text><g fill="none" stroke-linecap="round"><path stroke="#4c6ef5" stroke-width=".5" d="M12.66 372.31s0 0 0 0m0 0s0 0 0 0m-2.23 8.67c2.59-3.83 4.74-5.73 9.84-11.32m-9.84 11.32c2.16-3.72 6.01-6.54 9.84-11.32m-9.44 16.96c5.98-5.16 11.28-11.47 12.46-14.34m-12.46 14.34c5.24-4.44 9.87-11.49 12.46-14.34m-12.07 19.98c5.86-7.05 11.35-11.01 17.06-19.62m-17.06 19.62c4.28-4.69 8.09-8.94 17.06-19.62m-17.32 26.02c10.19-9.42 14.94-19.59 22.31-25.66m-22.31 25.66c5.49-7.16 11.79-13.61 22.31-25.66M10.7 405.06c8.57-12.7 19.42-22.9 28.21-32.46M10.7 405.06c7.11-8.45 12.93-16.28 28.21-32.46m-25.19 35.08c9.3-11.42 20.23-21.7 30.18-34.71m-30.18 34.71c9.6-11.62 19.92-22.54 30.18-34.71m-27.16 37.34c9.33-11.47 17.75-21.37 32.8-37.74m-32.8 37.74c9.41-12.2 19.09-22.73 32.8-37.74m-27.82 38.1c12.75-16.02 28.3-31.14 32.81-37.74m-32.81 37.74c12.54-14.67 25.05-28.12 32.81-37.74m-27.16 37.34c9.14-10.15 20.23-23.08 32.8-37.73m-32.8 37.73c12.43-14.49 26.93-29.86 32.8-37.73m-27.82 38.09c10.29-13.57 20.69-25.18 32.81-37.73m-32.81 37.73c7.02-7.29 13.19-15.59 32.81-37.73M38 410.24c8.96-8.67 16.67-16.77 32.8-37.74M38 410.24c12.17-14.18 26.75-30.15 32.8-37.74m-27.82 38.1c11.89-12.66 22.12-24.64 32.81-37.74M42.98 410.6c10.71-13.45 22.44-26 32.81-37.74M48.63 410.2c10.07-12.5 18.84-23.35 32.8-37.73m-32.8 37.73c11.39-12.42 22.71-24.26 32.8-37.73m-27.82 38.09c7.35-7.92 14.07-15.26 32.81-37.73m-32.81 37.73c10.95-13.35 24.28-27.43 32.81-37.73m-27.16 37.34c12-11.76 23.25-25.61 32.14-36.98m-32.14 36.98c10.04-11.44 21.02-23.04 32.14-36.98m-27.16 37.34c12.55-13.35 23.48-27.94 32.81-37.74m-32.81 37.74c11.74-12.43 22.6-25.52 32.81-37.74m-27.82 38.1c12.06-12.82 21.73-24.45 32.8-37.74m-32.8 37.74c7.66-8.93 15.44-17.85 32.8-37.74m-27.16 37.34c6.96-10.2 17.58-17.58 32.81-37.73m-32.81 37.73c7.62-7.54 14.65-17.3 32.81-37.73m-27.82 38.09c9-9.69 18.02-23.45 32.8-37.73m-32.8 37.73c9.27-9.87 17.56-20.86 32.8-37.73M85.5 410.46c12.51-12.85 22.53-25.14 32.81-37.74M85.5 410.46c6.44-7.86 14.21-16.94 32.81-37.74m-27.82 38.1c7.32-7.82 12.56-15.97 32.8-37.74m-32.8 37.74c11.45-14.15 24.54-28.14 32.8-37.74m-27.16 37.34c12.52-12.47 25.14-28.65 32.81-37.73m-32.81 37.73c6.32-9.11 13.57-17.57 32.81-37.73m-27.82 38.09c10.9-13.18 23.37-27.77 32.8-37.73m-32.8 37.73c11.21-13.07 22.17-24.79 32.8-37.73m-27.16 37.34c11.02-14.88 22.94-27.24 32.15-36.98m-32.15 36.98c6.48-7 12.65-15.42 32.15-36.98m-27.16 37.34c8.02-11.48 19.23-22.97 32.8-37.74m-32.8 37.74c12.19-14.45 23.78-29.14 32.8-37.74m-27.16 37.35c13.93-13.05 25.52-30.47 32.15-36.99m-32.15 36.99c6.69-8.64 15.66-16.09 32.15-36.99m-27.16 37.35c6.95-9.6 16.44-18.14 32.8-37.74m-32.8 37.74c12.39-14.22 24.9-27.92 32.8-37.74m-27.81 38.1c9.02-10.62 17.07-17.73 32.8-37.74m-32.8 37.74c6.42-8.77 14.39-16.28 32.8-37.74m-27.16 37.34c12.8-11.45 22.18-24.14 32.8-37.73m-32.8 37.73c10.12-11.98 21.69-26.7 32.8-37.73M138 411.04c13.83-16.67 25.55-30.76 32.8-37.73M138 411.04c10.71-12.97 21.8-24.16 32.8-37.73m-27.16 37.34c10.52-12.29 19.65-21.12 32.8-37.74m-32.8 37.74c8.07-8.98 15.14-18.54 32.8-37.74m-27.81 38.1c9.27-10.38 20.56-23.29 32.8-37.74m-32.8 37.74c10.92-12.12 20.59-22.39 32.8-37.74m-27.16 37.34c7.87-9.58 16.59-15.39 32.8-37.73m-32.8 37.73c12.61-15.03 24.75-27.75 32.8-37.73m-27.81 38.09c11.97-13.27 19.4-23.2 30.18-34.71m-30.18 34.71c7.1-8.25 13.83-16.44 30.18-34.71m-24.54 34.32c10.06-12.61 18.87-22.05 24.93-28.68m-24.93 28.68c6.83-8.79 15.09-17.91 24.93-28.68m-19.94 29.04c7.15-6.5 10.75-10.3 19.68-22.64m-19.68 22.64c5.36-5.7 8.45-9.47 19.68-22.64m-14.69 23c5.46-4.33 8.59-12.18 15.08-17.36m-15.08 17.36c2.93-2.85 5.36-7.81 15.08-17.36m-9.44 16.96c3.7-2.95 4.92-7.16 9.18-10.56m-9.18 10.56c2.83-3.85 6.04-6.1 9.18-10.56"/><path stroke="#FFF" d="M20 370c47.29-.96 95.69.59 160 0m-160 0c48.59.75 95.3.24 160 0m0 0c7.44-.94 8.99 3.06 10 10m-10-10c5.6-.47 11.41 3.75 10 10m0 0c-.5 7.06-.19 11.7 0 20m0-20c-.85 6.37-.5 14.82 0 20m0 0c-1.5 5.2-2.05 10.22-10 10m10-10c2.19 5.19-2.99 8.75-10 10m0 0c-46.8-1.59-96.7.6-160 0m160 0c-44.65-.13-88.96-.51-160 0m0 0c-7.27 1.5-8.97-5.02-10-10m10 10c-5.15 1.94-8.31-4.31-10-10m0 0c-.57-8.61.93-14.64 0-20m0 20c-.48-7.13-.77-15.68 0-20m0 0c-.01-8.48 3.13-9.14 10-10m-10 10c-1.05-6.87 3.24-11.59 10-10"/></g><text x="55.608" fill="#FFF" dominant-baseline="text-before-edge" font-family="Virgil, Segoe UI Emoji" font-size="16" style="white-space:pre" text-anchor="middle" transform="translate(44.392 380)">Select project</text><g fill="none" stroke-linecap="round"><path stroke="#4c6ef5" stroke-width=".5" d="M292.66 372.31s0 0 0 0m0 0s0 0 0 0m-2.23 8.67c3.42-2.96 5.58-4.18 9.84-11.32m-9.84 11.32c3.43-4.15 5.76-6.4 9.84-11.32m-9.44 16.96c4.55-3.19 6.55-9.09 12.46-14.34m-12.46 14.34c4.29-4.56 9.65-10.74 12.46-14.34m-12.07 19.98c1.92-5.11 6.05-8.39 17.06-19.62m-17.06 19.62c4.75-5.46 9.44-11.15 17.06-19.62m-17.32 26.02c9.07-10.72 16.36-19.95 22.31-25.66m-22.31 25.66c4.87-7.05 11.91-14.09 22.31-25.66m-22.57 32.06c7.05-6.86 13.86-14.27 28.21-32.46m-28.21 32.46c7.74-8.3 15.58-18.53 28.21-32.46m-25.19 35.08c7.18-9.4 15.63-17.59 30.18-34.71m-30.18 34.71c8.93-10.54 20.08-22.01 30.18-34.71m-27.16 37.34c10.48-10.71 18.71-17.75 32.8-37.74m-32.8 37.74c12.88-13.64 24.9-29.43 32.8-37.74m-27.82 38.1c11.68-13.43 22.27-23.07 32.81-37.74m-32.81 37.74c12.39-12.89 22.99-26.58 32.81-37.74m-27.16 37.34c8.98-11.59 17.31-21.97 32.8-37.73m-32.8 37.73c6.67-8.58 13.26-16.4 32.8-37.73m-27.82 38.09c10.97-10.56 23.07-26.04 32.81-37.73m-32.81 37.73c7.85-8.69 14.18-16.51 32.81-37.73M318 410.24c9.52-10.7 18.88-22.52 32.8-37.74M318 410.24c8.77-10.18 17.85-20.57 32.8-37.74m-27.82 38.1c11.57-14.82 26.4-31.15 32.81-37.74m-32.81 37.74c10.17-10.33 17.76-21.32 32.81-37.74m-27.16 37.34c6.16-6.47 15.24-15.83 32.8-37.73m-32.8 37.73c8.59-9.2 15.83-16.77 32.8-37.73m-27.82 38.09c13.84-14.68 26.16-32.08 32.81-37.73m-32.81 37.73c13.29-14.24 25.82-28.5 32.81-37.73m-27.16 37.34c7.6-9.86 16.54-19.26 32.14-36.98m-32.14 36.98c7.91-9.24 16.69-18.93 32.14-36.98m-27.16 37.34c11.1-12.27 19.44-22.9 32.81-37.74m-32.81 37.74c7.63-8.8 14.97-17.2 32.81-37.74m-27.82 38.1c13.51-12.13 22.61-28.53 32.8-37.74m-32.8 37.74c9.45-11.9 18.69-21.83 32.8-37.74m-27.16 37.34c9.8-13.95 21.98-24.41 32.81-37.73m-32.81 37.73c6.11-7.96 13.41-16.29 32.81-37.73m-27.82 38.09c11.52-13 19-24.17 32.8-37.73m-32.8 37.73c10.81-12.79 21-24.49 32.8-37.73m-27.16 37.34c9.24-12.01 23.48-26.93 32.81-37.74m-32.81 37.74c12.6-14.06 25.79-29.21 32.81-37.74m-27.82 38.1c9.43-11.23 17.8-22.43 32.8-37.74m-32.8 37.74c11.57-14.45 25.17-27.26 32.8-37.74m-27.16 37.34c12.12-14.33 26.52-30.88 32.81-37.73m-32.81 37.73c8.34-9.09 17.87-19.91 32.81-37.73m-27.82 38.09c7.06-8.89 13.68-16.23 32.8-37.73m-32.8 37.73c8.03-10.15 17.72-20.85 32.8-37.73m-27.16 37.34c9.78-11.8 19.3-19.1 32.15-36.98m-32.15 36.98c8.94-11.79 20.41-22.33 32.15-36.98m-27.16 37.34c10.93-14.13 19.17-24.88 32.8-37.74m-32.8 37.74c10.37-9.79 17.95-21.33 32.8-37.74m-27.16 37.35c13.07-13.9 24.58-27.15 32.15-36.99m-32.15 36.99c12.71-13.86 23.15-26.87 32.15-36.99m-27.16 37.35c9.68-9.12 17.14-23.7 32.8-37.74m-32.8 37.74c10.87-11.98 21.11-23.76 32.8-37.74m-27.81 38.1c9.9-10.74 22.1-23.6 32.8-37.74m-32.8 37.74c7.94-10.64 17.68-19.03 32.8-37.74m-27.16 37.34c10.22-12.91 22.39-24.83 32.8-37.73m-32.8 37.73c8.57-8.79 16.95-18.26 32.8-37.73M418 411.04c7.98-7.49 14.71-17.33 32.8-37.73M418 411.04c11.06-13.68 24.11-27.92 32.8-37.73m-27.16 37.34c12.14-13.47 25.18-30.82 32.8-37.74m-32.8 37.74c9.75-10.4 18.07-22.03 32.8-37.74m-27.81 38.1c10.45-8.46 19.74-19.9 32.8-37.74m-32.8 37.74c8.75-9.15 17.43-19.68 32.8-37.74m-27.16 37.34c5.61-7.74 12.35-14.47 32.8-37.73m-32.8 37.73c10.96-12.84 24.45-26.19 32.8-37.73m-27.81 38.09c5.18-6.11 12.26-14.05 30.18-34.71m-30.18 34.71c9.43-11.08 18.91-22.77 30.18-34.71m-24.54 34.32c9.07-8.72 15.83-20.65 24.93-28.68m-24.93 28.68c6.45-7.39 14.05-16.37 24.93-28.68m-19.94 29.04c3.83-7.01 9-12.65 19.68-22.64m-19.68 22.64c3.52-5.88 8.63-9.62 19.68-22.64m-14.69 23c5.35-8.27 11.87-13.08 15.08-17.36m-15.08 17.36c4.52-3.87 7.93-8.32 15.08-17.36m-9.44 16.96c2.35-2.72 6.89-7.86 9.18-10.56m-9.18 10.56c2.43-3.08 5.85-6.91 9.18-10.56"/><path stroke="#FFF" d="M300 370c39.52 1.96 80.22 1.32 160 0m-160 0c60.59.35 119.98.99 160 0m0 0c5.64-.82 8.5 2.22 10 10m-10-10c5.75 2.22 8.28 1.65 10 10m0 0c-1.26 7.58-1.07 14.59 0 20m0-20c-.89 7.65.2 15.41 0 20m0 0c1.55 6.52-2.95 9.98-10 10m10-10c1.66 5.77-4.02 11.73-10 10m0 0c-54.57 2.53-113.38 2.09-160 0m160 0c-37.54-.17-73.79.36-160 0m0 0c-6.35 1.38-10.89-1.91-10-10m10 10c-8.37.02-10.01-5.42-10-10m0 0c-.27-5.89-1.47-12.24 0-20m0 20c-.27-6.49.06-10.91 0-20m0 0c1.24-4.88 2.51-9.62 10-10m-10 10c.72-6.2 4.95-8.34 10-10"/></g><text x="40.552" fill="#FFF" dominant-baseline="text-before-edge" font-family="Virgil, Segoe UI Emoji" font-size="16" style="white-space:pre" text-anchor="middle" transform="translate(339.448 380)">Select env</text><g fill="none" stroke-linecap="round"><path stroke="#e64980" stroke-width=".5" d="M112.66 472.31s0 0 0 0m0 0s0 0 0 0m.4 5.65c2.65-2.94 4.15-5.39 7.21-8.3m-7.21 8.3c1.66-2.52 3.95-4.91 7.21-8.3m-7.48 14.69c3.01-3.04 4.96-7.71 10.5-12.07m-10.5 12.07c2.03-3.21 4.61-6.09 10.5-12.07m-10.76 18.47c7.96-5.58 13.26-14.49 15.75-18.11m-15.75 18.11c4.78-6.07 10.46-12.07 15.75-18.11m-15.35 23.76c8.39-8.39 14.82-16.99 20.99-24.16m-20.99 24.16c7.7-9.57 16.09-19.62 20.99-24.16m-21.25 30.55c6.92-9.51 14.69-15.6 26.24-30.19m-26.24 30.19c7.23-8.13 15.39-16.58 26.24-30.19m-25.85 35.84c8.23-13.57 17.55-22.4 30.84-35.47m-30.84 35.47c10.88-13.4 23.55-26.55 30.84-35.47m-26.51 36.58c9.02-12.97 19.61-25.8 32.15-36.98m-32.15 36.98c8.2-9.12 17.5-20.45 32.15-36.98m-28.47 38.85c6.2-9.3 16.24-18.18 33.46-38.49m-33.46 38.49c13.3-16.01 26.57-30.34 33.46-38.49m-27.82 38.1c8.63-11.47 15.29-19.98 33.46-38.49m-33.46 38.49c13.38-13.74 25.98-28.51 33.46-38.49m-28.47 38.85c9.72-11.81 22.55-26.14 33.46-38.49m-33.46 38.49c12.49-14.74 24.6-28.1 33.46-38.49m-27.82 38.09c8.87-12.28 20.14-21.76 33.46-38.49m-33.46 38.49c9.15-10.25 18.74-21.19 33.46-38.49m-28.47 38.85c12.75-14.44 23.25-26.66 33.46-38.49m-33.46 38.49c10.2-10.31 18.8-22.37 33.46-38.49m-27.82 38.1c10.92-14.01 24.59-26.45 33.46-38.49m-33.46 38.49c10.87-11.69 20.97-23.33 33.46-38.49m-28.47 38.85c9.2-10.55 16.11-16.7 33.46-38.49m-33.46 38.49c7.86-9.76 18.14-20.24 33.46-38.49m-27.82 38.09c12.34-13.38 23.27-27.09 33.46-38.49m-33.46 38.49c9.71-9.97 18.65-20.62 33.46-38.49m-28.47 38.85c5.52-6.89 12.04-16.35 33.46-38.49m-33.46 38.49c8.84-11.58 19.32-21.8 33.46-38.49m-27.82 38.1c9.61-9.33 17.26-22.85 33.46-38.49m-33.46 38.49c7.88-7.72 14.27-16.43 33.46-38.49m-28.47 38.85c7.15-10.78 16.77-20.75 33.46-38.49m-33.46 38.49c8.49-11.32 17.44-21.85 33.46-38.49m-27.82 38.09c9.94-10.46 17.3-18.37 33.46-38.49m-33.46 38.49c6.55-7.99 12.78-15.99 33.46-38.49m-28.47 38.85c12.62-13.26 23.03-26.77 33.46-38.49m-33.46 38.49c7.54-8.4 15.46-16.26 33.46-38.49m-27.82 38.1c11.08-13.18 21.52-26.36 33.46-38.49m-33.46 38.49c12.51-14.16 25.5-30.16 33.46-38.49m-28.47 38.85c11.83-12.96 25.46-29.07 33.46-38.49m-33.46 38.49c13.8-15.33 27.2-31.08 33.46-38.49m-27.82 38.09c8.27-11.51 19.09-25.54 33.46-38.49m-33.46 38.49c10.97-12.92 23.56-25.45 33.46-38.49m-28.47 38.85c10.06-11.56 15.96-19.34 33.46-38.49m-33.46 38.49c8.55-9.33 17-19.77 33.46-38.49m-28.48 38.85c9.47-11.59 18.31-22.57 34.12-39.24m-34.12 39.24c11.17-12.63 21.18-24.66 34.12-39.24m-28.47 38.85c10.91-10.4 20.68-22.53 33.46-38.49m-33.46 38.49c6.87-7.51 13.56-15.55 33.46-38.49m-28.48 38.85c7.04-10.67 19.39-22.53 33.46-38.49m-33.46 38.49c11.21-13.46 23.41-27.2 33.46-38.49m-27.81 38.1c12.89-15.15 25.2-30.55 33.46-38.49m-33.46 38.49c10.74-13.76 22.85-26.52 33.46-38.49m-28.47 38.85c9.54-8.4 16.68-18.38 33.45-38.49m-33.45 38.49c7.98-9.85 14.68-18.07 33.45-38.49M238 511.04c8.21-9.69 15.3-19.67 33.46-38.49M238 511.04c7.85-9.26 18.32-20.08 33.46-38.49m-28.47 38.85c10.23-12.63 23.42-26.22 33.45-38.49m-33.45 38.49c8.51-10.88 18.3-20.47 33.45-38.49m-27.81 38.1c7.54-9.77 14.53-15.45 33.46-38.49m-33.46 38.49c7.93-7.21 15.3-16.19 33.46-38.49m-28.47 38.85c10.16-11.52 19-23.27 33.45-38.49m-33.45 38.49c12.41-13.09 23.08-27.5 33.45-38.49m-27.81 38.09c6.98-8.26 15.72-15.09 33.46-38.49m-33.46 38.49c7.89-10.41 16.73-20.15 33.46-38.49m-28.47 38.85c9.69-9.28 19.73-22.23 33.45-38.49m-33.45 38.49c11.37-12.74 21.34-25.46 33.45-38.49m-27.81 38.1c6.83-11.19 17.78-18.91 33.46-38.49m-33.46 38.49c12.93-15.25 27.59-30.32 33.46-38.49m-28.47 38.85c13.08-14.59 26.67-28.59 33.45-38.49m-33.45 38.49c10.3-12.84 22.12-24.31 33.45-38.49m-27.81 38.09c8.43-9.43 15.2-18.28 33.46-38.49m-33.46 38.49c10.4-11.38 20.81-22.3 33.46-38.49m-28.47 38.85c11.03-14.43 24.86-30.46 33.45-38.49m-33.45 38.49c9.45-11.05 18.55-22.49 33.45-38.49m-27.81 38.1c8.75-12.65 18.69-21.08 33.46-38.49m-33.46 38.49c11.95-13.48 24.08-27.02 33.46-38.49m-28.47 38.85c13.99-13.64 25.33-29.54 33.45-38.49m-33.45 38.49c9.12-10.1 18.62-22.73 33.45-38.49m-27.81 38.09c9.44-11.71 19.47-22.86 33.46-38.49m-33.46 38.49c7.87-10.77 16.13-18.55 33.46-38.49m-28.47 38.85c7.03-8.4 15.59-19.58 34.77-40m-34.77 40c11.05-13.59 23.61-26.61 34.77-40m-29.13 39.61c11.93-14.27 25.14-29.69 33.46-38.49m-33.46 38.49c12.84-14.82 24.64-29.59 33.46-38.49m-28.47 38.85c12.56-14.77 23.42-27.27 31.49-36.23m-31.49 36.23c12.86-13.52 24.28-28.77 31.49-36.23m-25.85 35.84c10.23-13.33 22.14-21.59 28.87-33.21m-28.87 33.21c11.32-13.17 21.67-25.42 28.87-33.21m-23.88 33.57c5.92-7.16 9.7-10.05 23.61-27.17m-23.61 27.17c8.83-11.04 19.3-22.54 23.61-27.17m-18.63 27.53c6.59-5.19 8.46-10.82 19.03-21.89m-19.03 21.89c5.44-6.46 9.31-10.99 19.03-21.89m-13.38 21.49c2.59-3.99 4.24-6.41 13.77-15.85m-13.77 15.85c4.96-6.28 11.54-11.44 13.77-15.85m-9.44 16.97c3.76-1.93 6.28-5.29 9.18-10.57m-9.18 10.57c2.57-2.06 4.7-6.07 9.18-10.57"/><path stroke="#FFF" d="M120 470c75.71.35 154.5 1.06 220 0m-220 0c87.1 1.9 173.34 2.01 220 0m0 0c4.67-.67 11.31 2.26 10 10m-10-10c4.93.81 11.46 1.41 10 10m0 0c.74 3.08 1.69 8.67 0 20m0-20c.22 6.87-.21 14.79 0 20m0 0c.93 7.95-2.5 10.81-10 10m10-10c1.7 6.46-1.5 11.8-10 10m0 0c-81.15 2.1-162.57 2.02-220 0m220 0c-66.54.48-132.76.8-220 0m0 0c-5.79 1.28-9.01-2.69-10-10m10 10c-5.75-2.03-10.63-2.79-10-10m0 0c-1.83-4.67.55-10.12 0-20m0 20c-.87-5.98-.92-10.89 0-20m0 0c-.84-6.78 4.37-11.12 10-10m-10 10c-.62-7.24 4.97-11.28 10-10"/></g><text x="44.28" fill="#FFF" dominant-baseline="text-before-edge" font-family="Virgil, Segoe UI Emoji" font-size="16" style="white-space:pre" text-anchor="middle" transform="translate(185.72 480)">Click R icon</text><g fill="none" stroke-linecap="round"><path stroke="#40c057" stroke-width=".5" d="M153.33 572.89s0 0 0 0m0 0s0 0 0 0m-1.58 7.91c3.29-2.83 3.38-4.78 8.53-9.81m-8.53 9.81c2.54-1.84 4.67-4.56 8.53-9.81m-8.79 16.21c3.48-5.46 7.86-9.34 13.12-15.1m-13.12 15.1c5.17-4.68 8.93-10.35 13.12-15.1m-12.72 20.74c6.99-8.65 13.09-16 18.37-21.13m-18.37 21.13c3.34-4.88 7.66-9.35 18.37-21.13m-18.63 27.53c6.23-8.96 15.11-15.84 23.61-27.17m-23.61 27.17c8.76-9.98 14.78-19.35 23.61-27.17m-23.88 33.57c10.17-12.77 19.18-21.63 29.53-33.97m-29.53 33.97c8.42-10.09 15.77-19.4 29.53-33.97m-29.13 39.61c8.18-10.37 17.95-18.41 34.11-39.25m-34.11 39.25c9.58-11.16 18.19-20.41 34.11-39.25m-32.4 43.38c8.76-12.25 19.12-24.71 37.39-43.02m-37.39 43.02c12.74-13.88 23.41-28.6 37.39-43.02m-35.03 46.4c12.71-12.61 25.75-26.61 40.67-46.79m-40.67 46.79c15.12-18.54 31.05-35.47 40.67-46.79m-37.65 49.42c15.26-15.69 27.24-32.26 42.64-49.06m-42.64 49.06c13.6-15.46 25.82-29.81 42.64-49.06m-37 48.66c15.37-16.69 30.24-32.64 42.64-49.05m-42.64 49.05c10.41-12.32 21.61-25.81 42.64-49.05m-37.65 49.41c11.54-13.28 26.3-29.79 42.64-49.05m-42.64 49.05c10.6-14.32 23.02-27.07 42.64-49.05m-37 48.66c15.46-17.49 31.87-36.22 42.64-49.06m-42.64 49.06c16.49-17.88 32.08-37 42.64-49.06m-37.65 49.42c14.72-17.8 28.9-30.72 42.64-49.06m-42.64 49.06c9.95-12.64 22.12-26.1 42.64-49.06m-37 48.66c13.32-16.11 30.43-33.68 41.99-48.3m-41.99 48.3c15.05-16.88 29.01-33.18 41.99-48.3m-37 48.66c14.9-17.02 26.35-30.81 42.64-49.05m-42.64 49.05c16.22-19.48 34.66-39.92 42.64-49.05m-37 48.66c11.89-10.66 22.32-24.01 41.99-48.3m-41.99 48.3c15.53-17.96 29.69-34.62 41.99-48.3m-37 48.66c12.43-13.55 20.72-26.38 42.64-49.06m-42.64 49.06c8.76-10.27 18.77-21.87 42.64-49.06m-37.66 49.42c16.52-19.2 32.78-39.17 42.65-49.06m-42.65 49.06c11.29-11.47 21.26-24.27 42.65-49.06m-37 48.66c14.17-13.42 24.88-25.89 42.64-49.05M212 621.24c14.59-17.73 30.62-36.01 42.64-49.05m-37.66 49.41c9.75-14.19 24-27.66 42.65-49.05m-42.65 49.05c11.47-12.99 22.69-25.16 42.65-49.05m-37 48.66c10.19-12.5 22.36-25.68 42.64-49.06m-42.64 49.06c9.89-13.81 21.79-26.14 42.64-49.06m-37.66 49.42c9.7-11.32 18.4-19.22 42.65-49.06m-42.65 49.06c16.79-18.36 32.07-38.59 42.65-49.06m-37 48.66c18.25-17.89 32.94-35.63 41.99-48.3m-41.99 48.3c9.88-10.67 18.57-21.71 41.99-48.3m-37.01 48.66c10.23-10.14 19.27-22.85 42.65-49.05m-42.65 49.05c9.95-12 21.67-24.39 42.65-49.05m-37.66 49.41c15.9-17.8 32.13-36.08 42.65-49.05m-42.65 49.05c17.2-20.78 34.14-38.77 42.65-49.05m-37.01 48.66c7.75-11.71 18.11-21.55 42.65-49.06m-42.65 49.06c11.14-12.25 20.73-24.58 42.65-49.06m-37.66 49.42c9.14-10.35 15.17-18.11 42.65-49.06m-42.65 49.06c8.51-9.58 18.44-20.37 42.65-49.06m-37.01 48.67c17.5-15.96 28.61-34.74 43.96-50.57m-43.96 50.57c10.47-11.99 20.67-24.46 43.96-50.57m-38.97 50.93c12.52-16.85 27.72-28.42 41.99-48.31m-41.99 48.31c10.41-13.51 22.34-25.38 41.99-48.31m-36.35 47.91c9.7-11.34 17.44-20.3 39.37-45.28m-39.37 45.28c14.08-16.72 28.87-33.77 39.37-45.28m-34.38 45.64c13.18-13.69 28.35-28.2 36.09-41.51m-36.09 41.51c11.42-12.4 22.2-25.57 36.09-41.51m-30.45 41.12c6.24-6.21 13.94-16.16 30.18-34.72m-30.18 34.72c9.61-11 19.03-21.03 30.18-34.72m-25.19 35.08c10.56-12.14 18.44-22.59 24.93-28.68m-24.93 28.68c6.57-7.15 13.49-14.08 24.93-28.68m-19.94 29.04c3.76-5.09 9.45-12.9 19.68-22.64m-19.68 22.64c5.52-5.77 8.26-9.48 19.68-22.64m-12.73 20.73c4.24-5.69 8.04-7.5 13.13-15.09m-13.13 15.09c3.89-4.47 7.99-8.63 13.13-15.09m-6.17 13.19c1.84-1.82 2.47-2.57 4.59-5.28m-4.59 5.28c1.95-1.63 3.12-3.57 4.59-5.28"/><path stroke="#FFF" d="M162.5 570c29.43 1.27 61.44 2.32 135 0m-135 0c43.32-.14 85.22.6 135 0m0 0c6.52-.2 13.36 3.25 12.5 12.5M297.5 570c8.13-.1 10.91 3.44 12.5 12.5m0 0c-.03 5.04.63 14.21 0 25m0-25c.41 9.36.43 18.8 0 25m0 0c1.44 9.14-2.87 14.2-12.5 12.5m12.5-12.5c1.04 9-4.93 12.06-12.5 12.5m0 0c-29.73-1.61-64.77-.71-135 0m135 0c-36.5-.88-72.82-.98-135 0m0 0c-8.27.59-13.59-6.12-12.5-12.5m12.5 12.5c-9.98 2.17-13.62-3.09-12.5-12.5m0 0c-1.52-8.71.9-17.81 0-25m0 25c.62-8.03.93-17.59 0-25m0 0c-1.9-9.58 4.35-13.37 12.5-12.5M150 582.5c-.52-6.72 4.77-11.75 12.5-12.5"/></g><text x="67.744" fill="#FFF" dominant-baseline="text-before-edge" font-family="Virgil, Segoe UI Emoji" font-size="16" style="white-space:pre" text-anchor="middle" transform="translate(162.256 585)">Click send button</text><g fill="none" stroke-linecap="round"><path stroke="#fa5252" stroke-width=".5" d="M32.66 112.31s0 0 0 0m0 0s0 0 0 0m-2.23 8.67c2.51-1.27 5.48-6.21 9.84-11.32m-9.84 11.32c3.01-2.52 5.26-5.65 9.84-11.32m-9.44 16.96c2.75-4.71 9.57-9.98 12.46-14.34m-12.46 14.34c4.99-5.23 8.72-9.34 12.46-14.34m-12.07 19.98c7.54-6.11 11.48-12.57 17.06-19.62m-17.06 19.62c3.98-5.93 10.57-12.14 17.06-19.62m-17.32 26.02c5.84-4.2 7.45-9.55 22.31-25.66m-22.31 25.66c4.12-5.03 9.59-10.58 22.31-25.66M30.7 145.06c9.92-11.35 22.27-25.09 28.21-32.46M30.7 145.06c9.34-9.46 17.66-19.02 28.21-32.46m-25.19 35.08c7.94-11.51 16.69-20.74 30.18-34.71m-30.18 34.71c10.37-11.26 20.21-23.46 30.18-34.71m-27.16 37.34c11.62-12.1 23.41-26.43 32.8-37.74m-32.8 37.74c9.39-10.86 20-22.74 32.8-37.74m-27.82 38.1c9.05-7.45 15.75-17.46 32.81-37.74m-32.81 37.74c10.89-11.11 20.16-23.93 32.81-37.74m-27.16 37.34c8.38-10.3 15.88-20.26 32.8-37.73m-32.8 37.73c8.12-9.36 18.81-19.66 32.8-37.73m-27.82 38.09C64.64 135.11 77.23 120 85.16 112.9m-32.81 37.73c12.31-14.02 22.18-26.4 32.81-37.73M58 150.24c11.45-13.21 25.35-25.62 32.14-36.98M58 150.24c8.96-10.34 18.66-20.66 32.14-36.98M62.98 150.6c12.5-13.34 22.41-23.41 32.81-37.74M62.98 150.6c6.41-8.04 14.44-16.03 32.81-37.74M68.63 150.2c6.18-8.98 15.59-19.62 32.14-36.98M68.63 150.2c13.25-13.56 24.84-27.6 32.14-36.98m-27.16 37.34c12.53-11.97 23.08-28.57 32.81-37.73m-32.81 37.73c7.55-9.06 15.86-17.01 32.81-37.73M78.6 150.92c8.39-12.78 19.61-24.73 32.8-37.73m-32.8 37.73c10.29-10.08 18.36-21.78 32.8-37.73m-27.16 37.34c11.01-11.41 19.98-23.93 32.81-37.74m-32.81 37.74c11.2-12.52 23.48-25.67 32.81-37.74m-27.82 38.1c11.07-12.3 24.49-26.11 32.8-37.74m-32.8 37.74c9.06-10.19 18.58-21.13 32.8-37.74m-27.16 37.34c13.51-13.52 25.19-31.18 32.81-37.73m-32.81 37.73c6.89-8.56 15.17-19.02 32.81-37.73m-27.82 38.09c7.88-8.13 11.68-15.33 32.8-37.73m-32.8 37.73c12.46-12.57 23.48-27.17 32.8-37.73m-27.16 37.34c8.19-12.24 19.73-23.94 32.15-36.98m-32.15 36.98c13.07-14.5 25.82-28.88 32.15-36.98m-27.16 37.34c7.89-11.73 18.68-18.7 34.77-40m-34.77 40c8.86-10.72 17.95-20.66 34.77-40m-29.13 39.6c7.71-9.28 13.74-14.27 31.49-36.22m-31.49 36.22c7.93-8.97 17.29-18.89 31.49-36.22m-26.5 36.58c7.24-8.9 16.67-19.84 29.52-33.96m-29.52 33.96c5.66-8.04 13.28-13.54 29.52-33.96m-24.53 34.32c4.73-7.91 13.11-15.68 24.27-27.92m-24.27 27.92c6.03-6.9 12.34-13.76 24.27-27.92m-18.63 27.53c7.57-5.91 11.5-13.55 19.03-21.89m-19.03 21.89c4.93-4.23 7.42-9.37 19.03-21.89m-14.04 22.25c6.19-3.67 10.11-8.34 13.78-15.85m-13.78 15.85c3.62-3.06 6.9-7.23 13.78-15.85m-8.8 16.21c2.23-2.89 2.96-2.93 9.19-10.57m-9.19 10.57c2.96-4.43 6.72-7.72 9.19-10.57"/><path stroke="#FFF" d="M40 110c26.16-.84 57.04 1.08 100 0m-100 0c28.43-.78 54.07-.66 100 0m0 0c5.81 1.37 9.67 2.07 10 10m-10-10c8.81 1.1 9.38 3.43 10 10m0 0c.65 6.66-1.36 10.54 0 20m0-20c-.69 4.71.53 8.04 0 20m0 0c.38 6.93-3.88 8.36-10 10m10-10c-1.22 6.79-3.49 7.94-10 10m0 0c-26.61 1.53-54.35-.31-100 0m100 0c-29.7-1-60.7-.79-100 0m0 0c-8.21-1.17-11.28-5.27-10-10m10 10c-6.51 1.99-11.6-2.66-10-10m0 0c-.45-4.46-1.68-11.03 0-20m0 20c-.59-8.02.6-15.32 0-20m0 0c.94-8.19 4.44-8.15 10-10m-10 10c-1.85-8.73 4.6-10.26 10-10"/></g><text x="45.704" fill="#FFF" dominant-baseline="text-before-edge" font-family="Virgil, Segoe UI Emoji" font-size="16" style="white-space:pre" text-anchor="middle" transform="translate(44.296 120)">Add project</text><g stroke-linecap="round"><path fill="none" stroke="#FFF" d="M230.26 49.94c-19.72 3.18-96.21 9.65-119.6 19.5-23.38 9.84-17.43 32.73-20.71 39.58m138.99-60.16c-19.73 3.31-95.58 11.66-118.88 21.82-23.3 10.16-17.84 32.89-20.9 39.14"/><path fill="none" stroke="#FFF" d="M84.77 88.98c.14 3.53.37 9.93 5.22 21.68m-4.67-23.27c1.5 5.29 1.66 8.92 4.53 23.12"/><path fill="none" stroke="#FFF" d="M99.88 91.35c-3.12 3.06-6.15 8.95-9.89 19.31m10.44-20.89c-1.72 4.72-4.76 7.84-10.58 20.74"/></g><g stroke-linecap="round"><path fill="none" stroke="#FFF" d="M230.96 49.33c16.68 3.21 74.95 10.5 98.29 20.75 23.35 10.25 34.93 34.28 41.78 40.75M230 51.6c17.14 3.34 78.11 10.5 101.57 20.05 23.47 9.56 32.7 30.98 39.23 37.28"/><path fill="none" stroke="#FFF" d="M345.84 92.48c6.88 6.3 13.68 8.67 23.15 16.38M345.98 93.2c5.8 3.82 11.49 7.79 24.13 15.79"/><path fill="none" stroke="#FFF" d="M361.2 80.71c3.39 9.15 6.63 14.25 7.79 28.15m-7.65-27.44c2.63 6.32 5.11 12.75 8.77 27.57"/></g><g stroke-linecap="round"><path fill="none" stroke="#FFF" d="M89.18 149.11c6.84 2.98 26.24 13.15 41.05 19.75 14.81 6.61 39.97 16.42 47.82 19.89m-87.09-37.49c6.77 3 24.09 12.1 38.45 18.54 14.36 6.45 39.77 17.19 47.7 20.14M149.67 189.52c5.62-.55 13.13-1.61 28.55 2.2m-26.92-1.77c8.65-.96 17.67-.92 25.92.92"/><path fill="none" stroke="#FFF" d="M156.26 173.02c4.22 3.23 10.2 6 21.96 18.7m-20.33-18.28c6.45 4.57 13.25 10.14 19.33 17.43"/></g><g stroke-linecap="round"><path fill="none" stroke="#FFF" d="M369.94 150.47c-9.89 3.35-42.7 12.61-58.96 19.11-16.26 6.51-32.07 16.56-38.58 19.92m96.06-39.82c-10 3.55-41.81 14.93-57.92 21.22-16.1 6.3-32.3 13.74-38.7 16.53"/><path fill="none" stroke="#FFF" d="M287.93 174.32c-6.59 3.89-10.11 7.95-14.78 12.12m14.21-13.72c-5.47 5.58-10.62 9.26-15.61 15.39"/><path fill="none" stroke="#FFF" d="M293.82 187.6c-8.48-.5-13.94-.81-20.67-1.16m20.1-.44c-7.5 1.21-14.58.55-21.5 2.11"/></g><g stroke-linecap="round"><path fill="none" stroke="#FFF" d="M232.935 221.43c-.58 8.22-2.22 40.09-2.79 47.98m1.52-48.8c-.83 7.94-1.89 38.66-2.43 46.89M222.865 244.66c2.53 7.77 4.23 15.98 4.45 24.5m-6-23.81c3.53 6.16 6.66 14.9 7.03 22.81"/><path fill="none" stroke="#FFF" d="M239.285 245.47c-3.84 7.51-8.51 15.39-11.97 23.69m10.42-23c-1.99 5.84-4.38 14.3-9.39 22"/></g><g stroke-linecap="round"><path fill="none" stroke="#FFF" d="M222.786 327.71c-21.09 6.89-104.91 33.73-126.14 40.68m124.78-41.88c-21.24 7.13-104.17 36.31-125.34 43.1"/><path fill="none" stroke="#FFF" d="M119.016 352.1c-8.86 4.53-15.35 13.32-21.57 15.63m22.73-16.2c-5.85 3.55-11.48 8.97-24.53 18.39"/><path fill="none" stroke="#FFF" d="M125.596 371.54c-11-2.26-19.79-.25-28.15-3.81m29.31 3.24c-7.32-.99-14.51-.16-31.11-1.05"/></g><g stroke-linecap="round"><path fill="none" stroke="#FFF" d="M244.356 330.81c23.75 6.27 117.72 31.25 141.24 37.74m-142.27-38.37c23.68 6.37 117.99 33.4 141.59 39.67M356.346 373.05c5.68-1.04 15.46-3.17 29.19-1.98m-30.55 1.32c6.66-.76 11.69-1.15 30.53-2.05"/><path fill="none" stroke="#FFF" d="M361.836 353.28c4.39 4.15 12.74 7.17 23.7 17.79m-25.07-18.46c5.49 3.23 9.41 6.83 25.05 17.73"/></g><g stroke-linecap="round"><path fill="none" stroke="#FFF" d="M95.106 410.58c20.89 9.81 104.01 48.42 125.04 58.2m-126.48-59.46c20.72 10.08 104.13 50.65 125.34 60.89"/><path fill="none" stroke="#FFF" d="M188.466 466.53c8.68 2.71 17.89 2.33 31.69 3.27m-30.68-3.18c7.65.84 15.96 2.07 30.41 4.05"/><path fill="none" stroke="#FFF" d="M197.416 448.06c6.01 7.9 12.71 12.7 22.74 21.74m-21.73-21.65c5.17 5.69 11.15 11.74 21.46 22.52"/></g><g stroke-linecap="round"><path fill="none" stroke="#FFF" d="M380.01 410.51c-23.31 9.77-116.44 48.67-139.69 58.51m138.35-59.81c-23.43 10.03-115.79 51.65-138.85 61.36"/><path fill="none" stroke="#FFF" d="M260.71 451.29c-6.45 7.24-12.76 12.92-19.09 18.51m19.88-19.07c-7.86 6.5-15.94 14.14-22.18 19.39"/><path fill="none" stroke="#FFF" d="M268.94 470.09c-9.08 1.02-18.12.46-27.32-.29m28.11-.27c-10.87-.3-21.93.52-30.41.59"/></g><g stroke-linecap="round"><path fill="none" stroke="#FFF" d="M230.733 510.02c.27 9.69.58 48.63.59 58.29m-1.88-56.18c.15 9.89.17 47.91.8 57.36"/><path fill="none" stroke="#FFF" d="M217.923 542.14c2.88 5.56 4.96 14.31 12.66 25.42m-10.56-25.21c2.69 6.78 4.61 11.95 10.13 26.93M237.753 541.56c-1.91 5.76-4.61 14.65-7.17 26m9.28-25.78c-1.68 6.83-4.12 12.13-9.71 27.5"/></g></svg>